<svg width="100" height="100" viewBox="0 0 100 100" fill="none" xmlns="http://www.w3.org/2000/svg">
<circle opacity="0.2" cx="50" cy="50" r="42" fill="#FF941A"/>
<g filter="url(#filter0_f_138_1456)">
<ellipse cx="50" cy="79" rx="16" ry="4" fill="#9B5F1F"/>
</g>
<path d="M50.4283 80.4406C68.1018 80.4406 82.429 66.3646 82.429 49.0011C82.429 31.6375 68.1018 17.5615 50.4283 17.5615C32.7549 17.5615 18.4277 31.6375 18.4277 49.0011C18.4277 66.3646 32.7549 80.4406 50.4283 80.4406Z" fill="#EC3A09"/>
<path d="M50.4283 17.5615C42.2646 17.5527 34.4085 20.6211 28.4791 26.1343C25.3361 29.8137 23.1417 34.183 22.0819 38.8722C21.0221 43.5615 21.128 48.4326 22.3906 53.0731C23.6533 57.7136 26.0355 61.9869 29.3356 65.5311C32.6356 69.0753 36.7564 71.786 41.3489 73.4338C45.9414 75.0815 50.8705 75.6178 55.7187 74.9971C60.5669 74.3765 65.1915 72.6172 69.2009 69.8683C73.2103 67.1193 76.4864 63.4617 78.7519 59.205C81.0174 54.9483 82.2055 50.218 82.2156 45.4145C81.3196 37.7484 77.5853 30.6737 71.7237 25.5376C65.862 20.4015 58.2825 17.5626 50.4283 17.5615Z" fill="#FFAF59"/>
<path d="M50.4283 17.5615C42.2646 17.5527 34.4085 20.6211 28.4791 26.1343C25.3361 29.8137 23.1417 34.183 22.0819 38.8722C21.0221 43.5615 21.128 48.4326 22.3906 53.0731C23.6533 57.7136 26.0355 61.9869 29.3356 65.5311C32.6356 69.0753 36.7564 71.786 41.3489 73.4338C45.9414 75.0815 50.8705 75.6178 55.7187 74.9971C60.5669 74.3765 65.1915 72.6172 69.2009 69.8683C73.2103 67.1193 76.4864 63.4617 78.7519 59.205C81.0174 54.9483 82.2055 50.218 82.2156 45.4145C81.3196 37.7484 77.5853 30.6737 71.7237 25.5376C65.862 20.4015 58.2825 17.5626 50.4283 17.5615Z" fill="url(#paint0_radial_138_1456)"/>
<path d="M50.0001 64.7857C64.9178 64.7857 77.011 57.8993 77.011 49.4046C77.011 40.9098 64.9178 34.0234 50.0001 34.0234C35.0824 34.0234 22.9893 40.9098 22.9893 49.4046C22.9893 57.8993 35.0824 64.7857 50.0001 64.7857Z" fill="url(#paint1_radial_138_1456)"/>
<path opacity="0.7" d="M60.4671 22.3797C43.8314 17.2722 29.9024 26.0073 34.4153 35.278C38.9282 44.5486 64.3646 49.7885 72.9801 43.944C79.8348 39.294 73.5955 26.4104 60.4671 22.3797Z" fill="url(#paint2_linear_138_1456)"/>
<path d="M39.9665 32.3768C38.7424 32.0333 37.4224 31.8284 36.2043 32.1916C35.6414 32.3596 35.0518 32.7371 35.0002 33.3098C34.9963 33.5105 35.0436 33.7089 35.138 33.8871C35.2324 34.0653 35.3708 34.2177 35.5408 34.3305C35.8827 34.5522 36.2607 34.7159 36.6585 34.8146C38.3702 35.3402 40.0818 35.8659 41.7935 36.3915C43.1054 36.7944 44.4172 37.1973 45.729 37.6002C46.395 37.8047 47.0611 38.0092 47.7271 38.2137C48.2855 38.386 48.8115 38.5139 48.4065 37.8246C47.4094 36.1276 45.1096 34.6786 43.4028 33.7634C42.3135 33.1783 41.161 32.7132 39.9665 32.3768Z" fill="#822E0A"/>
<path fill-rule="evenodd" clip-rule="evenodd" d="M36.7922 34.3326L47.7183 37.688C47.2603 37.0609 46.6082 36.4572 45.8697 35.8999C44.9849 35.2324 44.0076 34.655 43.1665 34.204C42.1095 33.6363 40.9907 33.1847 39.8312 32.8582C38.6334 32.522 37.4266 32.3489 36.3472 32.6708C36.1121 32.7409 35.8898 32.8503 35.7307 32.9829C35.5809 33.1079 35.5148 33.228 35.5 33.3386C35.5009 33.4474 35.528 33.5552 35.5799 33.6531C35.6344 33.7561 35.7149 33.8455 35.8152 33.9125C36.1097 34.1031 36.4355 34.2441 36.7789 34.3293L36.7922 34.3326ZM35.5408 34.3305C35.3708 34.2177 35.2324 34.0653 35.138 33.8871C35.0436 33.7089 34.9963 33.5105 35.0002 33.3098C35.0518 32.7371 35.6414 32.3596 36.2043 32.1916C37.4224 31.8284 38.7424 32.0333 39.9665 32.3768C41.161 32.7132 42.3135 33.1783 43.4028 33.7634C45.1096 34.6786 47.4094 36.1276 48.4065 37.8246C48.8115 38.5139 48.2855 38.386 47.7271 38.2137L36.6585 34.8146C36.2607 34.7159 35.8827 34.5522 35.5408 34.3305ZM48.0536 38.2377C48.0535 38.2377 48.0534 38.2373 48.0532 38.2364L48.0536 38.2377Z" fill="#692508"/>
<path d="M59.649 26.6395C60.3198 26.2855 61.0511 25.983 61.8133 26.0007C62.5756 26.0185 63.3712 26.4298 63.6247 27.1321C63.9071 27.9143 63.4391 28.7948 62.7716 29.3075C62.1041 29.8201 61.2695 30.0652 60.4853 30.3834C57.8134 31.4675 55.611 33.4827 53.9834 35.8192C53.3167 36.7765 52.8578 36.3048 53.0403 35.3475C53.2207 34.4598 53.5063 33.5956 53.8914 32.7725C54.6407 31.129 55.7261 29.6526 57.0808 28.4337C57.8577 27.7343 58.7203 27.1316 59.649 26.6395Z" fill="#822E0A"/>
<path fill-rule="evenodd" clip-rule="evenodd" d="M60.4853 30.3834C60.6561 30.3141 60.8293 30.2483 61.0026 30.1824C61.6251 29.9458 62.2495 29.7084 62.7716 29.3075C63.4391 28.7948 63.9071 27.9143 63.6247 27.1321C63.3712 26.4298 62.5756 26.0185 61.8133 26.0007C61.0511 25.983 60.3198 26.2855 59.649 26.6395C58.7203 27.1316 57.8577 27.7343 57.0808 28.4337C55.7261 29.6526 54.6407 31.129 53.8914 32.7725C53.5063 33.5956 53.2207 34.4598 53.0403 35.3475C52.8578 36.3048 53.3167 36.7765 53.9834 35.8192C55.611 33.4827 57.8134 31.4675 60.4853 30.3834ZM53.5309 35.444C53.5184 35.5098 53.5101 35.5707 53.5053 35.6261C53.5269 35.5982 53.5496 35.5673 53.5732 35.5334C55.2418 33.1381 57.515 31.049 60.2973 29.9201L60.2973 29.9201C60.4938 29.8403 60.6836 29.768 60.8666 29.6983C61.475 29.4664 62.0086 29.2629 62.467 28.9109C63.0493 28.4638 63.3313 27.7919 63.1544 27.3019C62.9939 26.8572 62.4345 26.5153 61.8017 26.5006C61.1729 26.486 60.5366 26.7365 59.8826 27.0816C58.9902 27.5545 58.1615 28.1335 57.4154 28.8053L57.4153 28.8055C56.1111 29.9788 55.067 31.3995 54.3464 32.9799L54.3443 32.9843L54.3443 32.9843C53.9764 33.7708 53.7035 34.5962 53.5309 35.444Z" fill="#692508"/>
<path d="M47.9989 41.2345C48.0077 41.9683 47.9657 42.7018 47.8732 43.4301C47.1009 49.5696 43.0531 54.1371 38.8311 53.6322C34.6089 53.1254 31.8118 47.7362 32.584 41.5968C32.6976 40.687 32.8888 39.788 33.1557 38.9093C33.2274 38.6701 33.3468 38.447 33.5069 38.2528C33.667 38.0587 33.8647 37.8973 34.0887 37.7778C34.3127 37.6584 34.5587 37.5833 34.8124 37.5567C35.0662 37.5302 35.3229 37.5528 35.5677 37.6232L43.1099 39.8149L46.1888 40.7078L47.8772 41.1988L47.9989 41.2345Z" fill="url(#paint3_linear_138_1456)"/>
<mask id="mask0_138_1456" style="mask-type:alpha" maskUnits="userSpaceOnUse" x="32" y="37" width="16" height="17">
<path d="M47.9989 41.2345C48.0077 41.9683 47.9657 42.7018 47.8732 43.4301C47.1009 49.5696 43.0531 54.1371 38.8311 53.6322C34.6089 53.1254 31.8118 47.7362 32.584 41.5968C32.6976 40.687 32.8888 39.788 33.1557 38.9093C33.2274 38.6701 33.3468 38.447 33.5069 38.2528C33.667 38.0587 33.8647 37.8973 34.0887 37.7778C34.3127 37.6584 34.5587 37.5833 34.8124 37.5567C35.0662 37.5302 35.3229 37.5528 35.5677 37.6232L43.1099 39.8149L46.1888 40.7078L47.8772 41.1988L47.9989 41.2345Z" fill="url(#paint4_linear_138_1456)"/>
</mask>
<g mask="url(#mask0_138_1456)">
<path d="M46.0932 43.2162C46.0831 43.3013 46.0709 43.3844 46.0588 43.4696C45.3473 48.4311 42.1752 52.268 39.0496 51.8938C35.8714 51.5117 33.7249 46.8947 34.3634 41.8085C34.5407 40.3609 34.9468 38.949 35.5674 37.6231L43.1096 39.8148L46.1885 40.7077C46.2299 41.545 46.198 42.3842 46.0932 43.2162Z" fill="url(#paint5_linear_138_1456)"/>
<path d="M42.5632 42.1761L46.3091 39.0001L47.3658 42.5543L42.5632 42.1761Z" fill="#F5F5F5"/>
</g>
<g opacity="0.5" filter="url(#filter1_f_138_1456)">
<path d="M40.3828 45.8196C39.4698 45.8238 38.5856 46.0411 37.8729 46.4362C37.1602 46.8313 36.6607 47.3812 36.4552 47.9972L39.1378 48.6704L36.429 49.2718C36.604 49.7849 36.9842 50.2536 37.526 50.624C38.0679 50.9945 38.7495 51.2519 39.4928 51.3666C40.2361 51.4813 41.011 51.4487 41.7289 51.2726C42.4467 51.0965 43.0783 50.784 43.5515 50.3708C44.0247 49.9577 44.3202 49.4607 44.4043 48.9366C44.4884 48.4126 44.3576 47.8827 44.0269 47.4078C43.6962 46.9328 43.179 46.5319 42.5346 46.251C41.8901 45.9701 41.1444 45.8206 40.3828 45.8196Z" fill="url(#paint6_linear_138_1456)"/>
</g>
<g opacity="0.5" filter="url(#filter2_f_138_1456)">
<path d="M60.9546 45.8196C60.0416 45.8238 59.1574 46.0411 58.4447 46.4362C57.732 46.8313 57.2325 47.3812 57.027 47.9972L59.7096 48.6704L57.0008 49.2718C57.1758 49.7849 57.556 50.2536 58.0978 50.624C58.6397 50.9945 59.3213 51.2519 60.0646 51.3666C60.8079 51.4813 61.5829 51.4487 62.3007 51.2726C63.0185 51.0965 63.6501 50.784 64.1233 50.3708C64.5965 49.9577 64.892 49.4607 64.9761 48.9366C65.0602 48.4126 64.9294 47.8827 64.5987 47.4078C64.2681 46.9328 63.7509 46.5319 63.1064 46.251C62.4619 45.9701 61.7162 45.8206 60.9546 45.8196Z" fill="url(#paint7_linear_138_1456)"/>
</g>
<path d="M62.7277 55.6776C66.8626 55.1817 69.6018 49.9042 68.8458 43.8898C68.0897 37.8755 64.1248 33.402 59.9899 33.8979C55.855 34.3938 53.1158 39.6714 53.8718 45.6857C54.6279 51.7 58.5928 56.1735 62.7277 55.6776Z" fill="url(#paint8_linear_138_1456)"/>
<path d="M62.5139 53.9751C59.4005 54.3485 56.2414 50.4567 55.6154 45.4769C54.9894 40.497 57.0908 35.9744 60.2042 35.601C63.3175 35.2276 66.4768 39.1193 67.1028 44.0991C67.7288 49.079 65.6273 53.6017 62.5139 53.9751Z" fill="url(#paint9_linear_138_1456)"/>
<path d="M63.5633 42.176L67.3093 39L68.366 42.5542L63.5633 42.176Z" fill="#F5F5F5"/>
<path d="M64.9936 65.758C64.6308 64.4687 64.0117 63.2588 63.1706 62.195L63.1704 62.1948C62.3197 61.105 61.2883 60.1567 60.1174 59.3877C57.723 57.8274 54.8945 56.9953 52.0003 57H51.9844C49.095 56.9956 46.2713 57.8267 43.8812 59.3851C42.7096 60.1539 41.6778 61.1027 40.8273 62.1933C39.9863 63.2576 39.3679 64.4682 39.0063 65.7582C38.9947 65.8016 38.9992 65.8475 39.0189 65.8882C39.0386 65.9288 39.0724 65.9616 39.1145 65.981C39.1566 66.0003 39.2045 66.0051 39.2498 65.9944C39.2952 65.9838 39.3353 65.9584 39.3633 65.9225C40.8581 63.9693 42.8105 62.3809 45.063 61.2857C47.2166 60.2499 49.5922 59.7103 52.001 59.7099C54.4099 59.7095 56.7857 60.2482 58.9397 61.2832C61.1925 62.3779 63.1444 63.9673 64.6368 65.9223C64.6648 65.9582 64.7049 65.9837 64.7503 65.9944C64.7956 66.0051 64.8435 66.0003 64.8856 65.9809C64.9277 65.9615 64.9615 65.9287 64.9812 65.888C65.0009 65.8474 65.0053 65.8014 64.9936 65.758Z" fill="#822E0A"/>
<mask id="path-21-inside-1_138_1456" fill="white">
<path d="M64.9936 65.758C64.6308 64.4687 64.0117 63.2588 63.1706 62.195L63.1704 62.1948C62.3197 61.105 61.2883 60.1567 60.1174 59.3877C57.723 57.8274 54.8945 56.9953 52.0003 57H51.9844C49.095 56.9956 46.2713 57.8267 43.8812 59.3851C42.7096 60.1539 41.6778 61.1027 40.8273 62.1933C39.9863 63.2576 39.3679 64.4682 39.0063 65.7582C38.9947 65.8016 38.9992 65.8475 39.0189 65.8882C39.0386 65.9288 39.0724 65.9616 39.1145 65.981C39.1566 66.0003 39.2045 66.0051 39.2498 65.9944C39.2952 65.9838 39.3353 65.9584 39.3633 65.9225C40.8581 63.9693 42.8105 62.3809 45.063 61.2857C47.2166 60.2499 49.5922 59.7103 52.001 59.7099C54.4099 59.7095 56.7857 60.2482 58.9397 61.2832C61.1925 62.3779 63.1444 63.9673 64.6368 65.9223C64.6648 65.9582 64.7049 65.9837 64.7503 65.9944C64.7956 66.0051 64.8435 66.0003 64.8856 65.9809C64.9277 65.9615 64.9615 65.9287 64.9812 65.888C65.0009 65.8474 65.0053 65.8014 64.9936 65.758Z"/>
</mask>
<path d="M64.9936 65.758L65.4764 65.6279L65.4749 65.6226L64.9936 65.758ZM63.1706 62.195L63.5628 61.8849L63.5516 61.8707L63.5394 61.8573L63.1706 62.195ZM63.1704 62.1948L62.7763 62.5025L62.7884 62.5179L62.8016 62.5324L63.1704 62.1948ZM60.1174 59.3877L60.3918 58.9698L60.3903 58.9688L60.1174 59.3877ZM52.0003 57V57.5L52.0012 57.5L52.0003 57ZM51.9844 57L51.9836 57.5H51.9844V57ZM43.8812 59.3851L43.6081 58.9662L43.6069 58.967L43.8812 59.3851ZM40.8273 62.1933L41.2197 62.5033L41.2216 62.5008L40.8273 62.1933ZM39.0063 65.7582L38.5248 65.6232L38.5233 65.6291L39.0063 65.7582ZM39.3633 65.9225L39.7573 66.2303L39.7603 66.2264L39.3633 65.9225ZM45.063 61.2857L44.8462 60.8351L44.8443 60.836L45.063 61.2857ZM58.9397 61.2832L59.1582 60.8335L59.1563 60.8326L58.9397 61.2832ZM64.6368 65.9223L64.2394 66.2257L64.2423 66.2294L64.6368 65.9223ZM65.4749 65.6226C65.094 64.2689 64.4444 62.9998 63.5628 61.8849L62.7784 62.5051C63.5791 63.5178 64.1676 64.6685 64.5123 65.8934L65.4749 65.6226ZM63.5394 61.8573L63.5392 61.8571L62.8016 62.5324L62.8018 62.5326L63.5394 61.8573ZM63.5645 61.8871C62.6798 60.7537 61.6078 59.7683 60.3918 58.9698L59.8429 59.8056C60.9688 60.545 61.9596 61.4563 62.7763 62.5025L63.5645 61.8871ZM60.3903 58.9688C57.9134 57.3547 54.9895 56.4952 51.9995 56.5L52.0012 57.5C54.7994 57.4955 57.5325 58.3001 59.8444 59.8066L60.3903 58.9688ZM52.0003 56.5H51.9844V57.5H52.0003V56.5ZM51.9852 56.5C48.9998 56.4955 46.0807 57.3541 43.6081 58.9662L44.1543 59.8039C46.4618 58.2994 49.1902 57.4957 51.9836 57.5L51.9852 56.5ZM43.6069 58.967C42.3901 59.7655 41.3176 60.7515 40.4331 61.8858L41.2216 62.5008C42.038 61.4539 43.029 60.5423 44.1555 59.8031L43.6069 58.967ZM40.435 61.8833C39.5535 62.9988 38.9045 64.2688 38.5249 65.6232L39.4878 65.8931C39.8313 64.6676 40.4191 63.5164 41.2196 62.5033L40.435 61.8833ZM38.5233 65.6291C38.4805 65.7893 38.4972 65.9585 38.5692 66.1066L39.4686 65.6697C39.5011 65.7365 39.509 65.8139 39.4894 65.8873L38.5233 65.6291ZM38.5692 66.1066C38.6409 66.2542 38.7613 66.3688 38.9055 66.4351L39.3236 65.5268C39.3836 65.5544 39.4364 65.6033 39.4686 65.6697L38.5692 66.1066ZM38.9055 66.4351C39.0494 66.5014 39.2111 66.5172 39.3642 66.4812L39.1354 65.5077C39.1979 65.493 39.2639 65.4993 39.3236 65.5268L38.9055 66.4351ZM39.3642 66.4812C39.5176 66.4451 39.6574 66.3582 39.7573 66.2303L38.9692 65.6147C39.0131 65.5585 39.0728 65.5224 39.1354 65.5077L39.3642 66.4812ZM39.7603 66.2264C41.2069 64.3362 43.0979 62.7972 45.2816 61.7354L44.8443 60.836C42.5232 61.9647 40.5092 63.6024 38.9662 65.6186L39.7603 66.2264ZM45.2797 61.7363C47.3651 60.7333 49.6666 60.2103 52.0011 60.2099L52.0009 59.2099C49.5177 59.2103 47.068 59.7665 44.8462 60.8351L45.2797 61.7363ZM52.0011 60.2099C54.3356 60.2095 56.6373 60.7316 58.7232 61.7339L59.1563 60.8326C56.9341 59.7648 54.4842 59.2095 52.0009 59.2099L52.0011 60.2099ZM58.7212 61.733C60.9051 62.7941 62.7953 64.334 64.2394 66.2257L65.0343 65.6189C63.4936 63.6007 61.4799 61.9617 59.1582 60.8335L58.7212 61.733ZM64.2423 66.2294C64.3421 66.3577 64.4821 66.4449 64.6355 66.4811L64.865 65.5077C64.9277 65.5225 64.9875 65.5587 65.0314 65.6152L64.2423 66.2294ZM64.6355 66.4811C64.7888 66.5172 64.9507 66.5014 65.0948 66.4351L64.6764 65.5268C64.7362 65.4993 64.8024 65.493 64.865 65.5077L64.6355 66.4811ZM65.0948 66.4351C65.2391 66.3686 65.3596 66.2539 65.4312 66.106L64.5312 65.6701C64.5634 65.6035 64.6164 65.5545 64.6764 65.5268L65.0948 66.4351ZM65.4312 66.106C65.5031 65.9576 65.5195 65.7881 65.4764 65.6279L64.5108 65.8881C64.491 65.8147 64.4987 65.7371 64.5312 65.6701L65.4312 66.106Z" fill="#692508" mask="url(#path-21-inside-1_138_1456)"/>
<path d="M32.8439 17.0057C32.7856 16.9927 32.7244 17.0022 32.6731 17.0323C32.6218 17.0624 32.5844 17.1108 32.5689 17.1672L31.2865 21.7577C31.2446 21.9064 31.1513 22.0363 31.0225 22.1254C30.8937 22.2146 30.7373 22.2575 30.5799 22.2468L25.7919 21.9103C25.7326 21.9061 25.6738 21.9243 25.6279 21.9612C25.5819 21.998 25.5521 22.0507 25.5448 22.1084C25.5374 22.166 25.553 22.2243 25.5883 22.271C25.6236 22.3178 25.6759 22.3496 25.7345 22.3597L30.9299 23.2649C31.186 23.3093 31.4496 23.2526 31.6629 23.1073C31.8762 22.962 32.0217 22.7401 32.0677 22.4901L33.0215 17.2668C33.032 17.2093 33.0194 17.1501 32.9863 17.1015C32.9533 17.0528 32.9023 17.0185 32.8439 17.0057Z" fill="url(#paint10_linear_138_1456)"/>
<path d="M34.3969 17.2764C34.4563 17.2838 34.5104 17.3134 34.5478 17.359C34.5853 17.4046 34.6032 17.4626 34.5978 17.5209L34.1762 22.2613C34.1629 22.4149 34.2045 22.5683 34.2938 22.6955C34.3831 22.8226 34.5146 22.9157 34.6662 22.9589L39.278 24.2601C39.3351 24.2762 39.3838 24.3131 39.4139 24.3632C39.444 24.4133 39.4533 24.4728 39.4398 24.5294C39.4263 24.586 39.391 24.6354 39.3414 24.6673C39.2917 24.6993 39.2313 24.7114 39.1728 24.7012L33.9773 23.796C33.7214 23.7511 33.4941 23.6089 33.3454 23.4005C33.1967 23.1922 33.1386 22.9347 33.184 22.6847L34.1379 17.4614C34.1484 17.4039 34.1811 17.3526 34.2294 17.3181C34.2777 17.2837 34.3377 17.2687 34.3969 17.2764Z" fill="url(#paint11_linear_138_1456)"/>
<path d="M31.8599 31.168C31.9182 31.181 31.9795 31.1715 32.0308 31.1414C32.0821 31.1113 32.1194 31.0629 32.135 31.0065L33.4173 26.416C33.4593 26.2673 33.5525 26.1374 33.6813 26.0483C33.8101 25.9591 33.9665 25.9162 34.124 25.9269L38.9119 26.2634C38.9713 26.2676 39.03 26.2494 39.076 26.2125C39.122 26.1757 39.1517 26.123 39.1591 26.0653C39.1665 26.0077 39.1509 25.9494 39.1156 25.9027C39.0803 25.8559 39.0279 25.8241 38.9694 25.814L33.7739 24.9088C33.5179 24.8644 33.2543 24.9211 33.041 25.0664C32.8277 25.2117 32.6821 25.4336 32.6362 25.6836L31.6823 30.9069C31.6718 30.9644 31.6844 31.0236 31.7175 31.0722C31.7506 31.1209 31.8016 31.1552 31.8599 31.168Z" fill="url(#paint12_linear_138_1456)"/>
<path d="M30.3067 30.8976C30.2473 30.8901 30.1933 30.8605 30.1558 30.8149C30.1183 30.7693 30.1004 30.7113 30.1058 30.6531L30.5274 25.9126C30.5407 25.759 30.4992 25.6056 30.4099 25.4785C30.3206 25.3513 30.189 25.2583 30.0375 25.2151L25.4257 23.9139C25.3685 23.8978 25.3198 23.8609 25.2897 23.8108C25.2596 23.7606 25.2504 23.7011 25.2639 23.6445C25.2774 23.588 25.3126 23.5386 25.3623 23.5066C25.412 23.4747 25.4723 23.4625 25.5309 23.4728L30.7263 24.378C30.9823 24.4228 31.2095 24.565 31.3583 24.7734C31.507 24.9817 31.565 25.2392 31.5196 25.4893L30.5658 30.7125C30.5553 30.77 30.5225 30.8213 30.4742 30.8558C30.426 30.8903 30.366 30.9052 30.3067 30.8976Z" fill="url(#paint13_linear_138_1456)"/>
<path style="mix-blend-mode:multiply" opacity="0.15" d="M52.6692 73.3577C56.9048 73.3577 60.3385 71.039 60.3385 68.1788C60.3385 65.3186 56.9048 63 52.6692 63C48.4336 63 45 65.3186 45 68.1788C45 71.039 48.4336 73.3577 52.6692 73.3577Z" fill="url(#paint14_linear_138_1456)"/>
<defs>
<filter id="filter0_f_138_1456" x="27" y="68" width="46" height="22" filterUnits="userSpaceOnUse" color-interpolation-filters="sRGB">
<feFlood flood-opacity="0" result="BackgroundImageFix"/>
<feBlend mode="normal" in="SourceGraphic" in2="BackgroundImageFix" result="shape"/>
<feGaussianBlur stdDeviation="3.5" result="effect1_foregroundBlur_138_1456"/>
</filter>
<filter id="filter1_f_138_1456" x="31.429" y="40.8196" width="18.0002" height="15.6142" filterUnits="userSpaceOnUse" color-interpolation-filters="sRGB">
<feFlood flood-opacity="0" result="BackgroundImageFix"/>
<feBlend mode="normal" in="SourceGraphic" in2="BackgroundImageFix" result="shape"/>
<feGaussianBlur stdDeviation="2.5" result="effect1_foregroundBlur_138_1456"/>
</filter>
<filter id="filter2_f_138_1456" x="52.0008" y="40.8196" width="18.0002" height="15.6142" filterUnits="userSpaceOnUse" color-interpolation-filters="sRGB">
<feFlood flood-opacity="0" result="BackgroundImageFix"/>
<feBlend mode="normal" in="SourceGraphic" in2="BackgroundImageFix" result="shape"/>
<feGaussianBlur stdDeviation="2.5" result="effect1_foregroundBlur_138_1456"/>
</filter>
<radialGradient id="paint0_radial_138_1456" cx="0" cy="0" r="1" gradientUnits="userSpaceOnUse" gradientTransform="translate(58.3302 27.8024) rotate(-94.343) scale(41.7694 44.0398)">
<stop stop-color="#FFE6B5"/>
<stop offset="0.02612" stop-color="#FFE1AA"/>
<stop offset="0.1727" stop-color="#FFC874"/>
<stop offset="0.29919" stop-color="#FFB64C"/>
<stop offset="0.39941" stop-color="#FFAB34"/>
<stop offset="0.46086" stop-color="#FFA72B"/>
<stop offset="0.47494" stop-color="#FFA428"/>
<stop offset="0.6534" stop-color="#FF830B"/>
<stop offset="0.7514" stop-color="#FF7700"/>
<stop offset="0.99683" stop-color="#FF4E1C"/>
<stop offset="1" stop-color="#FF4D1C"/>
</radialGradient>
<radialGradient id="paint1_radial_138_1456" cx="0" cy="0" r="1" gradientUnits="userSpaceOnUse" gradientTransform="translate(50.0001 49.4046) scale(27.0121 15.3805)">
<stop stop-color="#E60036" stop-opacity="0.4"/>
<stop offset="0.30901" stop-color="#ED456C" stop-opacity="0.29217"/>
<stop offset="0.96227" stop-color="#FEF4F7" stop-opacity="0.01681"/>
<stop offset="1" stop-color="white" stop-opacity="0"/>
</radialGradient>
<linearGradient id="paint2_linear_138_1456" x1="59.6985" y1="12.3475" x2="48.0974" y2="66.847" gradientUnits="userSpaceOnUse">
<stop stop-color="#ECE2C9"/>
<stop offset="1" stop-color="#ECE2C9" stop-opacity="0"/>
</linearGradient>
<linearGradient id="paint3_linear_138_1456" x1="40.2281" y1="37.5445" x2="40.2281" y2="53.4829" gradientUnits="userSpaceOnUse">
<stop stop-color="#FAFAFA"/>
<stop offset="1" stop-color="#F0F0F0"/>
</linearGradient>
<linearGradient id="paint4_linear_138_1456" x1="40.2281" y1="37.5445" x2="40.2281" y2="53.4829" gradientUnits="userSpaceOnUse">
<stop stop-color="#FAFAFA"/>
<stop offset="1" stop-color="#F0F0F0"/>
</linearGradient>
<linearGradient id="paint5_linear_138_1456" x1="40.2284" y1="37.6231" x2="40.2284" y2="51.919" gradientUnits="userSpaceOnUse">
<stop stop-color="#4A444D"/>
<stop offset="1" stop-color="#0F0E0F"/>
</linearGradient>
<linearGradient id="paint6_linear_138_1456" x1="40.429" y1="45.8196" x2="40.429" y2="51.4338" gradientUnits="userSpaceOnUse">
<stop stop-color="#4A444D"/>
<stop offset="1" stop-color="#0F0E0F"/>
</linearGradient>
<linearGradient id="paint7_linear_138_1456" x1="61.0008" y1="45.8196" x2="61.0008" y2="51.4338" gradientUnits="userSpaceOnUse">
<stop stop-color="#4A444D"/>
<stop offset="1" stop-color="#0F0E0F"/>
</linearGradient>
<linearGradient id="paint8_linear_138_1456" x1="59.9897" y1="33.8978" x2="62.574" y2="55.439" gradientUnits="userSpaceOnUse">
<stop stop-color="#FAFAFA"/>
<stop offset="1" stop-color="#F0F0F0"/>
</linearGradient>
<linearGradient id="paint9_linear_138_1456" x1="61.3591" y1="35.5762" x2="61.3591" y2="53.9998" gradientUnits="userSpaceOnUse">
<stop stop-color="#4A444D"/>
<stop offset="1" stop-color="#0F0E0F"/>
</linearGradient>
<linearGradient id="paint10_linear_138_1456" x1="35.8541" y1="30.5124" x2="28.7213" y2="18.188" gradientUnits="userSpaceOnUse">
<stop stop-color="#121212"/>
<stop offset="1" stop-color="#363636"/>
</linearGradient>
<linearGradient id="paint11_linear_138_1456" x1="39.2191" y1="28.5653" x2="32.0861" y2="16.2406" gradientUnits="userSpaceOnUse">
<stop stop-color="#121212"/>
<stop offset="1" stop-color="#363636"/>
</linearGradient>
<linearGradient id="paint12_linear_138_1456" x1="36.4398" y1="30.1734" x2="29.3069" y2="17.849" gradientUnits="userSpaceOnUse">
<stop stop-color="#121212"/>
<stop offset="1" stop-color="#363636"/>
</linearGradient>
<linearGradient id="paint13_linear_138_1456" x1="33.0748" y1="32.121" x2="25.9418" y2="19.7963" gradientUnits="userSpaceOnUse">
<stop stop-color="#121212"/>
<stop offset="1" stop-color="#363636"/>
</linearGradient>
<linearGradient id="paint14_linear_138_1456" x1="52.6692" y1="70.5066" x2="52.6692" y2="61.1679" gradientUnits="userSpaceOnUse">
<stop stop-color="#363636" stop-opacity="0"/>
<stop offset="0.66758" stop-color="#121212"/>
</linearGradient>
</defs>
</svg>
