<svg width="100" height="100" viewBox="0 0 100 100" fill="none" xmlns="http://www.w3.org/2000/svg">
<circle opacity="0.2" cx="50" cy="50" r="42" fill="#F9D107"/>
<g filter="url(#filter0_f_138_1331)">
<ellipse cx="50" cy="79" rx="16" ry="4" fill="#554702"/>
</g>
<path d="M50.4283 80.4406C68.1018 80.4406 82.429 66.3646 82.429 49.0011C82.429 31.6375 68.1018 17.5615 50.4283 17.5615C32.7549 17.5615 18.4277 31.6375 18.4277 49.0011C18.4277 66.3646 32.7549 80.4406 50.4283 80.4406Z" fill="#E8C307"/>
<path d="M50.4283 17.5615C42.2646 17.5527 34.4085 20.6211 28.4791 26.1343C25.3361 29.8137 23.1417 34.183 22.0819 38.8722C21.0221 43.5615 21.128 48.4326 22.3906 53.0731C23.6533 57.7136 26.0355 61.9869 29.3356 65.5311C32.6356 69.0753 36.7564 71.786 41.3489 73.4338C45.9414 75.0815 50.8705 75.6178 55.7187 74.9971C60.5669 74.3765 65.1915 72.6172 69.2009 69.8683C73.2103 67.1193 76.4864 63.4617 78.7519 59.205C81.0174 54.9483 82.2055 50.218 82.2156 45.4145C81.3196 37.7484 77.5853 30.6737 71.7237 25.5376C65.8621 20.4015 58.2825 17.5626 50.4283 17.5615Z" fill="url(#paint0_linear_138_1331)"/>
<path d="M54 65.5C54 66.3284 52.6569 66 51 66C49.3431 66 48 66.3284 48 65.5C48 64.6716 49.3431 64 51 64C52.6569 64 54 64.6716 54 65.5Z" fill="url(#paint1_linear_138_1331)"/>
<path opacity="0.5" d="M60.4671 22.3797C43.8314 17.2722 29.9024 26.0073 34.4153 35.278C38.9282 44.5486 64.3646 49.7885 72.9801 43.944C79.8348 39.294 73.5955 26.4104 60.4671 22.3797Z" fill="url(#paint2_linear_138_1331)"/>
<path d="M41.5342 61.1994C42.968 60.4507 44.4968 59.9003 46.0789 59.5634C47.6588 59.2093 49.2715 59.0212 50.8905 59.0021C51.7014 58.9883 52.5126 59.044 53.3216 59.1012C53.7251 59.1465 54.1268 59.2136 54.5284 59.269L55.13 59.3587L55.7237 59.4995C57.3085 59.8392 58.8341 60.4121 60.2507 61.1995L60.0784 61.6476C58.5182 61.3735 57.023 61.0411 55.4886 60.9133C53.9687 60.7448 52.4394 60.6758 50.9105 60.7067C49.3819 60.7133 47.8504 60.8185 46.3165 60.9786C44.7853 61.1477 43.2444 61.3777 41.7059 61.6478L41.5342 61.1994Z" fill="#695803"/>
<path fill-rule="evenodd" clip-rule="evenodd" d="M41.1592 61.0573L41.396 60.9336C42.8534 60.1726 44.4075 59.6131 46.0156 59.2706C47.6151 58.9121 49.2478 58.7217 50.8869 58.7023C51.7127 58.6884 52.5363 58.745 53.3435 58.8021L53.3558 58.803C53.6247 58.8332 53.898 58.8739 54.1646 58.9133C54.302 58.9337 54.4377 58.9537 54.5702 58.972L54.5734 58.9725L55.1875 59.064L55.7905 59.2071C57.4031 59.5531 58.9556 60.1362 60.3972 60.9375L60.625 61.0641L60.2705 61.9861L60.0272 61.9433C59.6311 61.8737 59.2418 61.8009 58.8569 61.729C57.7089 61.5144 56.6 61.3071 55.4644 61.2125L55.4562 61.2118C53.9493 61.0448 52.4331 60.9762 50.9172 61.0068L50.9125 61.0069C49.3969 61.0135 47.8761 61.1177 46.3493 61.2771C44.8259 61.4453 43.2918 61.6743 41.7585 61.9435L41.515 61.9862L41.1592 61.0573ZM46.3172 60.9788C47.8512 60.8187 49.3827 60.7135 50.9112 60.7068C52.4401 60.676 53.9694 60.745 55.4893 60.9135C56.6415 61.0095 57.7716 61.2208 58.9236 61.4362C59.3058 61.5076 59.6905 61.5795 60.0791 61.6478L60.2514 61.1997C58.8348 60.4123 57.3092 59.8394 55.7245 59.4997L55.1307 59.3589L54.5292 59.2692C54.3905 59.2501 54.2517 59.2295 54.1129 59.209C53.8498 59.17 53.5864 59.1311 53.3223 59.1014C52.5133 59.0442 51.7021 58.9885 50.8912 59.0023C49.2722 59.0214 47.6596 59.2095 46.0796 59.5636C44.4976 59.9005 42.9687 60.4508 41.5349 61.1996L41.7067 61.648C43.2451 61.3779 44.786 61.1478 46.3172 60.9788Z" fill="#4F4202"/>
<mask id="mask0_138_1331" style="mask-type:luminance" maskUnits="userSpaceOnUse" x="40" y="59" width="3" height="6">
<path d="M40 59.1611C40.4448 59.39 40.8327 59.7154 41.1356 60.1135C41.7546 60.9117 42.0862 61.8953 42.0769 62.9053C42.0768 63.4056 41.9644 63.8996 41.7478 64.3507C41.6377 63.8626 41.5536 63.4121 41.4429 62.9723C41.3365 62.5332 41.214 62.1081 41.0736 61.6887C40.9326 61.2693 40.7729 60.8566 40.5919 60.4425C40.4144 60.025 40.2084 59.6156 40 59.1611Z" fill="white"/>
</mask>
<g mask="url(#mask0_138_1331)">
<path d="M42.0835 59.2847L41.4082 59.161H42.0835V59.2847Z" fill="#695803"/>
<path d="M42.0838 59.4389L40.5695 59.1611H41.4086L42.0838 59.2848V59.4389Z" fill="#695803"/>
<path d="M42.0838 59.5926L40 59.2104V59.161H40.5695L42.0838 59.4388V59.5926Z" fill="#695803"/>
<path d="M42.0838 59.7465L40 59.3643V59.2105L42.0838 59.5927V59.7465Z" fill="#695803"/>
<path d="M42.0838 59.9006L40 59.5184V59.3643L42.0838 59.7465V59.9006Z" fill="#695803"/>
<path d="M42.0838 60.0544L40 59.6722V59.5184L42.0838 59.9006V60.0544Z" fill="#695803"/>
<path d="M42.0838 60.2082L40 59.826V59.6722L42.0838 60.0544V60.2082Z" fill="#695803"/>
<path d="M42.0838 60.362L40 59.9801V59.826L42.0838 60.2082V60.362Z" fill="#695803"/>
<path d="M42.0838 60.5161L40 60.1339V59.9801L42.0838 60.362V60.5161Z" fill="#695803"/>
<path d="M42.0838 60.6699L40 60.2877V60.1339L42.0838 60.5161V60.6699Z" fill="#695803"/>
<path d="M42.0838 60.8237L40 60.4414V60.2877L42.0838 60.6699V60.8237Z" fill="#695803"/>
<path d="M42.0838 60.9774L40 60.5956V60.4414L42.0838 60.8236V60.9774Z" fill="#695803"/>
<path d="M42.0838 61.1316L40 60.7494V60.5956L42.0838 60.9774V61.1316Z" fill="#695803"/>
<path d="M42.0838 61.2854L40 60.9031V60.7494L42.0838 61.1316V61.2854Z" fill="#695803"/>
<path d="M42.0838 61.4391L40 61.0569V60.9031L42.0838 61.2853V61.4391Z" fill="#695803"/>
<path d="M42.0838 61.5933L40 61.211V61.0569L42.0838 61.4391V61.5933Z" fill="#695803"/>
<path d="M42.0838 61.7471L40 61.3648V61.2111L42.0838 61.5933V61.7471Z" fill="#695803"/>
<path d="M42.0838 61.9008L40 61.5186V61.3648L42.0838 61.747V61.9008Z" fill="#695803"/>
<path d="M42.0838 62.0546L40 61.6727V61.5186L42.0838 61.9008V62.0546Z" fill="#695803"/>
<path d="M42.0838 62.2088L40 61.8265V61.6728L42.0838 62.0546V62.2088Z" fill="#695803"/>
<path d="M42.0838 62.3625L40 61.9803V61.8265L42.0838 62.2087V62.3625Z" fill="#695803"/>
<path d="M42.0838 62.5163L40 62.1341V61.9803L42.0838 62.3625V62.5163Z" fill="#695803"/>
<path d="M42.0838 62.6701L40 62.2882V62.1341L42.0838 62.5163V62.6701Z" fill="#695803"/>
<path d="M42.0838 62.8242L40 62.442V62.2882L42.0838 62.6701V62.8242Z" fill="#695803"/>
<path d="M42.0838 62.978L40 62.5958V62.442L42.0838 62.8242V62.978Z" fill="#695803"/>
<path d="M42.0838 63.1318L40 62.7496V62.5958L42.0838 62.978V63.1318Z" fill="#695803"/>
<path d="M42.0838 63.2859L40 62.9037V62.7496L42.0838 63.1318V63.2859Z" fill="#695803"/>
<path d="M42.0838 63.4397L40 63.0575V62.9037L42.0838 63.2859V63.4397Z" fill="#695803"/>
<path d="M42.0838 63.5935L40 63.2112V63.0575L42.0838 63.4397V63.5935Z" fill="#695803"/>
<path d="M42.0838 63.7473L40 63.3654V63.2113L42.0838 63.5935V63.7473Z" fill="#695803"/>
<path d="M42.0838 63.9014L40 63.5192V63.3654L42.0838 63.7473V63.9014Z" fill="#695803"/>
<path d="M42.0838 64.0552L40 63.6729V63.5192L42.0838 63.9014V64.0552Z" fill="#695803"/>
<path d="M42.0838 64.2089L40 63.8267V63.6729L42.0838 64.0552V64.2089Z" fill="#695803"/>
<path d="M42.0175 64.3506L40 63.9808V63.8267L42.0838 64.2089V64.3506H42.0175Z" fill="#695803"/>
<path d="M41.1784 64.3506L40 64.1346V63.9809L42.0175 64.3506H41.1784Z" fill="#695803"/>
<path d="M40.339 64.3506L40 64.2884V64.1346L41.1784 64.3506H40.339Z" fill="#695803"/>
<path d="M40 64.2885L40.339 64.3507H40V64.2885Z" fill="#695803"/>
</g>
<mask id="mask1_138_1331" style="mask-type:luminance" maskUnits="userSpaceOnUse" x="59" y="59" width="3" height="6">
<path d="M61.9999 59.1611C61.5552 59.39 61.1672 59.7154 60.8643 60.1135C60.2453 60.9117 59.9137 61.8953 59.923 62.9053C59.9231 63.4056 60.0355 63.8996 60.2521 64.3507C60.3622 63.8626 60.4463 63.4121 60.557 62.9723C60.6634 62.5332 60.7859 62.1081 60.9263 61.6887C61.0672 61.2693 61.227 60.8566 61.408 60.4425C61.5854 60.025 61.7915 59.6156 61.9999 59.1611Z" fill="white"/>
</mask>
<g mask="url(#mask1_138_1331)">
<path d="M60.5912 59.1611L59.9159 59.2848V59.1611H60.5912Z" fill="#695803"/>
<path d="M61.4302 59.1611L59.9159 59.4389V59.2848L60.5912 59.1611H61.4302Z" fill="#695803"/>
<path d="M61.9998 59.2105L59.9159 59.5927V59.4389L61.4302 59.1611H61.9998V59.2105Z" fill="#695803"/>
<path d="M61.9998 59.3643L59.9159 59.7465V59.5927L61.9998 59.2105V59.3643Z" fill="#695803"/>
<path d="M61.9998 59.5184L59.9159 59.9006V59.7465L61.9998 59.3643V59.5184Z" fill="#695803"/>
<path d="M61.9998 59.6722L59.9159 60.0544V59.9006L61.9998 59.5184V59.6722Z" fill="#695803"/>
<path d="M61.9998 59.826L59.9159 60.2082V60.0544L61.9998 59.6722V59.826Z" fill="#695803"/>
<path d="M61.9998 59.9801L59.9159 60.362V60.2082L61.9998 59.826V59.9801Z" fill="#695803"/>
<path d="M61.9998 60.1339L59.9159 60.5161V60.362L61.9998 59.9801V60.1339Z" fill="#695803"/>
<path d="M61.9998 60.2877L59.9159 60.6699V60.5161L61.9998 60.1339V60.2877Z" fill="#695803"/>
<path d="M61.9998 60.4414L59.9159 60.8237V60.6699L61.9998 60.2877V60.4414Z" fill="#695803"/>
<path d="M61.9998 60.5956L59.9159 60.9774V60.8236L61.9998 60.4414V60.5956Z" fill="#695803"/>
<path d="M61.9998 60.7494L59.9159 61.1316V60.9774L61.9998 60.5956V60.7494Z" fill="#695803"/>
<path d="M61.9998 60.9031L59.9159 61.2854V61.1316L61.9998 60.7494V60.9031Z" fill="#695803"/>
<path d="M61.9998 61.0569L59.9159 61.4391V61.2853L61.9998 60.9031V61.0569Z" fill="#695803"/>
<path d="M61.9998 61.211L59.9159 61.5933V61.4391L61.9998 61.0569V61.211Z" fill="#695803"/>
<path d="M61.9998 61.3648L59.9159 61.747V61.5932L61.9998 61.211V61.3648Z" fill="#695803"/>
<path d="M61.9998 61.5186L59.9159 61.9008V61.747L61.9998 61.3648V61.5186Z" fill="#695803"/>
<path d="M61.9998 61.6727L59.9159 62.0546V61.9008L61.9998 61.5186V61.6727Z" fill="#695803"/>
<path d="M61.9998 61.8265L59.9159 62.2087V62.0546L61.9998 61.6727V61.8265Z" fill="#695803"/>
<path d="M61.9998 61.9803L59.9159 62.3625V62.2087L61.9998 61.8265V61.9803Z" fill="#695803"/>
<path d="M61.9998 62.1341L59.9159 62.5163V62.3625L61.9998 61.9803V62.1341Z" fill="#695803"/>
<path d="M61.9998 62.2882L59.9159 62.6701V62.5163L61.9998 62.1341V62.2882Z" fill="#695803"/>
<path d="M61.9998 62.442L59.9159 62.8242V62.6701L61.9998 62.2882V62.442Z" fill="#695803"/>
<path d="M61.9998 62.5958L59.9159 62.978V62.8242L61.9998 62.442V62.5958Z" fill="#695803"/>
<path d="M61.9998 62.7495L59.9159 63.1318V62.978L61.9998 62.5958V62.7495Z" fill="#695803"/>
<path d="M61.9998 62.9037L59.9159 63.2859V63.1318L61.9998 62.7495V62.9037Z" fill="#695803"/>
<path d="M61.9998 63.0575L59.9159 63.4397V63.2859L61.9998 62.9037V63.0575Z" fill="#695803"/>
<path d="M61.9998 63.2112L59.9159 63.5935V63.4397L61.9998 63.0575V63.2112Z" fill="#695803"/>
<path d="M61.9998 63.3654L59.9159 63.7472V63.5935L61.9998 63.2112V63.3654Z" fill="#695803"/>
<path d="M61.9998 63.5192L59.9159 63.9014V63.7473L61.9998 63.3654V63.5192Z" fill="#695803"/>
<path d="M61.9998 63.6729L59.9159 64.0552V63.9014L61.9998 63.5192V63.6729Z" fill="#695803"/>
<path d="M61.9998 63.8267L59.9159 64.2089V64.0552L61.9998 63.6729V63.8267Z" fill="#695803"/>
<path d="M61.9998 63.9808L59.9823 64.3506H59.9159V64.2089L61.9998 63.8267V63.9808Z" fill="#695803"/>
<path d="M61.9998 64.1346L60.8217 64.3506H59.9823L61.9998 63.9809V64.1346Z" fill="#695803"/>
<path d="M61.9993 64.2885L61.6603 64.3507H60.8212L61.9993 64.1347V64.2885Z" fill="#695803"/>
<path d="M61.661 64.3507L62.0001 64.2885V64.3507H61.661Z" fill="#695803"/>
</g>
<path d="M30.1594 32.6641C31.0679 32.2516 31.9541 31.792 32.8146 31.287C33.6213 30.8075 34.3949 30.2743 35.1301 29.691C35.8301 29.1296 36.4965 28.5277 37.1259 27.8883C37.7531 27.2548 38.465 26.7111 39.2412 26.2727L39.3653 26.2072C39.6902 26.036 40.0598 25.9685 40.4242 26.0137C40.7886 26.0589 41.1305 26.2146 41.4037 26.46C41.6769 26.7054 41.8684 27.0286 41.9524 27.3861C42.0364 27.7436 42.0088 28.1182 41.8734 28.4596C41.4138 29.5186 40.6611 30.4242 39.7039 31.0696C37.8368 32.325 35.6889 33.1005 33.4505 33.3273C32.3699 33.4418 31.2782 33.3899 30.2134 33.1734C30.1581 33.1617 30.108 33.1329 30.07 33.0911C30.032 33.0493 30.0081 32.9966 30.0017 32.9405C29.9953 32.8844 30.0067 32.8277 30.0343 32.7784C30.0619 32.7292 30.1043 32.6898 30.1554 32.6659L30.1594 32.6641Z" fill="#695803"/>
<path fill-rule="evenodd" clip-rule="evenodd" d="M30.1554 32.6659C30.1043 32.6898 30.0619 32.7292 30.0343 32.7784C30.0067 32.8277 29.9953 32.8844 30.0017 32.9405C30.0081 32.9966 30.032 33.0493 30.07 33.0911C30.108 33.1329 30.1581 33.1617 30.2134 33.1734C31.2782 33.3899 32.3699 33.4418 33.4505 33.3273C35.6889 33.1005 37.8368 32.325 39.7039 31.0696C40.6611 30.4242 41.4138 29.5186 41.8734 28.4596C42.0088 28.1182 42.0364 27.7436 41.9524 27.3861C41.8684 27.0286 41.6769 26.7054 41.4037 26.46C41.1305 26.2146 40.7886 26.0589 40.4242 26.0137C40.0598 25.9685 39.6902 26.036 39.3653 26.2072L39.2412 26.2727C38.465 26.7111 37.7531 27.2548 37.1259 27.8883C36.4965 28.5277 35.8301 29.1296 35.1301 29.691C34.3949 30.2743 33.6213 30.8075 32.8146 31.287C31.9541 31.792 31.0679 32.2516 30.1594 32.6641L30.1554 32.6659ZM31.0385 32.8037C31.8204 32.9043 32.6122 32.9134 33.3978 32.8301L33.4001 32.8299L33.4001 32.8299C35.5566 32.6113 37.6259 31.8642 39.4247 30.6548C40.3003 30.0643 40.9895 29.2364 41.4113 28.2682C41.5067 28.0237 41.5257 27.756 41.4656 27.5004C41.405 27.2424 41.2668 27.0091 41.0696 26.832C40.8724 26.6549 40.6257 26.5425 40.3627 26.5099C40.0997 26.4772 39.833 26.526 39.5986 26.6495C39.5985 26.6495 39.5985 26.6495 39.5984 26.6496L39.4809 26.7115C38.7475 27.1266 38.0747 27.6408 37.4817 28.2396C36.8387 28.8928 36.1579 29.5076 35.4429 30.081L35.4409 30.0827L35.4409 30.0826C34.6881 30.6799 33.8961 31.2259 33.07 31.7168L33.0676 31.7182L33.0676 31.7182C32.4057 32.1067 31.7288 32.4688 31.0385 32.8037Z" fill="#4F4202"/>
<path d="M71.8406 33.6641C70.9321 33.2516 70.0459 32.792 69.1854 32.287C68.3787 31.8075 67.6051 31.2743 66.8699 30.691C66.1699 30.1296 65.5035 29.5277 64.8741 28.8883C64.2469 28.2548 63.535 27.7111 62.7588 27.2727L62.6347 27.2072C62.3098 27.036 61.9402 26.9685 61.5758 27.0137C61.2114 27.0589 60.8695 27.2146 60.5963 27.46C60.3231 27.7054 60.1316 28.0286 60.0476 28.3861C59.9636 28.7436 59.9912 29.1182 60.1266 29.4596C60.5862 30.5186 61.3389 31.4242 62.2961 32.0696C64.1632 33.325 66.3111 34.1005 68.5495 34.3273C69.6301 34.4418 70.7218 34.3899 71.7866 34.1734C71.8419 34.1617 71.892 34.1329 71.93 34.0911C71.968 34.0493 71.9919 33.9966 71.9983 33.9405C72.0047 33.8844 71.9933 33.8277 71.9657 33.7784C71.9381 33.7292 71.8957 33.6898 71.8446 33.6659L71.8406 33.6641Z" fill="#695803"/>
<path fill-rule="evenodd" clip-rule="evenodd" d="M71.8446 33.6659C71.8957 33.6898 71.9381 33.7292 71.9657 33.7784C71.9933 33.8277 72.0047 33.8844 71.9983 33.9405C71.9919 33.9966 71.968 34.0493 71.93 34.0911C71.892 34.1329 71.8419 34.1617 71.7866 34.1734C70.7218 34.3899 69.6301 34.4418 68.5495 34.3273C66.3111 34.1005 64.1632 33.325 62.2961 32.0696C61.3389 31.4242 60.5862 30.5186 60.1266 29.4596C59.9912 29.1182 59.9636 28.7436 60.0476 28.3861C60.1316 28.0286 60.3231 27.7054 60.5963 27.46C60.8695 27.2146 61.2114 27.0589 61.5758 27.0137C61.9402 26.9685 62.3098 27.036 62.6347 27.2072L62.7588 27.2727C63.535 27.7111 64.2469 28.2548 64.8741 28.8883C65.5035 29.5277 66.1699 30.1296 66.8699 30.691C67.6051 31.2743 68.3787 31.8075 69.1854 32.287C70.0459 32.792 70.9321 33.2516 71.8406 33.6641L71.8446 33.6659ZM70.9615 33.8037C70.1796 33.9043 69.3878 33.9134 68.6022 33.8301L68.5999 33.8299L68.5999 33.8299C66.4434 33.6113 64.3741 32.8642 62.5753 31.6548C61.6997 31.0643 61.0105 30.2364 60.5887 29.2682C60.4933 29.0237 60.4743 28.756 60.5344 28.5004C60.595 28.2424 60.7332 28.0091 60.9304 27.832C61.1276 27.6549 61.3743 27.5425 61.6373 27.5099C61.9003 27.4772 62.167 27.526 62.4014 27.6495C62.4015 27.6495 62.4015 27.6495 62.4016 27.6496L62.5191 27.7115C63.2525 28.1266 63.9253 28.6408 64.5183 29.2396C65.1613 29.8928 65.8421 30.5076 66.5571 31.081L66.5591 31.0827L66.5591 31.0826C67.3119 31.6799 68.1039 32.2259 68.93 32.7168L68.9324 32.7182L68.9324 32.7182C69.5943 33.1067 70.2712 33.4688 70.9615 33.8037Z" fill="#4F4202"/>
<path d="M39.9693 53.5115C35.3981 53.5115 31.6924 49.8063 31.6924 45.2357C31.6924 40.6652 35.3981 36.96 39.9693 36.96C44.5405 36.96 48.2462 40.6652 48.2462 45.2357C48.2462 49.8063 44.5405 53.5115 39.9693 53.5115Z" fill="white"/>
<g opacity="0.5" filter="url(#filter1_f_138_1331)">
<path d="M40.9848 45C41.8978 45.0042 42.782 45.2215 43.4947 45.6166C44.2074 46.0117 44.7068 46.5617 44.9124 47.1776L42.2298 47.8508L44.9386 48.4522C44.7636 48.9653 44.3834 49.434 43.8416 49.8045C43.2997 50.1749 42.6181 50.4323 41.8748 50.547C41.1315 50.6617 40.3565 50.6291 39.6387 50.453C38.9209 50.2769 38.2893 49.9644 37.8161 49.5513C37.3429 49.1381 37.0473 48.6411 36.9633 48.117C36.8792 47.593 37.01 47.0631 37.3407 46.5882C37.6713 46.1132 38.1885 45.7123 38.833 45.4314C39.4775 45.1506 40.2232 45.001 40.9848 45Z" fill="url(#paint3_linear_138_1331)"/>
</g>
<path d="M42.6656 40.4959C43.7357 41.1231 44.5667 42.0864 45.0243 43.2302C45.482 44.374 45.5396 45.6314 45.1877 46.7993L41.3826 46.1011L43.99 48.9451C43.2895 49.6829 42.3904 50.2071 41.3958 50.4575C40.4011 50.708 39.3512 50.6746 38.3661 50.3611C37.381 50.0477 36.5006 49.467 35.8258 48.6854C35.151 47.9038 34.7091 46.953 34.5506 45.9418C34.3921 44.9306 34.5234 43.9 34.9296 42.968C35.3358 42.036 36.0004 41.2403 36.8473 40.6719C37.6942 40.1036 38.6891 39.7857 39.7181 39.7545C40.7471 39.7234 41.7686 39.9803 42.6656 40.4959Z" fill="url(#paint4_linear_138_1331)"/>
<mask id="mask2_138_1331" style="mask-type:alpha" maskUnits="userSpaceOnUse" x="31" y="36" width="18" height="18">
<path d="M39.9693 53.5115C35.3981 53.5115 31.6924 49.8063 31.6924 45.2357C31.6924 40.6652 35.3981 36.96 39.9693 36.96C44.5405 36.96 48.2462 40.6652 48.2462 45.2357C48.2462 49.8063 44.5405 53.5115 39.9693 53.5115Z" fill="white"/>
<path d="M39.9684 39.7397C41.2088 39.7479 42.4101 40.1667 43.3783 40.9284C44.3465 41.6901 45.0251 42.7503 45.3044 43.9376L41.6599 45.2355L45.34 46.3948C45.1022 47.384 44.5857 48.2875 43.8496 49.0017C43.1134 49.7159 42.1874 50.212 41.1775 50.4331C40.1677 50.6542 39.1149 50.5915 38.1397 50.252C37.1645 49.9125 36.3064 49.31 35.6636 48.5136C35.0207 47.7172 34.6192 46.759 34.505 45.7487C34.3907 44.7385 34.5684 43.717 35.0177 42.8014C35.4669 41.8858 36.1696 41.113 37.0451 40.5715C37.9207 40.03 38.9338 39.7418 39.9684 39.7397Z" fill="url(#paint5_linear_138_1331)"/>
</mask>
<g mask="url(#mask2_138_1331)">
<ellipse cx="11.5" cy="7.41315" rx="11.5" ry="7.41315" transform="matrix(-0.976611 0.215012 0.215012 0.976611 43.2687 27.0942)" fill="url(#paint6_linear_138_1331)"/>
</g>
<g opacity="0.5" filter="url(#filter2_f_138_1331)">
<path d="M40.0461 46C40.9591 46.0042 41.8434 46.2215 42.5561 46.6166C43.2687 47.0117 43.7682 47.5617 43.9738 48.1776L41.2912 48.8508L44 49.4522C43.825 49.9653 43.4448 50.434 42.9029 50.8045C42.3611 51.1749 41.6794 51.4323 40.9361 51.547C40.1928 51.6617 39.4179 51.6291 38.7001 51.453C37.9823 51.2769 37.3506 50.9644 36.8774 50.5513C36.4043 50.1381 36.1087 49.6411 36.0246 49.117C35.9406 48.593 36.0713 48.0631 36.402 47.5882C36.7327 47.1132 37.2499 46.7123 37.8944 46.4314C38.5389 46.1506 39.2846 46.001 40.0461 46Z" fill="url(#paint7_linear_138_1331)"/>
</g>
<g opacity="0.5" filter="url(#filter3_f_138_1331)">
<path d="M60.9546 45.8196C60.0416 45.8238 59.1574 46.0411 58.4447 46.4362C57.732 46.8313 57.2325 47.3812 57.027 47.9972L59.7096 48.6704L57.0008 49.2718C57.1758 49.7849 57.556 50.2536 58.0978 50.624C58.6397 50.9945 59.3213 51.2519 60.0646 51.3666C60.8079 51.4813 61.5829 51.4487 62.3007 51.2726C63.0185 51.0965 63.6501 50.784 64.1233 50.3708C64.5965 49.9577 64.892 49.4607 64.9761 48.9366C65.0602 48.4126 64.9294 47.8827 64.5987 47.4078C64.2681 46.9328 63.7509 46.5319 63.1064 46.251C62.4619 45.9701 61.7162 45.8206 60.9546 45.8196Z" fill="url(#paint8_linear_138_1331)"/>
</g>
<path d="M60.9693 53.5115C65.5405 53.5115 69.2463 49.8063 69.2463 45.2357C69.2463 40.6652 65.5405 36.96 60.9693 36.96C56.3981 36.96 52.6924 40.6652 52.6924 45.2357C52.6924 49.8063 56.3981 53.5115 60.9693 53.5115Z" fill="white"/>
<g opacity="0.5" filter="url(#filter4_f_138_1331)">
<path d="M59.9539 45C59.0409 45.0042 58.1566 45.2215 57.4439 45.6166C56.7313 46.0117 56.2318 46.5617 56.0262 47.1776L58.7088 47.8508L56 48.4522C56.175 48.9653 56.5552 49.434 57.0971 49.8045C57.6389 50.1749 58.3206 50.4323 59.0639 50.547C59.8072 50.6617 60.5821 50.6291 61.2999 50.453C62.0177 50.2769 62.6494 49.9644 63.1226 49.5513C63.5957 49.1381 63.8913 48.6411 63.9754 48.117C64.0594 47.593 63.9287 47.0631 63.598 46.5882C63.2673 46.1132 62.7501 45.7123 62.1056 45.4314C61.4611 45.1506 60.7154 45.001 59.9539 45Z" fill="url(#paint9_linear_138_1331)"/>
</g>
<path d="M58.273 40.4959C57.2029 41.1231 56.3719 42.0864 55.9143 43.2302C55.4566 44.374 55.3991 45.6314 55.7509 46.7993L59.556 46.1011L56.9486 48.9451C57.6491 49.6829 58.5482 50.2071 59.5428 50.4575C60.5375 50.708 61.5875 50.6746 62.5726 50.3611C63.5577 50.0477 64.438 49.467 65.1128 48.6854C65.7876 47.9038 66.2296 46.953 66.3881 45.9418C66.5466 44.9306 66.4152 43.9 66.009 42.968C65.6028 42.036 64.9382 41.2403 64.0913 40.6719C63.2444 40.1036 62.2495 39.7857 61.2205 39.7545C60.1915 39.7234 59.17 39.9803 58.273 40.4959Z" fill="url(#paint10_linear_138_1331)"/>
<mask id="mask3_138_1331" style="mask-type:alpha" maskUnits="userSpaceOnUse" x="52" y="36" width="18" height="18">
<path d="M60.9693 53.5115C65.5405 53.5115 69.2463 49.8063 69.2463 45.2357C69.2463 40.6652 65.5405 36.96 60.9693 36.96C56.3981 36.96 52.6924 40.6652 52.6924 45.2357C52.6924 49.8063 56.3981 53.5115 60.9693 53.5115Z" fill="white"/>
<path d="M60.9702 39.7397C59.7298 39.7479 58.5285 40.1667 57.5603 40.9284C56.5921 41.6901 55.9135 42.7503 55.6342 43.9376L59.2787 45.2355L55.5986 46.3948C55.8364 47.384 56.3529 48.2875 57.0891 49.0017C57.8252 49.7159 58.7513 50.212 59.7611 50.4331C60.7709 50.6542 61.8237 50.5915 62.7989 50.252C63.7741 49.9125 64.6322 49.31 65.2751 48.5136C65.9179 47.7172 66.3194 46.759 66.4337 45.7487C66.5479 44.7385 66.3702 43.717 65.921 42.8014C65.4717 41.8858 64.7691 41.113 63.8935 40.5715C63.0179 40.03 62.0048 39.7418 60.9702 39.7397Z" fill="url(#paint11_linear_138_1331)"/>
</mask>
<g mask="url(#mask3_138_1331)">
<ellipse cx="67.307" cy="36.8066" rx="11.5" ry="7.41315" transform="rotate(12.4162 67.307 36.8066)" fill="url(#paint12_linear_138_1331)"/>
</g>
<path d="M30.5309 45.9539C30.4468 46.6386 30.2287 47.3 29.889 47.9003C29.5492 48.5007 29.0946 49.0282 28.551 49.4529C28.0074 49.8775 27.3854 50.191 26.7207 50.3753C26.056 50.5596 25.3614 50.6111 24.6768 50.527C23.9921 50.4429 23.3307 50.2247 22.7303 49.885C22.13 49.5453 21.6024 49.0907 21.1778 48.547C20.7531 48.0034 20.4397 47.3815 20.2554 46.7168C20.0711 46.052 20.0195 45.3575 20.1037 44.6728C20.4574 41.7935 26.7072 34 26.7072 34C26.7072 34 30.8847 43.0745 30.5309 45.9539Z" fill="url(#paint13_radial_138_1331)"/>
<path d="M25.257 42.9257C25.257 45.7398 26.2335 47.3434 24.3411 47.8307C22.4533 48.3169 21.2249 46.3272 21.4632 44.3876C21.7016 42.4481 25.9425 36.1991 25.9425 36.1991C25.9425 36.1991 25.257 40.9715 25.257 42.9257Z" fill="url(#paint14_linear_138_1331)"/>
<defs>
<filter id="filter0_f_138_1331" x="27" y="68" width="46" height="22" filterUnits="userSpaceOnUse" color-interpolation-filters="sRGB">
<feFlood flood-opacity="0" result="BackgroundImageFix"/>
<feBlend mode="normal" in="SourceGraphic" in2="BackgroundImageFix" result="shape"/>
<feGaussianBlur stdDeviation="3.5" result="effect1_foregroundBlur_138_1331"/>
</filter>
<filter id="filter1_f_138_1331" x="31.9385" y="40" width="18.0002" height="15.6142" filterUnits="userSpaceOnUse" color-interpolation-filters="sRGB">
<feFlood flood-opacity="0" result="BackgroundImageFix"/>
<feBlend mode="normal" in="SourceGraphic" in2="BackgroundImageFix" result="shape"/>
<feGaussianBlur stdDeviation="2.5" result="effect1_foregroundBlur_138_1331"/>
</filter>
<filter id="filter2_f_138_1331" x="30.9998" y="41" width="18.0002" height="15.6142" filterUnits="userSpaceOnUse" color-interpolation-filters="sRGB">
<feFlood flood-opacity="0" result="BackgroundImageFix"/>
<feBlend mode="normal" in="SourceGraphic" in2="BackgroundImageFix" result="shape"/>
<feGaussianBlur stdDeviation="2.5" result="effect1_foregroundBlur_138_1331"/>
</filter>
<filter id="filter3_f_138_1331" x="52.0008" y="40.8196" width="18.0002" height="15.6142" filterUnits="userSpaceOnUse" color-interpolation-filters="sRGB">
<feFlood flood-opacity="0" result="BackgroundImageFix"/>
<feBlend mode="normal" in="SourceGraphic" in2="BackgroundImageFix" result="shape"/>
<feGaussianBlur stdDeviation="2.5" result="effect1_foregroundBlur_138_1331"/>
</filter>
<filter id="filter4_f_138_1331" x="51" y="40" width="18.0002" height="15.6142" filterUnits="userSpaceOnUse" color-interpolation-filters="sRGB">
<feFlood flood-opacity="0" result="BackgroundImageFix"/>
<feBlend mode="normal" in="SourceGraphic" in2="BackgroundImageFix" result="shape"/>
<feGaussianBlur stdDeviation="2.5" result="effect1_foregroundBlur_138_1331"/>
</filter>
<linearGradient id="paint0_linear_138_1331" x1="51.787" y1="75.2477" x2="68" y2="5" gradientUnits="userSpaceOnUse">
<stop offset="0.502461" stop-color="#FAD107"/>
<stop offset="1" stop-color="#5FA633"/>
</linearGradient>
<linearGradient id="paint1_linear_138_1331" x1="51" y1="64" x2="51" y2="66.0642" gradientUnits="userSpaceOnUse">
<stop stop-color="#F49916"/>
<stop offset="1" stop-color="#F49916" stop-opacity="0"/>
</linearGradient>
<linearGradient id="paint2_linear_138_1331" x1="59.6985" y1="12.3475" x2="48.0974" y2="66.847" gradientUnits="userSpaceOnUse">
<stop stop-color="#D6ECC9"/>
<stop offset="1" stop-color="#D6ECC9" stop-opacity="0"/>
</linearGradient>
<linearGradient id="paint3_linear_138_1331" x1="40.9386" y1="45" x2="40.9386" y2="50.6142" gradientUnits="userSpaceOnUse">
<stop stop-color="#4A444D"/>
<stop offset="1" stop-color="#0F0E0F"/>
</linearGradient>
<linearGradient id="paint4_linear_138_1331" x1="42.6112" y1="40.4645" x2="37.1998" y2="49.8374" gradientUnits="userSpaceOnUse">
<stop stop-color="#4A444D"/>
<stop offset="1" stop-color="#0F0E0F"/>
</linearGradient>
<linearGradient id="paint5_linear_138_1331" x1="39.9056" y1="39.7397" x2="39.9056" y2="50.5627" gradientUnits="userSpaceOnUse">
<stop stop-color="#4A444D"/>
<stop offset="1" stop-color="#0F0E0F"/>
</linearGradient>
<linearGradient id="paint6_linear_138_1331" x1="11.6316" y1="10.2219" x2="11.5" y2="14.8263" gradientUnits="userSpaceOnUse">
<stop stop-color="#C6C215"/>
<stop offset="1" stop-color="#F6D008"/>
</linearGradient>
<linearGradient id="paint7_linear_138_1331" x1="39.9999" y1="46" x2="39.9999" y2="51.6142" gradientUnits="userSpaceOnUse">
<stop stop-color="#4A444D"/>
<stop offset="1" stop-color="#0F0E0F"/>
</linearGradient>
<linearGradient id="paint8_linear_138_1331" x1="61.0008" y1="45.8196" x2="61.0008" y2="51.4338" gradientUnits="userSpaceOnUse">
<stop stop-color="#4A444D"/>
<stop offset="1" stop-color="#0F0E0F"/>
</linearGradient>
<linearGradient id="paint9_linear_138_1331" x1="60.0001" y1="45" x2="60.0001" y2="50.6142" gradientUnits="userSpaceOnUse">
<stop stop-color="#4A444D"/>
<stop offset="1" stop-color="#0F0E0F"/>
</linearGradient>
<linearGradient id="paint10_linear_138_1331" x1="58.3274" y1="40.4645" x2="63.7389" y2="49.8374" gradientUnits="userSpaceOnUse">
<stop stop-color="#4A444D"/>
<stop offset="1" stop-color="#0F0E0F"/>
</linearGradient>
<linearGradient id="paint11_linear_138_1331" x1="61.033" y1="39.7397" x2="61.033" y2="50.5627" gradientUnits="userSpaceOnUse">
<stop stop-color="#4A444D"/>
<stop offset="1" stop-color="#0F0E0F"/>
</linearGradient>
<linearGradient id="paint12_linear_138_1331" x1="67.4387" y1="39.6154" x2="67.307" y2="44.2198" gradientUnits="userSpaceOnUse">
<stop stop-color="#C6C215"/>
<stop offset="1" stop-color="#F6D008"/>
</linearGradient>
<radialGradient id="paint13_radial_138_1331" cx="0" cy="0" r="1" gradientUnits="userSpaceOnUse" gradientTransform="translate(32.1599 38.5071) scale(18.6768 18.6768)">
<stop stop-color="#FFF1FF"/>
<stop offset="0.10214" stop-color="#FFF1FF" stop-opacity="0.97991"/>
<stop offset="0.22581" stop-color="#FFF2FF" stop-opacity="0.92181"/>
<stop offset="0.36065" stop-color="#FFF3FF" stop-opacity="0.82565"/>
<stop offset="0.50354" stop-color="#FFF5FF" stop-opacity="0.6912"/>
<stop offset="0.65275" stop-color="#FFF8FF" stop-opacity="0.51837"/>
<stop offset="0.80722" stop-color="#FFFBFF" stop-opacity="0.30705"/>
<stop offset="0.9632" stop-color="#FFFEFF" stop-opacity="0.06219"/>
<stop offset="1" stop-color="white" stop-opacity="0"/>
</radialGradient>
<linearGradient id="paint14_linear_138_1331" x1="27.3546" y1="46.3403" x2="20.0664" y2="35.991" gradientUnits="userSpaceOnUse">
<stop stop-color="white"/>
<stop offset="0.22007" stop-color="white" stop-opacity="0.70453"/>
<stop offset="0.42913" stop-color="white" stop-opacity="0.45389"/>
<stop offset="0.6174" stop-color="white" stop-opacity="0.25826"/>
<stop offset="0.78125" stop-color="white" stop-opacity="0.11747"/>
<stop offset="0.91435" stop-color="white" stop-opacity="0.03134"/>
<stop offset="1" stop-color="white" stop-opacity="0"/>
</linearGradient>
</defs>
</svg>
