<svg width="100" height="100" viewBox="0 0 100 100" fill="none" xmlns="http://www.w3.org/2000/svg">
<circle opacity="0.2" cx="50" cy="50" r="42" fill="#F68C1E"/>
<g filter="url(#filter0_f_138_1203)">
<ellipse cx="50" cy="79" rx="16" ry="4" fill="#9B5F1F"/>
</g>
<path d="M50.4283 80.4406C68.1018 80.4406 82.429 66.3646 82.429 49.0011C82.429 31.6375 68.1018 17.5615 50.4283 17.5615C32.7549 17.5615 18.4277 31.6375 18.4277 49.0011C18.4277 66.3646 32.7549 80.4406 50.4283 80.4406Z" fill="#E79A48"/>
<path d="M50.4283 17.5615C42.2646 17.5527 34.4085 20.6211 28.4791 26.1343C25.3361 29.8137 23.1417 34.183 22.0819 38.8722C21.0221 43.5615 21.128 48.4326 22.3906 53.0731C23.6533 57.7136 26.0355 61.9869 29.3356 65.5311C32.6356 69.0753 36.7564 71.786 41.3489 73.4338C45.9414 75.0815 50.8705 75.6178 55.7187 74.9971C60.5669 74.3765 65.1915 72.6172 69.2009 69.8683C73.2103 67.1193 76.4864 63.4617 78.7519 59.205C81.0174 54.9483 82.2055 50.218 82.2156 45.4145C81.3196 37.7484 77.5853 30.6737 71.7237 25.5376C65.862 20.4015 58.2825 17.5626 50.4283 17.5615Z" fill="#FFAF59"/>
<path opacity="0.7" d="M60.4671 22.3797C43.8314 17.2722 29.9024 26.0073 34.4153 35.278C38.9282 44.5486 64.3646 49.7885 72.9801 43.944C79.8348 39.294 73.5955 26.4104 60.4671 22.3797Z" fill="url(#paint0_linear_138_1203)"/>
<path d="M50.4277 54.4228C51.9685 54.4228 53.2176 53.6478 53.2176 52.6916C53.2176 51.7355 51.9685 50.9604 50.4277 50.9604C48.8868 50.9604 47.6377 51.7355 47.6377 52.6916C47.6377 53.6478 48.8868 54.4228 50.4277 54.4228Z" fill="#875014"/>
<path fill-rule="evenodd" clip-rule="evenodd" d="M48.6874 51.8414C48.256 52.1091 48.0782 52.4216 48.0782 52.6917C48.0782 52.9618 48.256 53.2743 48.6874 53.542C49.1121 53.8055 49.7265 53.9829 50.4282 53.9829C51.1299 53.9829 51.7443 53.8055 52.169 53.542C52.6004 53.2743 52.7782 52.9618 52.7782 52.6917C52.7782 52.4216 52.6004 52.1091 52.169 51.8414C51.7443 51.5779 51.1299 51.4005 50.4282 51.4005C49.7265 51.4005 49.1121 51.5779 48.6874 51.8414ZM48.2234 51.0937C48.8084 50.7307 49.5891 50.5205 50.4282 50.5205C51.2673 50.5205 52.048 50.7307 52.633 51.0937C53.2114 51.4526 53.6582 52.0057 53.6582 52.6917C53.6582 53.3778 53.2114 53.9308 52.633 54.2897C52.048 54.6527 51.2673 54.8629 50.4282 54.8629C49.5891 54.8629 48.8084 54.6527 48.2234 54.2897C47.645 53.9308 47.1982 53.3778 47.1982 52.6917C47.1982 52.0057 47.645 51.4526 48.2234 51.0937Z" fill="#9B5F1F"/>
<path d="M32.3213 33.2733C33.3289 28.1127 39.9244 24.7195 44.7306 27.1585L44.7472 27.3825C40.1053 27.8966 35.7895 30.2153 32.4936 33.4208L32.3213 33.2733Z" fill="#875014"/>
<path fill-rule="evenodd" clip-rule="evenodd" d="M32.6032 33.0108C35.7993 29.9966 39.9048 27.7994 44.3309 27.2118C42.0668 26.1943 39.4274 26.4484 37.1992 27.5631C34.9668 28.68 33.1767 30.6463 32.6032 33.0108ZM37.0024 27.1696C39.4264 25.9569 42.3515 25.7051 44.8295 26.9626C44.8982 26.9975 44.9437 27.0657 44.9493 27.1426L44.9659 27.3666C44.9746 27.4846 44.8883 27.5884 44.7707 27.6015C40.1852 28.1093 35.9131 30.4015 32.6463 33.5788C32.5648 33.6581 32.4363 33.6622 32.3499 33.5882L32.1775 33.4407C32.1173 33.3892 32.0895 33.3092 32.1047 33.2314C32.6241 30.571 34.5789 28.3821 37.0024 27.1696Z" fill="#9B5F1F"/>
<path d="M68.5353 33.2733C67.5276 28.1127 60.9321 24.7195 56.1259 27.1585L56.1094 27.3825C60.7513 27.8966 65.0671 30.2153 68.3629 33.4208L68.5353 33.2733Z" fill="#875014"/>
<path fill-rule="evenodd" clip-rule="evenodd" d="M63.8528 27.1696C66.2763 28.3821 68.231 30.571 68.7505 33.2314C68.7657 33.3092 68.7378 33.3892 68.6776 33.4407L68.5053 33.5882C68.4189 33.6622 68.2903 33.6581 68.2088 33.5788C64.942 30.4015 60.6699 28.1093 56.0845 27.6015C55.9668 27.5884 55.8806 27.4846 55.8893 27.3666L55.9058 27.1426C55.9115 27.0657 55.9569 26.9975 56.0257 26.9626C58.5036 25.7051 61.4288 25.9569 63.8528 27.1696ZM56.5243 27.2118C60.9503 27.7994 65.0559 29.9966 68.2519 33.0109C67.6785 30.6463 65.8884 28.68 63.6559 27.5631C61.4277 26.4484 58.7884 26.1943 56.5243 27.2118Z" fill="#9B5F1F"/>
<path d="M40.149 53.5115C44.7202 53.5115 48.4259 49.8063 48.4259 45.2357C48.4259 40.6652 44.7202 36.96 40.149 36.96C35.5778 36.96 31.8721 40.6652 31.8721 45.2357C31.8721 49.8063 35.5778 53.5115 40.149 53.5115Z" fill="white"/>
<path d="M40.2767 39.7398C39.0363 39.748 37.835 40.1668 36.8668 40.9285C35.8986 41.6902 35.22 42.7504 34.9407 43.9377L38.5852 45.2355L34.9051 46.3948C35.1429 47.3841 35.6594 48.2876 36.3956 49.0018C37.1317 49.716 38.0578 50.212 39.0676 50.4332C40.0774 50.6543 41.1302 50.5915 42.1054 50.252C43.0806 49.9125 43.9387 49.3101 44.5815 48.5136C45.2244 47.7172 45.6259 46.759 45.7401 45.7487C45.8544 44.7385 45.6767 43.7171 45.2274 42.8014C44.7782 41.8858 44.0755 41.113 43.1999 40.5715C42.3243 40.0301 41.3112 39.7418 40.2767 39.7398Z" fill="url(#paint1_linear_138_1203)"/>
<g opacity="0.5" filter="url(#filter1_f_138_1203)">
<path d="M40.3828 45.8196C39.4698 45.8238 38.5856 46.0411 37.8729 46.4362C37.1602 46.8313 36.6607 47.3812 36.4552 47.9972L39.1378 48.6704L36.429 49.2718C36.604 49.7849 36.9842 50.2536 37.526 50.624C38.0679 50.9945 38.7495 51.2519 39.4928 51.3666C40.2361 51.4813 41.011 51.4487 41.7289 51.2726C42.4467 51.0965 43.0783 50.784 43.5515 50.3708C44.0247 49.9577 44.3202 49.4607 44.4043 48.9366C44.4884 48.4126 44.3576 47.8827 44.0269 47.4078C43.6962 46.9328 43.179 46.5319 42.5346 46.251C41.8901 45.9701 41.1444 45.8206 40.3828 45.8196Z" fill="url(#paint2_linear_138_1203)"/>
</g>
<path d="M60.9693 53.5115C65.5405 53.5115 69.2463 49.8063 69.2463 45.2357C69.2463 40.6652 65.5405 36.96 60.9693 36.96C56.3981 36.96 52.6924 40.6652 52.6924 45.2357C52.6924 49.8063 56.3981 53.5115 60.9693 53.5115Z" fill="white"/>
<g opacity="0.5" filter="url(#filter2_f_138_1203)">
<path d="M60.9546 45.8196C60.0416 45.8238 59.1574 46.0411 58.4447 46.4362C57.732 46.8313 57.2325 47.3812 57.027 47.9972L59.7096 48.6704L57.0008 49.2718C57.1758 49.7849 57.556 50.2536 58.0978 50.624C58.6397 50.9945 59.3213 51.2519 60.0646 51.3666C60.8079 51.4813 61.5829 51.4487 62.3007 51.2726C63.0185 51.0965 63.6501 50.784 64.1233 50.3708C64.5965 49.9577 64.892 49.4607 64.9761 48.9366C65.0602 48.4126 64.9294 47.8827 64.5987 47.4078C64.2681 46.9328 63.7509 46.5319 63.1064 46.251C62.4619 45.9701 61.7162 45.8206 60.9546 45.8196Z" fill="url(#paint3_linear_138_1203)"/>
</g>
<path d="M60.9702 39.7397C59.7298 39.7479 58.5285 40.1667 57.5603 40.9284C56.5921 41.6901 55.9135 42.7503 55.6342 43.9376L59.2787 45.2355L55.5986 46.3948C55.8364 47.384 56.3529 48.2875 57.0891 49.0017C57.8252 49.7159 58.7513 50.212 59.7611 50.4331C60.7709 50.6542 61.8237 50.5915 62.7989 50.252C63.7741 49.9125 64.6322 49.31 65.2751 48.5136C65.9179 47.7172 66.3194 46.759 66.4337 45.7487C66.5479 44.7385 66.3702 43.717 65.921 42.8014C65.4717 41.8858 64.7691 41.113 63.8935 40.5715C63.0179 40.03 62.0048 39.7418 60.9702 39.7397Z" fill="url(#paint4_linear_138_1203)"/>
<path d="M33.9104 50.3687C31.6299 50.3662 29.4354 51.2173 27.7791 52.7464C26.9011 53.7669 26.2881 54.9788 25.9921 56.2795C25.696 57.5801 25.7256 58.9311 26.0783 60.2182C26.431 61.5053 27.0965 62.6906 28.0183 63.6736C28.9402 64.6566 30.0913 65.4085 31.3741 65.8655C32.657 66.3225 34.0339 66.4713 35.3882 66.2991C36.7425 66.127 38.0344 65.639 39.1544 64.8766C40.2744 64.1141 41.1895 63.0996 41.8224 61.919C42.4552 60.7384 42.7871 59.4263 42.7899 58.094C42.5397 55.9677 41.4965 54.0055 39.8591 52.5809C38.2217 51.1563 36.1044 50.369 33.9104 50.3687Z" fill="#FFAF59"/>
<path d="M67.8352 50C65.5547 49.9976 63.3602 50.8486 61.7039 52.3778C60.8259 53.3983 60.2129 54.6102 59.9169 55.9108C59.6208 57.2114 59.6504 58.5625 60.0031 59.8496C60.3558 61.1367 61.0213 62.3219 61.9431 63.305C62.865 64.288 64.0161 65.0398 65.299 65.4969C66.5818 65.9539 67.9587 66.1026 69.313 65.9305C70.6673 65.7583 71.9592 65.2704 73.0792 64.5079C74.1992 63.7455 75.1143 62.731 75.7472 61.5503C76.38 60.3697 76.7119 59.0577 76.7148 57.7254C76.4645 55.5991 75.4213 53.6368 73.7839 52.2123C72.1465 50.7877 70.0292 50.0003 67.8352 50Z" fill="#FFAF59"/>
<path fill-rule="evenodd" clip-rule="evenodd" d="M49.8249 60.4605C46.934 60.958 44.7035 62.6717 43.5508 64.0842C43.2889 64.4051 42.8165 64.453 42.4955 64.1911C42.1746 63.9292 42.1268 63.4568 42.3886 63.1359C43.7248 61.4985 46.2582 59.5522 49.5705 58.9822C52.9238 58.4052 56.9695 59.2571 61.2411 63.0492C61.5508 63.3242 61.579 63.7982 61.304 64.108C61.029 64.4177 60.555 64.4459 60.2452 64.1709C56.2713 60.6431 52.6748 59.9701 49.8249 60.4605Z" fill="#9B5F1F"/>
<defs>
<filter id="filter0_f_138_1203" x="27" y="68" width="46" height="22" filterUnits="userSpaceOnUse" color-interpolation-filters="sRGB">
<feFlood flood-opacity="0" result="BackgroundImageFix"/>
<feBlend mode="normal" in="SourceGraphic" in2="BackgroundImageFix" result="shape"/>
<feGaussianBlur stdDeviation="3.5" result="effect1_foregroundBlur_138_1203"/>
</filter>
<filter id="filter1_f_138_1203" x="31.429" y="40.8196" width="18.0002" height="15.6142" filterUnits="userSpaceOnUse" color-interpolation-filters="sRGB">
<feFlood flood-opacity="0" result="BackgroundImageFix"/>
<feBlend mode="normal" in="SourceGraphic" in2="BackgroundImageFix" result="shape"/>
<feGaussianBlur stdDeviation="2.5" result="effect1_foregroundBlur_138_1203"/>
</filter>
<filter id="filter2_f_138_1203" x="52.0008" y="40.8196" width="18.0002" height="15.6142" filterUnits="userSpaceOnUse" color-interpolation-filters="sRGB">
<feFlood flood-opacity="0" result="BackgroundImageFix"/>
<feBlend mode="normal" in="SourceGraphic" in2="BackgroundImageFix" result="shape"/>
<feGaussianBlur stdDeviation="2.5" result="effect1_foregroundBlur_138_1203"/>
</filter>
<linearGradient id="paint0_linear_138_1203" x1="59.6985" y1="12.3475" x2="48.0974" y2="66.847" gradientUnits="userSpaceOnUse">
<stop stop-color="#ECE2C9"/>
<stop offset="1" stop-color="#ECE2C9" stop-opacity="0"/>
</linearGradient>
<linearGradient id="paint1_linear_138_1203" x1="40.3395" y1="39.7398" x2="40.3395" y2="50.5627" gradientUnits="userSpaceOnUse">
<stop stop-color="#4A444D"/>
<stop offset="1" stop-color="#0F0E0F"/>
</linearGradient>
<linearGradient id="paint2_linear_138_1203" x1="40.429" y1="45.8196" x2="40.429" y2="51.4338" gradientUnits="userSpaceOnUse">
<stop stop-color="#4A444D"/>
<stop offset="1" stop-color="#0F0E0F"/>
</linearGradient>
<linearGradient id="paint3_linear_138_1203" x1="61.0008" y1="45.8196" x2="61.0008" y2="51.4338" gradientUnits="userSpaceOnUse">
<stop stop-color="#4A444D"/>
<stop offset="1" stop-color="#0F0E0F"/>
</linearGradient>
<linearGradient id="paint4_linear_138_1203" x1="61.033" y1="39.7397" x2="61.033" y2="50.5627" gradientUnits="userSpaceOnUse">
<stop stop-color="#4A444D"/>
<stop offset="1" stop-color="#0F0E0F"/>
</linearGradient>
</defs>
</svg>
