<?xml version="1.0" standalone="no"?>
<!DOCTYPE svg PUBLIC "-//W3C//DTD SVG 20010904//EN"
 "http://www.w3.org/TR/2001/REC-SVG-20010904/DTD/svg10.dtd">
<svg version="1.0" xmlns="http://www.w3.org/2000/svg"
 width="250.000000pt" height="250.000000pt" viewBox="0 0 250.000000 250.000000"
 preserveAspectRatio="xMidYMid meet">

<g transform="translate(0.000000,250.000000) scale(0.100000,-0.100000)"
fill="#000000" stroke="none">
<path d="M1065 2316 c-293 -49 -526 -169 -712 -369 -299 -321 -366 -767 -171
-1152 57 -114 113 -187 214 -285 142 -137 266 -211 457 -275 321 -107 683 -77
986 80 112 59 198 124 297 227 93 97 128 145 183 254 146 290 146 615 -2 909
-151 301 -458 525 -822 601 -107 22 -328 27 -430 10z m365 -11 c314 -47 578
-195 764 -427 277 -344 296 -814 51 -1184 -141 -213 -356 -370 -618 -453 -313
-99 -645 -73 -940 75 -277 139 -490 388 -567 665 -169 612 260 1216 940 1324
114 18 255 18 370 0z"/>
<path d="M880 1750 c-43 -43 -32 -112 23 -138 57 -28 117 12 117 76 0 27 -7
45 -23 60 -30 29 -89 30 -117 2z"/>
<path d="M1502 1747 c-63 -67 12 -175 95 -135 55 26 66 95 23 138 -29 29 -90
27 -118 -3z"/>
<path d="M813 1330 c-35 -14 -46 -47 -41 -120 10 -142 93 -231 258 -276 83
-23 337 -26 420 -5 141 36 222 97 259 195 27 73 28 155 2 187 l-19 24 -429 2
c-235 1 -438 -2 -450 -7z m898 -37 c9 -24 7 -129 -3 -138 -2 -2 -39 3 -83 11
-215 38 -535 38 -750 0 -44 -8 -81 -13 -83 -11 -10 9 -12 114 -3 138 l11 27
450 0 450 0 11 -27z m-236 -123 c50 -5 120 -14 156 -21 78 -14 80 -23 19 -92
-80 -91 -197 -128 -400 -128 -203 0 -320 37 -400 128 -61 70 -59 78 23 93 163
29 431 38 602 20z"/>
</g>
</svg>
