<svg width="49" height="48" viewBox="0 0 49 48" fill="none" xmlns="http://www.w3.org/2000/svg">
<circle cx="24.8333" cy="24" r="24" fill="#CFF6F1"/>
<mask id="mask0_138_1636" style="mask-type:alpha" maskUnits="userSpaceOnUse" x="0" y="0" width="49" height="48">
<circle cx="24.8333" cy="24" r="24" fill="#CFF6F1"/>
</mask>
<g mask="url(#mask0_138_1636)">
<path d="M34.5312 24.3672C37.6249 24.3672 40.1328 21.8593 40.1328 18.7656C40.1328 15.672 37.6249 13.1641 34.5312 13.1641C31.4376 13.1641 28.9297 15.672 28.9297 18.7656C28.9297 21.8593 31.4376 24.3672 34.5312 24.3672Z" fill="url(#paint0_linear_138_1636)"/>
<path d="M34.5313 13.1641C34.1406 13.1641 33.7578 13.2031 33.3906 13.2812V24.2422C33.7578 24.3203 34.1406 24.3594 34.5313 24.3594C37.625 24.3594 40.1328 21.8516 40.1328 18.7578C40.1328 15.6641 37.625 13.1641 34.5313 13.1641Z" fill="url(#paint1_linear_138_1636)"/>
<path d="M28.9375 18.7656C28.9375 21.8594 31.4453 24.3672 34.5391 24.3672C37.6328 24.3672 40.1406 21.8594 40.1406 18.7656C40.1406 18.3516 40.0938 17.9531 40.0078 17.5703H29.0703C28.9766 17.9531 28.9375 18.3516 28.9375 18.7656Z" fill="url(#paint2_linear_138_1636)"/>
<path d="M37.3672 13.9375L29.7109 21.5937C30.6875 23.25 32.4844 24.3594 34.5391 24.3594C37.6328 24.3594 40.1406 21.8516 40.1406 18.7578C40.1328 16.7109 39.0156 14.9141 37.3672 13.9375Z" fill="url(#paint3_linear_138_1636)"/>
<path d="M34.5312 10C34.2109 10 33.9453 10.2656 33.9453 10.5859V11.9375C33.9453 12.2578 34.2109 12.5234 34.5312 12.5234C34.8516 12.5234 35.1172 12.2578 35.1172 11.9375V10.5859C35.1172 10.2656 34.8594 10 34.5312 10Z" fill="url(#paint4_linear_138_1636)"/>
<path d="M34.5312 25.0078C34.2109 25.0078 33.9453 25.2734 33.9453 25.5938V26.9453C33.9453 27.2656 34.2109 27.5312 34.5312 27.5312C34.8516 27.5312 35.1172 27.2656 35.1172 26.9453V25.5938C35.1172 25.2734 34.8594 25.0078 34.5312 25.0078Z" fill="url(#paint5_linear_138_1636)"/>
<path d="M43.2969 18.7656C43.2969 18.4453 43.0313 18.1797 42.7109 18.1797H41.3594C41.0391 18.1797 40.7734 18.4453 40.7734 18.7656C40.7734 19.0859 41.0391 19.3516 41.3594 19.3516H42.7109C43.0313 19.3516 43.2969 19.0859 43.2969 18.7656Z" fill="url(#paint6_linear_138_1636)"/>
<path d="M28.2891 18.7656C28.2891 18.4453 28.0234 18.1797 27.7031 18.1797H26.3516C26.0312 18.1797 25.7656 18.4453 25.7656 18.7656C25.7656 19.0859 26.0312 19.3516 26.3516 19.3516H27.7031C28.0234 19.3516 28.2891 19.0859 28.2891 18.7656Z" fill="url(#paint7_linear_138_1636)"/>
<path d="M28.3359 12.5703C28.1094 12.7969 28.1094 13.1719 28.3359 13.3984L29.2891 14.3516C29.5156 14.5781 29.8906 14.5781 30.1172 14.3516C30.3437 14.125 30.3437 13.75 30.1172 13.5234L29.1641 12.5703C28.9375 12.3359 28.5625 12.3359 28.3359 12.5703Z" fill="url(#paint8_linear_138_1636)"/>
<path d="M38.9453 23.1797C38.7188 23.4063 38.7188 23.7813 38.9453 24.0078L39.8984 24.9609C40.125 25.1875 40.5 25.1875 40.7266 24.9609C40.9531 24.7344 40.9531 24.3594 40.7266 24.1328L39.7734 23.1797C39.5469 22.9531 39.1797 22.9531 38.9453 23.1797Z" fill="url(#paint9_linear_138_1636)"/>
<path d="M40.7266 12.5703C40.5 12.3438 40.125 12.3438 39.8984 12.5703L38.9453 13.5234C38.7188 13.75 38.7188 14.125 38.9453 14.3516C39.1719 14.5781 39.5469 14.5781 39.7734 14.3516L40.7266 13.3984C40.9609 13.1641 40.9609 12.7969 40.7266 12.5703Z" fill="url(#paint10_linear_138_1636)"/>
<path d="M30.1172 23.1797C29.8906 22.9531 29.5156 22.9531 29.2891 23.1797L28.3359 24.1328C28.1094 24.3594 28.1094 24.7344 28.3359 24.9609C28.5625 25.1875 28.9375 25.1875 29.1641 24.9609L30.1172 24.0078C30.3437 23.7813 30.3437 23.4063 30.1172 23.1797Z" fill="url(#paint11_linear_138_1636)"/>
<path d="M27.0703 23.9844V28.9062C27.0703 29.8203 26.7031 30.6484 26.1016 31.25C25.5 31.8516 24.6719 32.2188 23.7578 32.2188V32.9609C23.7578 35.0859 23.5547 37.2031 23.1562 39.2891L22.3359 43.5312L12.875 26.0391V20.0234C12.8906 20.0156 12.9141 20.0078 12.9297 20.0078C14.7578 19.4375 16.6484 19.1562 18.5391 19.1562C20.4297 19.1562 22.3203 19.4375 24.1484 20.0078C25.8828 20.5547 27.0703 22.1641 27.0703 23.9844Z" fill="url(#paint12_linear_138_1636)"/>
<path d="M18.5391 19.1641C20.2969 19.1641 22.0547 19.4062 23.7656 19.8984V32.9609C23.7656 35.0859 23.5625 37.2031 23.1641 39.2891L22.3438 43.5313L12.875 26.0391V20.0234C12.8906 20.0156 12.9141 20.0078 12.9297 20.0078C14.7578 19.4453 16.6484 19.1641 18.5391 19.1641Z" fill="url(#paint13_linear_138_1636)"/>
<path d="M16.2031 19.3047L26.8906 29.9922C27.0078 29.6562 27.0703 29.2891 27.0703 28.9062V23.9844C27.0703 22.1563 25.8828 20.5469 24.1406 20.0078C22.3125 19.4375 20.4219 19.1562 18.5313 19.1562C17.7578 19.1641 16.9766 19.2109 16.2031 19.3047Z" fill="url(#paint14_linear_138_1636)"/>
<path d="M22.3359 43.5313L22 45.2578L21.2344 49.2344C21.1484 49.6797 20.7656 49.9922 20.3125 49.9922H16.7422C16.2891 49.9922 15.9062 49.6719 15.8203 49.2344L13.9141 39.2891C13.5156 37.2031 13.3125 35.0859 13.3125 32.9609V32.2188C11.4844 32.2188 10 30.7344 10 28.9062V23.9844C10 22.4063 10.8828 20.9922 12.25 20.2891C12.4531 20.1875 12.6562 20.1016 12.875 20.0312C15.3984 22.2422 21.625 29.1328 22.3359 43.5313Z" fill="url(#paint15_linear_138_1636)"/>
<path d="M18.5391 50H20.3203C20.7734 50 21.1563 49.6797 21.2422 49.2422L22.0078 45.2656L22.3437 43.5391C22 36.6484 20.3984 31.4766 18.5391 27.7109V50Z" fill="url(#paint16_linear_138_1636)"/>
<path d="M15.8281 49.2422C15.9141 49.6875 16.2969 50 16.75 50H20.3203C20.7734 50 21.1562 49.6797 21.2422 49.2422L22.0078 45.2656L22.3437 43.5391C22.3203 43.0312 22.2891 42.5312 22.25 42.0391H14.4453L15.8281 49.2422Z" fill="url(#paint17_linear_138_1636)"/>
<path d="M18.5391 19.9844C20.9467 19.9844 22.8984 18.0326 22.8984 15.625C22.8984 13.2174 20.9467 11.2656 18.5391 11.2656C16.1314 11.2656 14.1797 13.2174 14.1797 15.625C14.1797 18.0326 16.1314 19.9844 18.5391 19.9844Z" fill="url(#paint18_linear_138_1636)"/>
<path d="M18.5391 11.2578C18.2344 11.2578 17.9375 11.2891 17.6562 11.3516V19.8906C17.9453 19.9531 18.2422 19.9844 18.5391 19.9844C20.9453 19.9844 22.8984 18.0312 22.8984 15.625C22.8984 13.2188 20.9453 11.2578 18.5391 11.2578Z" fill="url(#paint19_linear_138_1636)"/>
<path d="M14.1719 15.625C14.1719 18.0312 16.125 19.9844 18.5312 19.9844C20.9375 19.9844 22.8906 18.0312 22.8906 15.625C22.8906 15.3047 22.8516 14.9922 22.7891 14.6953H14.2734C14.2109 14.9922 14.1719 15.3047 14.1719 15.625Z" fill="url(#paint20_linear_138_1636)"/>
<path d="M20.7422 11.8594L14.7734 17.8281C15.5312 19.1172 16.9297 19.9844 18.5312 19.9844C20.9375 19.9844 22.8906 18.0312 22.8906 15.625C22.8984 14.0156 22.0312 12.6172 20.7422 11.8594Z" fill="url(#paint21_linear_138_1636)"/>
<path d="M27.0703 28.9141V23.9922C27.0703 22.1641 25.8828 20.5547 24.1406 20.0156C24.0156 19.9766 23.8906 19.9375 23.7578 19.8984V32.2266C24.6719 32.2266 25.5 31.8594 26.1016 31.2578C26.7031 30.6563 27.0703 29.8281 27.0703 28.9141Z" fill="url(#paint22_linear_138_1636)"/>
<path d="M27.0703 25.0391V28.9062C27.0703 29.8203 26.7031 30.6484 26.1016 31.25C25.5 31.8516 24.6719 32.2187 23.7578 32.2187V25.0391H27.0703Z" fill="url(#paint23_linear_138_1636)"/>
<path d="M10 28.9141V23.9922C10 22.1641 11.1875 20.5547 12.9297 20.0156C13.0547 19.9766 13.1797 19.9375 13.3125 19.8984V32.2266C12.3984 32.2266 11.5703 31.8594 10.9687 31.2578C10.3672 30.6563 10 29.8281 10 28.9141Z" fill="url(#paint24_linear_138_1636)"/>
<path d="M10 25.0391V28.9062C10 29.8203 10.3672 30.6484 10.9687 31.25C11.5703 31.8516 12.3984 32.2187 13.3125 32.2187V25.0391H10Z" fill="url(#paint25_linear_138_1636)"/>
<path d="M33.7266 28.4766V32.7422C33.7266 33.0391 33.6094 33.3203 33.3984 33.5313L30.0312 36.8984L29.2891 36.1562C28.9687 35.8359 28.4297 36 28.3359 36.4453L27.6641 39.75C27.5781 40.1484 27.9297 40.4922 28.3281 40.4141L31.6328 39.7344C32.0703 39.6484 32.2344 39.1016 31.9141 38.7891L31.1719 38.0469L34.6172 34.6016C35.0859 34.1328 35.3437 33.5 35.3437 32.8438V28.4766C35.3437 28.3828 35.2656 28.2969 35.1641 28.2969H33.8984C33.8047 28.3047 33.7266 28.3828 33.7266 28.4766Z" fill="url(#paint26_linear_138_1636)"/>
<path d="M31.1719 38.0469L31.9141 38.7891C32.2344 39.1094 32.0703 39.6484 31.6328 39.7422L28.3281 40.4219C28.237 40.4406 28.1426 40.4364 28.0534 40.4096C27.9643 40.3829 27.8832 40.3344 27.8173 40.2686C27.7515 40.2028 27.7031 40.1217 27.6763 40.0325C27.6496 39.9434 27.6454 39.849 27.6641 39.7578L28.0156 38.0547H31.1719V38.0469Z" fill="url(#paint27_linear_138_1636)"/>
<path d="M31.1719 38.0469L31.9141 38.7891C32.2344 39.1094 32.0703 39.6484 31.6328 39.7422L28.3281 40.4219C28.237 40.4406 28.1426 40.4364 28.0534 40.4096C27.9643 40.3829 27.8832 40.3344 27.8173 40.2686C27.7515 40.2028 27.7031 40.1217 27.6763 40.0325C27.6496 39.9434 27.6454 39.849 27.6641 39.7578L28.0156 38.0547H31.1719V38.0469Z" fill="url(#paint28_linear_138_1636)"/>
<path d="M31.1719 38.0469L31.9141 38.7891C32.2344 39.1094 32.0703 39.6484 31.625 39.7422L28.9219 40.2969L31.1719 38.0469Z" fill="url(#paint29_linear_138_1636)"/>
<path d="M28.3359 36.4453C28.4297 36.0078 28.9687 35.8437 29.2891 36.1562L30.0312 36.8984L27.7891 39.1406L28.3359 36.4453Z" fill="url(#paint30_linear_138_1636)"/>
<path d="M28.7109 26.0625V27.7344C28.7109 28.0312 28.5937 28.3125 28.3828 28.5234L25.0156 31.8906L24.2734 31.1484C23.9531 30.8281 23.4141 30.9922 23.3203 31.4375L22.6484 34.7422C22.5625 35.1406 22.9141 35.4844 23.3125 35.4062L26.6172 34.7266C27.0547 34.6406 27.2187 34.0937 26.8984 33.7812L26.1562 33.0391L29.6016 29.5937C30.0703 29.125 30.3281 28.4922 30.3281 27.8359V26.0625C30.3281 25.9688 30.25 25.8828 30.1484 25.8828H28.8828C28.7891 25.8828 28.7109 25.9609 28.7109 26.0625Z" fill="url(#paint31_linear_138_1636)"/>
<path d="M26.1562 33.0312L26.8984 33.7734C27.2188 34.0938 27.0547 34.6328 26.6172 34.7266L23.3125 35.4063C23.2213 35.425 23.1269 35.4207 23.0378 35.394C22.9486 35.3672 22.8675 35.3188 22.8017 35.253C22.7359 35.1872 22.6874 35.106 22.6607 35.0169C22.6339 34.9278 22.6297 34.8334 22.6484 34.7422L23 33.0391H26.1562V33.0312Z" fill="url(#paint32_linear_138_1636)"/>
<path d="M26.1562 33.0312L26.8984 33.7734C27.2188 34.0938 27.0547 34.6328 26.6172 34.7266L23.3125 35.4063C23.2213 35.425 23.1269 35.4207 23.0378 35.394C22.9486 35.3672 22.8675 35.3188 22.8017 35.253C22.7359 35.1872 22.6874 35.106 22.6607 35.0169C22.6339 34.9278 22.6297 34.8334 22.6484 34.7422L23 33.0391H26.1562V33.0312Z" fill="url(#paint33_linear_138_1636)"/>
<path d="M26.1563 33.0312L26.8984 33.7734C27.2188 34.0938 27.0547 34.6328 26.6094 34.7266L23.9062 35.2813L26.1563 33.0312Z" fill="url(#paint34_linear_138_1636)"/>
<path d="M23.3203 31.4375C23.4141 31 23.9531 30.8359 24.2734 31.1484L25.0156 31.8906L22.7734 34.1328L23.3203 31.4375Z" fill="url(#paint35_linear_138_1636)"/>
<circle cx="24.8333" cy="24" r="23.5" stroke="#C5ECE7"/>
</g>
<defs>
<linearGradient id="paint0_linear_138_1636" x1="32.4965" y1="16.7298" x2="36.8027" y2="21.0359" gradientUnits="userSpaceOnUse">
<stop stop-color="#FEF0AE"/>
<stop offset="1" stop-color="#FAC600"/>
</linearGradient>
<linearGradient id="paint1_linear_138_1636" x1="34.5774" y1="18.7704" x2="39.4215" y2="20.1405" gradientUnits="userSpaceOnUse">
<stop stop-color="#FE9738" stop-opacity="0"/>
<stop offset="0.102" stop-color="#FE9738" stop-opacity="0.02"/>
<stop offset="0.227" stop-color="#FE9738" stop-opacity="0.078"/>
<stop offset="0.361" stop-color="#FE9738" stop-opacity="0.175"/>
<stop offset="0.505" stop-color="#FE9738" stop-opacity="0.31"/>
<stop offset="0.654" stop-color="#FE9738" stop-opacity="0.483"/>
<stop offset="0.808" stop-color="#FE9738" stop-opacity="0.695"/>
<stop offset="0.965" stop-color="#FE9738" stop-opacity="0.94"/>
<stop offset="1" stop-color="#FE9738"/>
</linearGradient>
<linearGradient id="paint2_linear_138_1636" x1="34.5319" y1="19.5599" x2="34.5319" y2="23.8541" gradientUnits="userSpaceOnUse">
<stop stop-color="#FE9738" stop-opacity="0"/>
<stop offset="0.102" stop-color="#FE9738" stop-opacity="0.02"/>
<stop offset="0.227" stop-color="#FE9738" stop-opacity="0.078"/>
<stop offset="0.361" stop-color="#FE9738" stop-opacity="0.175"/>
<stop offset="0.505" stop-color="#FE9738" stop-opacity="0.31"/>
<stop offset="0.654" stop-color="#FE9738" stop-opacity="0.483"/>
<stop offset="0.808" stop-color="#FE9738" stop-opacity="0.695"/>
<stop offset="0.965" stop-color="#FE9738" stop-opacity="0.94"/>
<stop offset="1" stop-color="#FE9738"/>
</linearGradient>
<linearGradient id="paint3_linear_138_1636" x1="36.8216" y1="21.0548" x2="38.8734" y2="23.1067" gradientUnits="userSpaceOnUse">
<stop stop-color="#FEF0AE" stop-opacity="0"/>
<stop offset="0.098" stop-color="#FEF0AE" stop-opacity="0.021"/>
<stop offset="0.222" stop-color="#FEF0AF" stop-opacity="0.083"/>
<stop offset="0.36" stop-color="#FEF0B2" stop-opacity="0.185"/>
<stop offset="0.508" stop-color="#FEF1B5" stop-opacity="0.327"/>
<stop offset="0.665" stop-color="#FEF2BA" stop-opacity="0.509"/>
<stop offset="0.828" stop-color="#FEF3BF" stop-opacity="0.732"/>
<stop offset="0.994" stop-color="#FEF4C5" stop-opacity="0.991"/>
<stop offset="1" stop-color="#FFF5C6"/>
</linearGradient>
<linearGradient id="paint4_linear_138_1636" x1="33.8936" y1="10.6222" x2="35.5403" y2="12.2689" gradientUnits="userSpaceOnUse">
<stop stop-color="#FEF0AE"/>
<stop offset="1" stop-color="#FAC600"/>
</linearGradient>
<linearGradient id="paint5_linear_138_1636" x1="33.8936" y1="25.6315" x2="35.5403" y2="27.2782" gradientUnits="userSpaceOnUse">
<stop stop-color="#FEF0AE"/>
<stop offset="1" stop-color="#FAC600"/>
</linearGradient>
<linearGradient id="paint6_linear_138_1636" x1="42.0366" y1="18.0592" x2="42.0366" y2="19.7579" gradientUnits="userSpaceOnUse">
<stop stop-color="#FEF0AE"/>
<stop offset="1" stop-color="#FAC600"/>
</linearGradient>
<linearGradient id="paint7_linear_138_1636" x1="27.0273" y1="18.0592" x2="27.0273" y2="19.7579" gradientUnits="userSpaceOnUse">
<stop stop-color="#FEF0AE"/>
<stop offset="1" stop-color="#FAC600"/>
</linearGradient>
<linearGradient id="paint8_linear_138_1636" x1="28.3204" y1="13.4468" x2="30.6493" y2="13.4468" gradientUnits="userSpaceOnUse">
<stop stop-color="#FEF0AE"/>
<stop offset="1" stop-color="#FAC600"/>
</linearGradient>
<linearGradient id="paint9_linear_138_1636" x1="38.9337" y1="24.0598" x2="41.2625" y2="24.0598" gradientUnits="userSpaceOnUse">
<stop stop-color="#FEF0AE"/>
<stop offset="1" stop-color="#FAC600"/>
</linearGradient>
<linearGradient id="paint10_linear_138_1636" x1="39.8274" y1="12.5762" x2="39.8274" y2="14.9049" gradientUnits="userSpaceOnUse">
<stop stop-color="#FEF0AE"/>
<stop offset="1" stop-color="#FAC600"/>
</linearGradient>
<linearGradient id="paint11_linear_138_1636" x1="29.2142" y1="23.1893" x2="29.2142" y2="25.5181" gradientUnits="userSpaceOnUse">
<stop stop-color="#FEF0AE"/>
<stop offset="1" stop-color="#FAC600"/>
</linearGradient>
<linearGradient id="paint12_linear_138_1636" x1="13.4448" y1="27.8604" x2="25.7847" y2="32.7791" gradientUnits="userSpaceOnUse">
<stop stop-color="#FFA78F"/>
<stop offset="1" stop-color="#CA6E59"/>
</linearGradient>
<linearGradient id="paint13_linear_138_1636" x1="20.9912" y1="31.219" x2="24.9032" y2="32.1395" gradientUnits="userSpaceOnUse">
<stop stop-color="#8C3D27" stop-opacity="0"/>
<stop offset="0.142" stop-color="#8C3D27" stop-opacity="0.038"/>
<stop offset="0.319" stop-color="#8C3D27" stop-opacity="0.147"/>
<stop offset="0.514" stop-color="#8C3D27" stop-opacity="0.327"/>
<stop offset="0.722" stop-color="#8C3D27" stop-opacity="0.579"/>
<stop offset="0.938" stop-color="#8C3D27" stop-opacity="0.899"/>
<stop offset="1" stop-color="#8C3D27"/>
</linearGradient>
<linearGradient id="paint14_linear_138_1636" x1="21.8062" y1="21.7335" x2="20.3987" y2="17.9331" gradientUnits="userSpaceOnUse">
<stop stop-color="#8C3D27" stop-opacity="0"/>
<stop offset="0.142" stop-color="#8C3D27" stop-opacity="0.038"/>
<stop offset="0.319" stop-color="#8C3D27" stop-opacity="0.147"/>
<stop offset="0.514" stop-color="#8C3D27" stop-opacity="0.327"/>
<stop offset="0.722" stop-color="#8C3D27" stop-opacity="0.579"/>
<stop offset="0.938" stop-color="#8C3D27" stop-opacity="0.899"/>
<stop offset="1" stop-color="#8C3D27"/>
</linearGradient>
<linearGradient id="paint15_linear_138_1636" x1="11.1596" y1="33.5933" x2="23.4995" y2="38.512" gradientUnits="userSpaceOnUse">
<stop stop-color="#FFDFCF"/>
<stop offset="1" stop-color="#FFA78F"/>
</linearGradient>
<linearGradient id="paint16_linear_138_1636" x1="20.113" y1="38.6549" x2="14.8203" y2="40.3808" gradientUnits="userSpaceOnUse">
<stop stop-color="#F89580" stop-opacity="0"/>
<stop offset="0.103" stop-color="#F5937E" stop-opacity="0.048"/>
<stop offset="0.275" stop-color="#EE8E79" stop-opacity="0.18"/>
<stop offset="0.495" stop-color="#E38671" stop-opacity="0.393"/>
<stop offset="0.751" stop-color="#D57C65" stop-opacity="0.686"/>
<stop offset="0.997" stop-color="#C5715A"/>
</linearGradient>
<linearGradient id="paint17_linear_138_1636" x1="18.3906" y1="47.3805" x2="18.3906" y2="49.9123" gradientUnits="userSpaceOnUse">
<stop stop-color="#F89580" stop-opacity="0"/>
<stop offset="0.103" stop-color="#F5937E" stop-opacity="0.048"/>
<stop offset="0.275" stop-color="#EE8E79" stop-opacity="0.18"/>
<stop offset="0.495" stop-color="#E38671" stop-opacity="0.393"/>
<stop offset="0.751" stop-color="#D57C65" stop-opacity="0.686"/>
<stop offset="0.997" stop-color="#C5715A"/>
</linearGradient>
<linearGradient id="paint18_linear_138_1636" x1="16.9496" y1="14.0361" x2="20.3048" y2="17.3912" gradientUnits="userSpaceOnUse">
<stop stop-color="#FFA78F"/>
<stop offset="1" stop-color="#CA6E59"/>
</linearGradient>
<linearGradient id="paint19_linear_138_1636" x1="18.5709" y1="15.6261" x2="22.3452" y2="16.6935" gradientUnits="userSpaceOnUse">
<stop stop-color="#8C3D27" stop-opacity="0"/>
<stop offset="0.142" stop-color="#8C3D27" stop-opacity="0.038"/>
<stop offset="0.319" stop-color="#8C3D27" stop-opacity="0.147"/>
<stop offset="0.514" stop-color="#8C3D27" stop-opacity="0.327"/>
<stop offset="0.722" stop-color="#8C3D27" stop-opacity="0.579"/>
<stop offset="0.938" stop-color="#8C3D27" stop-opacity="0.899"/>
<stop offset="1" stop-color="#8C3D27"/>
</linearGradient>
<linearGradient id="paint20_linear_138_1636" x1="18.5355" y1="16.2413" x2="18.5355" y2="19.587" gradientUnits="userSpaceOnUse">
<stop stop-color="#8C3D27" stop-opacity="0"/>
<stop offset="0.142" stop-color="#8C3D27" stop-opacity="0.038"/>
<stop offset="0.319" stop-color="#8C3D27" stop-opacity="0.147"/>
<stop offset="0.514" stop-color="#8C3D27" stop-opacity="0.327"/>
<stop offset="0.722" stop-color="#8C3D27" stop-opacity="0.579"/>
<stop offset="0.938" stop-color="#8C3D27" stop-opacity="0.899"/>
<stop offset="1" stop-color="#8C3D27"/>
</linearGradient>
<linearGradient id="paint21_linear_138_1636" x1="20.8316" y1="17.918" x2="22.2054" y2="19.2919" gradientUnits="userSpaceOnUse">
<stop stop-color="#FFEEE6" stop-opacity="0"/>
<stop offset="0.1" stop-color="#FFEEE6" stop-opacity="0.021"/>
<stop offset="0.223" stop-color="#FFEEE6" stop-opacity="0.081"/>
<stop offset="0.36" stop-color="#FFEEE6" stop-opacity="0.18"/>
<stop offset="0.506" stop-color="#FFEEE6" stop-opacity="0.319"/>
<stop offset="0.659" stop-color="#FFEEE6" stop-opacity="0.497"/>
<stop offset="0.818" stop-color="#FFEEE6" stop-opacity="0.714"/>
<stop offset="0.98" stop-color="#FFEEE6" stop-opacity="0.966"/>
<stop offset="1" stop-color="#FFEEE6"/>
</linearGradient>
<linearGradient id="paint22_linear_138_1636" x1="24.9955" y1="26.0592" x2="27.504" y2="26.0592" gradientUnits="userSpaceOnUse">
<stop stop-color="#8C3D27" stop-opacity="0"/>
<stop offset="0.142" stop-color="#8C3D27" stop-opacity="0.038"/>
<stop offset="0.319" stop-color="#8C3D27" stop-opacity="0.147"/>
<stop offset="0.514" stop-color="#8C3D27" stop-opacity="0.327"/>
<stop offset="0.722" stop-color="#8C3D27" stop-opacity="0.579"/>
<stop offset="0.938" stop-color="#8C3D27" stop-opacity="0.899"/>
<stop offset="1" stop-color="#8C3D27"/>
</linearGradient>
<linearGradient id="paint23_linear_138_1636" x1="25.416" y1="26.6125" x2="25.416" y2="32.1099" gradientUnits="userSpaceOnUse">
<stop stop-color="#8C3D27" stop-opacity="0"/>
<stop offset="0.142" stop-color="#8C3D27" stop-opacity="0.038"/>
<stop offset="0.319" stop-color="#8C3D27" stop-opacity="0.147"/>
<stop offset="0.514" stop-color="#8C3D27" stop-opacity="0.327"/>
<stop offset="0.722" stop-color="#8C3D27" stop-opacity="0.579"/>
<stop offset="0.938" stop-color="#8C3D27" stop-opacity="0.899"/>
<stop offset="1" stop-color="#8C3D27"/>
</linearGradient>
<linearGradient id="paint24_linear_138_1636" x1="12.5242" y1="25.9268" x2="14.3652" y2="26.3295" gradientUnits="userSpaceOnUse">
<stop stop-color="#F89580" stop-opacity="0"/>
<stop offset="0.103" stop-color="#F5937E" stop-opacity="0.048"/>
<stop offset="0.275" stop-color="#EE8E79" stop-opacity="0.18"/>
<stop offset="0.495" stop-color="#E38671" stop-opacity="0.393"/>
<stop offset="0.751" stop-color="#D57C65" stop-opacity="0.686"/>
<stop offset="0.997" stop-color="#C5715A"/>
</linearGradient>
<linearGradient id="paint25_linear_138_1636" x1="11.655" y1="26.6125" x2="11.655" y2="32.1099" gradientUnits="userSpaceOnUse">
<stop stop-color="#F89580" stop-opacity="0"/>
<stop offset="0.103" stop-color="#F5937E" stop-opacity="0.048"/>
<stop offset="0.275" stop-color="#EE8E79" stop-opacity="0.18"/>
<stop offset="0.495" stop-color="#E38671" stop-opacity="0.393"/>
<stop offset="0.751" stop-color="#D57C65" stop-opacity="0.686"/>
<stop offset="0.997" stop-color="#C5715A"/>
</linearGradient>
<linearGradient id="paint26_linear_138_1636" x1="30.1844" y1="33.2337" x2="34.7512" y2="36.8352" gradientUnits="userSpaceOnUse">
<stop stop-color="#99E6FC"/>
<stop offset="1" stop-color="#2ED1E2"/>
</linearGradient>
<linearGradient id="paint27_linear_138_1636" x1="29.7185" y1="38.5241" x2="30.001" y2="40.5177" gradientUnits="userSpaceOnUse">
<stop stop-color="#017BAE" stop-opacity="0"/>
<stop offset="0.115" stop-color="#017BAE" stop-opacity="0.038"/>
<stop offset="0.279" stop-color="#017BAE" stop-opacity="0.145"/>
<stop offset="0.471" stop-color="#017BAE" stop-opacity="0.321"/>
<stop offset="0.685" stop-color="#017BAE" stop-opacity="0.565"/>
<stop offset="0.915" stop-color="#017BAE" stop-opacity="0.875"/>
<stop offset="1" stop-color="#017BAE"/>
</linearGradient>
<linearGradient id="paint28_linear_138_1636" x1="29.8894" y1="39.661" x2="30.0244" y2="40.2816" gradientUnits="userSpaceOnUse">
<stop stop-color="#C8EFFE" stop-opacity="0"/>
<stop offset="0.09" stop-color="#C8EFFE" stop-opacity="0.026"/>
<stop offset="0.217" stop-color="#C8EFFE" stop-opacity="0.1"/>
<stop offset="0.367" stop-color="#C8EFFE" stop-opacity="0.22"/>
<stop offset="0.534" stop-color="#C8EFFE" stop-opacity="0.388"/>
<stop offset="0.716" stop-color="#C8EFFE" stop-opacity="0.603"/>
<stop offset="0.906" stop-color="#C8EFFE" stop-opacity="0.861"/>
<stop offset="1" stop-color="#C8EFFE"/>
</linearGradient>
<linearGradient id="paint29_linear_138_1636" x1="31.4209" y1="38.9389" x2="31.8398" y2="38.5201" gradientUnits="userSpaceOnUse">
<stop stop-color="#C8EFFE" stop-opacity="0"/>
<stop offset="0.09" stop-color="#C8EFFE" stop-opacity="0.026"/>
<stop offset="0.217" stop-color="#C8EFFE" stop-opacity="0.1"/>
<stop offset="0.367" stop-color="#C8EFFE" stop-opacity="0.22"/>
<stop offset="0.534" stop-color="#C8EFFE" stop-opacity="0.388"/>
<stop offset="0.716" stop-color="#C8EFFE" stop-opacity="0.603"/>
<stop offset="0.906" stop-color="#C8EFFE" stop-opacity="0.861"/>
<stop offset="1" stop-color="#C8EFFE"/>
</linearGradient>
<linearGradient id="paint30_linear_138_1636" x1="29.1366" y1="36.6545" x2="29.5554" y2="36.2357" gradientUnits="userSpaceOnUse">
<stop stop-color="#C8EFFE" stop-opacity="0"/>
<stop offset="0.09" stop-color="#C8EFFE" stop-opacity="0.026"/>
<stop offset="0.217" stop-color="#C8EFFE" stop-opacity="0.1"/>
<stop offset="0.367" stop-color="#C8EFFE" stop-opacity="0.22"/>
<stop offset="0.534" stop-color="#C8EFFE" stop-opacity="0.388"/>
<stop offset="0.716" stop-color="#C8EFFE" stop-opacity="0.603"/>
<stop offset="0.906" stop-color="#C8EFFE" stop-opacity="0.861"/>
<stop offset="1" stop-color="#C8EFFE"/>
</linearGradient>
<linearGradient id="paint31_linear_138_1636" x1="25.0544" y1="29.4246" x2="29.0566" y2="32.5808" gradientUnits="userSpaceOnUse">
<stop stop-color="#99E6FC"/>
<stop offset="1" stop-color="#2ED1E2"/>
</linearGradient>
<linearGradient id="paint32_linear_138_1636" x1="24.7046" y1="33.5102" x2="24.9872" y2="35.5038" gradientUnits="userSpaceOnUse">
<stop stop-color="#017BAE" stop-opacity="0"/>
<stop offset="0.115" stop-color="#017BAE" stop-opacity="0.038"/>
<stop offset="0.279" stop-color="#017BAE" stop-opacity="0.145"/>
<stop offset="0.471" stop-color="#017BAE" stop-opacity="0.321"/>
<stop offset="0.685" stop-color="#017BAE" stop-opacity="0.565"/>
<stop offset="0.915" stop-color="#017BAE" stop-opacity="0.875"/>
<stop offset="1" stop-color="#017BAE"/>
</linearGradient>
<linearGradient id="paint33_linear_138_1636" x1="24.8756" y1="34.6472" x2="25.0105" y2="35.2678" gradientUnits="userSpaceOnUse">
<stop stop-color="#C8EFFE" stop-opacity="0"/>
<stop offset="0.09" stop-color="#C8EFFE" stop-opacity="0.026"/>
<stop offset="0.217" stop-color="#C8EFFE" stop-opacity="0.1"/>
<stop offset="0.367" stop-color="#C8EFFE" stop-opacity="0.22"/>
<stop offset="0.534" stop-color="#C8EFFE" stop-opacity="0.388"/>
<stop offset="0.716" stop-color="#C8EFFE" stop-opacity="0.603"/>
<stop offset="0.906" stop-color="#C8EFFE" stop-opacity="0.861"/>
<stop offset="1" stop-color="#C8EFFE"/>
</linearGradient>
<linearGradient id="paint34_linear_138_1636" x1="26.4071" y1="33.9251" x2="26.8259" y2="33.5063" gradientUnits="userSpaceOnUse">
<stop stop-color="#C8EFFE" stop-opacity="0"/>
<stop offset="0.09" stop-color="#C8EFFE" stop-opacity="0.026"/>
<stop offset="0.217" stop-color="#C8EFFE" stop-opacity="0.1"/>
<stop offset="0.367" stop-color="#C8EFFE" stop-opacity="0.22"/>
<stop offset="0.534" stop-color="#C8EFFE" stop-opacity="0.388"/>
<stop offset="0.716" stop-color="#C8EFFE" stop-opacity="0.603"/>
<stop offset="0.906" stop-color="#C8EFFE" stop-opacity="0.861"/>
<stop offset="1" stop-color="#C8EFFE"/>
</linearGradient>
<linearGradient id="paint35_linear_138_1636" x1="24.1227" y1="31.6407" x2="24.5416" y2="31.2219" gradientUnits="userSpaceOnUse">
<stop stop-color="#C8EFFE" stop-opacity="0"/>
<stop offset="0.09" stop-color="#C8EFFE" stop-opacity="0.026"/>
<stop offset="0.217" stop-color="#C8EFFE" stop-opacity="0.1"/>
<stop offset="0.367" stop-color="#C8EFFE" stop-opacity="0.22"/>
<stop offset="0.534" stop-color="#C8EFFE" stop-opacity="0.388"/>
<stop offset="0.716" stop-color="#C8EFFE" stop-opacity="0.603"/>
<stop offset="0.906" stop-color="#C8EFFE" stop-opacity="0.861"/>
<stop offset="1" stop-color="#C8EFFE"/>
</linearGradient>
</defs>
</svg>
