<svg width="100" height="100" viewBox="0 0 100 100" fill="none" xmlns="http://www.w3.org/2000/svg">
<circle opacity="0.2" cx="50" cy="50" r="42" fill="#C859FF"/>
<g filter="url(#filter0_f_138_1493)">
<ellipse cx="50" cy="79" rx="16" ry="4" fill="#4B1864"/>
</g>
<path d="M50.4283 80.4406C68.1018 80.4406 82.429 66.3646 82.429 49.0011C82.429 31.6375 68.1018 17.5615 50.4283 17.5615C32.7549 17.5615 18.4277 31.6375 18.4277 49.0011C18.4277 66.3646 32.7549 80.4406 50.4283 80.4406Z" fill="#B248E7"/>
<path d="M50.4283 17.5615C42.2646 17.5527 34.4085 20.6211 28.4791 26.1343C25.3361 29.8137 23.1417 34.183 22.0819 38.8722C21.0221 43.5615 21.128 48.4326 22.3906 53.0731C23.6533 57.7136 26.0355 61.9869 29.3356 65.5311C32.6356 69.0753 36.7564 71.786 41.3489 73.4338C45.9414 75.0815 50.8705 75.6178 55.7187 74.9971C60.5669 74.3765 65.1915 72.6172 69.2009 69.8683C73.2103 67.1193 76.4864 63.4617 78.7519 59.205C81.0174 54.9483 82.2055 50.218 82.2156 45.4145C81.3196 37.7484 77.5853 30.6737 71.7237 25.5376C65.8621 20.4015 58.2825 17.5626 50.4283 17.5615Z" fill="#C859FF"/>
<g style="mix-blend-mode:color-burn">
<path d="M50.7461 41.3076C50.7461 47.0871 45.8381 51.2535 41.2346 51.2535C36.6312 51.2535 33.7334 47.3454 33.7334 41.5659C33.7313 40.4227 33.8812 39.2843 34.1792 38.1806C34.2927 37.7637 37.1437 38.7698 41.0917 37.3928C45.4434 35.875 46.6782 32.8336 46.9751 33.1055C49.0534 35.0084 50.7461 37.8309 50.7461 41.3076Z" fill="url(#paint0_radial_138_1493)" style="mix-blend-mode:multiply"/>
</g>
<g style="mix-blend-mode:color-burn">
<path d="M53.6524 42.1331C54.7201 48.3107 58.247 51.5219 62.8504 51.5219C67.4538 51.5219 70.6651 48.1708 70.6651 42.3914C70.6672 41.2482 70.4247 40.4984 70.1267 39.3947C70.0133 38.9778 68.1307 39.8835 64.1827 38.5065C59.831 36.9887 57.784 34.7161 57.4871 34.9879C55.4088 36.8909 53.6524 38.6564 53.6524 42.1331Z" fill="url(#paint1_radial_138_1493)" style="mix-blend-mode:multiply"/>
</g>
<path opacity="0.7" d="M60.4671 22.3797C43.8314 17.2722 29.9024 26.0073 34.4153 35.278C38.9282 44.5486 64.3646 49.7885 72.9801 43.944C79.8348 39.294 73.5955 26.4104 60.4671 22.3797Z" fill="url(#paint2_linear_138_1493)"/>
<path d="M50.4277 54.4228C51.9685 54.4228 53.2176 53.6478 53.2176 52.6916C53.2176 51.7355 51.9685 50.9604 50.4277 50.9604C48.8868 50.9604 47.6377 51.7355 47.6377 52.6916C47.6377 53.6478 48.8868 54.4228 50.4277 54.4228Z" fill="#662D82"/>
<path fill-rule="evenodd" clip-rule="evenodd" d="M48.6844 51.8366C48.2521 52.1048 48.0725 52.419 48.0725 52.6918C48.0725 52.9646 48.2521 53.2787 48.6844 53.547C49.1102 53.8112 49.7256 53.9888 50.4283 53.9888C51.1309 53.9888 51.7464 53.8112 52.1721 53.547C52.6045 53.2787 52.784 52.9646 52.784 52.6918C52.784 52.419 52.6045 52.1048 52.1721 51.8366C51.7464 51.5724 51.1309 51.3948 50.4283 51.3948C49.7256 51.3948 49.1102 51.5724 48.6844 51.8366ZM48.2265 51.0987C48.8105 50.7363 49.5901 50.5264 50.4283 50.5264C51.2665 50.5264 52.046 50.7363 52.63 51.0987C53.2075 51.457 53.6525 52.0085 53.6525 52.6918C53.6525 53.3751 53.2075 53.9266 52.63 54.2849C52.046 54.6472 51.2665 54.8572 50.4283 54.8572C49.5901 54.8572 48.8105 54.6472 48.2265 54.2849C47.6491 53.9266 47.2041 53.3751 47.2041 52.6918C47.2041 52.0085 47.6491 51.457 48.2265 51.0987Z" fill="#522469"/>
<path d="M51.5 57C49.9149 57 43.1145 57.3082 42 66C44.4148 65.0917 48.3367 64.1705 51.5 64.1705C54.6633 64.1705 58.5852 65.0917 61 66C59.8855 57.3082 53.0851 57 51.5 57Z" fill="#662D82"/>
<path fill-rule="evenodd" clip-rule="evenodd" d="M42 66C42.1697 65.9362 42.3469 65.8723 42.5307 65.8086C44.9623 64.9668 48.559 64.1705 51.5 64.1705C54.441 64.1705 58.0377 64.9668 60.4693 65.8086C60.6531 65.8723 60.8303 65.9362 61 66C60.9754 65.8083 60.9481 65.6206 60.9181 65.437C59.588 57.2947 53.0502 57 51.5 57C49.9498 57 43.412 57.2947 42.0819 65.437C42.0519 65.6206 42.0246 65.8083 42 66ZM60.3784 65.2496C59.7128 61.5884 57.9467 59.6845 56.1785 58.6748C54.2546 57.5761 52.2637 57.5 51.5 57.5C50.7363 57.5 48.7454 57.5761 46.8215 58.6748C45.0533 59.6845 43.2872 61.5884 42.6216 65.2496C45.0855 64.4265 48.593 63.6705 51.5 63.6705C54.407 63.6705 57.9145 64.4265 60.3784 65.2496Z" fill="#522469"/>
<path d="M41.8016 65.9746L41.7594 66.3042L42.0704 66.1872C44.4687 65.2851 48.3664 64.3705 51.5 64.3705C54.6336 64.3705 58.5313 65.2851 60.9296 66.1872L61.2406 66.3042L61.1984 65.9746C60.6335 61.5694 58.6203 59.263 56.5257 58.0669C54.4427 56.8774 52.3041 56.8 51.5 56.8C50.6959 56.8 48.5573 56.8774 46.4743 58.0669C44.3797 59.263 42.3665 61.5694 41.8016 65.9746Z" stroke="url(#paint3_linear_138_1493)" stroke-width="0.4"/>
<path style="mix-blend-mode:multiply" opacity="0.23" d="M51.5 60.7441C52.8201 60.7441 56.726 60.8657 60 63C57.7773 57.2416 52.8196 57 51.5 57C50.1804 57 45.2226 57.2416 43 63C46.274 60.8657 50.1798 60.7441 51.5 60.7441Z" fill="url(#paint4_linear_138_1493)"/>
<path d="M46.4708 34.2549C45.2281 35.3505 43.8489 36.2807 42.3675 37.0223C39.8733 38.2813 37.4003 38.8898 35.2677 38.8623C35.0651 39.7131 34.9632 40.5849 34.964 41.4595C34.964 45.5552 37.1383 49.0133 40.1167 50.1137C40.761 50.3518 41.6469 49.5985 42.2834 49.2939C44.7942 48.0919 46.1007 47.7013 47.3231 47.7169C48.5677 46.095 49.333 43.8895 49.333 41.4595C49.333 38.5153 48.209 35.9012 46.4708 34.2549Z" fill="white"/>
<path d="M41.4075 39.0233C42.2909 38.7929 43.2252 38.863 44.0593 39.2224C44.8934 39.5818 45.5786 40.2095 46.0043 41.004L43.6615 42.6249L46.4997 42.7516C46.52 43.5032 46.3256 44.2466 45.9388 44.8968C45.5521 45.547 44.9886 46.0776 44.3129 46.4278C43.6373 46.7781 42.8767 46.9338 42.1185 46.8772C41.3602 46.8206 40.6348 46.554 40.0254 46.1078C39.416 45.6616 38.9472 45.054 38.6727 44.3544C38.3982 43.6549 38.3291 42.8918 38.4734 42.1524C38.6176 41.4131 38.9693 40.7275 39.4882 40.1741C40.0072 39.6207 40.6723 39.2218 41.4075 39.0233Z" fill="url(#paint5_linear_138_1493)"/>
<g filter="url(#filter1_d_138_1493)">
<path d="M42.7404 45.8702C42.7404 46.2401 42.6307 46.6017 42.4252 46.9092C42.2197 47.2168 41.9276 47.4565 41.5859 47.598C41.2442 47.7396 40.8681 47.7766 40.5053 47.7045C40.1426 47.6323 39.8093 47.4542 39.5478 47.1926C39.2862 46.9311 39.1081 46.5978 39.0359 46.235C38.9638 45.8723 39.0008 45.4962 39.1424 45.1545C39.2839 44.8128 39.5236 44.5207 39.8312 44.3152C40.1387 44.1097 40.5003 44 40.8702 44C41.3662 44 41.8419 44.197 42.1926 44.5478C42.5434 44.8985 42.7404 45.3742 42.7404 45.8702Z" fill="url(#paint6_linear_138_1493)" fill-opacity="0.4" shape-rendering="crispEdges"/>
</g>
<path d="M57.8261 35.2549C59.0688 36.3505 60.448 37.2807 61.9294 38.0223C64.4235 39.2813 66.8966 39.8898 69.0291 39.8623C69.2318 40.7131 69.3337 41.5849 69.3329 42.4595C69.3329 46.5552 67.1586 50.0133 64.1801 51.1137C63.5359 51.3518 62.65 50.5985 62.0135 50.2939C59.5027 49.0919 58.1962 48.7013 56.9738 48.7169C55.7292 47.095 54.9639 44.8895 54.9639 42.4595C54.9639 39.5153 56.0879 36.9012 57.8261 35.2549Z" fill="white"/>
<path d="M62.8894 40.0233C62.0059 39.7929 61.0717 39.863 60.2376 40.2224C59.4035 40.5818 58.7182 41.2095 58.2925 42.004L60.6354 43.6249L57.7971 43.7516C57.7769 44.5032 57.9713 45.2466 58.3581 45.8968C58.7448 46.547 59.3083 47.0776 59.984 47.4278C60.6596 47.7781 61.4201 47.9338 62.1784 47.8772C62.9367 47.8206 63.6621 47.554 64.2715 47.1078C64.8809 46.6616 65.3497 46.054 65.6242 45.3544C65.8987 44.6549 65.9678 43.8918 65.8235 43.1524C65.6793 42.4131 65.3276 41.7275 64.8086 41.1741C64.2897 40.6207 63.6246 40.2218 62.8894 40.0233Z" fill="url(#paint7_linear_138_1493)"/>
<g filter="url(#filter2_d_138_1493)">
<path d="M64.7404 47.8702C64.7404 48.2401 64.6307 48.6017 64.4252 48.9092C64.2197 49.2168 63.9276 49.4565 63.5859 49.598C63.2442 49.7396 62.8681 49.7766 62.5053 49.7045C62.1426 49.6323 61.8093 49.4542 61.5478 49.1926C61.2862 48.9311 61.1081 48.5978 61.0359 48.235C60.9638 47.8723 61.0008 47.4962 61.1424 47.1545C61.2839 46.8128 61.5236 46.5207 61.8312 46.3152C62.1387 46.1097 62.5003 46 62.8702 46C63.3662 46 63.8419 46.197 64.1926 46.5478C64.5434 46.8985 64.7404 47.3742 64.7404 47.8702Z" fill="url(#paint8_linear_138_1493)" fill-opacity="0.4" shape-rendering="crispEdges"/>
</g>
<path d="M38.7411 27.7726C39.6049 25.4164 43.8548 28.6953 39.3071 34.2713C36.9178 37.2008 32.8379 38.7549 29.5246 38.3471C29.0061 38.2832 28.7978 37.6757 29.2442 37.4043C31.3017 36.1534 36.1826 34.7509 38.7411 27.7726Z" fill="#662D82"/>
<path fill-rule="evenodd" clip-rule="evenodd" d="M39.7638 27.505C39.6507 27.4891 39.5557 27.5112 39.4747 27.5645C39.3912 27.6194 39.2892 27.73 39.2105 27.9448C37.8963 31.5292 35.9761 33.7001 34.1092 35.1329C33.1797 35.8462 32.2698 36.3717 31.4702 36.7949C31.1646 36.9566 30.8836 37.0993 30.6255 37.2305C30.1945 37.4494 29.8272 37.636 29.5161 37.8242C29.5288 37.8348 29.5503 37.8465 29.5857 37.8508C32.7256 38.2373 36.6372 36.7538 38.9197 33.9553C41.1233 31.2533 41.0884 29.25 40.6049 28.2683C40.3538 27.7586 40.0029 27.5387 39.7638 27.505ZM29.5246 38.3471C32.8379 38.7549 36.9178 37.2008 39.3071 34.2713C43.8548 28.6953 39.6049 25.4164 38.7411 27.7726C36.5911 33.6367 32.8011 35.5634 30.4247 36.7715C29.9732 37.001 29.5727 37.2046 29.2442 37.4043C28.7978 37.6757 29.0061 38.2832 29.5246 38.3471Z" fill="#522469"/>
<path d="M63.6327 28.7726C62.7688 26.4164 58.5189 29.6953 63.0666 35.2713C65.4559 38.2008 69.5359 39.7549 72.8491 39.3471C73.3676 39.2832 73.576 38.6757 73.1296 38.4043C71.0721 37.1534 66.1911 35.7509 63.6327 28.7726Z" fill="#662D82"/>
<path fill-rule="evenodd" clip-rule="evenodd" d="M62.6102 28.505C62.7234 28.4891 62.8183 28.5112 62.8994 28.5645C62.9829 28.6194 63.0848 28.73 63.1635 28.9448C64.4777 32.5292 66.398 34.7001 68.2649 36.1329C69.1943 36.8462 70.1042 37.3717 70.9039 37.7949C71.2094 37.9566 71.4904 38.0993 71.7486 38.2305C72.1796 38.4494 72.5468 38.636 72.8579 38.8242C72.8453 38.8348 72.8237 38.8465 72.7883 38.8508C69.6484 39.2373 65.7369 37.7538 63.4544 34.9553C61.2507 32.2533 61.2856 30.25 61.7691 29.2683C62.0202 28.7586 62.3712 28.5387 62.6102 28.505ZM72.8494 39.3471C69.5362 39.7549 65.4562 38.2008 63.0669 35.2713C58.5192 29.6953 62.7691 26.4164 63.633 28.7726C65.7829 34.6367 69.5729 36.5634 71.9493 37.7715C72.4008 38.001 72.8013 38.2046 73.1298 38.4043C73.5762 38.6757 73.3679 39.2832 72.8494 39.3471Z" fill="#522469"/>
<path d="M41.0544 53.7024C41.0138 54.033 40.9084 54.3524 40.7444 54.6423C40.5803 54.9322 40.3608 55.187 40.0982 55.3921C39.8357 55.5971 39.5354 55.7485 39.2144 55.8375C38.8934 55.9265 38.558 55.9514 38.2273 55.9108C37.8967 55.8701 37.5773 55.7648 37.2874 55.6007C36.9975 55.4367 36.7427 55.2171 36.5376 54.9546C36.3326 54.6921 36.1812 54.3918 36.0922 54.0708C36.0032 53.7497 35.9783 53.4143 36.0189 53.0837C36.1898 51.6932 39.2079 47.9297 39.2079 47.9297C39.2079 47.9297 41.2252 52.3119 41.0544 53.7024Z" fill="url(#paint9_radial_138_1493)"/>
<path d="M38.5074 52.24C38.5074 53.599 38.979 54.3734 38.0651 54.6087C37.1535 54.8435 36.5603 53.8827 36.6754 52.946C36.7905 52.0094 38.8384 48.9917 38.8384 48.9917C38.8384 48.9917 38.5074 51.2963 38.5074 52.24Z" fill="url(#paint10_linear_138_1493)"/>
<defs>
<filter id="filter0_f_138_1493" x="27" y="68" width="46" height="22" filterUnits="userSpaceOnUse" color-interpolation-filters="sRGB">
<feFlood flood-opacity="0" result="BackgroundImageFix"/>
<feBlend mode="normal" in="SourceGraphic" in2="BackgroundImageFix" result="shape"/>
<feGaussianBlur stdDeviation="3.5" result="effect1_foregroundBlur_138_1493"/>
</filter>
<filter id="filter1_d_138_1493" x="35" y="44" width="11.7404" height="11.7404" filterUnits="userSpaceOnUse" color-interpolation-filters="sRGB">
<feFlood flood-opacity="0" result="BackgroundImageFix"/>
<feColorMatrix in="SourceAlpha" type="matrix" values="0 0 0 0 0 0 0 0 0 0 0 0 0 0 0 0 0 0 127 0" result="hardAlpha"/>
<feOffset dy="4"/>
<feGaussianBlur stdDeviation="2"/>
<feComposite in2="hardAlpha" operator="out"/>
<feColorMatrix type="matrix" values="0 0 0 0 0 0 0 0 0 0 0 0 0 0 0 0 0 0 0.25 0"/>
<feBlend mode="normal" in2="BackgroundImageFix" result="effect1_dropShadow_138_1493"/>
<feBlend mode="normal" in="SourceGraphic" in2="effect1_dropShadow_138_1493" result="shape"/>
</filter>
<filter id="filter2_d_138_1493" x="57" y="46" width="11.7404" height="11.7404" filterUnits="userSpaceOnUse" color-interpolation-filters="sRGB">
<feFlood flood-opacity="0" result="BackgroundImageFix"/>
<feColorMatrix in="SourceAlpha" type="matrix" values="0 0 0 0 0 0 0 0 0 0 0 0 0 0 0 0 0 0 127 0" result="hardAlpha"/>
<feOffset dy="4"/>
<feGaussianBlur stdDeviation="2"/>
<feComposite in2="hardAlpha" operator="out"/>
<feColorMatrix type="matrix" values="0 0 0 0 0 0 0 0 0 0 0 0 0 0 0 0 0 0 0.25 0"/>
<feBlend mode="normal" in2="BackgroundImageFix" result="effect1_dropShadow_138_1493"/>
<feBlend mode="normal" in="SourceGraphic" in2="effect1_dropShadow_138_1493" result="shape"/>
</filter>
<radialGradient id="paint0_radial_138_1493" cx="0" cy="0" r="1" gradientUnits="userSpaceOnUse" gradientTransform="translate(42.2745 41.9058) scale(7.77365 10.0784)">
<stop offset="0.58919" stop-color="#FF9500"/>
<stop offset="0.80988" stop-color="#FFCD87"/>
<stop offset="1" stop-color="white"/>
</radialGradient>
<radialGradient id="paint1_radial_138_1493" cx="0" cy="0" r="1" gradientUnits="userSpaceOnUse" gradientTransform="translate(62.1241 42.7313) rotate(180) scale(7.77365 10.0784)">
<stop offset="0.58919" stop-color="#FF9500"/>
<stop offset="0.80988" stop-color="#FFCD87"/>
<stop offset="1" stop-color="white"/>
</radialGradient>
<linearGradient id="paint2_linear_138_1493" x1="59.6985" y1="12.3475" x2="48.0974" y2="66.847" gradientUnits="userSpaceOnUse">
<stop stop-color="#E1C9EC"/>
<stop offset="1" stop-color="#E1C9EC" stop-opacity="0"/>
</linearGradient>
<linearGradient id="paint3_linear_138_1493" x1="51.5" y1="57" x2="51.5" y2="66" gradientUnits="userSpaceOnUse">
<stop stop-color="#AB00FF"/>
<stop offset="1" stop-color="#AB00FF" stop-opacity="0"/>
</linearGradient>
<linearGradient id="paint4_linear_138_1493" x1="51.5" y1="63.5915" x2="51.5" y2="56.3027" gradientUnits="userSpaceOnUse">
<stop stop-color="#B73056"/>
<stop offset="0.21182" stop-color="#BC3557"/>
<stop offset="0.4739" stop-color="#CC425B"/>
<stop offset="0.76125" stop-color="#E55762"/>
<stop offset="1" stop-color="#FF6E69"/>
</linearGradient>
<linearGradient id="paint5_linear_138_1493" x1="41.3629" y1="39.0353" x2="43.4334" y2="46.7627" gradientUnits="userSpaceOnUse">
<stop stop-color="#4A444D"/>
<stop offset="1" stop-color="#0F0E0F"/>
</linearGradient>
<linearGradient id="paint6_linear_138_1493" x1="43.083" y1="43.4069" x2="38.4371" y2="48.5787" gradientUnits="userSpaceOnUse">
<stop stop-color="white"/>
<stop offset="0.31252" stop-color="white" stop-opacity="0.65366"/>
<stop offset="0.64893" stop-color="white" stop-opacity="0.30494"/>
<stop offset="0.88604" stop-color="white" stop-opacity="0.08508"/>
<stop offset="1" stop-color="white" stop-opacity="0"/>
</linearGradient>
<linearGradient id="paint7_linear_138_1493" x1="62.934" y1="40.0353" x2="60.8635" y2="47.7627" gradientUnits="userSpaceOnUse">
<stop stop-color="#4A444D"/>
<stop offset="1" stop-color="#0F0E0F"/>
</linearGradient>
<linearGradient id="paint8_linear_138_1493" x1="65.083" y1="45.4069" x2="60.4371" y2="50.5787" gradientUnits="userSpaceOnUse">
<stop stop-color="white"/>
<stop offset="0.31252" stop-color="white" stop-opacity="0.65366"/>
<stop offset="0.64893" stop-color="white" stop-opacity="0.30494"/>
<stop offset="0.88604" stop-color="white" stop-opacity="0.08508"/>
<stop offset="1" stop-color="white" stop-opacity="0"/>
</linearGradient>
<radialGradient id="paint9_radial_138_1493" cx="0" cy="0" r="1" gradientUnits="userSpaceOnUse" gradientTransform="translate(41.841 50.1062) scale(9.01922)">
<stop stop-color="#FFF1FF"/>
<stop offset="0.10214" stop-color="#FFF1FF" stop-opacity="0.97991"/>
<stop offset="0.22581" stop-color="#FFF2FF" stop-opacity="0.92181"/>
<stop offset="0.36065" stop-color="#FFF3FF" stop-opacity="0.82565"/>
<stop offset="0.50354" stop-color="#FFF5FF" stop-opacity="0.6912"/>
<stop offset="0.65275" stop-color="#FFF8FF" stop-opacity="0.51837"/>
<stop offset="0.80722" stop-color="#FFFBFF" stop-opacity="0.30705"/>
<stop offset="0.9632" stop-color="#FFFEFF" stop-opacity="0.06219"/>
<stop offset="1" stop-color="white" stop-opacity="0"/>
</radialGradient>
<linearGradient id="paint10_linear_138_1493" x1="39.5204" y1="53.889" x2="36.0008" y2="48.8912" gradientUnits="userSpaceOnUse">
<stop stop-color="white"/>
<stop offset="0.22007" stop-color="white" stop-opacity="0.70453"/>
<stop offset="0.42913" stop-color="white" stop-opacity="0.45389"/>
<stop offset="0.6174" stop-color="white" stop-opacity="0.25826"/>
<stop offset="0.78125" stop-color="white" stop-opacity="0.11747"/>
<stop offset="0.91435" stop-color="white" stop-opacity="0.03134"/>
<stop offset="1" stop-color="white" stop-opacity="0"/>
</linearGradient>
</defs>
</svg>
