<svg width="49" height="48" viewBox="0 0 49 48" fill="none" xmlns="http://www.w3.org/2000/svg">
<circle cx="24.1667" cy="24" r="24" fill="#CFF6F1"/>
<mask id="mask0_138_1533" style="mask-type:alpha" maskUnits="userSpaceOnUse" x="0" y="0" width="49" height="48">
<circle cx="24.1667" cy="24" r="24" fill="#CFF6F1"/>
</mask>
<g mask="url(#mask0_138_1533)">
<path d="M38.5759 29.751C36.1293 34.9979 31.9111 38.2092 29.1544 36.9237C26.3976 35.6381 26.1463 30.3426 28.5929 25.0958C31.0395 19.849 35.2577 16.6377 38.0145 17.9232C40.7712 19.2088 41.0226 24.5042 38.5759 29.751Z" fill="url(#paint0_linear_138_1533)"/>
<path d="M38.5759 29.751C36.1293 34.9979 31.9111 38.2092 29.1544 36.9237C26.3976 35.6381 26.1463 30.3426 28.5929 25.0958C31.0395 19.849 35.2577 16.6377 38.0145 17.9232C40.7712 19.2088 41.0226 24.5042 38.5759 29.751Z" fill="url(#paint1_linear_138_1533)"/>
<path d="M29.0788 29.2356C28.9653 29.479 28.9655 29.7443 29.0794 29.902C29.5311 30.5277 30.432 31.2185 31.5677 31.7481C32.7034 32.2777 33.8116 32.5238 34.5813 32.4676C34.7753 32.4534 34.9787 32.283 35.0922 32.0396C35.228 31.7483 35.1988 31.433 35.0223 31.3022C33.8509 30.434 31.1067 29.1543 29.6887 28.8151C29.475 28.764 29.2146 28.9443 29.0788 29.2356Z" fill="url(#paint2_linear_138_1533)"/>
<path d="M30.6554 25.8544C30.5419 26.0978 30.5422 26.3632 30.656 26.5208C31.1078 27.1465 32.0086 27.8373 33.1443 28.3669C34.28 28.8965 35.3882 29.1426 36.1579 29.0864C36.352 29.0723 36.5554 28.9019 36.6689 28.6585C36.8047 28.3672 36.7754 28.0518 36.5989 27.921C35.4276 27.0529 32.6833 25.7732 31.2653 25.4339C31.0517 25.3828 30.7913 25.5631 30.6554 25.8544Z" fill="url(#paint3_linear_138_1533)"/>
<path d="M32.2322 22.4733C32.1186 22.7167 32.1189 22.982 32.2327 23.1397C32.6845 23.7654 33.5853 24.4562 34.721 24.9858C35.8567 25.5153 36.965 25.7615 37.7346 25.7053C37.9287 25.6911 38.1321 25.5207 38.2456 25.2773C38.3814 24.986 38.3522 24.6707 38.1756 24.5399C37.0043 23.6717 34.26 22.392 32.842 22.0528C32.6284 22.0017 32.368 22.182 32.2322 22.4733Z" fill="url(#paint4_linear_138_1533)"/>
<path d="M29.5157 23.5436V31.3351C29.5157 31.837 29.1085 32.2443 28.6066 32.2443H16.6772C16.1753 32.2443 15.768 31.837 15.768 31.3351V23.5436C15.768 22.6182 16.0489 21.7394 16.5445 21.0053C17.0506 20.2553 17.7697 19.6741 18.6092 19.3366C18.8444 19.242 19.0459 19.0792 19.1878 18.8691C19.3298 18.659 19.4055 18.4113 19.4054 18.1577V14.3036H25.8783V18.1577C25.8781 18.4113 25.9538 18.6591 26.0957 18.8692C26.2376 19.0793 26.4393 19.2421 26.6746 19.3366C28.3913 20.0276 29.5157 21.6928 29.5157 23.5436Z" fill="url(#paint5_linear_138_1533)"/>
<path d="M29.5157 23.5431V31.3346C29.5157 31.8365 29.1085 32.2438 28.6066 32.2438H22.9256V15.9683H25.8783V18.1572C25.8783 18.676 26.1932 19.1426 26.6746 19.336C28.3913 20.0271 29.5157 21.6923 29.5157 23.5431Z" fill="url(#paint6_linear_138_1533)"/>
<path d="M27.8207 20.0077C27.4737 19.7288 27.0874 19.5025 26.6743 19.3362C26.4391 19.2415 26.2377 19.0786 26.0958 18.8686C25.9539 18.6585 25.8781 18.4108 25.8781 18.1573V14.4565H19.4056V18.1573C19.4056 18.4108 19.3298 18.6585 19.1879 18.8686C19.046 19.0787 18.8445 19.2415 18.6094 19.3362C18.1963 19.5024 17.81 19.7287 17.463 20.0077H27.8207Z" fill="url(#paint7_linear_138_1533)"/>
<path d="M16.831 23.5287V30.3313C16.831 30.7435 17.04 31.1275 17.3858 31.3527C17.6774 31.5426 17.8701 31.8708 17.8701 32.2442H27.4136C27.4136 31.8708 27.6063 31.5426 27.8978 31.3527C28.0681 31.2421 28.2079 31.0907 28.3048 30.9124C28.4017 30.734 28.4525 30.5343 28.4527 30.3313V24.9306C28.4527 24.5932 28.1908 24.3122 27.8541 24.2939C26.1691 24.2014 24.396 23.8435 22.5804 23.1221C21.1249 22.5426 19.6913 22.2454 18.3049 22.1635C17.515 22.1169 16.8338 22.7374 16.831 23.5287Z" fill="url(#paint8_linear_138_1533)"/>
<path d="M17.3858 31.3524C17.6774 31.5423 17.8701 31.8705 17.8701 32.2439H27.2839L17.4409 22.401C17.077 22.6461 16.8327 23.0561 16.831 23.5284V30.331C16.831 30.7432 17.04 31.1272 17.3858 31.3524Z" fill="url(#paint9_linear_138_1533)"/>
<path d="M27.8979 31.3521C28.0681 31.2415 28.208 31.0901 28.3049 30.9117C28.4017 30.7334 28.4526 30.5336 28.4527 30.3307V24.9299C28.4527 24.5925 28.1908 24.3116 27.8541 24.2932C26.2761 24.2066 24.6207 23.8872 22.9256 23.2544V32.2436H27.4136C27.4136 31.8702 27.6063 31.5419 27.8979 31.3521Z" fill="url(#paint10_linear_138_1533)"/>
<path d="M25.7485 16.729H19.5352C19.1019 16.729 18.7505 16.3777 18.7505 15.9443C18.7505 15.511 19.1019 15.1597 19.5352 15.1597H25.7485C26.1819 15.1597 26.5331 15.511 26.5331 15.9443C26.5332 16.3777 26.1819 16.729 25.7485 16.729Z" fill="url(#paint11_linear_138_1533)"/>
<path d="M25.8426 14.6929H19.441C19.275 14.6929 19.1158 14.627 18.9984 14.5096C18.881 14.3922 18.815 14.233 18.815 14.067V12.626C18.815 12.46 18.881 12.3007 18.9984 12.1833C19.1158 12.066 19.275 12 19.441 12H25.8426C26.0086 12 26.1678 12.066 26.2852 12.1833C26.4026 12.3007 26.4686 12.46 26.4686 12.626V14.0669C26.4686 14.1491 26.4524 14.2305 26.4209 14.3065C26.3895 14.3824 26.3434 14.4514 26.2853 14.5096C26.2271 14.5677 26.1581 14.6138 26.0822 14.6453C26.0062 14.6767 25.9248 14.6929 25.8426 14.6929Z" fill="url(#paint12_linear_138_1533)"/>
<g style="mix-blend-mode:soft-light">
<path d="M24.8214 14.6929H20.4624C20.3228 14.6929 20.1889 14.6375 20.0902 14.5388C19.9915 14.4401 19.936 14.3062 19.936 14.1666V12.5264C19.936 12.3868 19.9915 12.2529 20.0902 12.1542C20.1889 12.0555 20.3228 12 20.4624 12H24.8214C24.961 12 25.0949 12.0555 25.1936 12.1542C25.2923 12.2529 25.3477 12.3868 25.3477 12.5264V14.1665C25.3478 14.2356 25.3342 14.3041 25.3077 14.368C25.2813 14.4318 25.2425 14.4899 25.1936 14.5387C25.1447 14.5876 25.0867 14.6264 25.0228 14.6529C24.959 14.6793 24.8905 14.6929 24.8214 14.6929Z" fill="black"/>
</g>
<g style="mix-blend-mode:soft-light">
<path d="M23.4752 14.6929H21.8085C21.7163 14.6929 21.6278 14.6563 21.5626 14.5911C21.4974 14.5259 21.4607 14.4374 21.4607 14.3452V12.3478C21.4607 12.2555 21.4974 12.1671 21.5626 12.1019C21.6278 12.0366 21.7163 12 21.8085 12H23.4752C23.5674 12 23.6559 12.0366 23.7211 12.1019C23.7863 12.1671 23.823 12.2555 23.823 12.3478V14.3452C23.823 14.4374 23.7863 14.5259 23.7211 14.5911C23.6559 14.6563 23.5674 14.6929 23.4752 14.6929Z" fill="black"/>
</g>
<path d="M17.9339 24.4577C17.0143 24.0794 15.9926 24.1783 15.0558 24.647C14.857 24.7465 14.6378 24.7983 14.4155 24.7983C14.1933 24.7983 13.9741 24.7465 13.7753 24.647C12.8384 24.1783 11.8168 24.0794 10.8971 24.4577C8.90832 25.2758 8.15006 28.0151 9.20352 30.5762C10.1279 32.8233 12.14 34.1863 13.9629 33.934C14.2632 33.8924 14.5679 33.8924 14.8682 33.934C16.6911 34.1863 18.7032 32.8233 19.6276 30.5762C20.6811 28.0151 19.9228 25.2758 17.9339 24.4577Z" fill="url(#paint13_linear_138_1533)"/>
<path d="M17.9339 24.4577C17.0143 24.0794 15.9926 24.1783 15.0558 24.647C14.857 24.7465 14.6378 24.7983 14.4155 24.7983C14.1933 24.7983 13.9741 24.7465 13.7753 24.647C12.8384 24.1783 11.8168 24.0794 10.8971 24.4577C8.90832 25.2758 8.15006 28.0151 9.20352 30.5762C10.1279 32.8233 12.14 34.1863 13.9629 33.934C14.2632 33.8924 14.5679 33.8924 14.8682 33.934C16.6911 34.1863 18.7032 32.8233 19.6276 30.5762C20.6811 28.0151 19.9228 25.2758 17.9339 24.4577Z" fill="url(#paint14_linear_138_1533)"/>
<path d="M17.9339 24.4577C17.0143 24.0794 15.9926 24.1783 15.0558 24.647C14.8561 24.7469 14.6358 24.7987 14.4125 24.7982V33.9028C14.5649 33.9026 14.7172 33.913 14.8682 33.9339C16.6911 34.1862 18.7032 32.8232 19.6275 30.5761C20.6811 28.0151 19.9228 25.2758 17.9339 24.4577Z" fill="url(#paint15_linear_138_1533)"/>
<path d="M16.5213 24.6004C16.5213 24.4761 16.51 24.3545 16.4893 24.2361C16.0058 24.2736 15.5203 24.4148 15.0557 24.6472C14.8569 24.7467 14.6377 24.7985 14.4154 24.7985C14.1931 24.7985 13.9739 24.7467 13.7752 24.6472C13.3106 24.4148 12.8251 24.2736 12.3415 24.2361C12.3203 24.3564 12.3096 24.4783 12.3095 24.6004C12.3095 25.7634 13.2523 26.7062 14.4153 26.7062C15.5784 26.7062 16.5213 25.7634 16.5213 24.6004Z" fill="url(#paint16_linear_138_1533)"/>
<path d="M38.5759 29.751C36.1293 34.9979 31.9111 38.2092 29.1544 36.9237C26.3976 35.6381 26.1463 30.3426 28.5929 25.0958C31.0395 19.849 35.2577 16.6377 38.0145 17.9232C40.7712 19.2088 41.0226 24.5042 38.5759 29.751Z" fill="url(#paint17_linear_138_1533)"/>
<path d="M38.5759 29.751C36.1293 34.9979 31.9111 38.2092 29.1544 36.9237C26.3976 35.6381 26.1463 30.3426 28.5929 25.0958C31.0395 19.849 35.2577 16.6377 38.0145 17.9232C40.7712 19.2088 41.0226 24.5042 38.5759 29.751Z" fill="url(#paint18_linear_138_1533)"/>
<path d="M29.0788 29.2356C28.9653 29.479 28.9655 29.7443 29.0794 29.902C29.5311 30.5277 30.432 31.2185 31.5677 31.7481C32.7034 32.2777 33.8116 32.5238 34.5813 32.4676C34.7753 32.4534 34.9787 32.283 35.0922 32.0396C35.228 31.7483 35.1988 31.433 35.0223 31.3022C33.8509 30.434 31.1067 29.1543 29.6887 28.8151C29.475 28.764 29.2146 28.9443 29.0788 29.2356Z" fill="url(#paint19_linear_138_1533)"/>
<path d="M30.6554 25.8544C30.5419 26.0978 30.5422 26.3632 30.656 26.5208C31.1078 27.1465 32.0086 27.8373 33.1443 28.3669C34.28 28.8965 35.3882 29.1426 36.1579 29.0864C36.352 29.0723 36.5554 28.9019 36.6689 28.6585C36.8047 28.3672 36.7754 28.0518 36.5989 27.921C35.4276 27.0529 32.6833 25.7732 31.2653 25.4339C31.0517 25.3828 30.7913 25.5631 30.6554 25.8544Z" fill="url(#paint20_linear_138_1533)"/>
<path d="M32.2322 22.4733C32.1186 22.7167 32.1189 22.982 32.2327 23.1397C32.6845 23.7654 33.5853 24.4562 34.721 24.9858C35.8567 25.5153 36.965 25.7615 37.7346 25.7053C37.9287 25.6911 38.1321 25.5207 38.2456 25.2773C38.3814 24.986 38.3522 24.6707 38.1756 24.5399C37.0043 23.6717 34.26 22.392 32.842 22.0528C32.6284 22.0017 32.368 22.182 32.2322 22.4733Z" fill="url(#paint21_linear_138_1533)"/>
<path d="M29.2115 23.8793C28.9916 24.2778 28.7852 24.6836 28.5929 25.0962C26.1462 30.343 26.3977 35.6385 29.1544 36.924C31.9112 38.2095 36.1293 34.9982 38.576 29.7513C39.5218 27.723 40.064 25.6877 40.2146 23.8793H29.2115Z" fill="url(#paint22_linear_138_1533)"/>
<path d="M35.9072 48.0003H12.0927C10.9133 48.0003 9.95715 47.0442 9.95715 45.8647V32.4197C9.95715 31.4387 10.7525 30.6434 11.7335 30.6434H36.2664C37.2475 30.6434 38.0428 31.4387 38.0428 32.4197V45.8647C38.0428 47.0442 37.0867 48.0003 35.9072 48.0003Z" fill="url(#paint23_linear_138_1533)"/>
<path d="M35.9072 48.0003H12.0927C10.9133 48.0003 9.95715 47.0442 9.95715 45.8647V32.4197C9.95715 31.4387 10.7525 30.6434 11.7335 30.6434H36.2664C37.2475 30.6434 38.0428 31.4387 38.0428 32.4197V45.8647C38.0428 47.0442 37.0867 48.0003 35.9072 48.0003Z" fill="url(#paint24_linear_138_1533)"/>
<path d="M24 48.0003H35.9072C37.0867 48.0003 38.0428 47.0442 38.0428 45.8647V32.4197C38.0428 31.4387 37.2475 30.6434 36.2665 30.6434H24V48.0003Z" fill="url(#paint25_linear_138_1533)"/>
<path d="M9.95715 38.8585V45.8647C9.95715 47.0443 10.9133 48.0004 12.0927 48.0004H35.9072C37.0867 48.0004 38.0428 47.0443 38.0428 45.8648V38.8585H9.95715Z" fill="url(#paint26_linear_138_1533)"/>
<path d="M28.4181 38.0042L37.5911 47.1772C37.8843 46.8025 38.0433 46.3404 38.0428 45.8646V38.0042H28.4181Z" fill="url(#paint27_linear_138_1533)"/>
<path d="M41.8323 36.9926L38.9855 32.2228C38.6981 31.7413 38.2907 31.3426 37.8031 31.0657C37.3154 30.7889 36.7643 30.6434 36.2036 30.6434H24L28.2471 37.7595C28.4342 38.073 28.6995 38.3326 29.017 38.5129C29.3345 38.6931 29.6934 38.7879 30.0585 38.7879H40.813C41.4685 38.7879 42 38.2564 42 37.6009C42 37.3867 41.942 37.1764 41.8323 36.9926Z" fill="url(#paint28_linear_138_1533)"/>
<path d="M6.1677 36.9926L9.01446 32.2228C9.30183 31.7413 9.70926 31.3426 10.1969 31.0657C10.6845 30.7889 11.2357 30.6434 11.7964 30.6434H24L19.7528 37.7595C19.5657 38.073 19.3004 38.3326 18.9829 38.5129C18.6654 38.6931 18.3066 38.7879 17.9415 38.7879H7.187C6.53144 38.7878 5.99998 38.2564 5.99998 37.6009C5.99998 37.3867 6.05794 37.1764 6.1677 36.9926Z" fill="url(#paint29_linear_138_1533)"/>
<path d="M8.78215 32.6121L6.1677 36.9926C6.05793 37.1765 5.99997 37.3867 5.99998 37.6009C5.99998 38.2565 6.53144 38.7879 7.187 38.7879H17.9415C18.3066 38.788 18.6654 38.6932 18.9829 38.5129C19.3005 38.3327 19.5657 38.0731 19.7528 37.7595L22.825 32.6121H8.78215Z" fill="url(#paint30_linear_138_1533)"/>
<path d="M39.2178 32.6121L41.8322 36.9926C41.942 37.1765 42 37.3867 42 37.6009C42 38.2565 41.4685 38.7879 40.8129 38.7879H30.0585C29.6934 38.788 29.3345 38.6932 29.017 38.5129C28.6995 38.3327 28.4342 38.0731 28.2471 37.7595L25.175 32.6121H39.2178Z" fill="url(#paint31_linear_138_1533)"/>
<path d="M14.4747 25.0147V24.5865C14.4747 23.3184 15.5028 22.2902 16.771 22.2902H17.1992C17.2838 22.2902 17.3651 22.3239 17.425 22.3838C17.4848 22.4437 17.5185 22.5249 17.5185 22.6096V23.0377C17.5185 24.3059 16.4904 25.334 15.2222 25.334H14.7941C14.7521 25.334 14.7106 25.3258 14.6719 25.3097C14.6331 25.2937 14.5979 25.2701 14.5682 25.2405C14.5386 25.2108 14.5151 25.1756 14.499 25.1369C14.483 25.0981 14.4747 25.0566 14.4747 25.0147Z" fill="url(#paint32_linear_138_1533)"/>
<path d="M17.5185 22.6099C17.5186 22.5327 17.4905 22.4581 17.4395 22.4001L14.5843 25.2553C14.6423 25.3063 14.7169 25.3344 14.7941 25.3343H15.2222C16.4904 25.3343 17.5185 24.3062 17.5185 23.038V22.6099Z" fill="url(#paint33_linear_138_1533)"/>
<path d="M14.7457 26.1341C14.9269 26.0681 15.0615 25.9334 15.0837 25.7955C15.172 25.2487 15.0654 24.4408 14.7577 23.5956C14.4501 22.7504 14.0125 22.063 13.5933 21.7008C13.4876 21.6095 13.2979 21.5928 13.1168 21.6587C12.9 21.7376 12.7548 21.9125 12.7779 22.0685C12.9318 23.1037 13.6752 25.1461 14.2227 26.0379C14.3053 26.1723 14.529 26.2129 14.7457 26.1341Z" fill="url(#paint34_linear_138_1533)"/>
<circle cx="24.1667" cy="24" r="23.5" stroke="#C5ECE7"/>
</g>
<defs>
<linearGradient id="paint0_linear_138_1533" x1="29.86" y1="25.6965" x2="38.5727" y2="29.7667" gradientUnits="userSpaceOnUse">
<stop stop-color="#F89580"/>
<stop offset="1" stop-color="#C4573A"/>
</linearGradient>
<linearGradient id="paint1_linear_138_1533" x1="33.3265" y1="27.2931" x2="37.703" y2="29.5048" gradientUnits="userSpaceOnUse">
<stop stop-color="#C4573A" stop-opacity="0"/>
<stop offset="0.258" stop-color="#BA5338" stop-opacity="0.258"/>
<stop offset="0.699" stop-color="#9E4832" stop-opacity="0.699"/>
<stop offset="1" stop-color="#883F2E"/>
</linearGradient>
<linearGradient id="paint2_linear_138_1533" x1="31.7891" y1="31.2997" x2="32.2635" y2="30.2839" gradientUnits="userSpaceOnUse">
<stop stop-color="#FFDFCF"/>
<stop offset="1" stop-color="#FFA78F"/>
</linearGradient>
<linearGradient id="paint3_linear_138_1533" x1="33.3676" y1="27.9194" x2="33.8419" y2="26.9036" gradientUnits="userSpaceOnUse">
<stop stop-color="#FFDFCF"/>
<stop offset="1" stop-color="#FFA78F"/>
</linearGradient>
<linearGradient id="paint4_linear_138_1533" x1="34.9461" y1="24.539" x2="35.4204" y2="23.5233" gradientUnits="userSpaceOnUse">
<stop stop-color="#FFDFCF"/>
<stop offset="1" stop-color="#FFA78F"/>
</linearGradient>
<linearGradient id="paint5_linear_138_1533" x1="18.4369" y1="23.274" x2="27.8576" y2="23.274" gradientUnits="userSpaceOnUse">
<stop stop-color="#FFFDF1"/>
<stop offset="1" stop-color="#FFF5C6"/>
</linearGradient>
<linearGradient id="paint6_linear_138_1533" x1="26.5948" y1="24.106" x2="31.0558" y2="24.106" gradientUnits="userSpaceOnUse">
<stop stop-color="#FEA613" stop-opacity="0"/>
<stop offset="0.183" stop-color="#FC9B19" stop-opacity="0.183"/>
<stop offset="0.509" stop-color="#F57D28" stop-opacity="0.509"/>
<stop offset="0.936" stop-color="#EB4C40" stop-opacity="0.936"/>
<stop offset="1" stop-color="#E94444"/>
</linearGradient>
<linearGradient id="paint7_linear_138_1533" x1="22.6419" y1="19.094" x2="22.6419" y2="9.59746" gradientUnits="userSpaceOnUse">
<stop stop-color="#FEA613" stop-opacity="0"/>
<stop offset="0.183" stop-color="#FC9B19" stop-opacity="0.183"/>
<stop offset="0.509" stop-color="#F57D28" stop-opacity="0.509"/>
<stop offset="0.936" stop-color="#EB4C40" stop-opacity="0.936"/>
<stop offset="1" stop-color="#E94444"/>
</linearGradient>
<linearGradient id="paint8_linear_138_1533" x1="21.1124" y1="27.2027" x2="26.7408" y2="27.2027" gradientUnits="userSpaceOnUse">
<stop stop-color="#B3DAFE"/>
<stop offset="1" stop-color="#60B7FF"/>
</linearGradient>
<linearGradient id="paint9_linear_138_1533" x1="23.2915" y1="26.9564" x2="17.8562" y2="29.0976" gradientUnits="userSpaceOnUse">
<stop stop-color="#017BAE" stop-opacity="0"/>
<stop offset="1" stop-color="#017BAE"/>
</linearGradient>
<linearGradient id="paint10_linear_138_1533" x1="24.367" y1="28.0182" x2="27.7082" y2="28.8182" gradientUnits="userSpaceOnUse">
<stop stop-color="#017BAE" stop-opacity="0"/>
<stop offset="1" stop-color="#017BAE"/>
</linearGradient>
<linearGradient id="paint11_linear_138_1533" x1="22.6419" y1="15.4019" x2="22.6419" y2="16.7838" gradientUnits="userSpaceOnUse">
<stop stop-color="#FFFDF1"/>
<stop offset="1" stop-color="#FFF5C6"/>
</linearGradient>
<linearGradient id="paint12_linear_138_1533" x1="22.4635" y1="12.7024" x2="22.8887" y2="14.2379" gradientUnits="userSpaceOnUse">
<stop stop-color="#B3DAFE"/>
<stop offset="1" stop-color="#60B7FF"/>
</linearGradient>
<linearGradient id="paint13_linear_138_1533" x1="11.9853" y1="26.109" x2="15.9922" y2="30.1159" gradientUnits="userSpaceOnUse">
<stop stop-color="#FE646F"/>
<stop offset="1" stop-color="#E41F2D"/>
</linearGradient>
<linearGradient id="paint14_linear_138_1533" x1="14.302" y1="27.5164" x2="14.9138" y2="31.4694" gradientUnits="userSpaceOnUse">
<stop stop-color="#A72B2B" stop-opacity="0"/>
<stop offset="0.164" stop-color="#A02A29" stop-opacity="0.164"/>
<stop offset="0.402" stop-color="#8D2823" stop-opacity="0.402"/>
<stop offset="0.684" stop-color="#6E2519" stop-opacity="0.684"/>
<stop offset="0.998" stop-color="#42210B" stop-opacity="0.998"/>
<stop offset="1" stop-color="#42210B"/>
</linearGradient>
<linearGradient id="paint15_linear_138_1533" x1="16.4235" y1="29.0947" x2="20.5797" y2="29.0947" gradientUnits="userSpaceOnUse">
<stop stop-color="#A72B2B" stop-opacity="0"/>
<stop offset="0.164" stop-color="#A02A29" stop-opacity="0.164"/>
<stop offset="0.402" stop-color="#8D2823" stop-opacity="0.402"/>
<stop offset="0.684" stop-color="#6E2519" stop-opacity="0.684"/>
<stop offset="0.998" stop-color="#42210B" stop-opacity="0.998"/>
<stop offset="1" stop-color="#42210B"/>
</linearGradient>
<linearGradient id="paint16_linear_138_1533" x1="14.4155" y1="25.4121" x2="14.4155" y2="27.6239" gradientUnits="userSpaceOnUse">
<stop stop-color="#A72B2B" stop-opacity="0"/>
<stop offset="0.164" stop-color="#A02A29" stop-opacity="0.164"/>
<stop offset="0.402" stop-color="#8D2823" stop-opacity="0.402"/>
<stop offset="0.684" stop-color="#6E2519" stop-opacity="0.684"/>
<stop offset="0.998" stop-color="#42210B" stop-opacity="0.998"/>
<stop offset="1" stop-color="#42210B"/>
</linearGradient>
<linearGradient id="paint17_linear_138_1533" x1="29.86" y1="25.6965" x2="38.5727" y2="29.7667" gradientUnits="userSpaceOnUse">
<stop stop-color="#F89580"/>
<stop offset="1" stop-color="#C4573A"/>
</linearGradient>
<linearGradient id="paint18_linear_138_1533" x1="33.3265" y1="27.2931" x2="37.703" y2="29.5048" gradientUnits="userSpaceOnUse">
<stop stop-color="#C4573A" stop-opacity="0"/>
<stop offset="0.258" stop-color="#BA5338" stop-opacity="0.258"/>
<stop offset="0.699" stop-color="#9E4832" stop-opacity="0.699"/>
<stop offset="1" stop-color="#883F2E"/>
</linearGradient>
<linearGradient id="paint19_linear_138_1533" x1="31.7891" y1="31.2997" x2="32.2635" y2="30.2839" gradientUnits="userSpaceOnUse">
<stop stop-color="#FFDFCF"/>
<stop offset="1" stop-color="#FFA78F"/>
</linearGradient>
<linearGradient id="paint20_linear_138_1533" x1="33.3676" y1="27.9194" x2="33.8419" y2="26.9036" gradientUnits="userSpaceOnUse">
<stop stop-color="#FFDFCF"/>
<stop offset="1" stop-color="#FFA78F"/>
</linearGradient>
<linearGradient id="paint21_linear_138_1533" x1="34.9461" y1="24.539" x2="35.4204" y2="23.5233" gradientUnits="userSpaceOnUse">
<stop stop-color="#FFDFCF"/>
<stop offset="1" stop-color="#FFA78F"/>
</linearGradient>
<linearGradient id="paint22_linear_138_1533" x1="33.5626" y1="28.0004" x2="33.5626" y2="31.4385" gradientUnits="userSpaceOnUse">
<stop stop-color="#C4573A" stop-opacity="0"/>
<stop offset="0.258" stop-color="#BA5338" stop-opacity="0.258"/>
<stop offset="0.699" stop-color="#9E4832" stop-opacity="0.699"/>
<stop offset="1" stop-color="#883F2E"/>
</linearGradient>
<linearGradient id="paint23_linear_138_1533" x1="15.7395" y1="30.9562" x2="34.2881" y2="49.5047" gradientUnits="userSpaceOnUse">
<stop stop-color="#C59191"/>
<stop offset="1" stop-color="#9B5E5E"/>
</linearGradient>
<linearGradient id="paint24_linear_138_1533" x1="24.9389" y1="41.1167" x2="20.1389" y2="31.2343" gradientUnits="userSpaceOnUse">
<stop stop-color="#9B5E5E" stop-opacity="0"/>
<stop offset="0.247" stop-color="#955857" stop-opacity="0.247"/>
<stop offset="0.612" stop-color="#854943" stop-opacity="0.612"/>
<stop offset="1" stop-color="#6D3326"/>
</linearGradient>
<linearGradient id="paint25_linear_138_1533" x1="15.1549" y1="24.6509" x2="43.5747" y2="51.8404" gradientUnits="userSpaceOnUse">
<stop stop-color="#9B5E5E" stop-opacity="0"/>
<stop offset="0.247" stop-color="#955857" stop-opacity="0.247"/>
<stop offset="0.612" stop-color="#854943" stop-opacity="0.612"/>
<stop offset="1" stop-color="#6D3326"/>
</linearGradient>
<linearGradient id="paint26_linear_138_1533" x1="24" y1="44.1561" x2="24" y2="48.0004" gradientUnits="userSpaceOnUse">
<stop stop-color="#9B5E5E" stop-opacity="0"/>
<stop offset="0.247" stop-color="#955857" stop-opacity="0.247"/>
<stop offset="0.612" stop-color="#854943" stop-opacity="0.612"/>
<stop offset="1" stop-color="#6D3326"/>
</linearGradient>
<linearGradient id="paint27_linear_138_1533" x1="36.7625" y1="46.6473" x2="32.7625" y2="36.859" gradientUnits="userSpaceOnUse">
<stop stop-color="#9B5E5E" stop-opacity="0"/>
<stop offset="0.247" stop-color="#955857" stop-opacity="0.247"/>
<stop offset="0.612" stop-color="#854943" stop-opacity="0.612"/>
<stop offset="1" stop-color="#6D3326"/>
</linearGradient>
<linearGradient id="paint28_linear_138_1533" x1="31.7252" y1="30.5078" x2="35.5369" y2="41.002" gradientUnits="userSpaceOnUse">
<stop stop-color="#C59191"/>
<stop offset="1" stop-color="#9B5E5E"/>
</linearGradient>
<linearGradient id="paint29_linear_138_1533" x1="13.9121" y1="31.3718" x2="18.4768" y2="43.3718" gradientUnits="userSpaceOnUse">
<stop stop-color="#C59191"/>
<stop offset="1" stop-color="#9B5E5E"/>
</linearGradient>
<linearGradient id="paint30_linear_138_1533" x1="14.4125" y1="36.7533" x2="14.4125" y2="39.6709" gradientUnits="userSpaceOnUse">
<stop stop-color="#9B5E5E" stop-opacity="0"/>
<stop offset="0.247" stop-color="#955857" stop-opacity="0.247"/>
<stop offset="0.612" stop-color="#854943" stop-opacity="0.612"/>
<stop offset="1" stop-color="#6D3326"/>
</linearGradient>
<linearGradient id="paint31_linear_138_1533" x1="33.5875" y1="36.7533" x2="33.5875" y2="39.6709" gradientUnits="userSpaceOnUse">
<stop stop-color="#9B5E5E" stop-opacity="0"/>
<stop offset="0.247" stop-color="#955857" stop-opacity="0.247"/>
<stop offset="0.612" stop-color="#854943" stop-opacity="0.612"/>
<stop offset="1" stop-color="#6D3326"/>
</linearGradient>
<linearGradient id="paint32_linear_138_1533" x1="15.5512" y1="22.6467" x2="16.303" y2="24.6139" gradientUnits="userSpaceOnUse">
<stop stop-color="#BBEC6C"/>
<stop offset="1" stop-color="#78A91F"/>
</linearGradient>
<linearGradient id="paint33_linear_138_1533" x1="16.719" y1="24.1832" x2="14.9476" y2="23.3077" gradientUnits="userSpaceOnUse">
<stop stop-color="#78A91F" stop-opacity="0"/>
<stop offset="1" stop-color="#026841"/>
</linearGradient>
<linearGradient id="paint34_linear_138_1533" x1="14.6036" y1="23.6464" x2="13.6859" y2="23.9876" gradientUnits="userSpaceOnUse">
<stop stop-color="#554E56"/>
<stop offset="1" stop-color="#433F43"/>
</linearGradient>
</defs>
</svg>
