<svg width="100" height="100" viewBox="0 0 100 100" fill="none" xmlns="http://www.w3.org/2000/svg">
<g clip-path="url(#clip0_138_1172)">
<circle opacity="0.2" cx="50" cy="50" r="42" fill="#92D25F"/>
<g filter="url(#filter0_f_138_1172)">
<ellipse cx="50" cy="79" rx="16" ry="4" fill="#3F6B27"/>
</g>
<g opacity="0.3" filter="url(#filter1_f_138_1172)">
<ellipse cx="50" cy="64.5691" rx="27.383" ry="10.7074" fill="#3B9B08"/>
</g>
<path d="M50.4283 80.4406C68.1018 80.4406 82.429 66.3646 82.429 49.0011C82.429 31.6375 68.1018 17.5615 50.4283 17.5615C32.7549 17.5615 18.4277 31.6375 18.4277 49.0011C18.4277 66.3646 32.7549 80.4406 50.4283 80.4406Z" fill="#8EC166"/>
<path d="M50.4283 17.5615C42.2646 17.5527 34.4085 20.6211 28.4791 26.1343C25.3361 29.8137 23.1417 34.183 22.0819 38.8722C21.0221 43.5615 21.128 48.4326 22.3906 53.0731C23.6533 57.7136 26.0355 61.9869 29.3356 65.5311C32.6356 69.0753 36.7564 71.786 41.3489 73.4338C45.9414 75.0815 50.8705 75.6178 55.7187 74.9971C60.5669 74.3765 65.1915 72.6172 69.2009 69.8683C73.2103 67.1193 76.4864 63.4617 78.7519 59.205C81.0174 54.9483 82.2055 50.218 82.2156 45.4145C81.3196 37.7484 77.5853 30.6737 71.7237 25.5376C65.862 20.4015 58.2825 17.5626 50.4283 17.5615Z" fill="#92D25F"/>
<path opacity="0.7" d="M60.4671 22.3797C43.8314 17.2722 29.9024 26.0073 34.4153 35.278C38.9282 44.5486 64.3646 49.7885 72.9801 43.944C79.8348 39.294 73.5955 26.4104 60.4671 22.3797Z" fill="url(#paint0_linear_138_1172)"/>
<path d="M50.4277 54.4228C51.9685 54.4228 53.2176 53.6478 53.2176 52.6916C53.2176 51.7355 51.9685 50.9604 50.4277 50.9604C48.8868 50.9604 47.6377 51.7355 47.6377 52.6916C47.6377 53.6478 48.8868 54.4228 50.4277 54.4228Z" fill="#4C822F"/>
<path fill-rule="evenodd" clip-rule="evenodd" d="M48.6402 51.7658C48.194 52.0427 47.989 52.3795 47.989 52.6916C47.989 53.0037 48.194 53.3406 48.6402 53.6175C49.0811 53.8911 49.7123 54.0718 50.4279 54.0718C51.1435 54.0718 51.7747 53.8911 52.2156 53.6175C52.6618 53.3406 52.8668 53.0037 52.8668 52.6916C52.8668 52.3795 52.6618 52.0427 52.2156 51.7658C51.7747 51.4922 51.1435 51.3115 50.4279 51.3115C49.7123 51.3115 49.0811 51.4922 48.6402 51.7658ZM48.27 51.1692C48.8388 50.8162 49.6027 50.6094 50.4279 50.6094C51.2531 50.6094 52.017 50.8162 52.5858 51.1692C53.1493 51.5189 53.5689 52.0476 53.5689 52.6916C53.5689 53.3356 53.1493 53.8644 52.5858 54.2141C52.017 54.567 51.2531 54.7739 50.4279 54.7739C49.6027 54.7739 48.8388 54.567 48.27 54.2141C47.7064 53.8644 47.2869 53.3356 47.2869 52.6916C47.2869 52.0476 47.7064 51.5189 48.27 51.1692Z" fill="#3F6B27"/>
<path d="M45.1396 56.8334C45.995 58.4201 47.7396 59.2163 50.4276 59.2163C53.1156 59.2163 54.8603 58.4201 55.7156 56.8334C54.8144 56.4353 53.2209 56.0459 50.4276 56.0459C47.6343 56.0459 46.0408 56.4353 45.1396 56.8334Z" fill="#92D25F"/>
<path fill-rule="evenodd" clip-rule="evenodd" d="M43.2382 55.5714C43.5006 55.6577 43.6433 55.9403 43.557 56.2026L43.082 56.0464C43.557 56.2026 43.5569 56.2029 43.5568 56.2031L43.5566 56.2037L43.5561 56.2051L43.5548 56.209L43.5508 56.2209C43.5474 56.2306 43.5427 56.2438 43.5367 56.2603C43.5247 56.2933 43.5072 56.3396 43.4837 56.3973C43.4369 56.5126 43.3663 56.674 43.2685 56.8668C43.0731 57.2517 42.7665 57.7666 42.3191 58.2908C41.4197 59.3446 39.947 60.4374 37.694 60.5715C37.4183 60.5879 37.1816 60.3778 37.1651 60.1021C37.1487 59.8265 37.3589 59.5897 37.6346 59.5733C39.5567 59.4589 40.7929 58.5387 41.5585 57.6416C41.9436 57.1904 42.2086 56.7454 42.3768 56.4142C42.4606 56.249 42.5197 56.1134 42.5572 56.0211C42.5759 55.975 42.5891 55.9399 42.5973 55.9174L42.6059 55.8936L42.607 55.8901C42.6071 55.89 42.6071 55.8899 42.6072 55.8897M43.2382 55.5714C42.9761 55.4852 42.6936 55.6277 42.6072 55.8897L43.2382 55.5714Z" fill="#3F6B27"/>
<path fill-rule="evenodd" clip-rule="evenodd" d="M40.7897 58.4821C41.0642 58.4516 41.3114 58.6493 41.3419 58.9238C41.8711 63.6863 45.1614 68.5689 51.3325 68.5689C57.5036 68.5689 60.794 63.6863 61.3231 58.9238C61.3536 58.6493 61.6008 58.4516 61.8753 58.4821C62.1497 58.5126 62.3475 58.7598 62.317 59.0342C61.7527 64.1131 58.1839 69.5689 51.3325 69.5689C44.4812 69.5689 40.9123 64.1131 40.348 59.0342C40.3175 58.7598 40.5153 58.5126 40.7897 58.4821Z" fill="#3F6B27"/>
<path fill-rule="evenodd" clip-rule="evenodd" d="M59.4271 55.5714C59.6895 55.4851 59.9721 55.6278 60.0584 55.8901L59.5834 56.0464C60.0584 55.8901 60.0583 55.8899 60.0582 55.8897L60.0581 55.8894L60.058 55.889C60.0579 55.8889 60.0579 55.8889 60.058 55.8892L60.0595 55.8936L60.0681 55.9174C60.0762 55.9399 60.0895 55.975 60.1082 56.0211C60.1457 56.1134 60.2048 56.249 60.2886 56.4142C60.4568 56.7454 60.7218 57.1904 61.1069 57.6416C61.8725 58.5387 63.1087 59.4589 65.0308 59.5733C65.3065 59.5897 65.5167 59.8265 65.5002 60.1021C65.4838 60.3778 65.2471 60.5879 64.9714 60.5715C62.7184 60.4374 61.2457 59.3446 60.3463 58.2908C59.8989 57.7666 59.5923 57.2517 59.3969 56.8668C59.299 56.674 59.2285 56.5126 59.1817 56.3973C59.1582 56.3396 59.1407 56.2933 59.1287 56.2603C59.1226 56.2438 59.118 56.2306 59.1146 56.2209L59.1106 56.209L59.1093 56.2051L59.1088 56.2037L59.1086 56.2031C59.1085 56.2029 59.1084 56.2026 59.5834 56.0464L59.1084 56.2026C59.0221 55.9403 59.1648 55.6577 59.4271 55.5714Z" fill="#3F6B27"/>
<path d="M32.3213 33.2733C33.3289 28.1127 39.9244 24.7195 44.7306 27.1585L44.7472 27.3825C40.1053 27.8966 35.7895 30.2153 32.4936 33.4208L32.3213 33.2733Z" fill="#4C822F"/>
<path fill-rule="evenodd" clip-rule="evenodd" d="M32.5269 33.1448C35.7689 30.0487 39.9666 27.7976 44.4899 27.2361C42.1805 26.1369 39.4633 26.3807 37.1796 27.5232C34.8926 28.6674 33.0649 30.7007 32.5269 33.1448ZM37.0225 27.2093C39.4368 26.0014 42.3468 25.7523 44.8096 27.0022C44.8645 27.03 44.9007 27.0844 44.9053 27.1458L44.9218 27.3698C44.9287 27.464 44.8599 27.5468 44.7661 27.5572C40.1692 28.0662 35.8883 30.3639 32.6156 33.5468C32.5505 33.6101 32.448 33.6133 32.3791 33.5543L32.2067 33.4068C32.1587 33.3657 32.1365 33.3019 32.1486 33.2398C32.6649 30.5956 34.6087 28.4169 37.0225 27.2093Z" fill="#3F6B27"/>
<path d="M68.5353 33.2733C67.5276 28.1127 60.9321 24.7195 56.1259 27.1585L56.1094 27.3825C60.7513 27.8966 65.0671 30.2153 68.3629 33.4208L68.5353 33.2733Z" fill="#4C822F"/>
<path fill-rule="evenodd" clip-rule="evenodd" d="M63.8333 27.2093C66.2471 28.4169 68.191 30.5956 68.7073 33.2398C68.7194 33.3019 68.6972 33.3657 68.6491 33.4068L68.4768 33.5543C68.4079 33.6133 68.3053 33.6101 68.2403 33.5468C64.9676 30.3639 60.6867 28.0662 56.0898 27.5572C55.9959 27.5468 55.9271 27.464 55.9341 27.3698L55.9506 27.1458C55.9551 27.0845 55.9914 27.03 56.0462 27.0022C58.5091 25.7523 61.4191 26.0014 63.8333 27.2093ZM56.366 27.2361C60.8893 27.7976 65.087 30.0487 68.329 33.1448C67.791 30.7007 65.9633 28.6674 63.6763 27.5232C61.3925 26.3807 58.6754 26.1369 56.366 27.2361Z" fill="#3F6B27"/>
<path d="M40.149 53.5115C44.7202 53.5115 48.4259 49.8063 48.4259 45.2357C48.4259 40.6652 44.7202 36.96 40.149 36.96C35.5778 36.96 31.8721 40.6652 31.8721 45.2357C31.8721 49.8063 35.5778 53.5115 40.149 53.5115Z" fill="white"/>
<path d="M40.2766 39.7398C39.0363 39.748 37.835 40.1668 36.8667 40.9285C35.8985 41.6902 35.22 42.7504 34.9407 43.9377L38.5852 45.2355L34.9051 46.3948C35.1428 47.3841 35.6594 48.2876 36.3955 49.0018C37.1317 49.716 38.0577 50.212 39.0675 50.4332C40.0774 50.6543 41.1302 50.5915 42.1053 50.252C43.0805 49.9125 43.9387 49.3101 44.5815 48.5136C45.2243 47.7172 45.6259 46.759 45.7401 45.7487C45.8543 44.7385 45.6766 43.7171 45.2274 42.8014C44.7781 41.8858 44.0755 41.113 43.1999 40.5715C42.3243 40.0301 41.3112 39.7418 40.2766 39.7398Z" fill="url(#paint1_linear_138_1172)"/>
<g opacity="0.5" filter="url(#filter2_f_138_1172)">
<path d="M40.3828 45.8196C39.4698 45.8238 38.5856 46.0411 37.8729 46.4362C37.1602 46.8313 36.6607 47.3812 36.4552 47.9972L39.1378 48.6704L36.429 49.2718C36.604 49.7849 36.9842 50.2536 37.526 50.624C38.0679 50.9945 38.7495 51.2519 39.4928 51.3666C40.2361 51.4813 41.011 51.4487 41.7289 51.2726C42.4467 51.0965 43.0783 50.784 43.5515 50.3708C44.0247 49.9577 44.3202 49.4607 44.4043 48.9366C44.4884 48.4126 44.3576 47.8827 44.0269 47.4078C43.6962 46.9328 43.179 46.5319 42.5346 46.251C41.8901 45.9701 41.1444 45.8206 40.3828 45.8196Z" fill="url(#paint2_linear_138_1172)"/>
</g>
<path d="M60.9693 53.5115C65.5405 53.5115 69.2463 49.8063 69.2463 45.2357C69.2463 40.6652 65.5405 36.96 60.9693 36.96C56.3981 36.96 52.6924 40.6652 52.6924 45.2357C52.6924 49.8063 56.3981 53.5115 60.9693 53.5115Z" fill="white"/>
<g opacity="0.5" filter="url(#filter3_f_138_1172)">
<path d="M60.9546 45.8196C60.0416 45.8238 59.1573 46.0411 58.4447 46.4362C57.732 46.8313 57.2325 47.3812 57.0269 47.9972L59.7095 48.6704L57.0007 49.2718C57.1757 49.7849 57.5559 50.2536 58.0978 50.624C58.6397 50.9945 59.3213 51.2519 60.0646 51.3666C60.8079 51.4813 61.5828 51.4487 62.3006 51.2726C63.0184 51.0965 63.6501 50.784 64.1233 50.3708C64.5965 49.9577 64.892 49.4607 64.9761 48.9366C65.0602 48.4126 64.9294 47.8827 64.5987 47.4078C64.268 46.9328 63.7508 46.5319 63.1063 46.251C62.4618 45.9701 61.7161 45.8206 60.9546 45.8196Z" fill="url(#paint3_linear_138_1172)"/>
</g>
<path d="M60.9702 39.7397C59.7298 39.7479 58.5285 40.1667 57.5603 40.9284C56.5921 41.6901 55.9135 42.7503 55.6342 43.9376L59.2787 45.2355L55.5986 46.3948C55.8364 47.384 56.3529 48.2875 57.0891 49.0017C57.8252 49.7159 58.7513 50.212 59.7611 50.4331C60.7709 50.6542 61.8237 50.5915 62.7989 50.252C63.7741 49.9125 64.6322 49.31 65.2751 48.5136C65.9179 47.7172 66.3194 46.759 66.4337 45.7487C66.5479 44.7385 66.3702 43.717 65.921 42.8014C65.4717 41.8858 64.7691 41.113 63.8935 40.5715C63.0179 40.03 62.0048 39.7418 60.9702 39.7397Z" fill="url(#paint4_linear_138_1172)"/>
</g>
<defs>
<filter id="filter0_f_138_1172" x="27" y="68" width="46" height="22" filterUnits="userSpaceOnUse" color-interpolation-filters="sRGB">
<feFlood flood-opacity="0" result="BackgroundImageFix"/>
<feBlend mode="normal" in="SourceGraphic" in2="BackgroundImageFix" result="shape"/>
<feGaussianBlur stdDeviation="3.5" result="effect1_foregroundBlur_138_1172"/>
</filter>
<filter id="filter1_f_138_1172" x="-29.383" y="1.86169" width="158.766" height="125.415" filterUnits="userSpaceOnUse" color-interpolation-filters="sRGB">
<feFlood flood-opacity="0" result="BackgroundImageFix"/>
<feBlend mode="normal" in="SourceGraphic" in2="BackgroundImageFix" result="shape"/>
<feGaussianBlur stdDeviation="26" result="effect1_foregroundBlur_138_1172"/>
</filter>
<filter id="filter2_f_138_1172" x="31.429" y="40.8196" width="18.0002" height="15.6142" filterUnits="userSpaceOnUse" color-interpolation-filters="sRGB">
<feFlood flood-opacity="0" result="BackgroundImageFix"/>
<feBlend mode="normal" in="SourceGraphic" in2="BackgroundImageFix" result="shape"/>
<feGaussianBlur stdDeviation="2.5" result="effect1_foregroundBlur_138_1172"/>
</filter>
<filter id="filter3_f_138_1172" x="52.0007" y="40.8196" width="18.0002" height="15.6142" filterUnits="userSpaceOnUse" color-interpolation-filters="sRGB">
<feFlood flood-opacity="0" result="BackgroundImageFix"/>
<feBlend mode="normal" in="SourceGraphic" in2="BackgroundImageFix" result="shape"/>
<feGaussianBlur stdDeviation="2.5" result="effect1_foregroundBlur_138_1172"/>
</filter>
<linearGradient id="paint0_linear_138_1172" x1="59.6985" y1="12.3475" x2="48.0974" y2="66.847" gradientUnits="userSpaceOnUse">
<stop stop-color="#ECE2C9"/>
<stop offset="1" stop-color="#ECE2C9" stop-opacity="0"/>
</linearGradient>
<linearGradient id="paint1_linear_138_1172" x1="40.3394" y1="39.7398" x2="40.3394" y2="50.5627" gradientUnits="userSpaceOnUse">
<stop stop-color="#4A444D"/>
<stop offset="1" stop-color="#0F0E0F"/>
</linearGradient>
<linearGradient id="paint2_linear_138_1172" x1="40.429" y1="45.8196" x2="40.429" y2="51.4338" gradientUnits="userSpaceOnUse">
<stop stop-color="#4A444D"/>
<stop offset="1" stop-color="#0F0E0F"/>
</linearGradient>
<linearGradient id="paint3_linear_138_1172" x1="61.0008" y1="45.8196" x2="61.0008" y2="51.4338" gradientUnits="userSpaceOnUse">
<stop stop-color="#4A444D"/>
<stop offset="1" stop-color="#0F0E0F"/>
</linearGradient>
<linearGradient id="paint4_linear_138_1172" x1="61.033" y1="39.7397" x2="61.033" y2="50.5627" gradientUnits="userSpaceOnUse">
<stop stop-color="#4A444D"/>
<stop offset="1" stop-color="#0F0E0F"/>
</linearGradient>
<clipPath id="clip0_138_1172">
<rect width="100" height="100" fill="white"/>
</clipPath>
</defs>
</svg>
