<svg width="49" height="48" viewBox="0 0 49 48" fill="none" xmlns="http://www.w3.org/2000/svg">
<circle cx="24.1667" cy="24" r="24" fill="#CFF6F1"/>
<mask id="mask0_138_1953" style="mask-type:alpha" maskUnits="userSpaceOnUse" x="0" y="0" width="49" height="48">
<circle cx="24.1667" cy="24" r="24" fill="#CFF6F1"/>
</mask>
<g mask="url(#mask0_138_1953)">
<path d="M24 39.8503C23.4359 39.8496 22.8795 39.7181 22.3747 39.4662C20.8572 38.7067 17.8936 37.0781 15.098 34.7039C11.4613 31.6154 9.30574 28.3003 8.69113 24.8506C8.21374 22.1709 8.89534 19.4353 10.5611 17.3451C12.1038 15.4095 14.2898 14.2784 16.7166 14.1601C16.8592 14.1531 17.0039 14.1495 17.1462 14.1495C19.4198 14.1495 21.5662 15.0257 23.1899 16.6169C23.4808 16.9018 23.7515 17.2067 23.9999 17.5293C24.2483 17.2067 24.519 16.9017 24.81 16.6168C26.4336 15.0258 28.5801 14.1496 30.8538 14.1496C30.9961 14.1496 31.1407 14.1531 31.2834 14.1601C33.7101 14.2784 35.8963 15.4095 37.439 17.3453C39.1047 19.4354 39.7862 22.171 39.3087 24.8508C38.6942 28.3004 36.5386 31.6155 32.9019 34.704C30.1064 37.0781 27.143 38.7067 25.6252 39.4662C25.1204 39.7181 24.5641 39.8496 24 39.8503Z" fill="url(#paint0_linear_138_1953)"/>
<path d="M37.4391 17.3452C36.8608 16.6197 36.1922 16.0071 35.4543 15.5186C36.8013 17.5189 37.3236 19.9984 36.89 22.4318C36.2755 25.8813 34.1199 29.1965 30.4832 32.285C27.6877 34.659 24.7243 36.2877 23.2065 37.0472C22.7017 37.2991 22.1454 37.4306 21.5812 37.4313C21.017 37.4306 20.4607 37.2991 19.9559 37.0472C18.4383 36.2877 15.4747 34.6591 12.6792 32.285C12.5603 32.1839 12.4422 32.0819 12.3249 31.979C13.1255 32.9046 14.0498 33.8137 15.098 34.7038C17.8936 37.078 20.8572 38.7066 22.3747 39.466C22.8769 39.7173 23.4389 39.8502 24 39.8502C24.5611 39.8502 25.1232 39.7174 25.6253 39.466C27.1431 38.7065 30.1065 37.0778 32.9021 34.7038C36.5388 31.6153 38.6943 28.3001 39.3088 24.8506C39.7863 22.1709 39.1048 19.4354 37.4391 17.3452Z" fill="url(#paint1_linear_138_1953)"/>
<path d="M31.2835 14.1601C31.1408 14.1531 30.9962 14.1495 30.8539 14.1495C28.5801 14.1495 26.4337 15.0257 24.81 16.6167C24.5191 16.9017 24.2484 17.2065 24 17.5292V39.8503C24.5642 39.8496 25.1205 39.7181 25.6253 39.4662C27.1431 38.7066 30.1065 37.0779 32.902 34.7039C36.5387 31.6154 38.6943 28.3003 39.3088 24.8507C39.7863 22.171 39.1048 19.4354 37.439 17.3453C35.8963 15.4095 33.7102 14.2783 31.2835 14.1601Z" fill="url(#paint2_linear_138_1953)"/>
<path d="M38.6416 27.2043C38.4972 27.577 38.3358 27.943 38.1582 28.3011C37.0667 30.5166 35.3083 32.6601 32.9024 34.7036C30.1069 37.0779 27.143 38.7065 25.625 39.4663C25.1232 39.7172 24.5607 39.8506 24 39.8506C23.4393 39.8506 22.8769 39.7172 22.375 39.4663C20.8571 38.7064 17.894 37.0779 15.0976 34.7036C12.6917 32.6601 10.9334 30.5166 9.84186 28.3011C9.66418 27.943 9.50287 27.577 9.3584 27.2043H11.5984C11.8415 27.2042 12.0785 27.1288 12.277 26.9885C12.4754 26.8482 12.6255 26.6498 12.7066 26.4207L13.5595 24.0166C13.9403 22.9435 15.4723 22.983 15.796 24.0754L17.6237 30.2384C17.9466 31.3282 19.4742 31.3712 19.8585 30.3016L21.4563 25.8592C21.8187 24.8502 23.2322 24.8125 23.6472 25.8013L23.6534 25.8145C24.0921 26.8568 25.6039 26.7402 25.8785 25.6443L27.028 21.0518C27.3175 19.8962 28.9452 19.8541 29.2943 20.993L31.3589 27.7378C31.6748 28.7705 33.0988 28.867 33.5516 27.8869C33.6463 27.6833 33.797 27.5108 33.9859 27.3894C34.1751 27.2686 34.395 27.2044 34.6195 27.2043H38.6416Z" fill="url(#paint3_linear_138_1953)"/>
<path d="M38.6416 27.2043H34.6195C34.3905 27.2043 34.172 27.271 33.986 27.3894C33.797 27.5108 33.6464 27.6833 33.5517 27.8869C33.0989 28.8671 31.6749 28.7705 31.359 27.7378L29.2944 20.993C28.9452 19.8541 27.3176 19.8962 27.0281 21.0518L25.8786 25.6443C25.6039 26.7402 24.0921 26.8569 23.6534 25.8145L23.6473 25.8013C23.2323 24.8125 21.8187 24.8502 21.4564 25.8592L19.8586 30.3016C19.4743 31.3712 17.9467 31.3282 17.6238 30.2384L16.8344 27.5766V30.833C16.8344 31.0753 16.9307 31.3078 17.1021 31.4792L25.2504 39.6274C25.3782 39.5808 25.5033 39.527 25.625 39.4663C27.143 38.7064 30.1069 37.0779 32.9024 34.7036C35.3083 32.6601 37.0667 30.5166 38.1582 28.3011C38.3359 27.943 38.4972 27.577 38.6416 27.2043Z" fill="url(#paint4_linear_138_1953)"/>
<path d="M38.1582 28.3011C38.3359 27.9431 38.4972 27.5771 38.6416 27.2043H34.6195C34.3905 27.2043 34.172 27.2711 33.986 27.3895C33.797 27.5108 33.6464 27.6834 33.5517 27.887C33.0989 28.8671 31.6749 28.7706 31.359 27.7379C31.2694 27.4453 30.8379 27.5099 30.8379 27.8159V28.9659L34.8019 32.9299C36.2558 31.4305 37.3782 29.8843 38.1582 28.3011Z" fill="url(#paint5_linear_138_1953)"/>
<path d="M18.7563 32.1775C18.7333 32.1775 18.7104 32.1773 18.6872 32.1766C17.687 32.1481 16.8569 31.5099 16.5724 30.5506L14.7448 24.3877C14.7352 24.3555 14.7284 24.3323 14.6706 24.3307C14.6107 24.3286 14.6046 24.3521 14.5934 24.3838L13.7407 26.7879C13.4197 27.6931 12.5587 28.3013 11.5983 28.3013H7.09717C6.49146 28.3013 6.00037 27.8103 6.00037 27.2045C6.00037 26.5988 6.49146 26.1077 7.09717 26.1077H11.5982C11.6147 26.1077 11.6307 26.1026 11.6442 26.0931C11.6576 26.0836 11.6678 26.0702 11.6733 26.0547L12.5259 23.6505C12.8611 22.7053 13.7272 22.1127 14.7281 22.1379C15.7306 22.1643 16.5626 22.8026 16.8478 23.764L18.6755 29.9269C18.685 29.959 18.6919 29.9823 18.7496 29.9839C18.8068 29.9839 18.8155 29.9628 18.8268 29.9312L20.4244 25.4883C20.7437 24.6002 21.5597 24.0101 22.5032 23.9851C23.4475 23.9602 24.2928 24.506 24.6588 25.3759L24.6652 25.3913C24.6773 25.4201 24.6875 25.4422 24.7439 25.4379C24.8011 25.4335 24.8071 25.4102 24.8151 25.3778L25.9646 20.7861C26.2154 19.7838 27.078 19.0924 28.111 19.0657C29.1415 19.0395 30.041 19.6849 30.3434 20.6729L32.4079 27.4174C32.4162 27.4443 32.424 27.4698 32.4787 27.4735C32.5338 27.4773 32.5445 27.453 32.5564 27.4275C32.9269 26.6258 33.7369 26.1079 34.6199 26.1079H40.9029C41.5087 26.1079 41.9997 26.599 41.9997 27.2047C41.9997 27.8104 41.5087 28.3015 40.9029 28.3015H34.6199C34.589 28.3015 34.5606 28.3196 34.5475 28.3478C34.1488 29.2107 33.2773 29.7259 32.3299 29.6621C31.3813 29.5975 30.5887 28.9685 30.3104 28.0595L28.2458 21.3149C28.2343 21.2776 28.231 21.258 28.1676 21.2585C28.1071 21.2601 28.1018 21.2809 28.0924 21.3188L26.9429 25.9106C26.7011 26.8762 25.9037 27.5491 24.9113 27.6251C23.9195 27.7015 23.0284 27.1575 22.6424 26.2401L22.636 26.2248C22.6259 26.2008 22.6155 26.1763 22.5612 26.1779C22.5068 26.1794 22.4978 26.2042 22.4884 26.2306L20.8908 30.6735C20.5602 31.5932 19.727 32.1775 18.7563 32.1775Z" fill="url(#paint6_linear_138_1953)"/>
<path d="M42 27.2048C42 27.8102 41.5087 28.3016 40.9032 28.3016H34.6195C34.5888 28.3016 34.5607 28.32 34.5476 28.3481C34.1483 29.2106 33.2771 29.7256 32.3294 29.6624C31.3809 29.5975 30.5887 28.9684 30.3105 28.0594L28.2459 21.3146C28.2345 21.2777 28.231 21.2584 28.1678 21.2584C28.1073 21.2602 28.102 21.2812 28.0924 21.319L26.9429 25.9105C26.7007 26.8766 25.9041 27.5487 24.9117 27.625C23.9193 27.7014 23.0287 27.1574 22.6426 26.2405L22.6356 26.2246C22.6259 26.2009 22.6154 26.1764 22.561 26.1781C22.5066 26.179 22.4978 26.2045 22.4882 26.2308L20.8912 30.6732C20.5605 31.5936 19.7269 32.178 18.7564 32.178C18.7336 32.178 18.7099 32.1771 18.6871 32.1762C17.6869 32.1481 16.8568 31.5103 16.5725 30.5504L14.7448 24.3882C14.7352 24.3557 14.7282 24.332 14.6702 24.3312C14.6106 24.3286 14.6044 24.3522 14.593 24.3838L13.7402 26.788C13.4199 27.6935 12.5582 28.3016 11.5984 28.3016H7.09682C6.49138 28.3015 6.00002 27.8101 6.00002 27.2048H11.5984C11.8415 27.2047 12.0785 27.1293 12.277 26.989C12.4754 26.8487 12.6255 26.6503 12.7066 26.4212L13.5595 24.0171C13.9403 22.944 15.4723 22.9834 15.796 24.0759L17.6237 30.2389C17.9466 31.3287 19.4742 31.3717 19.8585 30.3021L21.4563 25.8597C21.8187 24.8506 23.2322 24.8129 23.6472 25.8018L23.6534 25.8149C24.0921 26.8573 25.6039 26.7406 25.8785 25.6448L27.028 21.0523C27.3175 19.8967 28.9451 19.8546 29.2943 20.9935L31.3589 27.7383C31.6748 28.771 33.0988 28.8675 33.5516 27.8874C33.6463 27.6838 33.797 27.5113 33.9859 27.3899C34.1751 27.2691 34.3949 27.2049 34.6195 27.2048H42Z" fill="url(#paint7_linear_138_1953)"/>
<circle cx="24.1667" cy="24" r="23.5" stroke="#C5ECE7"/>
</g>
<defs>
<linearGradient id="paint0_linear_138_1953" x1="21.4499" y1="20.3893" x2="32.2566" y2="33.8825" gradientUnits="userSpaceOnUse">
<stop stop-color="#FF7044"/>
<stop offset="1" stop-color="#F82814"/>
</linearGradient>
<linearGradient id="paint1_linear_138_1953" x1="27.6563" y1="30.2936" x2="32.1312" y2="39.8576" gradientUnits="userSpaceOnUse">
<stop stop-color="#F82814" stop-opacity="0"/>
<stop offset="1" stop-color="#C0272D"/>
</linearGradient>
<linearGradient id="paint2_linear_138_1953" x1="26.5562" y1="24.3188" x2="12.3321" y2="9.81584" gradientUnits="userSpaceOnUse">
<stop stop-color="#F82814" stop-opacity="0"/>
<stop offset="1" stop-color="#C0272D"/>
</linearGradient>
<linearGradient id="paint3_linear_138_1953" x1="24" y1="34.458" x2="24" y2="19.5712" gradientUnits="userSpaceOnUse">
<stop stop-color="#F82814" stop-opacity="0"/>
<stop offset="1" stop-color="#C0272D"/>
</linearGradient>
<linearGradient id="paint4_linear_138_1953" x1="27.6892" y1="30.4364" x2="21.1963" y2="25.9908" gradientUnits="userSpaceOnUse">
<stop stop-color="#F82814" stop-opacity="0"/>
<stop offset="1" stop-color="#C0272D"/>
</linearGradient>
<linearGradient id="paint5_linear_138_1953" x1="36.9717" y1="30.6233" x2="33.5676" y2="26.7521" gradientUnits="userSpaceOnUse">
<stop stop-color="#F82814" stop-opacity="0"/>
<stop offset="1" stop-color="#C0272D"/>
</linearGradient>
<linearGradient id="paint6_linear_138_1953" x1="24" y1="25.8696" x2="24" y2="29.4382" gradientUnits="userSpaceOnUse">
<stop stop-color="#FFD945"/>
<stop offset="0.304" stop-color="#FFCD3E"/>
<stop offset="0.856" stop-color="#FFAD2B"/>
<stop offset="1" stop-color="#FFA325"/>
</linearGradient>
<linearGradient id="paint7_linear_138_1953" x1="24" y1="32.3625" x2="24" y2="0.607397" gradientUnits="userSpaceOnUse">
<stop stop-color="#F35227" stop-opacity="0"/>
<stop offset="1" stop-color="#F35227"/>
</linearGradient>
</defs>
</svg>
