<?xml version="1.0" standalone="no"?>
<!DOCTYPE svg PUBLIC "-//W3C//DTD SVG 20010904//EN"
 "http://www.w3.org/TR/2001/REC-SVG-20010904/DTD/svg10.dtd">
<svg version="1.0" xmlns="http://www.w3.org/2000/svg"
 width="250.000000pt" height="250.000000pt" viewBox="0 0 250.000000 250.000000"
 preserveAspectRatio="xMidYMid meet">

<g transform="translate(0.000000,250.000000) scale(0.100000,-0.100000)"
fill="#000000" stroke="none">
<path d="M1065 2316 c-293 -49 -526 -169 -712 -369 -299 -321 -366 -767 -171
-1152 57 -114 113 -187 214 -285 142 -137 266 -211 457 -275 321 -107 683 -77
986 80 112 59 198 124 297 227 93 97 128 145 183 254 146 290 146 615 -2 909
-151 301 -458 525 -822 601 -107 22 -328 27 -430 10z m365 -11 c314 -47 578
-195 764 -427 277 -344 296 -814 51 -1184 -141 -213 -356 -370 -618 -453 -313
-99 -645 -73 -940 75 -277 139 -490 388 -567 665 -169 612 260 1216 940 1324
114 18 255 18 370 0z"/>
<path d="M811 1696 c-46 -48 -20 -130 44 -142 85 -16 136 85 75 146 -29 29
-90 27 -119 -4z"/>
<path d="M1570 1700 c-61 -61 -10 -162 75 -146 99 19 84 166 -17 166 -25 0
-45 -7 -58 -20z"/>
<path d="M1310 1234 c-14 -2 -52 -9 -85 -15 -128 -22 -372 -120 -445 -180 -14
-11 27 7 90 40 63 33 156 73 205 90 99 32 253 61 324 61 75 -1 196 -26 257
-54 61 -28 87 -28 33 0 -82 42 -289 74 -379 58z"/>
</g>
</svg>
