<svg width="49" height="48" viewBox="0 0 49 48" fill="none" xmlns="http://www.w3.org/2000/svg">
<circle cx="24.5" cy="24" r="24" fill="#CFF6F1"/>
<mask id="mask0_138_1700" style="mask-type:alpha" maskUnits="userSpaceOnUse" x="0" y="0" width="49" height="48">
<circle cx="24.5" cy="24" r="24" fill="#CFF6F1"/>
</mask>
<g mask="url(#mask0_138_1700)">
<path d="M43.5868 41.8516H31.647C31.4189 41.8516 31.2338 41.6666 31.2338 41.4383V39.5266C31.2338 39.4724 31.2445 39.4186 31.2652 39.3685C31.286 39.3183 31.3164 39.2728 31.3548 39.2344C31.3932 39.196 31.4387 39.1656 31.4889 39.1448C31.539 39.1241 31.5928 39.1134 31.647 39.1134H43.5868C43.815 39.1134 44 39.2984 44 39.5266V41.4383C44 41.6665 43.815 41.8516 43.5868 41.8516Z" fill="url(#paint0_linear_138_1700)"/>
<path d="M42.0711 41.8516H33.1627C33.1155 41.8516 33.0689 41.8423 33.0253 41.8242C32.9818 41.8062 32.9422 41.7798 32.9089 41.7465C32.8756 41.7131 32.8492 41.6736 32.8311 41.63C32.8131 41.5865 32.8038 41.5398 32.8038 41.4927V39.4723C32.8038 39.4251 32.8131 39.3785 32.8311 39.3349C32.8492 39.2914 32.8756 39.2518 32.9089 39.2185C32.9422 39.1852 32.9818 39.1588 33.0253 39.1407C33.0689 39.1227 33.1155 39.1134 33.1627 39.1134H42.0711C42.1182 39.1134 42.1649 39.1227 42.2084 39.1407C42.252 39.1588 42.2915 39.1852 42.3249 39.2185C42.3582 39.2518 42.3846 39.2914 42.4026 39.3349C42.4207 39.3785 42.43 39.4251 42.43 39.4723V41.4927C42.43 41.5398 42.4207 41.5865 42.4026 41.63C42.3846 41.6736 42.3582 41.7131 42.3249 41.7465C42.2915 41.7798 42.252 41.8062 42.2084 41.8242C42.1649 41.8423 42.1182 41.8516 42.0711 41.8516Z" fill="url(#paint1_linear_138_1700)"/>
<path d="M39.1507 41.8516H36.083C36.0256 41.8516 35.9706 41.8288 35.93 41.7882C35.8894 41.7476 35.8666 41.6926 35.8666 41.6352V39.3298C35.8666 39.2724 35.8894 39.2174 35.93 39.1768C35.9706 39.1362 36.0256 39.1134 36.083 39.1134H39.1507C39.2081 39.1134 39.2631 39.1362 39.3037 39.1768C39.3443 39.2174 39.3671 39.2724 39.3671 39.3298V41.6352C39.3671 41.6926 39.3443 41.7476 39.3037 41.7882C39.2631 41.8288 39.2081 41.8516 39.1507 41.8516Z" fill="url(#paint2_linear_138_1700)"/>
<path d="M32.0074 39.4467C31.7792 39.4467 31.5941 39.6317 31.5941 39.86V41.7717C31.5941 41.7982 31.5969 41.8241 31.6017 41.8492C31.6166 41.8508 31.6317 41.8518 31.6471 41.8518H43.5868C43.8149 41.8518 44 41.6668 44 41.4385V39.5268C44 39.5003 43.9973 39.4744 43.9925 39.4493C43.9774 39.4477 43.9622 39.4468 43.9471 39.4467H32.0074Z" fill="url(#paint3_linear_138_1700)"/>
<path d="M43.5868 39.1127H31.647C31.4189 39.1127 31.2338 38.9278 31.2338 38.6995V36.7878C31.2338 36.7335 31.2445 36.6798 31.2652 36.6297C31.286 36.5795 31.3164 36.534 31.3548 36.4956C31.3932 36.4572 31.4387 36.4268 31.4889 36.406C31.539 36.3852 31.5928 36.3746 31.647 36.3746H43.5868C43.815 36.3746 44 36.5595 44 36.7878V38.6995C44 38.9277 43.815 39.1127 43.5868 39.1127Z" fill="url(#paint4_linear_138_1700)"/>
<path d="M42.0711 39.1127H33.1627C33.1155 39.1127 33.0689 39.1035 33.0253 39.0854C32.9818 39.0674 32.9422 39.0409 32.9089 39.0076C32.8756 38.9743 32.8492 38.9347 32.8311 38.8912C32.8131 38.8477 32.8038 38.801 32.8038 38.7539V36.7334C32.8038 36.6863 32.8131 36.6396 32.8311 36.5961C32.8492 36.5526 32.8756 36.513 32.9089 36.4797C32.9422 36.4464 32.9818 36.4199 33.0253 36.4019C33.0689 36.3839 33.1155 36.3746 33.1627 36.3746H42.0711C42.1182 36.3746 42.1649 36.3839 42.2084 36.4019C42.252 36.4199 42.2915 36.4464 42.3249 36.4797C42.3582 36.513 42.3846 36.5526 42.4026 36.5961C42.4207 36.6396 42.43 36.6863 42.43 36.7334V38.754C42.43 38.8011 42.4207 38.8477 42.4026 38.8913C42.3846 38.9348 42.3582 38.9744 42.3249 39.0077C42.2915 39.041 42.252 39.0674 42.2084 39.0854C42.1649 39.1035 42.1182 39.1127 42.0711 39.1127Z" fill="url(#paint5_linear_138_1700)"/>
<path d="M39.1507 39.1127H36.083C36.0256 39.1127 35.9706 39.0899 35.93 39.0494C35.8894 39.0088 35.8666 38.9537 35.8666 38.8963V36.591C35.8666 36.5336 35.8894 36.4785 35.93 36.438C35.9706 36.3974 36.0256 36.3746 36.083 36.3746H39.1507C39.2081 36.3746 39.2631 36.3974 39.3037 36.438C39.3443 36.4785 39.3671 36.5336 39.3671 36.591V38.8963C39.3671 38.9537 39.3443 39.0088 39.3037 39.0494C39.2631 39.0899 39.2081 39.1127 39.1507 39.1127Z" fill="url(#paint6_linear_138_1700)"/>
<path d="M32.0074 36.7079C31.7792 36.7079 31.5941 36.8929 31.5941 37.1211V39.0328C31.5941 39.0594 31.5969 39.0852 31.6017 39.1103C31.6166 39.112 31.6317 39.1129 31.6471 39.1129H43.5868C43.8149 39.1129 44 38.928 44 38.6997V36.788C44 36.7615 43.9973 36.7357 43.9925 36.7105C43.9774 36.7088 43.9622 36.7079 43.9471 36.7079H32.0074Z" fill="url(#paint7_linear_138_1700)"/>
<path d="M43.5868 36.3748H31.647C31.4189 36.3748 31.2338 36.1899 31.2338 35.9616V34.0499C31.2338 33.9957 31.2445 33.9419 31.2652 33.8918C31.286 33.8416 31.3164 33.7961 31.3548 33.7577C31.3932 33.7193 31.4387 33.6889 31.4889 33.6681C31.539 33.6474 31.5928 33.6367 31.647 33.6367H43.5868C43.815 33.6367 44 33.8217 44 34.0499V35.9616C44 36.0159 43.9893 36.0696 43.9686 36.1198C43.9478 36.1699 43.9174 36.2155 43.879 36.2538C43.8406 36.2922 43.7951 36.3226 43.7449 36.3434C43.6948 36.3642 43.641 36.3749 43.5868 36.3748Z" fill="url(#paint8_linear_138_1700)"/>
<path d="M42.0711 36.3748H33.1627C33.1155 36.3748 33.0689 36.3656 33.0253 36.3475C32.9818 36.3295 32.9422 36.3031 32.9089 36.2697C32.8756 36.2364 32.8492 36.1969 32.8311 36.1533C32.8131 36.1098 32.8038 36.0631 32.8038 36.016V33.9955C32.8038 33.9484 32.8131 33.9018 32.8311 33.8582C32.8492 33.8147 32.8756 33.7751 32.9089 33.7418C32.9422 33.7085 32.9818 33.682 33.0253 33.664C33.0689 33.646 33.1155 33.6367 33.1627 33.6367H42.0711C42.1182 33.6367 42.1649 33.646 42.2084 33.664C42.252 33.682 42.2915 33.7085 42.3249 33.7418C42.3582 33.7751 42.3846 33.8147 42.4026 33.8582C42.4207 33.9018 42.43 33.9484 42.43 33.9955V36.016C42.43 36.0631 42.4207 36.1098 42.4026 36.1533C42.3846 36.1969 42.3582 36.2364 42.3249 36.2697C42.2915 36.3031 42.252 36.3295 42.2084 36.3475C42.1649 36.3656 42.1182 36.3748 42.0711 36.3748Z" fill="url(#paint9_linear_138_1700)"/>
<path d="M39.1507 36.3748H36.083C36.0256 36.3748 35.9706 36.352 35.93 36.3115C35.8894 36.2709 35.8666 36.2158 35.8666 36.1585V33.8531C35.8666 33.7957 35.8894 33.7406 35.93 33.7001C35.9706 33.6595 36.0256 33.6367 36.083 33.6367H39.1507C39.2081 33.6367 39.2631 33.6595 39.3037 33.7001C39.3443 33.7406 39.3671 33.7957 39.3671 33.8531V36.1585C39.3671 36.2158 39.3443 36.2709 39.3037 36.3115C39.2631 36.352 39.2081 36.3748 39.1507 36.3748Z" fill="url(#paint10_linear_138_1700)"/>
<path d="M32.0074 33.97C31.7792 33.97 31.5941 34.155 31.5941 34.3833V36.295C31.5941 36.3215 31.5969 36.3474 31.6017 36.3725C31.6166 36.3741 31.6317 36.375 31.6471 36.375H43.5868C43.8149 36.375 44 36.1901 44 35.9618V34.0501C44 34.0236 43.9973 33.9977 43.9925 33.9726C43.9774 33.9709 43.9622 33.9701 43.9471 33.97H32.0074Z" fill="url(#paint11_linear_138_1700)"/>
<path d="M43.5868 33.637H31.647C31.4189 33.637 31.2338 33.452 31.2338 33.2237V31.312C31.2338 31.2578 31.2445 31.204 31.2652 31.1539C31.286 31.1037 31.3164 31.0582 31.3548 31.0198C31.3932 30.9814 31.4387 30.951 31.4889 30.9302C31.539 30.9095 31.5928 30.8988 31.647 30.8988H43.5868C43.815 30.8988 44 31.0838 44 31.312V33.2237C44 33.278 43.9893 33.3317 43.9686 33.3819C43.9478 33.432 43.9174 33.4776 43.879 33.516C43.8406 33.5543 43.7951 33.5848 43.7449 33.6055C43.6948 33.6263 43.641 33.637 43.5868 33.637Z" fill="url(#paint12_linear_138_1700)"/>
<path d="M42.0711 33.637H33.1627C33.1155 33.637 33.0689 33.6277 33.0253 33.6096C32.9818 33.5916 32.9422 33.5652 32.9089 33.5319C32.8756 33.4985 32.8492 33.459 32.8311 33.4154C32.8131 33.3719 32.8038 33.3252 32.8038 33.2781V31.2577C32.8038 31.2105 32.8131 31.1639 32.8311 31.1203C32.8492 31.0768 32.8756 31.0372 32.9089 31.0039C32.9422 30.9706 32.9818 30.9442 33.0253 30.9261C33.0689 30.9081 33.1155 30.8988 33.1627 30.8988H42.0711C42.1182 30.8988 42.1649 30.9081 42.2084 30.9261C42.252 30.9442 42.2915 30.9706 42.3249 31.0039C42.3582 31.0372 42.3846 31.0768 42.4026 31.1203C42.4207 31.1639 42.43 31.2105 42.43 31.2577V33.2782C42.43 33.3253 42.4207 33.372 42.4026 33.4155C42.3846 33.459 42.3582 33.4986 42.3249 33.5319C42.2915 33.5652 42.252 33.5916 42.2084 33.6097C42.1649 33.6277 42.1182 33.637 42.0711 33.637Z" fill="url(#paint13_linear_138_1700)"/>
<path d="M39.1507 33.637H36.083C36.0256 33.637 35.9706 33.6142 35.93 33.5736C35.8894 33.533 35.8666 33.478 35.8666 33.4206V31.1152C35.8666 31.0578 35.8894 31.0028 35.93 30.9622C35.9706 30.9216 36.0256 30.8988 36.083 30.8988H39.1507C39.2081 30.8988 39.2631 30.9216 39.3037 30.9622C39.3443 31.0028 39.3671 31.0578 39.3671 31.1152V33.4206C39.3671 33.478 39.3443 33.533 39.3037 33.5736C39.2631 33.6142 39.2081 33.637 39.1507 33.637Z" fill="url(#paint14_linear_138_1700)"/>
<path d="M32.0074 31.2322C31.7792 31.2322 31.5941 31.4172 31.5941 31.6454V33.5571C31.5941 33.5836 31.5969 33.6095 31.6017 33.6346C31.6166 33.6363 31.6317 33.6372 31.6471 33.6372H43.5868C43.8149 33.6372 44 33.4522 44 33.224V31.3123C44 31.2857 43.9973 31.2599 43.9925 31.2348C43.9774 31.2331 43.9622 31.2322 43.9471 31.2322H32.0074Z" fill="url(#paint15_linear_138_1700)"/>
<path d="M43.5868 30.8991H31.647C31.4189 30.8991 31.2338 30.7141 31.2338 30.4858V28.5742C31.2338 28.5199 31.2445 28.4661 31.2652 28.416C31.286 28.3659 31.3164 28.3203 31.3548 28.2819C31.3932 28.2436 31.4387 28.2131 31.4889 28.1924C31.539 28.1716 31.5928 28.1609 31.647 28.1609H43.5868C43.815 28.1609 44 28.3459 44 28.5742V30.4858C44 30.5401 43.9893 30.5939 43.9686 30.644C43.9478 30.6941 43.9174 30.7397 43.879 30.7781C43.8406 30.8164 43.7951 30.8469 43.7449 30.8676C43.6948 30.8884 43.641 30.8991 43.5868 30.8991Z" fill="url(#paint16_linear_138_1700)"/>
<path d="M42.0711 30.8991H33.1627C33.1155 30.8991 33.0689 30.8898 33.0253 30.8718C32.9818 30.8537 32.9422 30.8273 32.9089 30.794C32.8756 30.7607 32.8492 30.7211 32.8311 30.6776C32.8131 30.634 32.8038 30.5874 32.8038 30.5402V28.5198C32.8038 28.4726 32.8131 28.426 32.8311 28.3824C32.8492 28.3389 32.8756 28.2993 32.9089 28.266C32.9422 28.2327 32.9818 28.2063 33.0253 28.1882C33.0689 28.1702 33.1155 28.1609 33.1627 28.1609H42.0711C42.1182 28.1609 42.1649 28.1702 42.2084 28.1882C42.252 28.2063 42.2915 28.2327 42.3249 28.266C42.3582 28.2993 42.3846 28.3389 42.4026 28.3824C42.4207 28.426 42.43 28.4726 42.43 28.5198V30.5402C42.43 30.5874 42.4207 30.634 42.4026 30.6776C42.3846 30.7211 42.3582 30.7607 42.3249 30.794C42.2915 30.8273 42.252 30.8537 42.2084 30.8718C42.1649 30.8898 42.1182 30.8991 42.0711 30.8991Z" fill="url(#paint17_linear_138_1700)"/>
<path d="M39.1507 30.8991H36.083C36.0256 30.8991 35.9706 30.8763 35.93 30.8357C35.8894 30.7951 35.8666 30.7401 35.8666 30.6827V28.3773C35.8666 28.3199 35.8894 28.2649 35.93 28.2243C35.9706 28.1837 36.0256 28.1609 36.083 28.1609H39.1507C39.2081 28.1609 39.2631 28.1837 39.3037 28.2243C39.3443 28.2649 39.3671 28.3199 39.3671 28.3773V30.6827C39.3671 30.7401 39.3443 30.7951 39.3037 30.8357C39.2631 30.8763 39.2081 30.8991 39.1507 30.8991Z" fill="url(#paint18_linear_138_1700)"/>
<path d="M32.0074 28.4933C31.7792 28.4933 31.5941 28.6783 31.5941 28.9066V30.8183C31.5941 30.8448 31.5969 30.8707 31.6017 30.8958C31.6166 30.8974 31.6317 30.8984 31.6471 30.8984H43.5868C43.8149 30.8984 44 30.7134 44 30.4851V28.5734C44 28.5469 43.9973 28.521 43.9925 28.4959C43.9774 28.4943 43.9622 28.4934 43.9471 28.4933H32.0074Z" fill="url(#paint19_linear_138_1700)"/>
<path d="M43.5868 28.1602H31.647C31.4189 28.1602 31.2338 27.9753 31.2338 27.747V25.8353C31.2338 25.7811 31.2445 25.7273 31.2652 25.6772C31.286 25.627 31.3164 25.5815 31.3548 25.5431C31.3932 25.5047 31.4387 25.4743 31.4889 25.4535C31.539 25.4328 31.5928 25.4221 31.647 25.4221H43.5868C43.815 25.4221 44 25.6071 44 25.8353V27.747C44 27.8013 43.9893 27.855 43.9686 27.9052C43.9478 27.9553 43.9174 28.0009 43.879 28.0392C43.8406 28.0776 43.7951 28.108 43.7449 28.1288C43.6948 28.1496 43.641 28.1603 43.5868 28.1602Z" fill="url(#paint20_linear_138_1700)"/>
<path d="M42.0711 28.1602H33.1627C33.1155 28.1602 33.0689 28.151 33.0253 28.1329C32.9818 28.1149 32.9422 28.0885 32.9089 28.0551C32.8756 28.0218 32.8492 27.9823 32.8311 27.9387C32.8131 27.8952 32.8038 27.8485 32.8038 27.8014V25.7809C32.8038 25.7338 32.8131 25.6872 32.8311 25.6436C32.8492 25.6001 32.8756 25.5605 32.9089 25.5272C32.9422 25.4939 32.9818 25.4674 33.0253 25.4494C33.0689 25.4314 33.1155 25.4221 33.1627 25.4221H42.0711C42.1182 25.4221 42.1649 25.4314 42.2084 25.4494C42.252 25.4674 42.2915 25.4939 42.3249 25.5272C42.3582 25.5605 42.3846 25.6001 42.4026 25.6436C42.4207 25.6872 42.43 25.7338 42.43 25.7809V27.8014C42.43 27.8485 42.4207 27.8952 42.4026 27.9387C42.3846 27.9823 42.3582 28.0218 42.3249 28.0551C42.2915 28.0885 42.252 28.1149 42.2084 28.1329C42.1649 28.151 42.1182 28.1602 42.0711 28.1602Z" fill="url(#paint21_linear_138_1700)"/>
<path d="M39.1507 28.1602H36.083C36.0256 28.1602 35.9706 28.1374 35.93 28.0969C35.8894 28.0563 35.8666 28.0012 35.8666 27.9439V25.6385C35.8666 25.5811 35.8894 25.526 35.93 25.4855C35.9706 25.4449 36.0256 25.4221 36.083 25.4221H39.1507C39.2081 25.4221 39.2631 25.4449 39.3037 25.4855C39.3443 25.526 39.3671 25.5811 39.3671 25.6385V27.9439C39.3671 28.0012 39.3443 28.0563 39.3037 28.0969C39.2631 28.1374 39.2081 28.1602 39.1507 28.1602Z" fill="url(#paint22_linear_138_1700)"/>
<path d="M32.0074 25.7555C31.7792 25.7555 31.5941 25.9404 31.5941 26.1687V28.0804C31.5941 28.1069 31.5969 28.1327 31.6017 28.1579C31.6166 28.1595 31.6317 28.1605 31.6471 28.1605H43.5868C43.8149 28.1605 44 27.9755 44 27.7472V25.8356C44 25.809 43.9973 25.7832 43.9925 25.758C43.9774 25.7564 43.9622 25.7555 43.9471 25.7555H32.0074Z" fill="url(#paint23_linear_138_1700)"/>
<path d="M43.5868 25.4224H31.647C31.4189 25.4224 31.2338 25.2374 31.2338 25.0091V23.0974C31.2338 23.0432 31.2445 22.9894 31.2652 22.9393C31.286 22.8891 31.3164 22.8436 31.3548 22.8052C31.3932 22.7668 31.4387 22.7364 31.4889 22.7156C31.539 22.6949 31.5928 22.6842 31.647 22.6842H43.5868C43.815 22.6842 44 22.8692 44 23.0974V25.0091C44 25.2373 43.815 25.4224 43.5868 25.4224Z" fill="url(#paint24_linear_138_1700)"/>
<path d="M42.0711 25.4224H33.1627C33.1155 25.4224 33.0689 25.4132 33.0253 25.3951C32.9818 25.3771 32.9422 25.3507 32.9089 25.3173C32.8756 25.284 32.8492 25.2445 32.8311 25.2009C32.8131 25.1574 32.8038 25.1107 32.8038 25.0636V23.0431C32.8038 22.9959 32.8131 22.9493 32.8311 22.9057C32.8492 22.8622 32.8756 22.8226 32.9089 22.7893C32.9422 22.756 32.9818 22.7296 33.0253 22.7115C33.0689 22.6935 33.1155 22.6842 33.1627 22.6842H42.0711C42.1182 22.6842 42.1649 22.6935 42.2084 22.7115C42.252 22.7296 42.2915 22.756 42.3249 22.7893C42.3582 22.8226 42.3846 22.8622 42.4026 22.9057C42.4207 22.9493 42.43 22.9959 42.43 23.0431V25.0635C42.43 25.1106 42.4207 25.1573 42.4027 25.2009C42.3846 25.2444 42.3582 25.284 42.3249 25.3173C42.2916 25.3506 42.252 25.3771 42.2085 25.3951C42.1649 25.4132 42.1182 25.4224 42.0711 25.4224Z" fill="url(#paint25_linear_138_1700)"/>
<path d="M39.1507 25.4224H36.083C36.0256 25.4224 35.9706 25.3996 35.93 25.359C35.8894 25.3184 35.8666 25.2634 35.8666 25.206V22.9006C35.8666 22.8432 35.8894 22.7882 35.93 22.7476C35.9706 22.707 36.0256 22.6842 36.083 22.6842H39.1507C39.2081 22.6842 39.2631 22.707 39.3037 22.7476C39.3443 22.7882 39.3671 22.8432 39.3671 22.9006V25.206C39.3671 25.2634 39.3443 25.3184 39.3037 25.359C39.2631 25.3996 39.2081 25.4224 39.1507 25.4224Z" fill="url(#paint26_linear_138_1700)"/>
<path d="M32.0074 23.0176C31.7792 23.0176 31.5941 23.2026 31.5941 23.4308V25.3425C31.5941 25.369 31.5969 25.3949 31.6017 25.42C31.6166 25.4216 31.6317 25.4226 31.6471 25.4226H43.5868C43.8149 25.4226 44 25.2376 44 25.0094V23.0977C44 23.0711 43.9973 23.0453 43.9925 23.0202C43.9774 23.0185 43.9622 23.0176 43.9471 23.0176H32.0074Z" fill="url(#paint27_linear_138_1700)"/>
<path d="M43.5868 22.6845H31.647C31.4189 22.6845 31.2338 22.4995 31.2338 22.2713V20.3596C31.2338 20.3053 31.2445 20.2516 31.2652 20.2014C31.286 20.1513 31.3164 20.1057 31.3548 20.0674C31.3932 20.029 31.4387 19.9985 31.4889 19.9778C31.539 19.957 31.5928 19.9463 31.647 19.9464H43.5868C43.815 19.9464 44 20.1313 44 20.3596V22.2713C44 22.4995 43.815 22.6845 43.5868 22.6845Z" fill="url(#paint28_linear_138_1700)"/>
<path d="M42.0711 22.6845H33.1627C33.1155 22.6845 33.0689 22.6752 33.0253 22.6572C32.9818 22.6392 32.9422 22.6127 32.9089 22.5794C32.8756 22.5461 32.8492 22.5065 32.8311 22.463C32.8131 22.4194 32.8038 22.3728 32.8038 22.3257V20.3052C32.8038 20.2581 32.8131 20.2114 32.8311 20.1679C32.8492 20.1243 32.8756 20.0848 32.9089 20.0515C32.9422 20.0181 32.9818 19.9917 33.0253 19.9737C33.0689 19.9556 33.1155 19.9464 33.1627 19.9464H42.0711C42.1182 19.9464 42.1649 19.9556 42.2084 19.9737C42.252 19.9917 42.2915 20.0181 42.3249 20.0515C42.3582 20.0848 42.3846 20.1243 42.4026 20.1679C42.4207 20.2114 42.43 20.2581 42.43 20.3052V22.3257C42.43 22.3728 42.4207 22.4194 42.4026 22.463C42.3846 22.5065 42.3582 22.5461 42.3249 22.5794C42.2915 22.6127 42.252 22.6392 42.2084 22.6572C42.1649 22.6752 42.1182 22.6845 42.0711 22.6845Z" fill="url(#paint29_linear_138_1700)"/>
<path d="M39.1507 22.6845H36.083C36.0256 22.6845 35.9706 22.6617 35.93 22.6211C35.8894 22.5805 35.8666 22.5255 35.8666 22.4681V20.1627C35.8666 20.1054 35.8894 20.0503 35.93 20.0097C35.9706 19.9691 36.0256 19.9464 36.083 19.9464H39.1507C39.2081 19.9464 39.2631 19.9691 39.3037 20.0097C39.3443 20.0503 39.3671 20.1054 39.3671 20.1627V22.4681C39.3671 22.5255 39.3443 22.5805 39.3037 22.6211C39.2631 22.6617 39.2081 22.6845 39.1507 22.6845Z" fill="url(#paint30_linear_138_1700)"/>
<path d="M32.0074 20.2797C31.7792 20.2797 31.5941 20.4647 31.5941 20.6929V22.6046C31.5941 22.6312 31.5969 22.6569 31.6017 22.6821C31.6166 22.6837 31.6317 22.6847 31.6471 22.6847H43.5868C43.8149 22.6847 44 22.4997 44 22.2715V20.3598C44 20.3332 43.9973 20.3074 43.9925 20.2823C43.9774 20.2806 43.9622 20.2797 43.9471 20.2797H32.0074Z" fill="url(#paint31_linear_138_1700)"/>
<path d="M37.3744 29.9638L36.2772 24.2096C35.4588 19.9175 31.7059 16.8126 27.3365 16.8126H23.2198C18.8504 16.8126 15.0975 19.9175 14.2791 24.2096L13.657 27.472C13.0592 30.6072 12.1036 33.6744 10.6744 36.5283C10.2565 37.3626 10.0371 38.3135 10.0783 39.3195C10.1971 42.2299 12.7586 44.7343 15.6709 44.7913L15.7349 44.7922C17.0562 44.8036 18.3284 45.3185 19.255 46.2605C20.2907 47.3133 21.7313 47.9663 23.3249 47.9663C25.2591 47.9663 26.9681 47.0048 28.0013 45.5338C28.3339 45.0603 28.8794 44.7912 29.4582 44.7923H29.4682C29.7169 44.7923 29.9612 44.7739 30.1999 44.7385C30.6502 44.6718 31.1057 44.7867 31.4774 45.0496C32.4827 45.7606 33.7275 46.1554 35.0675 46.0875C37.9353 45.9424 40.2746 43.6468 40.4695 40.782C40.5396 39.7512 40.3357 38.7742 39.9236 37.9161C38.7141 35.3975 37.8977 32.7083 37.3744 29.9638Z" fill="url(#paint32_radial_138_1700)"/>
<path d="M15.7853 44.7927C18.94 44.7927 21.4973 42.2354 21.4973 39.0807C21.4973 35.926 18.94 33.3687 15.7853 33.3687C12.6307 33.3687 10.0733 35.926 10.0733 39.0807C10.0733 42.2354 12.6307 44.7927 15.7853 44.7927Z" fill="url(#paint33_linear_138_1700)"/>
<path d="M23.3249 47.9663C26.4796 47.9663 29.0369 45.4089 29.0369 42.2542C29.0369 39.0996 26.4796 36.5422 23.3249 36.5422C20.1702 36.5422 17.6129 39.0996 17.6129 42.2542C17.6129 45.4089 20.1702 47.9663 23.3249 47.9663Z" fill="url(#paint34_linear_138_1700)"/>
<path d="M34.771 46.0949C37.9256 46.0949 40.483 43.5375 40.483 40.3829C40.483 37.2282 37.9256 34.6708 34.771 34.6708C31.6163 34.6708 29.0589 37.2282 29.0589 40.3829C29.0589 43.5375 31.6163 46.0949 34.771 46.0949Z" fill="url(#paint35_linear_138_1700)"/>
<path d="M40.4694 40.7818C40.5395 39.751 40.3356 38.774 39.9235 37.9159C38.714 35.3973 37.8977 32.7081 37.3744 29.9635L36.2772 24.2093C35.9802 22.6519 35.2954 21.2522 34.3365 20.0989C32.7494 18.7849 30.7179 18.0078 28.5319 18.0078H24.4152C20.0458 18.0078 16.2929 21.1127 15.4745 25.4047L14.8524 28.6672C14.2545 31.8024 13.2989 34.8696 11.8698 37.7233C11.4519 38.5577 11.2324 39.5086 11.2735 40.5146C11.3203 41.6597 11.7463 42.741 12.4219 43.636C13.3516 44.3362 14.4818 44.7676 15.6709 44.7909L15.7348 44.7918C17.0561 44.8032 18.3284 45.3182 19.255 46.2602C20.2907 47.313 21.7312 47.966 23.3249 47.966C25.2591 47.966 26.9681 47.0044 28.0013 45.5335C28.3339 45.0599 28.8794 44.7908 29.4582 44.792H29.4682C29.7169 44.792 29.9612 44.7736 30.1999 44.7381C30.6502 44.6714 31.1057 44.7863 31.4774 45.0492C32.4827 45.7603 33.7275 46.155 35.0675 46.0872C37.9352 45.9422 40.2746 43.6466 40.4694 40.7818Z" fill="url(#paint36_linear_138_1700)"/>
<path d="M28.5968 23.5365C28.1833 23.4086 27.7903 23.3165 27.4182 23.2597C27.2387 23.2322 27.0574 23.21 26.8746 23.1925L26.8702 23.19L26.0328 22.3228C25.8675 22.2148 25.6881 22.1605 25.4952 22.1605C25.2745 22.1605 25.0885 22.2119 24.937 22.314C24.7851 22.4164 24.7095 22.5379 24.7095 22.6781V23.215C23.5103 23.3836 22.5211 23.8266 21.7425 24.5435C20.9635 25.2603 20.5743 26.2441 20.5743 27.4951C20.5743 28.0052 20.6638 28.4705 20.843 28.8908C21.0221 29.3114 21.2289 29.6558 21.4634 29.9246L24.7096 33.1737V35.104C24.172 35.0077 23.586 34.7354 22.9522 34.2873C22.3179 33.8395 21.8698 33.6153 21.6081 33.6153C21.2359 33.6153 20.9084 33.8085 20.6259 34.1943C20.3433 34.5804 20.2021 34.9664 20.2021 35.3522C20.2021 35.855 20.4488 36.3194 20.9413 36.7457L29.0361 44.8405C29.173 44.8084 29.3146 44.7919 29.4583 44.7922H29.4684C29.717 44.7922 29.9613 44.7738 30.2001 44.7384C30.6503 44.6717 31.1059 44.7866 31.4776 45.0495C32.4829 45.7606 33.7277 46.1553 35.0677 46.0875C37.9354 45.9424 40.2747 43.6467 40.4696 40.7819C40.5397 39.7511 40.3358 38.7742 39.9237 37.916C39.082 36.1632 38.4311 34.3275 37.9364 32.4482L29.5996 24.1116C29.3443 23.8561 29.0103 23.6645 28.5968 23.5365Z" fill="url(#paint37_linear_138_1700)"/>
<path d="M30.0959 31.982C29.9232 31.541 29.7166 31.1755 29.4755 30.8861C29.2341 30.5966 28.9137 30.3211 28.514 30.059C28.1141 29.7973 27.7558 29.5974 27.4388 29.4595C27.1216 29.3218 26.7358 29.1632 26.281 28.9839V25.965C26.7771 26.0064 27.256 26.1443 27.718 26.3786C28.1797 26.6132 28.507 26.7301 28.7002 26.7301C29.0998 26.7301 29.4135 26.534 29.641 26.1418C29.8684 25.7496 29.9821 25.3709 29.9821 25.0065C29.9821 24.6657 29.8545 24.3676 29.5996 24.1116C29.3443 23.8561 29.0103 23.6645 28.5968 23.5365C28.1833 23.4086 27.7903 23.3165 27.4182 23.2597C27.0415 23.2024 26.6618 23.1668 26.281 23.153V22.6758C26.281 22.5485 26.1983 22.4309 26.0328 22.3227C25.8675 22.2148 25.6881 22.1605 25.4952 22.1605C25.2745 22.1605 25.0885 22.2119 24.937 22.314C24.7851 22.4164 24.7095 22.5379 24.7095 22.6781V23.215C23.5103 23.3836 22.5211 23.8266 21.7425 24.5435C20.9635 25.2603 20.5743 26.2441 20.5743 27.4951C20.5743 28.0052 20.6637 28.4705 20.843 28.8908C21.0221 29.3114 21.2289 29.6558 21.4634 29.9246C21.6976 30.1934 22.0285 30.4554 22.4559 30.7103C22.883 30.9655 23.2416 31.1548 23.5311 31.2788C23.8205 31.4029 24.2134 31.5615 24.7096 31.7544V35.104C24.172 35.0077 23.586 34.7354 22.9522 34.2873C22.3179 33.8395 21.8698 33.6153 21.6081 33.6153C21.2359 33.6153 20.9084 33.8085 20.6259 34.1943C20.3433 34.5804 20.2021 34.9664 20.2021 35.3522C20.2021 36.0278 20.6467 36.6341 21.5358 37.1718C22.4249 37.7094 23.4826 37.9989 24.7096 38.0402V38.5571C24.7096 38.7086 24.7853 38.8394 24.937 38.9499C25.0885 39.0601 25.2746 39.1154 25.4953 39.1154C25.6881 39.1154 25.8675 39.0566 26.0329 38.9396C26.1984 38.8223 26.2811 38.6947 26.2811 38.5571V37.9574C27.5217 37.7507 28.5106 37.2615 29.2481 36.4894C29.9854 35.7175 30.3543 34.7044 30.3543 33.4499C30.3542 32.9124 30.2681 32.4232 30.0959 31.982ZM24.9163 28.4876C24.034 28.1154 23.593 27.6812 23.593 27.185C23.593 26.5925 24.034 26.2064 24.9163 26.027V28.4876ZM26.0742 35.0834V32.3128C26.9148 32.7127 27.3355 33.2018 27.3355 33.7808C27.3355 34.4563 26.9148 34.8905 26.0742 35.0834Z" fill="url(#paint38_linear_138_1700)"/>
<path d="M28.0836 16.8127H22.4726L19.9198 11.919C19.543 11.1965 19.9732 10.3156 20.7747 10.1687L22.4464 9.86215C24.3186 9.51889 26.2376 9.51889 28.1098 9.86215L29.7815 10.1687C30.5829 10.3156 31.0132 11.1965 30.6363 11.919L28.0836 16.8127Z" fill="url(#paint39_linear_138_1700)"/>
<path d="M26.2112 16.8127H24.345L23.4961 11.919C23.3707 11.1965 23.5139 10.3156 23.7804 10.1687L24.3364 9.86215C24.959 9.51889 25.5972 9.51889 26.2199 9.86215L26.7759 10.1687C27.0425 10.3156 27.1856 11.1965 27.0602 11.919L26.2112 16.8127Z" fill="url(#paint40_linear_138_1700)"/>
<path d="M30.5521 10.6609C30.6615 10.8165 30.6064 11.0334 30.4367 11.1194C30.0443 11.319 29.6102 11.4231 29.1699 11.4231C28.7296 11.4231 28.2956 11.319 27.9031 11.1194L27.1994 10.7621C26.8069 10.5625 26.3729 10.4584 25.9326 10.4584C25.4923 10.4584 25.0582 10.5625 24.6658 10.7621L23.9629 11.1194C23.5705 11.319 23.1364 11.423 22.6961 11.423C22.2558 11.423 21.8218 11.319 21.4293 11.1194L20.6931 10.745C20.4352 10.6138 20.4833 10.2236 20.7677 10.1703L20.7749 10.1689L22.4466 9.86175C24.3188 9.51902 26.2376 9.51902 28.1097 9.86175L29.7814 10.1689C30.0933 10.2245 30.3704 10.4014 30.5521 10.6609Z" fill="url(#paint41_linear_138_1700)"/>
<path d="M30.6526 11.3471C30.6893 11.2568 30.7177 11.1634 30.7374 11.068C30.6275 10.6288 30.2754 10.2593 29.7816 10.1687L28.1099 9.86215C26.2377 9.51889 24.3187 9.51889 22.4465 9.86215L21.1997 10.0908C21.0434 10.4651 21.0235 10.9293 21.1957 11.3471L23.4484 16.8127H28.0837L29.5906 13.9238L30.6526 11.3471Z" fill="url(#paint42_linear_138_1700)"/>
<path d="M25.2781 17.3615C24.0619 17.3615 22.9106 17.2829 21.9672 17.1377C21.6565 17.0899 21.4481 16.7937 21.5107 16.4857C21.569 16.1992 21.8411 16.0086 22.1301 16.0528C23.0162 16.1887 24.1308 16.2647 25.2781 16.2647C26.4253 16.2647 27.54 16.1887 28.4262 16.0528C28.5652 16.0316 28.7072 16.0647 28.8225 16.1453C28.9378 16.2259 29.0177 16.3478 29.0455 16.4857C29.1082 16.7937 28.8998 17.09 28.5891 17.1377C27.6456 17.2829 26.4944 17.3615 25.2781 17.3615Z" fill="url(#paint43_linear_138_1700)"/>
<path d="M18.7531 32.2831C18.7095 32.1016 18.5478 31.9661 18.3529 31.9661H12.5213C12.0206 33.5301 11.4107 35.0575 10.6743 36.528C10.2564 37.3624 10.037 38.3133 10.0781 39.3192C10.1969 42.2297 12.7585 44.734 15.6708 44.791L15.7348 44.7919C17.0561 44.8033 18.3284 45.3182 19.255 46.2602C20.2906 47.3131 21.7312 47.966 23.3249 47.966C25.259 47.966 26.9681 47.0045 28.0013 45.5336C28.3339 45.06 28.8794 44.7909 29.4581 44.792H29.4682C29.7168 44.792 29.9611 44.7736 30.1999 44.7382C30.6502 44.6715 31.1057 44.7864 31.4774 45.0493C31.5201 45.0795 31.5637 45.1083 31.6073 45.1373L18.7531 32.2831Z" fill="url(#paint44_linear_138_1700)"/>
<path d="M18.353 48.3956H6.41321C6.18503 48.3956 5.99997 48.2106 5.99997 47.9823V46.0706C5.99996 46.0164 6.01065 45.9626 6.03141 45.9125C6.05217 45.8624 6.08261 45.8168 6.12098 45.7784C6.15936 45.74 6.20492 45.7096 6.25506 45.6888C6.3052 45.6681 6.35894 45.6574 6.41321 45.6574H18.353C18.5811 45.6574 18.7662 45.8424 18.7662 46.0706V47.9823C18.7662 48.0919 18.7226 48.197 18.6452 48.2745C18.5677 48.352 18.4625 48.3956 18.353 48.3956Z" fill="url(#paint45_linear_138_1700)"/>
<path d="M16.8373 48.3956H7.92883C7.83366 48.3956 7.74238 48.3578 7.67509 48.2905C7.60779 48.2232 7.56998 48.1319 7.56998 48.0367V46.0163C7.56998 45.9211 7.60779 45.8298 7.67509 45.7625C7.74238 45.6952 7.83366 45.6574 7.92883 45.6574H16.8373C16.9325 45.6574 17.0237 45.6952 17.091 45.7625C17.1583 45.8298 17.1961 45.9211 17.1961 46.0163V48.0367C17.1961 48.1319 17.1583 48.2232 17.091 48.2905C17.0237 48.3578 16.9325 48.3956 16.8373 48.3956Z" fill="url(#paint46_linear_138_1700)"/>
<path d="M13.9169 48.3956H10.8493C10.7919 48.3956 10.7368 48.3728 10.6963 48.3322C10.6557 48.2916 10.6329 48.2366 10.6329 48.1792V45.8738C10.6329 45.8164 10.6557 45.7614 10.6963 45.7208C10.7368 45.6802 10.7919 45.6574 10.8493 45.6574H13.9169C13.9743 45.6574 14.0293 45.6802 14.0699 45.7208C14.1105 45.7614 14.1333 45.8164 14.1333 45.8738V48.1792C14.1333 48.2076 14.1277 48.2357 14.1168 48.262C14.106 48.2882 14.09 48.3121 14.0699 48.3322C14.0498 48.3523 14.026 48.3682 13.9997 48.3791C13.9735 48.39 13.9453 48.3956 13.9169 48.3956Z" fill="url(#paint47_linear_138_1700)"/>
<path d="M6.77349 45.9908C6.71922 45.9908 6.66548 46.0015 6.61534 46.0222C6.5652 46.043 6.51965 46.0734 6.48127 46.1118C6.4429 46.1502 6.41246 46.1957 6.3917 46.2459C6.37093 46.296 6.36025 46.3497 6.36026 46.404V48.3157C6.36026 48.3423 6.363 48.3681 6.36779 48.3932C6.3827 48.3948 6.39783 48.3958 6.4132 48.3958H18.3529C18.4072 48.3958 18.461 48.3851 18.5111 48.3644C18.5612 48.3436 18.6068 48.3132 18.6452 48.2748C18.6835 48.2364 18.714 48.1909 18.7347 48.1407C18.7555 48.0906 18.7662 48.0368 18.7662 47.9826V46.0709C18.7662 46.0443 18.7634 46.0185 18.7586 45.9934C18.7436 45.9917 18.7284 45.9908 18.7132 45.9908H6.77349Z" fill="url(#paint48_linear_138_1700)"/>
<path d="M18.353 45.6567H6.41321C6.18503 45.6567 5.99997 45.4718 5.99997 45.2435V43.3318C5.99996 43.2775 6.01065 43.2238 6.03141 43.1737C6.05217 43.1235 6.08261 43.078 6.12098 43.0396C6.15936 43.0012 6.20492 42.9708 6.25506 42.95C6.3052 42.9293 6.35894 42.9186 6.41321 42.9186H18.353C18.5811 42.9186 18.7662 43.1036 18.7662 43.3318V45.2435C18.7662 45.3531 18.7226 45.4582 18.6452 45.5357C18.5677 45.6132 18.4625 45.6567 18.353 45.6567Z" fill="url(#paint49_linear_138_1700)"/>
<path d="M16.8373 45.6568H7.92883C7.83366 45.6568 7.74238 45.619 7.67509 45.5517C7.60779 45.4844 7.56998 45.3931 7.56998 45.298V43.2774C7.56998 43.1823 7.60779 43.091 7.67509 43.0237C7.74238 42.9564 7.83366 42.9186 7.92883 42.9186H16.8373C16.9325 42.9186 17.0237 42.9564 17.091 43.0237C17.1583 43.091 17.1961 43.1823 17.1961 43.2774V45.298C17.1961 45.3931 17.1583 45.4844 17.091 45.5517C17.0237 45.619 16.9325 45.6568 16.8373 45.6568Z" fill="url(#paint50_linear_138_1700)"/>
<path d="M13.9169 45.6567H10.8493C10.7919 45.6567 10.7368 45.6339 10.6963 45.5934C10.6557 45.5528 10.6329 45.4977 10.6329 45.4403V43.135C10.6329 43.0776 10.6557 43.0225 10.6963 42.982C10.7368 42.9414 10.7919 42.9186 10.8493 42.9186H13.9169C13.9743 42.9186 14.0293 42.9414 14.0699 42.982C14.1105 43.0225 14.1333 43.0776 14.1333 43.135V45.4403C14.1333 45.4688 14.1277 45.4969 14.1168 45.5232C14.106 45.5494 14.09 45.5733 14.0699 45.5934C14.0498 45.6135 14.026 45.6294 13.9997 45.6403C13.9735 45.6511 13.9453 45.6567 13.9169 45.6567Z" fill="url(#paint51_linear_138_1700)"/>
<path d="M6.77349 43.252C6.71922 43.2519 6.66548 43.2626 6.61534 43.2834C6.5652 43.3042 6.51965 43.3346 6.48127 43.373C6.4429 43.4113 6.41246 43.4569 6.3917 43.507C6.37093 43.5572 6.36025 43.6109 6.36026 43.6652V45.5769C6.36026 45.6034 6.363 45.6292 6.36779 45.6544C6.3827 45.6561 6.39783 45.657 6.4132 45.657H18.3529C18.4072 45.657 18.461 45.6463 18.5111 45.6255C18.5612 45.6048 18.6068 45.5743 18.6452 45.536C18.6835 45.4976 18.714 45.452 18.7347 45.4019C18.7555 45.3517 18.7662 45.298 18.7662 45.2437V43.332C18.7662 43.3055 18.7634 43.2796 18.7586 43.2545C18.7436 43.2528 18.7284 43.252 18.7132 43.252H6.77349Z" fill="url(#paint52_linear_138_1700)"/>
<path d="M18.353 42.9189H6.41321C6.18503 42.9189 5.99997 42.7339 5.99997 42.5056V40.5939C5.99997 40.3657 6.18495 40.1807 6.41321 40.1807H18.353C18.5811 40.1807 18.7662 40.3657 18.7662 40.5939V42.5056C18.7662 42.6152 18.7226 42.7203 18.6452 42.7978C18.5677 42.8753 18.4625 42.9189 18.353 42.9189Z" fill="url(#paint53_linear_138_1700)"/>
<path d="M16.8373 42.9189H7.92883C7.83366 42.9189 7.74238 42.881 7.67509 42.8137C7.60779 42.7465 7.56998 42.6552 7.56998 42.56V40.5395C7.56998 40.4444 7.60779 40.3531 7.67509 40.2858C7.74238 40.2185 7.83366 40.1807 7.92883 40.1807H16.8373C16.9325 40.1807 17.0237 40.2185 17.091 40.2858C17.1583 40.3531 17.1961 40.4444 17.1961 40.5395V42.56C17.1961 42.6552 17.1583 42.7465 17.091 42.8137C17.0237 42.881 16.9325 42.9189 16.8373 42.9189Z" fill="url(#paint54_linear_138_1700)"/>
<path d="M13.9169 42.9189H10.8493C10.7919 42.9189 10.7368 42.8961 10.6963 42.8555C10.6557 42.8149 10.6329 42.7599 10.6329 42.7025V40.3971C10.6329 40.3397 10.6557 40.2847 10.6963 40.2441C10.7368 40.2035 10.7919 40.1807 10.8493 40.1807H13.9169C13.9743 40.1807 14.0293 40.2035 14.0699 40.2441C14.1105 40.2847 14.1333 40.3397 14.1333 40.3971V42.7025C14.1333 42.7309 14.1277 42.759 14.1168 42.7853C14.106 42.8115 14.09 42.8354 14.0699 42.8555C14.0498 42.8756 14.026 42.8915 13.9997 42.9024C13.9735 42.9133 13.9453 42.9189 13.9169 42.9189Z" fill="url(#paint55_linear_138_1700)"/>
<path d="M6.77349 40.5141C6.71922 40.5141 6.66548 40.5247 6.61534 40.5455C6.5652 40.5663 6.51965 40.5967 6.48127 40.6351C6.4429 40.6735 6.41246 40.719 6.3917 40.7692C6.37093 40.8193 6.36025 40.873 6.36026 40.9273V42.839C6.36026 42.8655 6.363 42.8914 6.36779 42.9165C6.3827 42.9181 6.39783 42.9191 6.4132 42.9191H18.3529C18.4072 42.9191 18.461 42.9084 18.5111 42.8876C18.5612 42.8669 18.6068 42.8364 18.6452 42.7981C18.6835 42.7597 18.714 42.7141 18.7347 42.664C18.7555 42.6139 18.7662 42.5601 18.7662 42.5059V40.5942C18.7662 40.5676 18.7634 40.5418 18.7586 40.5167C18.7436 40.515 18.7284 40.5141 18.7132 40.5141H6.77349Z" fill="url(#paint56_linear_138_1700)"/>
<path d="M18.353 40.181H6.41321C6.18503 40.181 5.99997 39.996 5.99997 39.7677V37.856C5.99996 37.8018 6.01065 37.748 6.03141 37.6979C6.05217 37.6478 6.08261 37.6022 6.12098 37.5638C6.15936 37.5254 6.20492 37.495 6.25506 37.4742C6.3052 37.4535 6.35894 37.4428 6.41321 37.4428H18.353C18.5811 37.4428 18.7662 37.6278 18.7662 37.856V39.7677C18.7662 39.8773 18.7226 39.9824 18.6452 40.0599C18.5677 40.1374 18.4625 40.181 18.353 40.181Z" fill="url(#paint57_linear_138_1700)"/>
<path d="M16.8373 40.181H7.92883C7.83366 40.181 7.74238 40.1432 7.67509 40.0759C7.60779 40.0086 7.56998 39.9174 7.56998 39.8222V37.8017C7.56998 37.7545 7.57926 37.7079 7.5973 37.6643C7.61533 37.6208 7.64176 37.5812 7.67509 37.5479C7.70841 37.5146 7.74797 37.4882 7.79151 37.4701C7.83504 37.4521 7.88171 37.4428 7.92883 37.4428H16.8373C16.8844 37.4428 16.9311 37.4521 16.9746 37.4701C17.0181 37.4882 17.0577 37.5146 17.091 37.5479C17.1244 37.5812 17.1508 37.6208 17.1688 37.6643C17.1869 37.7079 17.1961 37.7545 17.1961 37.8017V39.8222C17.1961 39.9174 17.1583 40.0086 17.091 40.0759C17.0237 40.1432 16.9325 40.181 16.8373 40.181Z" fill="url(#paint58_linear_138_1700)"/>
<path d="M13.9169 40.181H10.8493C10.7919 40.181 10.7368 40.1582 10.6963 40.1176C10.6557 40.077 10.6329 40.022 10.6329 39.9646V37.6592C10.6329 37.6018 10.6557 37.5468 10.6963 37.5062C10.7368 37.4656 10.7919 37.4428 10.8493 37.4428H13.9169C13.9743 37.4428 14.0293 37.4656 14.0699 37.5062C14.1105 37.5468 14.1333 37.6018 14.1333 37.6592V39.9646C14.1333 40.022 14.1105 40.077 14.0699 40.1176C14.0293 40.1582 13.9743 40.181 13.9169 40.181Z" fill="url(#paint59_linear_138_1700)"/>
<path d="M6.77349 37.7762C6.71922 37.7762 6.66548 37.7869 6.61534 37.8076C6.5652 37.8284 6.51965 37.8588 6.48127 37.8972C6.4429 37.9356 6.41246 37.9811 6.3917 38.0313C6.37093 38.0814 6.36025 38.1351 6.36026 38.1894V40.1011C6.36026 40.1277 6.363 40.1534 6.36779 40.1786C6.3827 40.1803 6.39783 40.1812 6.4132 40.1812H18.3529C18.4072 40.1812 18.461 40.1705 18.5111 40.1498C18.5612 40.129 18.6068 40.0986 18.6452 40.0602C18.6835 40.0218 18.714 39.9763 18.7347 39.9261C18.7555 39.876 18.7662 39.8222 18.7662 39.768V37.8563C18.7662 37.8297 18.7634 37.8039 18.7586 37.7788C18.7436 37.7771 18.7284 37.7762 18.7132 37.7762H6.77349Z" fill="url(#paint60_linear_138_1700)"/>
<path d="M18.353 37.4431H6.41321C6.18503 37.4431 5.99997 37.2581 5.99997 37.0299V35.1182C5.99997 34.89 6.18495 34.705 6.41321 34.705H18.353C18.5811 34.705 18.7662 34.8899 18.7662 35.1182V37.0299C18.7662 37.2581 18.5811 37.4431 18.353 37.4431Z" fill="url(#paint61_linear_138_1700)"/>
<path d="M16.8373 37.4431H7.92883C7.83366 37.4431 7.74238 37.4053 7.67509 37.338C7.60779 37.2707 7.56998 37.1794 7.56998 37.0843V35.0638C7.56998 34.9686 7.60779 34.8774 7.67509 34.8101C7.74238 34.7428 7.83366 34.705 7.92883 34.705H16.8373C16.9325 34.705 17.0237 34.7428 17.091 34.8101C17.1583 34.8774 17.1961 34.9686 17.1961 35.0638V37.0843C17.1961 37.1794 17.1583 37.2707 17.091 37.338C17.0237 37.4053 16.9325 37.4431 16.8373 37.4431Z" fill="url(#paint62_linear_138_1700)"/>
<path d="M13.9169 37.4431H10.8493C10.8208 37.4431 10.7927 37.4375 10.7665 37.4266C10.7402 37.4158 10.7163 37.3998 10.6963 37.3797C10.6762 37.3596 10.6602 37.3358 10.6493 37.3095C10.6385 37.2833 10.6329 37.2551 10.6329 37.2267V34.9213C10.6329 34.864 10.6557 34.8089 10.6963 34.7683C10.7368 34.7278 10.7919 34.705 10.8493 34.705H13.9169C13.9743 34.705 14.0293 34.7278 14.0699 34.7683C14.1105 34.8089 14.1333 34.864 14.1333 34.9213V37.2267C14.1333 37.2551 14.1277 37.2833 14.1168 37.3095C14.106 37.3358 14.09 37.3596 14.0699 37.3797C14.0498 37.3998 14.026 37.4158 13.9997 37.4266C13.9735 37.4375 13.9453 37.4431 13.9169 37.4431Z" fill="url(#paint63_linear_138_1700)"/>
<path d="M6.77349 35.0374C6.71922 35.0373 6.66548 35.048 6.61534 35.0688C6.5652 35.0896 6.51965 35.12 6.48127 35.1584C6.4429 35.1967 6.41246 35.2423 6.3917 35.2924C6.37093 35.3426 6.36025 35.3963 6.36026 35.4506V37.3623C6.36026 37.3888 6.363 37.4147 6.36779 37.4398C6.3827 37.4414 6.39783 37.4424 6.4132 37.4424H18.3529C18.4072 37.4424 18.461 37.4317 18.5111 37.4109C18.5612 37.3902 18.6068 37.3597 18.6452 37.3214C18.6835 37.283 18.714 37.2374 18.7347 37.1873C18.7555 37.1371 18.7662 37.0834 18.7662 37.0291V35.1174C18.7662 35.0909 18.7634 35.0651 18.7586 35.0399C18.7436 35.0383 18.7284 35.0374 18.7132 35.0374H6.77349Z" fill="url(#paint64_linear_138_1700)"/>
<path d="M18.353 34.7043H6.41321C6.18503 34.7043 5.99997 34.5193 5.99997 34.291V32.3794C5.99996 32.3251 6.01065 32.2714 6.03141 32.2212C6.05217 32.1711 6.08261 32.1255 6.12098 32.0871C6.15936 32.0488 6.20492 32.0183 6.25506 31.9976C6.3052 31.9768 6.35894 31.9661 6.41321 31.9661H18.353C18.5811 31.9661 18.7662 32.1511 18.7662 32.3794V34.291C18.7662 34.5192 18.5811 34.7043 18.353 34.7043Z" fill="url(#paint65_linear_138_1700)"/>
<path d="M16.8373 34.7044H7.92883C7.83366 34.7044 7.74238 34.6666 7.67509 34.5993C7.60779 34.532 7.56998 34.4407 7.56998 34.3455V32.325C7.56998 32.2298 7.60779 32.1385 7.67509 32.0712C7.74238 32.0039 7.83366 31.9661 7.92883 31.9661H16.8373C16.9325 31.9661 17.0237 32.0039 17.091 32.0712C17.1583 32.1385 17.1961 32.2298 17.1961 32.325V34.3455C17.1961 34.4407 17.1583 34.532 17.091 34.5993C17.0237 34.6666 16.9325 34.7044 16.8373 34.7044Z" fill="url(#paint66_linear_138_1700)"/>
<path d="M13.9169 34.7043H10.8493C10.7919 34.7043 10.7368 34.6815 10.6963 34.6409C10.6557 34.6003 10.6329 34.5453 10.6329 34.4879V32.1825C10.6329 32.1251 10.6557 32.0701 10.6963 32.0295C10.7368 31.9889 10.7919 31.9661 10.8493 31.9661H13.9169C13.9743 31.9661 14.0293 31.9889 14.0699 32.0295C14.1105 32.0701 14.1333 32.1251 14.1333 32.1825V34.4879C14.1333 34.5453 14.1105 34.6003 14.0699 34.6409C14.0293 34.6815 13.9743 34.7043 13.9169 34.7043Z" fill="url(#paint67_linear_138_1700)"/>
<path d="M6.77349 32.2995C6.71922 32.2995 6.66548 32.3101 6.61534 32.3309C6.5652 32.3517 6.51965 32.3821 6.48127 32.4205C6.4429 32.4589 6.41246 32.5044 6.3917 32.5546C6.37093 32.6047 6.36025 32.6584 6.36026 32.7127V34.6244C6.36026 34.6509 6.363 34.6767 6.36779 34.7019C6.3827 34.7035 6.39783 34.7045 6.4132 34.7045H18.3529C18.4072 34.7045 18.461 34.6938 18.5111 34.673C18.5612 34.6523 18.6068 34.6218 18.6452 34.5835C18.6835 34.5451 18.714 34.4995 18.7347 34.4494C18.7555 34.3993 18.7662 34.3455 18.7662 34.2913V32.3796C18.7662 32.353 18.7634 32.3272 18.7586 32.3021C18.7436 32.3004 18.7284 32.2995 18.7132 32.2995H6.77349Z" fill="url(#paint68_linear_138_1700)"/>
<path d="M40.7408 48.3956H28.8011C28.7468 48.3956 28.6931 48.3849 28.6429 48.3641C28.5928 48.3434 28.5472 48.3129 28.5089 48.2746C28.4705 48.2362 28.44 48.1906 28.4193 48.1405C28.3985 48.0903 28.3878 48.0366 28.3878 47.9823V46.0706C28.3878 46.0164 28.3985 45.9626 28.4193 45.9125C28.44 45.8624 28.4705 45.8168 28.5089 45.7784C28.5472 45.74 28.5928 45.7096 28.6429 45.6888C28.6931 45.6681 28.7468 45.6574 28.8011 45.6574H40.7408C40.969 45.6574 41.1541 45.8424 41.1541 46.0706V47.9823C41.1541 48.0919 41.1105 48.197 41.033 48.2745C40.9555 48.352 40.8504 48.3956 40.7408 48.3956Z" fill="url(#paint69_linear_138_1700)"/>
<path d="M39.2252 48.3956H30.3167C30.2215 48.3956 30.1303 48.3578 30.063 48.2905C29.9957 48.2232 29.9579 48.1319 29.9579 48.0367V46.0163C29.9579 45.9691 29.9671 45.9225 29.9852 45.8789C30.0032 45.8354 30.0296 45.7958 30.063 45.7625C30.0963 45.7292 30.1358 45.7028 30.1794 45.6847C30.2229 45.6667 30.2696 45.6574 30.3167 45.6574H39.2252C39.2723 45.6574 39.3189 45.6667 39.3625 45.6847C39.406 45.7028 39.4456 45.7292 39.4789 45.7625C39.5122 45.7958 39.5387 45.8354 39.5567 45.8789C39.5747 45.9225 39.584 45.9691 39.584 46.0163V48.0367C39.584 48.1319 39.5462 48.2232 39.4789 48.2905C39.4116 48.3578 39.3203 48.3956 39.2252 48.3956Z" fill="url(#paint70_linear_138_1700)"/>
<path d="M36.3048 48.3956H33.2371C33.1797 48.3956 33.1247 48.3728 33.0841 48.3322C33.0435 48.2916 33.0207 48.2366 33.0207 48.1792V45.8738C33.0207 45.8164 33.0435 45.7614 33.0841 45.7208C33.1247 45.6802 33.1797 45.6574 33.2371 45.6574H36.3048C36.3622 45.6574 36.4172 45.6802 36.4578 45.7208C36.4984 45.7614 36.5212 45.8164 36.5212 45.8738V48.1792C36.5212 48.2366 36.4984 48.2916 36.4578 48.3322C36.4172 48.3728 36.3622 48.3956 36.3048 48.3956Z" fill="url(#paint71_linear_138_1700)"/>
<path d="M29.1614 45.9908C28.9332 45.9908 28.7481 46.1758 28.7481 46.404V48.3157C28.7481 48.3423 28.7509 48.3681 28.7557 48.3932C28.7706 48.3948 28.7857 48.3958 28.8011 48.3958H40.7408C40.969 48.3958 41.154 48.2108 41.154 47.9826V46.0709C41.154 46.0443 41.1513 46.0185 41.1465 45.9934C41.1314 45.9917 41.1163 45.9908 41.1011 45.9908H29.1614Z" fill="url(#paint72_linear_138_1700)"/>
<path d="M40.7408 45.6567H28.8011C28.7468 45.6567 28.6931 45.6461 28.6429 45.6253C28.5928 45.6045 28.5472 45.5741 28.5089 45.5357C28.4705 45.4974 28.44 45.4518 28.4193 45.4017C28.3985 45.3515 28.3878 45.2978 28.3878 45.2435V43.3318C28.3878 43.2775 28.3985 43.2238 28.4193 43.1737C28.44 43.1235 28.4705 43.078 28.5089 43.0396C28.5472 43.0012 28.5928 42.9708 28.6429 42.95C28.6931 42.9293 28.7468 42.9186 28.8011 42.9186H40.7408C40.969 42.9186 41.1541 43.1036 41.1541 43.3318V45.2435C41.1541 45.3531 41.1105 45.4582 41.033 45.5357C40.9555 45.6132 40.8504 45.6567 40.7408 45.6567Z" fill="url(#paint73_linear_138_1700)"/>
<path d="M39.2252 45.6568H30.3167C30.2215 45.6568 30.1303 45.619 30.063 45.5517C29.9957 45.4844 29.9579 45.3931 29.9579 45.298V43.2774C29.9579 43.1823 29.9957 43.091 30.063 43.0237C30.1303 42.9564 30.2215 42.9186 30.3167 42.9186H39.2252C39.3203 42.9186 39.4116 42.9564 39.4789 43.0237C39.5462 43.091 39.584 43.1823 39.584 43.2774V45.298C39.584 45.3931 39.5462 45.4844 39.4789 45.5517C39.4116 45.619 39.3203 45.6568 39.2252 45.6568Z" fill="url(#paint74_linear_138_1700)"/>
<path d="M36.3048 45.6567H33.2371C33.1797 45.6567 33.1247 45.6339 33.0841 45.5934C33.0435 45.5528 33.0207 45.4977 33.0207 45.4403V43.135C33.0207 43.0776 33.0435 43.0225 33.0841 42.982C33.1247 42.9414 33.1797 42.9186 33.2371 42.9186H36.3048C36.3622 42.9186 36.4172 42.9414 36.4578 42.982C36.4984 43.0225 36.5212 43.0776 36.5212 43.135V45.4403C36.5212 45.4977 36.4984 45.5528 36.4578 45.5934C36.4172 45.6339 36.3622 45.6567 36.3048 45.6567Z" fill="url(#paint75_linear_138_1700)"/>
<path d="M29.1614 43.252C28.9332 43.252 28.7481 43.4369 28.7481 43.6652V45.5769C28.7481 45.6034 28.7509 45.6292 28.7557 45.6544C28.7706 45.6561 28.7857 45.657 28.8011 45.657H40.7408C40.969 45.657 41.154 45.472 41.154 45.2437V43.332C41.154 43.3055 41.1513 43.2796 41.1465 43.2545C41.1314 43.2528 41.1163 43.252 41.1011 43.252H29.1614Z" fill="url(#paint76_linear_138_1700)"/>
<path d="M12.6824 25.553C11.5394 26.2983 10.5668 27.2767 9.82827 28.4241C9.66231 28.682 9.27942 28.6813 9.11445 28.4228C8.38011 27.2728 7.41106 26.2908 6.27079 25.5414C6.01789 25.3753 6.01858 24.9976 6.27209 24.8324C7.41509 24.0872 8.38772 23.1088 9.12624 21.9614C9.29212 21.7036 9.67509 21.7042 9.84006 21.9627C10.5744 23.1128 11.5435 24.0947 12.6838 24.8441C12.9366 25.0102 12.9359 25.3879 12.6824 25.553Z" fill="url(#paint77_linear_138_1700)"/>
<path d="M17.2311 15.1942C16.4228 15.7212 15.735 16.4131 15.2128 17.2245C15.0955 17.4069 14.8247 17.4064 14.708 17.2236C14.1887 16.4103 13.5034 15.716 12.6971 15.186C12.5182 15.0685 12.5187 14.8014 12.698 14.6846C13.5063 14.1576 14.1941 13.4657 14.7163 12.6542C14.8337 12.4719 15.1044 12.4724 15.2211 12.6552C15.7404 13.4684 16.4257 14.1628 17.2321 14.6928C17.4109 14.8103 17.4104 15.0774 17.2311 15.1942Z" fill="url(#paint78_linear_138_1700)"/>
<path d="M39.1646 17.0674C38.3563 17.5945 37.6685 18.2864 37.1462 19.0978C37.0289 19.2801 36.7581 19.2796 36.6414 19.0969C36.1221 18.2836 35.4368 17.5892 34.6305 17.0592C34.4517 16.9418 34.4521 16.6746 34.6314 16.5578C35.4397 16.0308 36.1275 15.3389 36.6497 14.5275C36.7671 14.3452 37.0378 14.3456 37.1545 14.5284C37.6738 15.3417 38.3591 16.036 39.1655 16.566C39.3443 16.6835 39.3438 16.9506 39.1646 17.0674Z" fill="url(#paint79_linear_138_1700)"/>
<circle cx="24.5" cy="24" r="23.5" stroke="#C5ECE7"/>
</g>
<defs>
<linearGradient id="paint0_linear_138_1700" x1="37.6169" y1="39.1698" x2="37.6169" y2="42.7199" gradientUnits="userSpaceOnUse">
<stop stop-color="#E4F2FF"/>
<stop offset="1" stop-color="#B2CBFF"/>
</linearGradient>
<linearGradient id="paint1_linear_138_1700" x1="37.6169" y1="39.2213" x2="37.6169" y2="45.1918" gradientUnits="userSpaceOnUse">
<stop stop-color="#3F3CED" stop-opacity="0"/>
<stop offset="0.28" stop-color="#3C3DE4" stop-opacity="0.28"/>
<stop offset="0.731" stop-color="#3541CC" stop-opacity="0.731"/>
<stop offset="1" stop-color="#2F43BB"/>
</linearGradient>
<linearGradient id="paint2_linear_138_1700" x1="37.6169" y1="39.2213" x2="37.6169" y2="45.1918" gradientUnits="userSpaceOnUse">
<stop stop-color="#3F3CED" stop-opacity="0"/>
<stop offset="0.28" stop-color="#3C3DE4" stop-opacity="0.28"/>
<stop offset="0.731" stop-color="#3541CC" stop-opacity="0.731"/>
<stop offset="1" stop-color="#2F43BB"/>
</linearGradient>
<linearGradient id="paint3_linear_138_1700" x1="37.6022" y1="40.178" x2="36.1866" y2="36.7548" gradientUnits="userSpaceOnUse">
<stop stop-color="white" stop-opacity="0"/>
<stop offset="1" stop-color="white"/>
</linearGradient>
<linearGradient id="paint4_linear_138_1700" x1="37.6169" y1="36.431" x2="37.6169" y2="39.9811" gradientUnits="userSpaceOnUse">
<stop stop-color="#E4F2FF"/>
<stop offset="1" stop-color="#B2CBFF"/>
</linearGradient>
<linearGradient id="paint5_linear_138_1700" x1="37.6169" y1="36.4825" x2="37.6169" y2="42.453" gradientUnits="userSpaceOnUse">
<stop stop-color="#3F3CED" stop-opacity="0"/>
<stop offset="0.28" stop-color="#3C3DE4" stop-opacity="0.28"/>
<stop offset="0.731" stop-color="#3541CC" stop-opacity="0.731"/>
<stop offset="1" stop-color="#2F43BB"/>
</linearGradient>
<linearGradient id="paint6_linear_138_1700" x1="37.6169" y1="36.4825" x2="37.6169" y2="42.453" gradientUnits="userSpaceOnUse">
<stop stop-color="#3F3CED" stop-opacity="0"/>
<stop offset="0.28" stop-color="#3C3DE4" stop-opacity="0.28"/>
<stop offset="0.731" stop-color="#3541CC" stop-opacity="0.731"/>
<stop offset="1" stop-color="#2F43BB"/>
</linearGradient>
<linearGradient id="paint7_linear_138_1700" x1="37.6022" y1="37.4392" x2="36.1866" y2="34.0159" gradientUnits="userSpaceOnUse">
<stop stop-color="white" stop-opacity="0"/>
<stop offset="1" stop-color="white"/>
</linearGradient>
<linearGradient id="paint8_linear_138_1700" x1="37.6169" y1="33.6931" x2="37.6169" y2="37.2432" gradientUnits="userSpaceOnUse">
<stop stop-color="#E4F2FF"/>
<stop offset="1" stop-color="#B2CBFF"/>
</linearGradient>
<linearGradient id="paint9_linear_138_1700" x1="37.6169" y1="33.7446" x2="37.6169" y2="39.7151" gradientUnits="userSpaceOnUse">
<stop stop-color="#3F3CED" stop-opacity="0"/>
<stop offset="0.28" stop-color="#3C3DE4" stop-opacity="0.28"/>
<stop offset="0.731" stop-color="#3541CC" stop-opacity="0.731"/>
<stop offset="1" stop-color="#2F43BB"/>
</linearGradient>
<linearGradient id="paint10_linear_138_1700" x1="37.6169" y1="33.7446" x2="37.6169" y2="39.7151" gradientUnits="userSpaceOnUse">
<stop stop-color="#3F3CED" stop-opacity="0"/>
<stop offset="0.28" stop-color="#3C3DE4" stop-opacity="0.28"/>
<stop offset="0.731" stop-color="#3541CC" stop-opacity="0.731"/>
<stop offset="1" stop-color="#2F43BB"/>
</linearGradient>
<linearGradient id="paint11_linear_138_1700" x1="37.6022" y1="34.7013" x2="36.1866" y2="31.278" gradientUnits="userSpaceOnUse">
<stop stop-color="white" stop-opacity="0"/>
<stop offset="1" stop-color="white"/>
</linearGradient>
<linearGradient id="paint12_linear_138_1700" x1="37.6169" y1="30.9552" x2="37.6169" y2="34.5053" gradientUnits="userSpaceOnUse">
<stop stop-color="#E4F2FF"/>
<stop offset="1" stop-color="#B2CBFF"/>
</linearGradient>
<linearGradient id="paint13_linear_138_1700" x1="37.6169" y1="31.0067" x2="37.6169" y2="36.9772" gradientUnits="userSpaceOnUse">
<stop stop-color="#3F3CED" stop-opacity="0"/>
<stop offset="0.28" stop-color="#3C3DE4" stop-opacity="0.28"/>
<stop offset="0.731" stop-color="#3541CC" stop-opacity="0.731"/>
<stop offset="1" stop-color="#2F43BB"/>
</linearGradient>
<linearGradient id="paint14_linear_138_1700" x1="37.6169" y1="31.0067" x2="37.6169" y2="36.9772" gradientUnits="userSpaceOnUse">
<stop stop-color="#3F3CED" stop-opacity="0"/>
<stop offset="0.28" stop-color="#3C3DE4" stop-opacity="0.28"/>
<stop offset="0.731" stop-color="#3541CC" stop-opacity="0.731"/>
<stop offset="1" stop-color="#2F43BB"/>
</linearGradient>
<linearGradient id="paint15_linear_138_1700" x1="37.6022" y1="31.9634" x2="36.1866" y2="28.5403" gradientUnits="userSpaceOnUse">
<stop stop-color="white" stop-opacity="0"/>
<stop offset="1" stop-color="white"/>
</linearGradient>
<linearGradient id="paint16_linear_138_1700" x1="37.6169" y1="28.2174" x2="37.6169" y2="31.7675" gradientUnits="userSpaceOnUse">
<stop stop-color="#E4F2FF"/>
<stop offset="1" stop-color="#B2CBFF"/>
</linearGradient>
<linearGradient id="paint17_linear_138_1700" x1="37.6169" y1="28.2688" x2="37.6169" y2="34.2393" gradientUnits="userSpaceOnUse">
<stop stop-color="#3F3CED" stop-opacity="0"/>
<stop offset="0.28" stop-color="#3C3DE4" stop-opacity="0.28"/>
<stop offset="0.731" stop-color="#3541CC" stop-opacity="0.731"/>
<stop offset="1" stop-color="#2F43BB"/>
</linearGradient>
<linearGradient id="paint18_linear_138_1700" x1="37.6169" y1="28.2688" x2="37.6169" y2="34.2393" gradientUnits="userSpaceOnUse">
<stop stop-color="#3F3CED" stop-opacity="0"/>
<stop offset="0.28" stop-color="#3C3DE4" stop-opacity="0.28"/>
<stop offset="0.731" stop-color="#3541CC" stop-opacity="0.731"/>
<stop offset="1" stop-color="#2F43BB"/>
</linearGradient>
<linearGradient id="paint19_linear_138_1700" x1="37.6022" y1="29.2246" x2="36.1866" y2="25.8014" gradientUnits="userSpaceOnUse">
<stop stop-color="white" stop-opacity="0"/>
<stop offset="1" stop-color="white"/>
</linearGradient>
<linearGradient id="paint20_linear_138_1700" x1="37.6169" y1="25.4785" x2="37.6169" y2="29.0287" gradientUnits="userSpaceOnUse">
<stop stop-color="#E4F2FF"/>
<stop offset="1" stop-color="#B2CBFF"/>
</linearGradient>
<linearGradient id="paint21_linear_138_1700" x1="37.6169" y1="25.53" x2="37.6169" y2="31.5006" gradientUnits="userSpaceOnUse">
<stop stop-color="#3F3CED" stop-opacity="0"/>
<stop offset="0.28" stop-color="#3C3DE4" stop-opacity="0.28"/>
<stop offset="0.731" stop-color="#3541CC" stop-opacity="0.731"/>
<stop offset="1" stop-color="#2F43BB"/>
</linearGradient>
<linearGradient id="paint22_linear_138_1700" x1="37.6169" y1="25.53" x2="37.6169" y2="31.5006" gradientUnits="userSpaceOnUse">
<stop stop-color="#3F3CED" stop-opacity="0"/>
<stop offset="0.28" stop-color="#3C3DE4" stop-opacity="0.28"/>
<stop offset="0.731" stop-color="#3541CC" stop-opacity="0.731"/>
<stop offset="1" stop-color="#2F43BB"/>
</linearGradient>
<linearGradient id="paint23_linear_138_1700" x1="37.6022" y1="26.4867" x2="36.1866" y2="23.0635" gradientUnits="userSpaceOnUse">
<stop stop-color="white" stop-opacity="0"/>
<stop offset="1" stop-color="white"/>
</linearGradient>
<linearGradient id="paint24_linear_138_1700" x1="37.6169" y1="22.7406" x2="37.6169" y2="26.2907" gradientUnits="userSpaceOnUse">
<stop stop-color="#E4F2FF"/>
<stop offset="1" stop-color="#B2CBFF"/>
</linearGradient>
<linearGradient id="paint25_linear_138_1700" x1="37.6169" y1="22.7921" x2="37.6169" y2="28.7627" gradientUnits="userSpaceOnUse">
<stop stop-color="#3F3CED" stop-opacity="0"/>
<stop offset="0.28" stop-color="#3C3DE4" stop-opacity="0.28"/>
<stop offset="0.731" stop-color="#3541CC" stop-opacity="0.731"/>
<stop offset="1" stop-color="#2F43BB"/>
</linearGradient>
<linearGradient id="paint26_linear_138_1700" x1="37.6169" y1="22.7921" x2="37.6169" y2="28.7626" gradientUnits="userSpaceOnUse">
<stop stop-color="#3F3CED" stop-opacity="0"/>
<stop offset="0.28" stop-color="#3C3DE4" stop-opacity="0.28"/>
<stop offset="0.731" stop-color="#3541CC" stop-opacity="0.731"/>
<stop offset="1" stop-color="#2F43BB"/>
</linearGradient>
<linearGradient id="paint27_linear_138_1700" x1="37.6022" y1="23.7489" x2="36.1866" y2="20.3257" gradientUnits="userSpaceOnUse">
<stop stop-color="white" stop-opacity="0"/>
<stop offset="1" stop-color="white"/>
</linearGradient>
<linearGradient id="paint28_linear_138_1700" x1="37.6169" y1="20.0028" x2="37.6169" y2="23.5529" gradientUnits="userSpaceOnUse">
<stop stop-color="#E4F2FF"/>
<stop offset="1" stop-color="#B2CBFF"/>
</linearGradient>
<linearGradient id="paint29_linear_138_1700" x1="37.6169" y1="20.0543" x2="37.6169" y2="26.0248" gradientUnits="userSpaceOnUse">
<stop stop-color="#3F3CED" stop-opacity="0"/>
<stop offset="0.28" stop-color="#3C3DE4" stop-opacity="0.28"/>
<stop offset="0.731" stop-color="#3541CC" stop-opacity="0.731"/>
<stop offset="1" stop-color="#2F43BB"/>
</linearGradient>
<linearGradient id="paint30_linear_138_1700" x1="37.6169" y1="20.0543" x2="37.6169" y2="26.0248" gradientUnits="userSpaceOnUse">
<stop stop-color="#3F3CED" stop-opacity="0"/>
<stop offset="0.28" stop-color="#3C3DE4" stop-opacity="0.28"/>
<stop offset="0.731" stop-color="#3541CC" stop-opacity="0.731"/>
<stop offset="1" stop-color="#2F43BB"/>
</linearGradient>
<linearGradient id="paint31_linear_138_1700" x1="37.6022" y1="21.0109" x2="36.1866" y2="17.5877" gradientUnits="userSpaceOnUse">
<stop stop-color="white" stop-opacity="0"/>
<stop offset="1" stop-color="white"/>
</linearGradient>
<radialGradient id="paint32_radial_138_1700" cx="0" cy="0" r="1" gradientUnits="userSpaceOnUse" gradientTransform="translate(20.7082 25.3512) scale(25.6761)">
<stop stop-color="#4AB272"/>
<stop offset="0.339" stop-color="#47B071"/>
<stop offset="0.55" stop-color="#3FA870"/>
<stop offset="0.727" stop-color="#309B6D"/>
<stop offset="0.884" stop-color="#1C8869"/>
<stop offset="1" stop-color="#077565"/>
</radialGradient>
<linearGradient id="paint33_linear_138_1700" x1="15.8446" y1="37.2313" x2="15.0221" y2="62.8676" gradientUnits="userSpaceOnUse">
<stop stop-color="#005A01" stop-opacity="0"/>
<stop offset="1" stop-color="#005A01"/>
</linearGradient>
<linearGradient id="paint34_linear_138_1700" x1="23.3321" y1="42.2818" x2="26.9882" y2="56.2355" gradientUnits="userSpaceOnUse">
<stop stop-color="#005A01" stop-opacity="0"/>
<stop offset="1" stop-color="#005A01"/>
</linearGradient>
<linearGradient id="paint35_linear_138_1700" x1="34.6442" y1="42.0075" x2="33.3037" y2="59.1907" gradientUnits="userSpaceOnUse">
<stop stop-color="#005A01" stop-opacity="0"/>
<stop offset="1" stop-color="#005A01"/>
</linearGradient>
<linearGradient id="paint36_linear_138_1700" x1="23.4944" y1="31.9734" x2="6.31129" y2="1.26322" gradientUnits="userSpaceOnUse">
<stop stop-color="#91F27F" stop-opacity="0"/>
<stop offset="1" stop-color="#FFED82"/>
</linearGradient>
<linearGradient id="paint37_linear_138_1700" x1="35.4807" y1="37.9205" x2="13.7065" y2="25.6001" gradientUnits="userSpaceOnUse">
<stop stop-color="#005A01" stop-opacity="0"/>
<stop offset="1" stop-color="#005A01"/>
</linearGradient>
<linearGradient id="paint38_linear_138_1700" x1="22.7829" y1="28.2809" x2="34.7099" y2="38.5628" gradientUnits="userSpaceOnUse">
<stop stop-color="#FFC738"/>
<stop offset="0.188" stop-color="#FDBF3C"/>
<stop offset="0.484" stop-color="#F7A848"/>
<stop offset="0.849" stop-color="#ED835B"/>
<stop offset="1" stop-color="#E97264"/>
</linearGradient>
<linearGradient id="paint39_linear_138_1700" x1="23.9019" y1="8.4504" x2="27.9235" y2="16.9506" gradientUnits="userSpaceOnUse">
<stop stop-color="#4AB272"/>
<stop offset="0.339" stop-color="#47B071"/>
<stop offset="0.55" stop-color="#3FA870"/>
<stop offset="0.727" stop-color="#309B6D"/>
<stop offset="0.884" stop-color="#1C8869"/>
<stop offset="1" stop-color="#077565"/>
</linearGradient>
<linearGradient id="paint40_linear_138_1700" x1="25.2228" y1="12.9373" x2="30.6458" y2="21.3461" gradientUnits="userSpaceOnUse">
<stop stop-color="#005A01" stop-opacity="0"/>
<stop offset="1" stop-color="#005A01"/>
</linearGradient>
<linearGradient id="paint41_linear_138_1700" x1="25.4886" y1="9.8883" x2="25.7628" y2="12.5845" gradientUnits="userSpaceOnUse">
<stop stop-color="#005A01" stop-opacity="0"/>
<stop offset="1" stop-color="#005A01"/>
</linearGradient>
<linearGradient id="paint42_linear_138_1700" x1="24.2989" y1="13.2064" x2="13.9251" y2="13.0236" gradientUnits="userSpaceOnUse">
<stop stop-color="#91F27F" stop-opacity="0"/>
<stop offset="1" stop-color="#FFED82"/>
</linearGradient>
<linearGradient id="paint43_linear_138_1700" x1="25.2781" y1="16.2726" x2="25.2781" y2="17.5652" gradientUnits="userSpaceOnUse">
<stop stop-color="#FFC738"/>
<stop offset="0.188" stop-color="#FDBF3C"/>
<stop offset="0.484" stop-color="#F7A848"/>
<stop offset="0.849" stop-color="#ED835B"/>
<stop offset="1" stop-color="#E97264"/>
</linearGradient>
<linearGradient id="paint44_linear_138_1700" x1="24.2752" y1="40.2618" x2="16.2321" y2="39.5915" gradientUnits="userSpaceOnUse">
<stop stop-color="#005A01" stop-opacity="0"/>
<stop offset="1" stop-color="#005A01"/>
</linearGradient>
<linearGradient id="paint45_linear_138_1700" x1="12.3831" y1="45.7138" x2="12.3831" y2="49.2639" gradientUnits="userSpaceOnUse">
<stop stop-color="#FFD945"/>
<stop offset="0.304" stop-color="#FFCD3E"/>
<stop offset="0.856" stop-color="#FFAD2B"/>
<stop offset="1" stop-color="#FFA325"/>
</linearGradient>
<linearGradient id="paint46_linear_138_1700" x1="12.3831" y1="45.7653" x2="12.3831" y2="51.7358" gradientUnits="userSpaceOnUse">
<stop stop-color="#E87264" stop-opacity="0"/>
<stop offset="1" stop-color="#FF7044"/>
</linearGradient>
<linearGradient id="paint47_linear_138_1700" x1="12.3831" y1="45.7653" x2="12.3831" y2="51.7358" gradientUnits="userSpaceOnUse">
<stop stop-color="#E87264" stop-opacity="0"/>
<stop offset="1" stop-color="#FF7044"/>
</linearGradient>
<linearGradient id="paint48_linear_138_1700" x1="12.3683" y1="46.722" x2="10.9528" y2="43.2988" gradientUnits="userSpaceOnUse">
<stop stop-color="#FFD945" stop-opacity="0"/>
<stop offset="1" stop-color="#FBED21"/>
</linearGradient>
<linearGradient id="paint49_linear_138_1700" x1="12.3831" y1="42.975" x2="12.3831" y2="46.5251" gradientUnits="userSpaceOnUse">
<stop stop-color="#FFD945"/>
<stop offset="0.304" stop-color="#FFCD3E"/>
<stop offset="0.856" stop-color="#FFAD2B"/>
<stop offset="1" stop-color="#FFA325"/>
</linearGradient>
<linearGradient id="paint50_linear_138_1700" x1="12.3831" y1="43.0266" x2="12.3831" y2="48.9971" gradientUnits="userSpaceOnUse">
<stop stop-color="#E87264" stop-opacity="0"/>
<stop offset="1" stop-color="#FF7044"/>
</linearGradient>
<linearGradient id="paint51_linear_138_1700" x1="12.3831" y1="43.0265" x2="12.3831" y2="48.997" gradientUnits="userSpaceOnUse">
<stop stop-color="#E87264" stop-opacity="0"/>
<stop offset="1" stop-color="#FF7044"/>
</linearGradient>
<linearGradient id="paint52_linear_138_1700" x1="12.3683" y1="43.9832" x2="10.9528" y2="40.56" gradientUnits="userSpaceOnUse">
<stop stop-color="#FFD945" stop-opacity="0"/>
<stop offset="1" stop-color="#FBED21"/>
</linearGradient>
<linearGradient id="paint53_linear_138_1700" x1="12.3831" y1="40.2371" x2="12.3831" y2="43.7872" gradientUnits="userSpaceOnUse">
<stop stop-color="#FFD945"/>
<stop offset="0.304" stop-color="#FFCD3E"/>
<stop offset="0.856" stop-color="#FFAD2B"/>
<stop offset="1" stop-color="#FFA325"/>
</linearGradient>
<linearGradient id="paint54_linear_138_1700" x1="12.3831" y1="40.2886" x2="12.3831" y2="46.2591" gradientUnits="userSpaceOnUse">
<stop stop-color="#E87264" stop-opacity="0"/>
<stop offset="1" stop-color="#FF7044"/>
</linearGradient>
<linearGradient id="paint55_linear_138_1700" x1="12.3831" y1="40.2886" x2="12.3831" y2="46.2591" gradientUnits="userSpaceOnUse">
<stop stop-color="#E87264" stop-opacity="0"/>
<stop offset="1" stop-color="#FF7044"/>
</linearGradient>
<linearGradient id="paint56_linear_138_1700" x1="12.3683" y1="41.2453" x2="10.9528" y2="37.8222" gradientUnits="userSpaceOnUse">
<stop stop-color="#FFD945" stop-opacity="0"/>
<stop offset="1" stop-color="#FBED21"/>
</linearGradient>
<linearGradient id="paint57_linear_138_1700" x1="12.3831" y1="37.4992" x2="12.3831" y2="41.0494" gradientUnits="userSpaceOnUse">
<stop stop-color="#FFD945"/>
<stop offset="0.304" stop-color="#FFCD3E"/>
<stop offset="0.856" stop-color="#FFAD2B"/>
<stop offset="1" stop-color="#FFA325"/>
</linearGradient>
<linearGradient id="paint58_linear_138_1700" x1="12.3831" y1="37.5508" x2="12.3831" y2="43.5214" gradientUnits="userSpaceOnUse">
<stop stop-color="#E87264" stop-opacity="0"/>
<stop offset="1" stop-color="#FF7044"/>
</linearGradient>
<linearGradient id="paint59_linear_138_1700" x1="12.3831" y1="37.5507" x2="12.3831" y2="43.5213" gradientUnits="userSpaceOnUse">
<stop stop-color="#E87264" stop-opacity="0"/>
<stop offset="1" stop-color="#FF7044"/>
</linearGradient>
<linearGradient id="paint60_linear_138_1700" x1="12.3683" y1="38.5074" x2="10.9528" y2="35.0843" gradientUnits="userSpaceOnUse">
<stop stop-color="#FFD945" stop-opacity="0"/>
<stop offset="1" stop-color="#FBED21"/>
</linearGradient>
<linearGradient id="paint61_linear_138_1700" x1="12.3831" y1="34.7614" x2="12.3831" y2="38.3115" gradientUnits="userSpaceOnUse">
<stop stop-color="#FFD945"/>
<stop offset="0.304" stop-color="#FFCD3E"/>
<stop offset="0.856" stop-color="#FFAD2B"/>
<stop offset="1" stop-color="#FFA325"/>
</linearGradient>
<linearGradient id="paint62_linear_138_1700" x1="12.3831" y1="34.8128" x2="12.3831" y2="40.7834" gradientUnits="userSpaceOnUse">
<stop stop-color="#E87264" stop-opacity="0"/>
<stop offset="1" stop-color="#FF7044"/>
</linearGradient>
<linearGradient id="paint63_linear_138_1700" x1="12.3831" y1="34.8128" x2="12.3831" y2="40.7834" gradientUnits="userSpaceOnUse">
<stop stop-color="#E87264" stop-opacity="0"/>
<stop offset="1" stop-color="#FF7044"/>
</linearGradient>
<linearGradient id="paint64_linear_138_1700" x1="12.3683" y1="35.7687" x2="10.9528" y2="32.3454" gradientUnits="userSpaceOnUse">
<stop stop-color="#FFD945" stop-opacity="0"/>
<stop offset="1" stop-color="#FBED21"/>
</linearGradient>
<linearGradient id="paint65_linear_138_1700" x1="12.3831" y1="32.0226" x2="12.3831" y2="35.5727" gradientUnits="userSpaceOnUse">
<stop stop-color="#FFD945"/>
<stop offset="0.304" stop-color="#FFCD3E"/>
<stop offset="0.856" stop-color="#FFAD2B"/>
<stop offset="1" stop-color="#FFA325"/>
</linearGradient>
<linearGradient id="paint66_linear_138_1700" x1="12.3831" y1="32.0741" x2="12.3831" y2="38.0446" gradientUnits="userSpaceOnUse">
<stop stop-color="#E87264" stop-opacity="0"/>
<stop offset="1" stop-color="#FF7044"/>
</linearGradient>
<linearGradient id="paint67_linear_138_1700" x1="12.3831" y1="32.074" x2="12.3831" y2="38.0445" gradientUnits="userSpaceOnUse">
<stop stop-color="#E87264" stop-opacity="0"/>
<stop offset="1" stop-color="#FF7044"/>
</linearGradient>
<linearGradient id="paint68_linear_138_1700" x1="12.3683" y1="33.0307" x2="10.9528" y2="29.6075" gradientUnits="userSpaceOnUse">
<stop stop-color="#FFD945" stop-opacity="0"/>
<stop offset="1" stop-color="#FBED21"/>
</linearGradient>
<linearGradient id="paint69_linear_138_1700" x1="34.7709" y1="45.7138" x2="34.7709" y2="49.2639" gradientUnits="userSpaceOnUse">
<stop stop-color="#FFD945"/>
<stop offset="0.304" stop-color="#FFCD3E"/>
<stop offset="0.856" stop-color="#FFAD2B"/>
<stop offset="1" stop-color="#FFA325"/>
</linearGradient>
<linearGradient id="paint70_linear_138_1700" x1="34.7709" y1="45.7653" x2="34.7709" y2="51.7358" gradientUnits="userSpaceOnUse">
<stop stop-color="#E87264" stop-opacity="0"/>
<stop offset="1" stop-color="#FF7044"/>
</linearGradient>
<linearGradient id="paint71_linear_138_1700" x1="34.771" y1="45.7653" x2="34.771" y2="51.7358" gradientUnits="userSpaceOnUse">
<stop stop-color="#E87264" stop-opacity="0"/>
<stop offset="1" stop-color="#FF7044"/>
</linearGradient>
<linearGradient id="paint72_linear_138_1700" x1="34.7562" y1="46.722" x2="33.3406" y2="43.2988" gradientUnits="userSpaceOnUse">
<stop stop-color="#FFD945" stop-opacity="0"/>
<stop offset="1" stop-color="#FBED21"/>
</linearGradient>
<linearGradient id="paint73_linear_138_1700" x1="34.7709" y1="42.975" x2="34.7709" y2="46.5251" gradientUnits="userSpaceOnUse">
<stop stop-color="#FFD945"/>
<stop offset="0.304" stop-color="#FFCD3E"/>
<stop offset="0.856" stop-color="#FFAD2B"/>
<stop offset="1" stop-color="#FFA325"/>
</linearGradient>
<linearGradient id="paint74_linear_138_1700" x1="34.7709" y1="43.0266" x2="34.7709" y2="48.9971" gradientUnits="userSpaceOnUse">
<stop stop-color="#E87264" stop-opacity="0"/>
<stop offset="1" stop-color="#FF7044"/>
</linearGradient>
<linearGradient id="paint75_linear_138_1700" x1="34.771" y1="43.0265" x2="34.771" y2="48.997" gradientUnits="userSpaceOnUse">
<stop stop-color="#E87264" stop-opacity="0"/>
<stop offset="1" stop-color="#FF7044"/>
</linearGradient>
<linearGradient id="paint76_linear_138_1700" x1="34.7562" y1="43.9832" x2="33.3406" y2="40.56" gradientUnits="userSpaceOnUse">
<stop stop-color="#FFD945" stop-opacity="0"/>
<stop offset="1" stop-color="#FBED21"/>
</linearGradient>
<linearGradient id="paint77_linear_138_1700" x1="8.3953" y1="23.706" x2="11.9978" y2="28.5094" gradientUnits="userSpaceOnUse">
<stop stop-color="#FFD945"/>
<stop offset="0.304" stop-color="#FFCD3E"/>
<stop offset="0.856" stop-color="#FFAD2B"/>
<stop offset="1" stop-color="#FFA325"/>
</linearGradient>
<linearGradient id="paint78_linear_138_1700" x1="14.1891" y1="13.8761" x2="16.7367" y2="17.2729" gradientUnits="userSpaceOnUse">
<stop stop-color="#FFD945"/>
<stop offset="0.304" stop-color="#FFCD3E"/>
<stop offset="0.856" stop-color="#FFAD2B"/>
<stop offset="1" stop-color="#FFA325"/>
</linearGradient>
<linearGradient id="paint79_linear_138_1700" x1="36.1258" y1="15.7099" x2="38.6734" y2="19.1067" gradientUnits="userSpaceOnUse">
<stop stop-color="#FFD945"/>
<stop offset="0.304" stop-color="#FFCD3E"/>
<stop offset="0.856" stop-color="#FFAD2B"/>
<stop offset="1" stop-color="#FFA325"/>
</linearGradient>
</defs>
</svg>
