<?xml version="1.0" standalone="no"?>
<!DOCTYPE svg PUBLIC "-//W3C//DTD SVG 20010904//EN"
 "http://www.w3.org/TR/2001/REC-SVG-20010904/DTD/svg10.dtd">
<svg version="1.0" xmlns="http://www.w3.org/2000/svg"
 width="250.000000pt" height="250.000000pt" viewBox="0 0 250.000000 250.000000"
 preserveAspectRatio="xMidYMid meet">

<g transform="translate(0.000000,250.000000) scale(0.100000,-0.100000)"
fill="#000000" stroke="none">
<path d="M1065 2316 c-293 -49 -526 -169 -712 -369 -299 -321 -366 -767 -171
-1152 57 -114 113 -187 214 -285 142 -137 266 -211 457 -275 321 -107 683 -77
986 80 112 59 198 124 297 227 93 97 128 145 183 254 146 290 146 615 -2 909
-151 301 -458 525 -822 601 -107 22 -328 27 -430 10z m365 -11 c314 -47 578
-195 764 -427 277 -344 296 -814 51 -1184 -141 -213 -356 -370 -618 -453 -313
-99 -645 -73 -940 75 -277 139 -490 388 -567 665 -169 612 260 1216 940 1324
114 18 255 18 370 0z"/>
<path d="M871 1697 c-45 -16 -72 -53 -76 -108 -4 -40 -4 -41 3 -9 17 74 53
110 112 110 59 0 96 -37 111 -110 6 -31 7 -32 8 -7 4 89 -76 152 -158 124z"/>
<path d="M1551 1697 c-45 -16 -72 -53 -76 -108 -4 -40 -4 -41 3 -9 17 74 53
110 112 110 59 0 96 -37 111 -110 6 -31 7 -32 8 -7 4 89 -76 152 -158 124z"/>
<path d="M624 1256 c-14 -23 -14 -30 0 -87 44 -172 176 -291 381 -345 100 -27
390 -27 490 0 205 54 337 173 381 345 14 57 14 64 0 87 l-16 24 -610 0 -610 0
-16 -24z m1241 -2 c17 -18 15 -42 -12 -123 -47 -141 -179 -249 -363 -298 -93
-25 -388 -25 -480 0 -216 59 -351 189 -384 369 -13 72 -46 68 624 68 539 0
600 -2 615 -16z"/>
<path d="M1002 1123 l-2 -52 -92 -4 -93 -3 92 -2 92 -2 4 -62 3 -63 2 63 2 62
120 0 119 0 4 -57 3 -58 2 58 2 57 115 0 114 0 4 -62 3 -63 2 62 2 62 93 4 92
3 -92 2 -92 2 -4 53 -3 52 -2 -52 -2 -53 -114 0 -115 0 -4 48 -3 47 -2 -47 -2
-48 -119 0 -120 0 -4 53 -3 52 -2 -52z"/>
</g>
</svg>
