<?xml version="1.0" standalone="no"?>
<!DOCTYPE svg PUBLIC "-//W3C//DTD SVG 20010904//EN"
 "http://www.w3.org/TR/2001/REC-SVG-20010904/DTD/svg10.dtd">
<svg version="1.0" xmlns="http://www.w3.org/2000/svg"
 width="250.000000pt" height="250.000000pt" viewBox="0 0 250.000000 250.000000"
 preserveAspectRatio="xMidYMid meet">

<g transform="translate(0.000000,250.000000) scale(0.100000,-0.100000)"
fill="#000000" stroke="none">
<path d="M1065 2316 c-293 -49 -526 -169 -712 -369 -290 -312 -362 -752 -185
-1130 212 -453 731 -711 1269 -631 439 65 778 320 923 695 239 616 -164 1280
-865 1425 -107 22 -328 27 -430 10z m401 -21 c112 -20 244 -64 347 -116 328
-165 566 -496 593 -824 10 -125 -57 -329 -160 -483 -242 -363 -712 -549 -1204
-476 -468 69 -819 369 -929 793 -19 73 -23 112 -20 162 26 329 264 662 594
828 99 50 235 96 339 115 108 19 330 20 440 1z"/>
<path d="M640 1831 c0 -5 24 -12 53 -15 102 -14 259 -112 303 -191 18 -31 27
-11 11 22 -34 65 -143 142 -246 173 -66 21 -121 26 -121 11z"/>
<path d="M1738 1821 c-102 -33 -212 -111 -244 -174 -17 -32 -8 -53 10 -22 44
79 201 177 304 191 28 3 52 10 52 15 0 15 -61 9 -122 -10z"/>
<path d="M823 1615 c-38 -16 -53 -42 -53 -90 0 -51 36 -85 90 -85 54 0 90 34
90 85 0 49 -15 74 -55 91 -40 16 -32 17 -72 -1z"/>
<path d="M1603 1615 c-38 -16 -53 -42 -53 -90 0 -51 36 -85 90 -85 54 0 90 34
90 85 0 49 -15 74 -55 91 -40 16 -32 17 -72 -1z"/>
<path d="M1145 1287 c-27 -13 -65 -36 -83 -52 -44 -37 -125 -152 -117 -165 4
-6 29 21 56 59 80 114 170 168 266 158 99 -10 173 -63 245 -174 36 -55 58 -77
58 -57 0 18 -74 124 -112 161 -62 60 -117 85 -196 90 -56 3 -75 0 -117 -20z"/>
</g>
</svg>
