<svg width="49" height="48" viewBox="0 0 49 48" fill="none" xmlns="http://www.w3.org/2000/svg">
<circle cx="24.8333" cy="24" r="24" fill="#CFF6F1"/>
<mask id="mask0_138_1995" style="mask-type:alpha" maskUnits="userSpaceOnUse" x="0" y="0" width="49" height="48">
<circle cx="24.8333" cy="24" r="24" fill="#CFF6F1"/>
</mask>
<g mask="url(#mask0_138_1995)">
<path d="M30.6755 12.9116C30.5448 12.3122 30.1376 11.8593 29.6337 11.7602C25.5702 10.961 21.4816 10.961 17.4181 11.7602C16.9142 11.8593 16.5076 12.3122 16.3764 12.9116C15.9838 14.7063 15.7875 16.5057 15.7875 18.3051H18.3814C18.3814 17.0102 18.5115 15.7153 18.7722 14.4233C18.8595 13.9915 19.1302 13.6657 19.4654 13.5948C22.1671 13.0194 24.8853 13.0194 27.5864 13.5948C27.9216 13.6657 28.1923 13.9915 28.2796 14.4233C28.5403 15.7153 28.671 17.0102 28.671 18.3051H31.2643C31.2643 16.5057 31.068 14.7063 30.6755 12.9116Z" fill="url(#paint0_linear_138_1995)"/>
<path d="M29.6337 11.7602C27.8126 11.402 25.9866 11.2049 24.1599 11.1677V13.1741C25.3035 13.2119 26.4465 13.3518 27.5864 13.5947C27.9216 13.6656 28.1923 13.9914 28.2796 14.4232C28.5403 15.7152 28.671 17.0101 28.671 18.305H31.2644C31.2644 16.5056 31.0681 14.7062 30.6755 12.9115C30.5448 12.3121 30.1376 11.8592 29.6337 11.7602Z" fill="url(#paint1_linear_138_1995)"/>
<path d="M29.6337 11.7602C27.8126 11.402 25.9866 11.2049 24.1599 11.1677V13.1741C25.3035 13.2119 26.4465 13.3518 27.5864 13.5947C27.9216 13.6656 28.1923 13.9914 28.2796 14.4232C28.5403 15.7152 28.671 17.0101 28.671 18.305H31.2644C31.2644 16.5056 31.0681 14.7062 30.6755 12.9115C30.5448 12.3121 30.1376 11.8592 29.6337 11.7602Z" fill="url(#paint2_linear_138_1995)"/>
<path d="M28.2796 14.4232C28.5404 15.7152 28.671 17.0101 28.671 18.3051H31.2644C31.2644 16.8289 31.132 15.3527 30.8678 13.8792H28.0303C28.1486 14.0228 28.2365 14.21 28.2796 14.4232Z" fill="url(#paint3_linear_138_1995)"/>
<path d="M18.7722 14.4232C18.8154 14.21 18.9033 14.0228 19.0216 13.8792H16.1841C15.9199 15.3527 15.7875 16.8289 15.7875 18.3051H18.3814C18.3814 17.0101 18.5115 15.7152 18.7722 14.4232Z" fill="url(#paint4_linear_138_1995)"/>
<path d="M18.8709 18.5419C17.5764 18.7312 16.2612 18.7312 14.9666 18.5419C14.8056 18.5184 14.6754 18.4111 14.6335 18.2692C14.3826 17.4189 14.3826 16.5639 14.6335 15.7136C14.6754 15.5716 14.8056 15.4643 14.9666 15.4409C16.2612 15.2516 17.5764 15.2516 18.8709 15.4409C19.032 15.4644 19.1622 15.5716 19.2041 15.7136C19.455 16.5639 19.4549 17.4189 19.2041 18.2692C19.1622 18.4111 19.032 18.5184 18.8709 18.5419Z" fill="url(#paint5_linear_138_1995)"/>
<path d="M18.8709 18.5419C17.5764 18.7312 16.2612 18.7312 14.9666 18.5419C14.8056 18.5184 14.6754 18.4111 14.6335 18.2692C14.3826 17.4189 14.3826 16.5639 14.6335 15.7136C14.6754 15.5716 14.8056 15.4643 14.9666 15.4409C16.2612 15.2516 17.5764 15.2516 18.8709 15.4409C19.032 15.4644 19.1622 15.5716 19.2041 15.7136C19.455 16.5639 19.4549 17.4189 19.2041 18.2692C19.1622 18.4111 19.032 18.5184 18.8709 18.5419Z" fill="url(#paint6_linear_138_1995)"/>
<path d="M19.2041 15.7135C19.1622 15.5715 19.0321 15.4642 18.871 15.4408C18.1028 15.3285 17.3264 15.2827 16.5504 15.3038C17.0789 15.3183 17.6072 15.3639 18.1342 15.4408C18.2953 15.4643 18.4254 15.5715 18.4673 15.7135C18.7183 16.5638 18.7182 17.4188 18.4673 18.2691C18.4254 18.411 18.2953 18.5183 18.1342 18.5418C17.6094 18.6184 17.0806 18.6641 16.5504 18.6787C17.3264 18.6998 18.1028 18.654 18.8709 18.5418C19.032 18.5183 19.1622 18.411 19.204 18.2691C19.4551 17.4188 19.4551 16.5638 19.2041 15.7135Z" fill="url(#paint7_linear_138_1995)"/>
<path d="M18.871 15.4408C18.5984 15.4011 18.3246 15.3697 18.0501 15.3467V15.4289C18.0781 15.4329 18.1062 15.4368 18.1342 15.4409C18.2952 15.4644 18.4254 15.5716 18.4673 15.7136C18.7182 16.564 18.7182 17.4189 18.4673 18.2692C18.4254 18.4112 18.2952 18.5185 18.1342 18.5419C18.1062 18.546 18.0781 18.5499 18.0501 18.5538V18.6361C18.3239 18.613 18.5976 18.5818 18.871 18.5419C19.032 18.5185 19.1622 18.4112 19.2041 18.2693C19.455 17.4189 19.455 16.564 19.2041 15.7136C19.1622 15.5716 19.032 15.4643 18.871 15.4408Z" fill="url(#paint8_linear_138_1995)"/>
<path d="M14.6335 18.2692C14.6754 18.4112 14.8056 18.5185 14.9666 18.5419C16.2612 18.7312 17.5764 18.7312 18.871 18.5419C19.032 18.5184 19.1622 18.4112 19.2041 18.2692C19.3295 17.844 19.3923 17.4177 19.3923 16.9914H14.4454C14.4454 17.4177 14.5081 17.844 14.6335 18.2692Z" fill="url(#paint9_linear_138_1995)"/>
<path d="M32.0855 18.5419C30.7909 18.7312 29.4757 18.7312 28.1812 18.5419C28.0201 18.5184 27.89 18.4111 27.8481 18.2692C27.5972 17.4189 27.5971 16.5639 27.8481 15.7136C27.89 15.5716 28.0201 15.4643 28.1812 15.4409C29.4757 15.2516 30.7909 15.2516 32.0855 15.4409C32.2465 15.4644 32.3767 15.5716 32.4186 15.7136C32.6695 16.5639 32.6695 17.4189 32.4186 18.2692C32.3766 18.4111 32.2465 18.5184 32.0855 18.5419Z" fill="url(#paint10_linear_138_1995)"/>
<path d="M32.0855 18.5419C30.7909 18.7312 29.4757 18.7312 28.1812 18.5419C28.0201 18.5184 27.89 18.4111 27.8481 18.2692C27.5972 17.4189 27.5971 16.5639 27.8481 15.7136C27.89 15.5716 28.0201 15.4643 28.1812 15.4409C29.4757 15.2516 30.7909 15.2516 32.0855 15.4409C32.2465 15.4644 32.3767 15.5716 32.4186 15.7136C32.6695 16.5639 32.6695 17.4189 32.4186 18.2692C32.3766 18.4111 32.2465 18.5184 32.0855 18.5419Z" fill="url(#paint11_linear_138_1995)"/>
<path d="M32.4186 15.7135C32.3767 15.5715 32.2465 15.4642 32.0855 15.4408C31.3173 15.3285 30.5409 15.2827 29.7649 15.3038C30.2934 15.3183 30.8217 15.3639 31.3487 15.4408C31.5097 15.4643 31.6399 15.5715 31.6818 15.7135C31.9327 16.5638 31.9327 17.4188 31.6818 18.2691C31.6399 18.411 31.5097 18.5183 31.3487 18.5418C30.8239 18.6184 30.295 18.6641 29.7649 18.6787C30.5409 18.6998 31.3173 18.654 32.0854 18.5418C32.2465 18.5183 32.3766 18.411 32.4185 18.2691C32.6695 17.4188 32.6695 16.5638 32.4186 15.7135Z" fill="url(#paint12_linear_138_1995)"/>
<path d="M32.0855 15.4408C31.8129 15.4011 31.5391 15.3697 31.2646 15.3467V15.4289C31.2926 15.4329 31.3207 15.4368 31.3487 15.4409C31.5097 15.4644 31.6399 15.5716 31.6818 15.7136C31.9327 16.564 31.9327 17.4189 31.6818 18.2692C31.6399 18.4112 31.5097 18.5185 31.3487 18.5419C31.3207 18.546 31.2926 18.5499 31.2646 18.5538V18.6361C31.5385 18.613 31.8121 18.5818 32.0855 18.5419C32.2466 18.5185 32.3767 18.4112 32.4186 18.2693C32.6695 17.4189 32.6695 16.564 32.4186 15.7136C32.3766 15.5716 32.2465 15.4643 32.0855 15.4408Z" fill="url(#paint13_linear_138_1995)"/>
<path d="M27.8481 18.2692C27.89 18.4112 28.0201 18.5185 28.1812 18.5419C29.4757 18.7312 30.7909 18.7312 32.0855 18.5419C32.2466 18.5184 32.3767 18.4112 32.4186 18.2692C32.544 17.844 32.6068 17.4177 32.6068 16.9914H27.6599C27.6599 17.4177 27.7226 17.844 27.8481 18.2692Z" fill="url(#paint14_linear_138_1995)"/>
<path d="M36.8529 37.3666H33.7098V16.8125H36.8529C38.2228 16.8125 39.3333 17.923 39.3333 19.2929V34.8861C39.3333 36.256 38.2228 37.3666 36.8529 37.3666Z" fill="url(#paint15_linear_138_1995)"/>
<path d="M33.7098 25.1648V37.3666H36.8529C38.2228 37.3666 39.3333 36.256 39.3333 34.8862V25.1648H33.7098Z" fill="url(#paint16_linear_138_1995)"/>
<path d="M36.8529 16.8125H33.7098V37.3665H36.8529C38.2228 37.3665 39.3333 36.256 39.3333 34.8861V19.2929C39.3333 17.923 38.2228 16.8125 36.8529 16.8125Z" fill="url(#paint17_linear_138_1995)"/>
<path d="M36.8529 16.8125H33.7098V37.3665H36.8529C38.2228 37.3665 39.3333 36.256 39.3333 34.8861V19.2929C39.3333 17.923 38.2228 16.8125 36.8529 16.8125Z" fill="url(#paint18_linear_138_1995)"/>
<path d="M34.7105 37.3666H12.3417C10.9718 37.3666 9.86128 36.2561 9.86128 34.8862V19.2929C9.86128 17.9231 10.9718 16.8126 12.3417 16.8126H34.7106C36.0804 16.8126 37.191 17.9231 37.191 19.2929V34.8862C37.191 36.2561 36.0804 37.3666 34.7105 37.3666Z" fill="url(#paint19_linear_138_1995)"/>
<path d="M9.86116 25.1648V34.8861C9.86116 36.256 10.9717 37.3665 12.3415 37.3665H34.7105C36.0803 37.3665 37.1908 36.256 37.1908 34.8861V25.1648H9.86116Z" fill="url(#paint20_linear_138_1995)"/>
<path d="M9.86116 25.1648V34.8861C9.86116 36.256 10.9717 37.3665 12.3415 37.3665H34.7105C36.0803 37.3665 37.1908 36.256 37.1908 34.8861V25.1648H9.86116Z" fill="url(#paint21_linear_138_1995)"/>
<path d="M35.7485 29.2816H11.2406C10.1874 29.2816 9.3335 28.4278 9.3335 27.3745V18.6937C9.3335 17.2772 10.4818 16.1289 11.8983 16.1289H36.7685C38.185 16.1289 39.3333 17.2772 39.3333 18.6937V19.9552C39.3333 19.757 39.2631 19.5652 39.1352 19.4138C38.6306 18.8168 37.6557 19.1736 37.6557 19.9552V27.3745C37.6557 28.4278 36.8018 29.2816 35.7485 29.2816Z" fill="url(#paint22_linear_138_1995)"/>
<path d="M36.7684 16.129H31.9362V29.2816H35.7485C36.8018 29.2816 37.6557 28.4278 37.6557 27.3745V19.9552C37.6557 19.1736 38.6305 18.8168 39.1351 19.4138C39.263 19.5652 39.3332 19.757 39.3332 19.9552V18.6937C39.3332 17.2772 38.1849 16.129 36.7684 16.129Z" fill="url(#paint23_linear_138_1995)"/>
<path d="M17.7814 27.7928L12.9942 30.6446L19.7162 37.3666H27.3551L17.7814 27.7928Z" fill="url(#paint24_linear_138_1995)"/>
<path d="M37.1909 34.8862V32.8057L32.1781 27.7928L27.3971 30.6455L34.1182 37.3665H34.7106C36.0804 37.3666 37.1909 36.2561 37.1909 34.8862Z" fill="url(#paint25_linear_138_1995)"/>
<path d="M17.4937 30.7491C16.0821 30.9385 14.6516 30.9385 13.2401 30.7491C13.0646 30.7256 12.9229 30.6184 12.8772 30.4764C12.6038 29.6261 12.6038 28.7712 12.8772 27.9208C12.9228 27.7788 13.0646 27.6715 13.2401 27.6481C14.6516 27.4588 16.0821 27.4588 17.4937 27.6481C17.6692 27.6716 17.8109 27.7788 17.8566 27.9208C18.13 28.7711 18.1299 29.6261 17.8566 30.4764C17.8109 30.6184 17.6691 30.7256 17.4937 30.7491Z" fill="url(#paint26_linear_138_1995)"/>
<path d="M15.7664 28.383L15.6563 28.4056C15.0923 28.5217 14.5106 28.5217 13.9466 28.4056L13.8366 28.383C13.5965 28.3336 13.4317 28.6182 13.594 28.8019L14.6103 29.9521C14.6342 29.9792 14.6636 30.0009 14.6966 30.0158C14.7296 30.0307 14.7653 30.0383 14.8015 30.0383C14.8377 30.0383 14.8734 30.0307 14.9064 30.0158C14.9393 30.0009 14.9688 29.9792 14.9927 29.9521L16.009 28.8019C16.1713 28.6181 16.0064 28.3335 15.7664 28.383Z" fill="url(#paint27_linear_138_1995)"/>
<path d="M17.8566 27.9208C17.8109 27.7788 17.6691 27.6716 17.4936 27.6481C16.6558 27.5358 15.8105 27.49 14.9654 27.5112C15.5412 27.5257 16.1168 27.5713 16.6909 27.6481C16.8664 27.6716 17.0081 27.7788 17.0538 27.9208C17.3272 28.7712 17.3272 29.6261 17.0538 30.4764C17.0082 30.6184 16.8664 30.7257 16.6909 30.7491C16.1186 30.8258 15.5427 30.8715 14.9655 30.886C15.8105 30.9072 16.6558 30.8614 17.4936 30.7491C17.6691 30.7256 17.8108 30.6184 17.8566 30.4764C18.1299 29.6261 18.1299 28.7712 17.8566 27.9208Z" fill="url(#paint28_linear_138_1995)"/>
<path d="M17.4937 27.6482C17.1965 27.6084 16.8983 27.577 16.5994 27.554V27.6363C16.6299 27.6402 16.6604 27.6441 16.6909 27.6482C16.8664 27.6717 17.0082 27.779 17.0539 27.9209C17.3273 28.7713 17.3272 29.6262 17.0539 30.4765C17.0082 30.6185 16.8664 30.7258 16.6909 30.7492C16.6604 30.7533 16.6299 30.7573 16.5994 30.7612V30.8434C16.8983 30.8204 17.1965 30.789 17.4937 30.7493C17.6692 30.7258 17.8109 30.6186 17.8566 30.4766C18.1299 29.6263 18.13 28.7714 17.8566 27.921C17.8109 27.7789 17.6691 27.6717 17.4937 27.6482Z" fill="url(#paint29_linear_138_1995)"/>
<path d="M12.8772 30.4765C12.9228 30.6185 13.0646 30.7258 13.2401 30.7492C14.6516 30.9385 16.0821 30.9385 17.4937 30.7492C17.6692 30.7257 17.8109 30.6185 17.8566 30.4765C17.9933 30.0514 18.0616 29.6251 18.0616 29.1987H12.6721C12.6721 29.625 12.7405 30.0513 12.8772 30.4765Z" fill="url(#paint30_linear_138_1995)"/>
<path d="M31.8903 30.7491C30.4787 30.9385 29.0482 30.9385 27.6367 30.7491C27.4612 30.7256 27.3195 30.6184 27.2738 30.4764C27.0004 29.6261 27.0004 28.7712 27.2738 27.9208C27.3194 27.7788 27.4612 27.6715 27.6367 27.6481C29.0482 27.4588 30.4787 27.4588 31.8903 27.6481C32.0658 27.6716 32.2075 27.7788 32.2532 27.9208C32.5266 28.7711 32.5265 29.6261 32.2532 30.4764C32.2075 30.6184 32.0657 30.7256 31.8903 30.7491Z" fill="url(#paint31_linear_138_1995)"/>
<path d="M30.1629 28.383L30.0529 28.4056C29.4889 28.5217 28.9072 28.5217 28.3432 28.4056L28.2332 28.383C27.9931 28.3336 27.8282 28.6182 27.9905 28.8019L29.0068 29.9521C29.0308 29.9792 29.0602 30.0009 29.0932 30.0158C29.1261 30.0307 29.1619 30.0383 29.198 30.0383C29.2342 30.0383 29.2699 30.0307 29.3029 30.0158C29.3359 30.0009 29.3653 29.9792 29.3893 29.9521L30.4056 28.8019C30.5678 28.6181 30.403 28.3335 30.1629 28.383Z" fill="url(#paint32_linear_138_1995)"/>
<path d="M32.2531 27.9208C32.2074 27.7788 32.0656 27.6716 31.8902 27.6481C31.0524 27.5358 30.207 27.49 29.362 27.5112C29.9378 27.5257 30.5133 27.5713 31.0874 27.6481C31.2629 27.6716 31.4046 27.7788 31.4504 27.9208C31.7237 28.7712 31.7237 29.6261 31.4504 30.4764C31.4047 30.6184 31.2629 30.7257 31.0874 30.7491C30.5152 30.8258 29.9392 30.8715 29.362 30.886C30.207 30.9072 31.0523 30.8614 31.8901 30.7491C32.0656 30.7256 32.2073 30.6184 32.253 30.4764C32.5265 29.6261 32.5265 28.7712 32.2531 27.9208Z" fill="url(#paint33_linear_138_1995)"/>
<path d="M31.8903 27.6482C31.5931 27.6084 31.2949 27.577 30.996 27.554V27.6363C31.0265 27.6402 31.057 27.6441 31.0875 27.6482C31.263 27.6717 31.4048 27.779 31.4505 27.9209C31.7239 28.7713 31.7238 29.6262 31.4505 30.4765C31.4048 30.6185 31.263 30.7258 31.0875 30.7492C31.057 30.7533 31.0265 30.7573 30.996 30.7612V30.8434C31.2949 30.8204 31.5931 30.789 31.8903 30.7493C32.0658 30.7258 32.2075 30.6186 32.2532 30.4766C32.5265 29.6263 32.5266 28.7714 32.2532 27.921C32.2075 27.7789 32.0657 27.6717 31.8903 27.6482Z" fill="url(#paint34_linear_138_1995)"/>
<path d="M27.2738 30.4765C27.3194 30.6185 27.4612 30.7258 27.6367 30.7492C29.0482 30.9385 30.4787 30.9385 31.8903 30.7492C32.0658 30.7257 32.2075 30.6185 32.2532 30.4765C32.3899 30.0514 32.4582 29.6251 32.4582 29.1987H27.0688C27.0687 29.625 27.1371 30.0513 27.2738 30.4765Z" fill="url(#paint35_linear_138_1995)"/>
<path d="M19.4975 13.9152C22.1807 13.5679 24.8713 13.5679 27.5546 13.9152C27.8417 13.9524 28.096 13.729 28.096 13.4394V11.3866C28.096 11.145 27.9164 10.942 27.677 10.91C24.9123 10.5413 22.1397 10.5413 19.3751 10.91C19.1356 10.942 18.956 11.145 18.956 11.3866V13.4394C18.9559 13.729 19.2103 13.9524 19.4975 13.9152Z" fill="url(#paint36_linear_138_1995)"/>
<path d="M19.4975 13.9152C22.1807 13.5679 24.8713 13.5679 27.5546 13.9152C27.8417 13.9524 28.096 13.729 28.096 13.4394V11.3866C28.096 11.145 27.9164 10.942 27.677 10.91C24.9123 10.5413 22.1397 10.5413 19.3751 10.91C19.1356 10.942 18.956 11.145 18.956 11.3866V13.4394C18.9559 13.729 19.2103 13.9524 19.4975 13.9152Z" fill="url(#paint37_linear_138_1995)"/>
<path d="M27.677 10.91C26.6096 10.7677 25.5357 10.6803 24.4594 10.6481V13.6692C25.4945 13.7001 26.5275 13.7822 27.5546 13.9152C27.8417 13.9523 28.096 13.7289 28.096 13.4394V11.3866C28.096 11.1451 27.9164 10.942 27.677 10.91Z" fill="url(#paint38_linear_138_1995)"/>
<circle cx="24.8333" cy="24" r="23.5" stroke="#C5ECE7"/>
</g>
<defs>
<linearGradient id="paint0_linear_138_1995" x1="22.7013" y1="11.4969" x2="23.662" y2="18.4307" gradientUnits="userSpaceOnUse">
<stop stop-color="#EAF9FA"/>
<stop offset="1" stop-color="#B3DAFE"/>
</linearGradient>
<linearGradient id="paint1_linear_138_1995" x1="29.1231" y1="14.5555" x2="30.7521" y2="14.3466" gradientUnits="userSpaceOnUse">
<stop stop-color="#7BACDF" stop-opacity="0"/>
<stop offset="1" stop-color="#7BACDF"/>
</linearGradient>
<linearGradient id="paint2_linear_138_1995" x1="29.2613" y1="15.0642" x2="26.8805" y2="14.2707" gradientUnits="userSpaceOnUse">
<stop stop-color="#7BACDF" stop-opacity="0"/>
<stop offset="1" stop-color="#7BACDF"/>
</linearGradient>
<linearGradient id="paint3_linear_138_1995" x1="29.6473" y1="14.3553" x2="29.6473" y2="15.5042" gradientUnits="userSpaceOnUse">
<stop stop-color="#7BACDF" stop-opacity="0"/>
<stop offset="1" stop-color="#7BACDF"/>
</linearGradient>
<linearGradient id="paint4_linear_138_1995" x1="17.4045" y1="14.3553" x2="17.4045" y2="15.5042" gradientUnits="userSpaceOnUse">
<stop stop-color="#7BACDF" stop-opacity="0"/>
<stop offset="1" stop-color="#7BACDF"/>
</linearGradient>
<linearGradient id="paint5_linear_138_1995" x1="16.0588" y1="15.5598" x2="17.7749" y2="18.4164" gradientUnits="userSpaceOnUse">
<stop stop-color="#FEF0AE"/>
<stop offset="1" stop-color="#FBC56D"/>
</linearGradient>
<linearGradient id="paint6_linear_138_1995" x1="16.9188" y1="15.4831" x2="16.9188" y2="16.2361" gradientUnits="userSpaceOnUse">
<stop stop-color="#DC8758" stop-opacity="0"/>
<stop offset="0.215" stop-color="#DD8654" stop-opacity="0.215"/>
<stop offset="0.429" stop-color="#E28448" stop-opacity="0.429"/>
<stop offset="0.642" stop-color="#EA8034" stop-opacity="0.642"/>
<stop offset="0.854" stop-color="#F47B18" stop-opacity="0.854"/>
<stop offset="1" stop-color="#FE7701"/>
</linearGradient>
<linearGradient id="paint7_linear_138_1995" x1="14.9488" y1="14.3867" x2="20.238" y2="19.4006" gradientUnits="userSpaceOnUse">
<stop stop-color="#DC8758" stop-opacity="0"/>
<stop offset="0.215" stop-color="#DD8654" stop-opacity="0.215"/>
<stop offset="0.429" stop-color="#E28448" stop-opacity="0.429"/>
<stop offset="0.642" stop-color="#EA8034" stop-opacity="0.642"/>
<stop offset="0.854" stop-color="#F47B18" stop-opacity="0.854"/>
<stop offset="1" stop-color="#FE7701"/>
</linearGradient>
<linearGradient id="paint8_linear_138_1995" x1="18.7332" y1="16.9913" x2="19.3013" y2="16.9913" gradientUnits="userSpaceOnUse">
<stop stop-color="#DC8758" stop-opacity="0"/>
<stop offset="0.215" stop-color="#DD8654" stop-opacity="0.215"/>
<stop offset="0.429" stop-color="#E28448" stop-opacity="0.429"/>
<stop offset="0.642" stop-color="#EA8034" stop-opacity="0.642"/>
<stop offset="0.854" stop-color="#F47B18" stop-opacity="0.854"/>
<stop offset="1" stop-color="#FE7701"/>
</linearGradient>
<linearGradient id="paint9_linear_138_1995" x1="16.9188" y1="17.7177" x2="16.9188" y2="18.706" gradientUnits="userSpaceOnUse">
<stop stop-color="#DC8758" stop-opacity="0"/>
<stop offset="0.215" stop-color="#DD8654" stop-opacity="0.215"/>
<stop offset="0.429" stop-color="#E28448" stop-opacity="0.429"/>
<stop offset="0.642" stop-color="#EA8034" stop-opacity="0.642"/>
<stop offset="0.854" stop-color="#F47B18" stop-opacity="0.854"/>
<stop offset="1" stop-color="#FE7701"/>
</linearGradient>
<linearGradient id="paint10_linear_138_1995" x1="29.2733" y1="15.5598" x2="30.9894" y2="18.4164" gradientUnits="userSpaceOnUse">
<stop stop-color="#FEF0AE"/>
<stop offset="1" stop-color="#FBC56D"/>
</linearGradient>
<linearGradient id="paint11_linear_138_1995" x1="30.1333" y1="15.4831" x2="30.1333" y2="16.2361" gradientUnits="userSpaceOnUse">
<stop stop-color="#DC8758" stop-opacity="0"/>
<stop offset="0.215" stop-color="#DD8654" stop-opacity="0.215"/>
<stop offset="0.429" stop-color="#E28448" stop-opacity="0.429"/>
<stop offset="0.642" stop-color="#EA8034" stop-opacity="0.642"/>
<stop offset="0.854" stop-color="#F47B18" stop-opacity="0.854"/>
<stop offset="1" stop-color="#FE7701"/>
</linearGradient>
<linearGradient id="paint12_linear_138_1995" x1="28.1632" y1="14.3867" x2="33.4524" y2="19.4006" gradientUnits="userSpaceOnUse">
<stop stop-color="#DC8758" stop-opacity="0"/>
<stop offset="0.215" stop-color="#DD8654" stop-opacity="0.215"/>
<stop offset="0.429" stop-color="#E28448" stop-opacity="0.429"/>
<stop offset="0.642" stop-color="#EA8034" stop-opacity="0.642"/>
<stop offset="0.854" stop-color="#F47B18" stop-opacity="0.854"/>
<stop offset="1" stop-color="#FE7701"/>
</linearGradient>
<linearGradient id="paint13_linear_138_1995" x1="31.9476" y1="16.9913" x2="32.5158" y2="16.9913" gradientUnits="userSpaceOnUse">
<stop stop-color="#DC8758" stop-opacity="0"/>
<stop offset="0.215" stop-color="#DD8654" stop-opacity="0.215"/>
<stop offset="0.429" stop-color="#E28448" stop-opacity="0.429"/>
<stop offset="0.642" stop-color="#EA8034" stop-opacity="0.642"/>
<stop offset="0.854" stop-color="#F47B18" stop-opacity="0.854"/>
<stop offset="1" stop-color="#FE7701"/>
</linearGradient>
<linearGradient id="paint14_linear_138_1995" x1="30.1333" y1="17.7177" x2="30.1333" y2="18.706" gradientUnits="userSpaceOnUse">
<stop stop-color="#DC8758" stop-opacity="0"/>
<stop offset="0.215" stop-color="#DD8654" stop-opacity="0.215"/>
<stop offset="0.429" stop-color="#E28448" stop-opacity="0.429"/>
<stop offset="0.642" stop-color="#EA8034" stop-opacity="0.642"/>
<stop offset="0.854" stop-color="#F47B18" stop-opacity="0.854"/>
<stop offset="1" stop-color="#FE7701"/>
</linearGradient>
<linearGradient id="paint15_linear_138_1995" x1="33.9651" y1="18.2488" x2="38.5967" y2="36.2259" gradientUnits="userSpaceOnUse">
<stop stop-color="#C86D36"/>
<stop offset="0.201" stop-color="#C46B35"/>
<stop offset="0.414" stop-color="#B76233"/>
<stop offset="0.633" stop-color="#A2552F"/>
<stop offset="0.855" stop-color="#85422A"/>
<stop offset="1" stop-color="#6D3326"/>
</linearGradient>
<linearGradient id="paint16_linear_138_1995" x1="36.5216" y1="35.4026" x2="36.5216" y2="37.2026" gradientUnits="userSpaceOnUse">
<stop stop-color="#3A0F13" stop-opacity="0"/>
<stop offset="0.272" stop-color="#3E1215" stop-opacity="0.272"/>
<stop offset="0.561" stop-color="#4B1B19" stop-opacity="0.561"/>
<stop offset="0.857" stop-color="#602A21" stop-opacity="0.857"/>
<stop offset="1" stop-color="#6D3326"/>
</linearGradient>
<linearGradient id="paint17_linear_138_1995" x1="20.0504" y1="13.6789" x2="47.2436" y2="36.9233" gradientUnits="userSpaceOnUse">
<stop stop-color="#3A0F13" stop-opacity="0"/>
<stop offset="0.272" stop-color="#3E1215" stop-opacity="0.272"/>
<stop offset="0.561" stop-color="#4B1B19" stop-opacity="0.561"/>
<stop offset="0.857" stop-color="#602A21" stop-opacity="0.857"/>
<stop offset="1" stop-color="#6D3326"/>
</linearGradient>
<linearGradient id="paint18_linear_138_1995" x1="33.2212" y1="26.6954" x2="39.5053" y2="27.8353" gradientUnits="userSpaceOnUse">
<stop stop-color="#3A0F13" stop-opacity="0"/>
<stop offset="0.272" stop-color="#3E1215" stop-opacity="0.272"/>
<stop offset="0.561" stop-color="#4B1B19" stop-opacity="0.561"/>
<stop offset="0.857" stop-color="#602A21" stop-opacity="0.857"/>
<stop offset="1" stop-color="#6D3326"/>
</linearGradient>
<linearGradient id="paint19_linear_138_1995" x1="20.7753" y1="16.4128" x2="26.4944" y2="38.6106" gradientUnits="userSpaceOnUse">
<stop stop-color="#C86D36"/>
<stop offset="0.201" stop-color="#C46B35"/>
<stop offset="0.414" stop-color="#B76233"/>
<stop offset="0.633" stop-color="#A2552F"/>
<stop offset="0.855" stop-color="#85422A"/>
<stop offset="1" stop-color="#6D3326"/>
</linearGradient>
<linearGradient id="paint20_linear_138_1995" x1="23.526" y1="35.4026" x2="23.526" y2="37.2026" gradientUnits="userSpaceOnUse">
<stop stop-color="#3A0F13" stop-opacity="0"/>
<stop offset="0.272" stop-color="#3E1215" stop-opacity="0.272"/>
<stop offset="0.561" stop-color="#4B1B19" stop-opacity="0.561"/>
<stop offset="0.857" stop-color="#602A21" stop-opacity="0.857"/>
<stop offset="1" stop-color="#6D3326"/>
</linearGradient>
<linearGradient id="paint21_linear_138_1995" x1="23.526" y1="33.1836" x2="23.526" y2="28.2443" gradientUnits="userSpaceOnUse">
<stop stop-color="#3A0F13" stop-opacity="0"/>
<stop offset="0.272" stop-color="#3E1215" stop-opacity="0.272"/>
<stop offset="0.561" stop-color="#4B1B19" stop-opacity="0.561"/>
<stop offset="0.857" stop-color="#602A21" stop-opacity="0.857"/>
<stop offset="1" stop-color="#6D3326"/>
</linearGradient>
<linearGradient id="paint22_linear_138_1995" x1="23.1473" y1="13.7546" x2="25.5147" y2="32.2342" gradientUnits="userSpaceOnUse">
<stop stop-color="#C86D36"/>
<stop offset="0.201" stop-color="#C46B35"/>
<stop offset="0.414" stop-color="#B76233"/>
<stop offset="0.633" stop-color="#A2552F"/>
<stop offset="0.855" stop-color="#85422A"/>
<stop offset="1" stop-color="#6D3326"/>
</linearGradient>
<linearGradient id="paint23_linear_138_1995" x1="36.2527" y1="22.7053" x2="39.5894" y2="22.7053" gradientUnits="userSpaceOnUse">
<stop stop-color="#3A0F13" stop-opacity="0"/>
<stop offset="0.272" stop-color="#3E1215" stop-opacity="0.272"/>
<stop offset="0.561" stop-color="#4B1B19" stop-opacity="0.561"/>
<stop offset="0.857" stop-color="#602A21" stop-opacity="0.857"/>
<stop offset="1" stop-color="#6D3326"/>
</linearGradient>
<linearGradient id="paint24_linear_138_1995" x1="18.494" y1="31.4153" x2="16.127" y2="27.7675" gradientUnits="userSpaceOnUse">
<stop stop-color="#3A0F13" stop-opacity="0"/>
<stop offset="0.272" stop-color="#3E1215" stop-opacity="0.272"/>
<stop offset="0.561" stop-color="#4B1B19" stop-opacity="0.561"/>
<stop offset="0.857" stop-color="#602A21" stop-opacity="0.857"/>
<stop offset="1" stop-color="#6D3326"/>
</linearGradient>
<linearGradient id="paint25_linear_138_1995" x1="32.8197" y1="32.5789" x2="29.9376" y2="27.9007" gradientUnits="userSpaceOnUse">
<stop stop-color="#3A0F13" stop-opacity="0"/>
<stop offset="0.272" stop-color="#3E1215" stop-opacity="0.272"/>
<stop offset="0.561" stop-color="#4B1B19" stop-opacity="0.561"/>
<stop offset="0.857" stop-color="#602A21" stop-opacity="0.857"/>
<stop offset="1" stop-color="#6D3326"/>
</linearGradient>
<linearGradient id="paint26_linear_138_1995" x1="14.4714" y1="27.708" x2="16.2583" y2="30.6825" gradientUnits="userSpaceOnUse">
<stop stop-color="#FEF0AE"/>
<stop offset="1" stop-color="#FBC56D"/>
</linearGradient>
<linearGradient id="paint27_linear_138_1995" x1="14.8015" y1="29.6121" x2="14.8015" y2="28.2543" gradientUnits="userSpaceOnUse">
<stop stop-color="#FEF0AE"/>
<stop offset="1" stop-color="#FBC56D"/>
</linearGradient>
<linearGradient id="paint28_linear_138_1995" x1="13.3637" y1="26.4854" x2="18.8736" y2="31.7085" gradientUnits="userSpaceOnUse">
<stop stop-color="#DC8758" stop-opacity="0"/>
<stop offset="0.215" stop-color="#DD8654" stop-opacity="0.215"/>
<stop offset="0.429" stop-color="#E28448" stop-opacity="0.429"/>
<stop offset="0.642" stop-color="#EA8034" stop-opacity="0.642"/>
<stop offset="0.854" stop-color="#F47B18" stop-opacity="0.854"/>
<stop offset="1" stop-color="#FE7701"/>
</linearGradient>
<linearGradient id="paint29_linear_138_1995" x1="17.3435" y1="29.1987" x2="17.9625" y2="29.1987" gradientUnits="userSpaceOnUse">
<stop stop-color="#DC8758" stop-opacity="0"/>
<stop offset="0.215" stop-color="#DD8654" stop-opacity="0.215"/>
<stop offset="0.429" stop-color="#E28448" stop-opacity="0.429"/>
<stop offset="0.642" stop-color="#EA8034" stop-opacity="0.642"/>
<stop offset="0.854" stop-color="#F47B18" stop-opacity="0.854"/>
<stop offset="1" stop-color="#FE7701"/>
</linearGradient>
<linearGradient id="paint30_linear_138_1995" x1="15.3669" y1="29.925" x2="15.3669" y2="30.9133" gradientUnits="userSpaceOnUse">
<stop stop-color="#DC8758" stop-opacity="0"/>
<stop offset="0.215" stop-color="#DD8654" stop-opacity="0.215"/>
<stop offset="0.429" stop-color="#E28448" stop-opacity="0.429"/>
<stop offset="0.642" stop-color="#EA8034" stop-opacity="0.642"/>
<stop offset="0.854" stop-color="#F47B18" stop-opacity="0.854"/>
<stop offset="1" stop-color="#FE7701"/>
</linearGradient>
<linearGradient id="paint31_linear_138_1995" x1="28.868" y1="27.708" x2="30.6549" y2="30.6825" gradientUnits="userSpaceOnUse">
<stop stop-color="#FEF0AE"/>
<stop offset="1" stop-color="#FBC56D"/>
</linearGradient>
<linearGradient id="paint32_linear_138_1995" x1="29.1981" y1="29.6121" x2="29.1981" y2="28.2543" gradientUnits="userSpaceOnUse">
<stop stop-color="#FEF0AE"/>
<stop offset="1" stop-color="#FBC56D"/>
</linearGradient>
<linearGradient id="paint33_linear_138_1995" x1="27.7602" y1="26.4854" x2="33.2701" y2="31.7085" gradientUnits="userSpaceOnUse">
<stop stop-color="#DC8758" stop-opacity="0"/>
<stop offset="0.215" stop-color="#DD8654" stop-opacity="0.215"/>
<stop offset="0.429" stop-color="#E28448" stop-opacity="0.429"/>
<stop offset="0.642" stop-color="#EA8034" stop-opacity="0.642"/>
<stop offset="0.854" stop-color="#F47B18" stop-opacity="0.854"/>
<stop offset="1" stop-color="#FE7701"/>
</linearGradient>
<linearGradient id="paint34_linear_138_1995" x1="31.7401" y1="29.1987" x2="32.3591" y2="29.1987" gradientUnits="userSpaceOnUse">
<stop stop-color="#DC8758" stop-opacity="0"/>
<stop offset="0.215" stop-color="#DD8654" stop-opacity="0.215"/>
<stop offset="0.429" stop-color="#E28448" stop-opacity="0.429"/>
<stop offset="0.642" stop-color="#EA8034" stop-opacity="0.642"/>
<stop offset="0.854" stop-color="#F47B18" stop-opacity="0.854"/>
<stop offset="1" stop-color="#FE7701"/>
</linearGradient>
<linearGradient id="paint35_linear_138_1995" x1="29.7635" y1="29.925" x2="29.7635" y2="30.9133" gradientUnits="userSpaceOnUse">
<stop stop-color="#DC8758" stop-opacity="0"/>
<stop offset="0.215" stop-color="#DD8654" stop-opacity="0.215"/>
<stop offset="0.429" stop-color="#E28448" stop-opacity="0.429"/>
<stop offset="0.642" stop-color="#EA8034" stop-opacity="0.642"/>
<stop offset="0.854" stop-color="#F47B18" stop-opacity="0.854"/>
<stop offset="1" stop-color="#FE7701"/>
</linearGradient>
<linearGradient id="paint36_linear_138_1995" x1="23.526" y1="11.5723" x2="23.526" y2="13.1595" gradientUnits="userSpaceOnUse">
<stop stop-color="#5A5A5A"/>
<stop offset="1" stop-color="#444444"/>
</linearGradient>
<linearGradient id="paint37_linear_138_1995" x1="23.526" y1="11.9482" x2="23.526" y2="13.6613" gradientUnits="userSpaceOnUse">
<stop stop-color="#433F43" stop-opacity="0"/>
<stop offset="1" stop-color="#1A1A1A"/>
</linearGradient>
<linearGradient id="paint38_linear_138_1995" x1="25.9368" y1="12.2529" x2="27.357" y2="12.6288" gradientUnits="userSpaceOnUse">
<stop stop-color="#433F43" stop-opacity="0"/>
<stop offset="1" stop-color="#1A1A1A"/>
</linearGradient>
</defs>
</svg>
