<svg width="49" height="48" viewBox="0 0 49 48" fill="none" xmlns="http://www.w3.org/2000/svg">
<circle cx="24.5" cy="24" r="24" fill="#CFF6F1"/>
<mask id="mask0_138_1969" style="mask-type:alpha" maskUnits="userSpaceOnUse" x="0" y="0" width="49" height="48">
<circle cx="24.5" cy="24" r="24" fill="#CFF6F1"/>
</mask>
<g mask="url(#mask0_138_1969)">
<path d="M36.4867 26.465C36.4867 24.5668 36.0235 22.7749 35.2047 21.1957C34.6808 21.5029 34.0646 21.87 33.5779 22.1765C34.2261 23.4678 34.5918 24.9244 34.5918 26.465C34.5918 31.5039 30.6862 35.6475 25.7432 36.028V35.4875C25.7432 35.1489 25.1975 34.9793 24.8784 35.2187L23.3086 36.3967C22.9097 36.696 22.9097 37.1859 23.3086 37.4852L24.8784 38.6632C25.1975 38.9027 25.7432 38.733 25.7432 38.3943V37.9266C31.7319 37.5423 36.4867 32.5491 36.4867 26.465Z" fill="url(#paint0_linear_138_1969)"/>
<path d="M34.9803 19.7885L34.5216 20.0494C32.4553 16.9928 28.9591 14.9784 25 14.9784C20.8301 14.9784 17.1724 17.212 15.1596 20.5453L16.745 21.5861C18.4174 18.7673 21.4914 16.8733 25 16.8733C28.2545 16.8733 31.1353 18.5029 32.8702 20.9887L32.4536 21.2257C32.1592 21.3931 32.2815 21.9513 32.6475 22.1103L34.4476 22.8924C34.905 23.0911 35.3308 22.8489 35.3937 22.3542L35.6415 20.4073C35.6919 20.0115 35.2747 19.621 34.9803 19.7885Z" fill="url(#paint1_linear_138_1969)"/>
<path d="M23.3086 37.4854C22.9097 37.1861 22.9097 36.6963 23.3086 36.3969L23.8543 35.9875C19.1036 35.4193 15.4083 31.3663 15.4083 26.4652C15.4083 25.0511 15.7169 23.7079 16.2688 22.4982L16.6239 22.7427C16.9029 22.9348 17.352 22.5814 17.3357 22.1827L17.2555 20.2218C17.2351 19.7235 16.8317 19.4457 16.3589 19.6045L14.4985 20.2296C14.1203 20.3567 13.9506 20.9023 14.2296 21.0944L14.6881 21.41C13.9367 22.9364 13.5133 24.652 13.5133 26.4651C13.5133 32.4122 18.0564 37.3179 23.8542 37.8948L23.3086 37.4854Z" fill="url(#paint2_linear_138_1969)"/>
<path d="M25 24.5073C29.2821 24.5073 32.7535 21.036 32.7535 16.7539C32.7535 12.4717 29.2821 9.00037 25 9.00037C20.7179 9.00037 17.2465 12.4717 17.2465 16.7539C17.2465 21.036 20.7179 24.5073 25 24.5073Z" fill="url(#paint3_linear_138_1969)"/>
<path d="M32.7298 17.3613C32.594 19.1194 31.8714 20.7131 30.7573 21.9472C30.1901 22.5758 29.5242 23.1077 28.7859 23.5221L24.0809 18.8167L22.5914 17.3272C21.864 16.6723 21.4965 15.7236 21.4965 14.6677C21.4965 12.6918 23.0082 11.1807 24.9841 11.1807C26.04 11.1807 26.9886 11.5476 27.6435 12.2751L32.7298 17.3613Z" fill="url(#paint4_linear_138_1969)"/>
<path d="M30.7573 21.9473C30.1901 22.5758 29.5242 23.1078 28.7859 23.5222C27.6663 24.1498 26.3749 24.5074 25 24.5074C24.5397 24.5074 24.0888 24.4674 23.6508 24.3904L20.6175 21.3571C20.382 21.2213 20.3924 20.8884 20.5938 20.6648L20.5998 20.6588C21.5095 19.6484 22.6952 19.0088 24.081 18.8168C24.3734 18.7763 24.6746 18.7556 24.9837 18.7556C26.6915 18.7556 28.2313 19.3758 29.3272 20.5172L30.7573 21.9473Z" fill="url(#paint5_linear_138_1969)"/>
<path d="M24.9878 18.2458C26.9637 18.2458 28.5655 16.644 28.5655 14.6681C28.5655 12.6921 26.9637 11.0903 24.9878 11.0903C23.0119 11.0903 21.4101 12.6921 21.4101 14.6681C21.4101 16.644 23.0119 18.2458 24.9878 18.2458Z" fill="url(#paint6_linear_138_1969)"/>
<path d="M29.4923 20.6919C29.4702 20.667 29.448 20.6423 29.4254 20.6178C28.3248 19.4174 26.7445 18.6655 24.9874 18.6655C23.2111 18.6655 21.6144 19.4348 20.5129 20.6586L20.5073 20.6648C20.2599 20.9395 20.4364 21.3789 20.8043 21.4155C21.9004 21.5247 23.4475 21.5927 25.1626 21.5927C26.7121 21.5927 28.1245 21.5373 29.1912 21.4459C29.5636 21.414 29.7406 20.9713 29.4923 20.6919Z" fill="url(#paint7_linear_138_1969)"/>
<path d="M16.6464 39C20.9286 39 24.3999 35.5287 24.3999 31.2465C24.3999 26.9644 20.9286 23.493 16.6464 23.493C12.3643 23.493 8.89294 26.9644 8.89294 31.2465C8.89294 35.5287 12.3643 39 16.6464 39Z" fill="url(#paint8_linear_138_1969)"/>
<path d="M24.3763 31.8538C24.2405 33.612 23.518 35.2056 22.4039 36.4398C21.8366 37.0684 21.1707 37.6003 20.4324 38.0147L15.7274 33.3092L14.238 31.8198C13.5105 31.165 13.1431 30.2162 13.1431 29.1604C13.1431 27.1844 14.6547 25.6733 16.6307 25.6733C17.6865 25.6733 18.6352 26.0402 19.2901 26.7677L24.3763 31.8538Z" fill="url(#paint9_linear_138_1969)"/>
<path d="M22.4039 36.4398C21.8366 37.0684 21.1708 37.6003 20.4324 38.0147C19.3128 38.6424 18.0214 39 16.6465 39C16.1862 39 15.7354 38.96 15.2973 38.8829L12.2641 35.8497C12.0285 35.7139 12.0389 35.381 12.2404 35.1573L12.2463 35.1514C13.156 34.1409 14.3418 33.5014 15.7275 33.3093C16.0199 33.2688 16.3212 33.2481 16.6303 33.2481C18.338 33.2481 19.8778 33.8684 20.9737 35.0097L22.4039 36.4398Z" fill="url(#paint10_linear_138_1969)"/>
<path d="M16.6343 32.7384C18.6102 32.7384 20.212 31.1366 20.212 29.1607C20.212 27.1847 18.6102 25.5829 16.6343 25.5829C14.6584 25.5829 13.0566 27.1847 13.0566 29.1607C13.0566 31.1366 14.6584 32.7384 16.6343 32.7384Z" fill="url(#paint11_linear_138_1969)"/>
<path d="M21.1388 35.1845C21.1167 35.1596 21.0945 35.1349 21.0719 35.1104C19.9713 33.91 18.391 33.1581 16.6339 33.1581C14.8576 33.1581 13.2608 33.9274 12.1594 35.1512L12.1538 35.1574C11.9064 35.4321 12.0829 35.8715 12.4508 35.9082C13.5469 36.0174 15.094 36.0853 16.8091 36.0853C18.3586 36.0853 19.771 36.0299 20.8377 35.9385C21.2101 35.9066 21.3871 35.4639 21.1388 35.1845Z" fill="url(#paint12_linear_138_1969)"/>
<path d="M33.3536 39C37.6357 39 41.107 35.5287 41.107 31.2465C41.107 26.9644 37.6357 23.493 33.3536 23.493C29.0714 23.493 25.6001 26.9644 25.6001 31.2465C25.6001 35.5287 29.0714 39 33.3536 39Z" fill="url(#paint13_linear_138_1969)"/>
<path d="M41.0833 31.8539C40.9475 33.612 40.225 35.2057 39.1109 36.4399C38.5436 37.0684 37.8778 37.6003 37.1394 38.0147L32.4345 33.3093L30.945 31.8198C30.2175 31.165 29.8501 30.2162 29.8501 29.1604C29.8501 27.1844 31.3617 25.6733 33.3377 25.6733C34.3935 25.6733 35.3422 26.0402 35.9971 26.7677L41.0833 31.8539Z" fill="url(#paint14_linear_138_1969)"/>
<path d="M39.1109 36.4398C38.5436 37.0684 37.8778 37.6003 37.1394 38.0147C36.0198 38.6424 34.7284 39 33.3535 39C32.8932 39 32.4424 38.96 32.0043 38.8829L28.9711 35.8497C28.7355 35.7139 28.7459 35.381 28.9474 35.1573L28.9533 35.1514C29.863 34.1409 31.0488 33.5014 32.4345 33.3093C32.7269 33.2688 33.0282 33.2481 33.3373 33.2481C35.045 33.2481 36.5849 33.8684 37.6808 35.0097L39.1109 36.4398Z" fill="url(#paint15_linear_138_1969)"/>
<path d="M33.3413 32.7384C35.3173 32.7384 36.9191 31.1366 36.9191 29.1607C36.9191 27.1847 35.3173 25.5829 33.3413 25.5829C31.3654 25.5829 29.7636 27.1847 29.7636 29.1607C29.7636 31.1366 31.3654 32.7384 33.3413 32.7384Z" fill="url(#paint16_linear_138_1969)"/>
<path d="M37.8459 35.1845C37.8238 35.1596 37.8016 35.1349 37.779 35.1104C36.6784 33.91 35.0981 33.1581 33.3409 33.1581C31.5647 33.1581 29.9679 33.9274 28.8664 35.1512L28.8609 35.1574C28.6135 35.4321 28.79 35.8715 29.1578 35.9082C30.254 36.0174 31.801 36.0853 33.5162 36.0853C35.0657 36.0853 36.4781 36.0299 37.5448 35.9385C37.9172 35.9066 38.0941 35.4639 37.8459 35.1845Z" fill="url(#paint17_linear_138_1969)"/>
<circle cx="24.5" cy="24" r="23.5" stroke="#C5ECE7"/>
</g>
<defs>
<linearGradient id="paint0_linear_138_1969" x1="29.6587" y1="30.7108" x2="28.8059" y2="25.4997" gradientUnits="userSpaceOnUse">
<stop stop-color="#2F73A0"/>
<stop offset="1" stop-color="#174461"/>
</linearGradient>
<linearGradient id="paint1_linear_138_1969" x1="25.8521" y1="20.4" x2="19.1882" y2="23.9688" gradientUnits="userSpaceOnUse">
<stop stop-color="#2F73A0"/>
<stop offset="1" stop-color="#174461"/>
</linearGradient>
<linearGradient id="paint2_linear_138_1969" x1="15.3162" y1="24.9859" x2="22.0497" y2="34.326" gradientUnits="userSpaceOnUse">
<stop stop-color="#2F73A0"/>
<stop offset="1" stop-color="#174461"/>
</linearGradient>
<linearGradient id="paint3_linear_138_1969" x1="21.838" y1="13.5919" x2="29.6508" y2="21.4047" gradientUnits="userSpaceOnUse">
<stop stop-color="#7ACBFF"/>
<stop offset="1" stop-color="#45A2E0"/>
</linearGradient>
<linearGradient id="paint4_linear_138_1969" x1="29.6455" y1="19.3292" x2="23.6806" y2="13.3642" gradientUnits="userSpaceOnUse">
<stop stop-color="#2F73A0" stop-opacity="0"/>
<stop offset="1" stop-color="#2F73A0"/>
</linearGradient>
<linearGradient id="paint5_linear_138_1969" x1="26.1901" y1="24.2112" x2="24.9061" y2="18.3508" gradientUnits="userSpaceOnUse">
<stop stop-color="#2F73A0" stop-opacity="0"/>
<stop offset="1" stop-color="#2F73A0"/>
</linearGradient>
<linearGradient id="paint6_linear_138_1969" x1="23.1862" y1="14.6681" x2="26.3123" y2="14.6681" gradientUnits="userSpaceOnUse">
<stop stop-color="#EDF5FF"/>
<stop offset="1" stop-color="#C7E9FF"/>
</linearGradient>
<linearGradient id="paint7_linear_138_1969" x1="23.1862" y1="20.1291" x2="26.3123" y2="20.1291" gradientUnits="userSpaceOnUse">
<stop stop-color="#EDF5FF"/>
<stop offset="1" stop-color="#C7E9FF"/>
</linearGradient>
<linearGradient id="paint8_linear_138_1969" x1="13.4845" y1="28.0846" x2="21.2973" y2="35.8973" gradientUnits="userSpaceOnUse">
<stop stop-color="#E4E08E"/>
<stop offset="1" stop-color="#6FA953"/>
</linearGradient>
<linearGradient id="paint9_linear_138_1969" x1="21.2921" y1="33.8218" x2="15.3271" y2="27.8568" gradientUnits="userSpaceOnUse">
<stop stop-color="#43765A" stop-opacity="0"/>
<stop offset="1" stop-color="#43765A"/>
</linearGradient>
<linearGradient id="paint10_linear_138_1969" x1="17.8365" y1="38.7038" x2="16.5525" y2="32.8433" gradientUnits="userSpaceOnUse">
<stop stop-color="#43765A" stop-opacity="0"/>
<stop offset="1" stop-color="#43765A"/>
</linearGradient>
<linearGradient id="paint11_linear_138_1969" x1="14.8327" y1="29.1607" x2="17.9588" y2="29.1607" gradientUnits="userSpaceOnUse">
<stop stop-color="#EDF5FF"/>
<stop offset="1" stop-color="#C7E9FF"/>
</linearGradient>
<linearGradient id="paint12_linear_138_1969" x1="14.8327" y1="34.6217" x2="17.9588" y2="34.6217" gradientUnits="userSpaceOnUse">
<stop stop-color="#EDF5FF"/>
<stop offset="1" stop-color="#C7E9FF"/>
</linearGradient>
<linearGradient id="paint13_linear_138_1969" x1="30.1916" y1="28.0846" x2="38.0043" y2="35.8973" gradientUnits="userSpaceOnUse">
<stop stop-color="#FF755C"/>
<stop offset="1" stop-color="#FF4181"/>
</linearGradient>
<linearGradient id="paint14_linear_138_1969" x1="37.9991" y1="33.8219" x2="32.0341" y2="27.8568" gradientUnits="userSpaceOnUse">
<stop stop-color="#843561" stop-opacity="0"/>
<stop offset="1" stop-color="#3A2F4D"/>
</linearGradient>
<linearGradient id="paint15_linear_138_1969" x1="34.5436" y1="38.7038" x2="33.2595" y2="32.8433" gradientUnits="userSpaceOnUse">
<stop stop-color="#843561" stop-opacity="0"/>
<stop offset="1" stop-color="#3A2F4D"/>
</linearGradient>
<linearGradient id="paint16_linear_138_1969" x1="31.5398" y1="29.1607" x2="34.6659" y2="29.1607" gradientUnits="userSpaceOnUse">
<stop stop-color="#EDF5FF"/>
<stop offset="1" stop-color="#C7E9FF"/>
</linearGradient>
<linearGradient id="paint17_linear_138_1969" x1="31.5398" y1="34.6217" x2="34.6659" y2="34.6217" gradientUnits="userSpaceOnUse">
<stop stop-color="#EDF5FF"/>
<stop offset="1" stop-color="#C7E9FF"/>
</linearGradient>
</defs>
</svg>
