<svg width="49" height="48" viewBox="0 0 49 48" fill="none" xmlns="http://www.w3.org/2000/svg">
<circle cx="24.5" cy="24" r="24" fill="#CFF6F1"/>
<mask id="mask0_138_1579" style="mask-type:alpha" maskUnits="userSpaceOnUse" x="0" y="0" width="49" height="48">
<circle cx="24.5" cy="24" r="24" fill="#CFF6F1"/>
</mask>
<g mask="url(#mask0_138_1579)">
<path d="M34.0102 24.3821C34.0102 23.3062 33.4293 22.3728 32.5777 21.9057C32.4372 21.8292 32.3489 21.6761 32.3546 21.5104C32.3857 20.6355 32.0832 19.7506 31.4457 19.0826C31.0236 18.6411 30.5104 18.3534 29.9697 18.2185C29.8357 18.1851 29.7241 18.0926 29.661 17.9644C29.1581 16.942 28.1401 16.2428 26.966 16.2428C26.6037 16.2426 26.2447 16.3103 25.9074 16.4425C25.7311 16.5116 25.5324 16.4664 25.4061 16.3203C25.0592 15.9186 24.5579 15.6661 23.9999 15.6661C23.442 15.6661 22.9406 15.9186 22.5937 16.3203C22.4675 16.4664 22.2688 16.5116 22.0924 16.4425C21.7552 16.3103 21.3961 16.2426 21.0339 16.2428C19.8597 16.2428 18.8417 16.9421 18.3389 17.9644C18.2759 18.0926 18.1641 18.1851 18.0302 18.2185C17.4894 18.3535 16.9763 18.6411 16.5541 19.0826C15.9167 19.7506 15.6135 20.6355 15.6453 21.5104C15.6509 21.6761 15.5626 21.8292 15.4221 21.9057C14.5705 22.3728 13.9895 23.3062 13.9895 24.3821C13.9895 25.0446 14.2098 25.6528 14.5778 26.1314C14.7789 26.3927 14.9303 26.6888 15.0241 27.0049C15.2163 27.6522 15.649 28.1885 16.214 28.4983C16.3415 28.5678 16.4217 28.7066 16.4165 28.857C16.3877 29.6512 16.6628 30.4544 17.2415 31.0607C17.6247 31.4614 18.0904 31.7226 18.5813 31.845C18.7029 31.8753 18.8043 31.9594 18.8614 32.0757C19.3179 33.0037 20.2419 33.6384 21.3076 33.6384C21.6457 33.6384 21.9693 33.5741 22.2684 33.457C22.4285 33.3944 22.6088 33.4354 22.7234 33.5681C23.0383 33.9326 23.4933 34.1618 23.9997 34.1618C24.5061 34.1618 24.9612 33.9326 25.276 33.5681C25.3906 33.4354 25.571 33.3944 25.7311 33.457C26.0372 33.577 26.3631 33.6385 26.6919 33.6384C27.7576 33.6384 28.6817 33.0037 29.1381 32.0757C29.1953 31.9594 29.2966 31.8754 29.4182 31.845C29.9091 31.7226 30.3748 31.4613 30.758 31.0607C31.3366 30.4544 31.6112 29.6512 31.583 28.857C31.5778 28.7066 31.658 28.5678 31.7855 28.4983C32.3504 28.1884 32.7832 27.6522 32.9754 27.0049C33.0692 26.6888 33.2205 26.3927 33.4217 26.1314C33.7899 25.6528 34.0102 25.0446 34.0102 24.3821ZM24 20.0624C24.0019 20.0719 24.0042 20.0812 24.0062 20.0906H23.9937C23.9958 20.0812 23.9981 20.0719 24 20.0624ZM24 30.1713C23.9983 30.1627 23.9961 30.1543 23.9944 30.1457H24.0056C24.0039 30.1543 24.0017 30.1627 24 30.1713Z" fill="url(#paint0_linear_138_1579)"/>
<path d="M13.9897 24.3814C13.9897 25.0439 14.21 25.6521 14.578 26.1308C14.7791 26.392 14.9305 26.6881 15.0244 27.0042C15.2166 27.6515 15.6493 28.1878 16.2143 28.4976C16.3418 28.5671 16.422 28.7059 16.4168 28.8563C16.388 29.6505 16.6631 30.4537 17.2418 31.06C17.625 31.4607 18.0907 31.7219 18.5816 31.8443C18.7031 31.8747 18.8045 31.9587 18.8617 32.075C19.3182 33.003 20.2421 33.6377 21.3079 33.6377C21.646 33.6377 21.9696 33.5734 22.2687 33.4563C22.4288 33.3937 22.6091 33.4347 22.7237 33.5674C23.0385 33.9319 23.4936 34.1611 24 34.1611C24.5064 34.1611 24.9614 33.9319 25.2763 33.5674C25.3909 33.4347 25.5713 33.3937 25.7314 33.4563C26.0375 33.5763 26.3634 33.6378 26.6922 33.6377C27.7579 33.6377 28.682 33.003 29.1384 32.075C29.1956 31.9587 29.2969 31.8747 29.4185 31.8443C29.9093 31.7219 30.3751 31.4607 30.7583 31.06C31.3369 30.4537 31.6115 29.6505 31.5833 28.8563C31.5781 28.7059 31.6583 28.5671 31.7858 28.4976C32.3507 28.1877 32.7835 27.6515 32.9757 27.0042C33.0695 26.6881 33.2208 26.392 33.422 26.1308C33.7899 25.6521 34.0102 25.0439 34.0102 24.3814C34.01 24.1626 33.9851 23.9445 33.9361 23.7312H14.0638C14.0149 23.9445 13.99 24.1626 13.9897 24.3814ZM24.0056 30.1451C24.0039 30.1537 24.0017 30.1621 24 30.1707C23.9983 30.1621 23.9961 30.1537 23.9944 30.1451H24.0056Z" fill="url(#paint1_linear_138_1579)"/>
<path d="M32.5777 21.9057C32.4372 21.8292 32.3489 21.6761 32.3546 21.5104C32.3857 20.6355 32.0832 19.7506 31.4457 19.0826C31.0236 18.6411 30.5104 18.3534 29.9697 18.2185C29.8357 18.1851 29.7241 18.0926 29.661 17.9644C29.1581 16.942 28.1401 16.2428 26.966 16.2428C26.6038 16.2426 26.2447 16.3103 25.9074 16.4425C25.7311 16.5116 25.5324 16.4664 25.4061 16.3203C25.0593 15.9186 24.5579 15.6661 23.9999 15.6661C23.442 15.6661 22.9406 15.9186 22.5937 16.3203C22.5328 16.3913 22.4507 16.4412 22.3595 16.4625V33.434C22.4936 33.4141 22.6302 33.4602 22.7235 33.5682C23.0384 33.9327 23.4935 34.1619 23.9999 34.1619C24.5062 34.1619 24.9613 33.9328 25.2762 33.5682C25.3908 33.4355 25.5711 33.3945 25.7312 33.4572C26.0373 33.5772 26.3633 33.6387 26.692 33.6385C27.7578 33.6385 28.6818 33.0038 29.1382 32.0758C29.1955 31.9595 29.2968 31.8756 29.4183 31.8452C29.9092 31.7227 30.3749 31.4615 30.7582 31.0608C31.3368 30.4545 31.6114 29.6513 31.5831 28.8572C31.5779 28.7068 31.6582 28.5679 31.7856 28.4984C32.3506 28.1886 32.7834 27.6524 32.9755 27.005C33.0694 26.6889 33.2207 26.3928 33.4219 26.1316C33.7898 25.653 34.0101 25.0447 34.0101 24.3822C34.0102 23.3062 33.4293 22.3728 32.5777 21.9057ZM24 30.1713C23.9983 30.1627 23.9961 30.1543 23.9944 30.1457H24.0056C24.0039 30.1543 24.0017 30.1627 24 30.1713ZM23.9938 20.0906C23.9958 20.0812 23.9982 20.0719 24 20.0624C24.0019 20.0719 24.0042 20.0812 24.0062 20.0906H23.9938Z" fill="url(#paint2_linear_138_1579)"/>
<path d="M35.8526 39.4034C35.8526 39.6628 35.7471 39.8984 35.5769 40.0685C35.4068 40.2387 35.1712 40.3434 34.9118 40.3434L32.5746 42.3769L24 39.4322L17.7358 40.1185L15.9084 38.2917L13.8567 40.3434H13.0882C12.5686 40.3434 12.1474 39.923 12.1474 39.4034C12.1474 36.8946 13.1648 34.6242 14.808 32.9803C16.4526 31.3357 18.723 30.3197 21.2318 30.3197H26.7682C31.7857 30.3197 35.8526 34.3866 35.8526 39.4034Z" fill="url(#paint3_linear_138_1579)"/>
<path d="M35.8524 39.4036C35.8524 39.6632 35.7472 39.8984 35.577 40.0686C35.4898 40.156 35.3861 40.2254 35.272 40.2726C35.1579 40.3199 35.0355 40.3441 34.912 40.3439H32.3164L24 39.4325V30.3197H26.7684C31.7855 30.3197 35.8524 34.3866 35.8524 39.4036Z" fill="url(#paint4_linear_138_1579)"/>
<path d="M35.8524 39.4036C35.8524 39.6632 35.7472 39.8984 35.577 40.0686C35.4898 40.156 35.3861 40.2254 35.272 40.2726C35.1579 40.3199 35.0355 40.3441 34.912 40.3439H32.3164L24 39.4325V30.3197H26.7684C31.7855 30.3197 35.8524 34.3866 35.8524 39.4036Z" fill="url(#paint5_linear_138_1579)"/>
<path d="M35.8523 39.4038C35.8523 39.6633 35.7472 39.8985 35.577 40.0688C35.4898 40.1562 35.3861 40.2256 35.272 40.2728C35.1578 40.3201 35.0355 40.3443 34.912 40.3441L32.5746 42.3773L30.968 40.1962V31.3469C33.8711 32.8629 35.8523 35.902 35.8523 39.4038Z" fill="url(#paint6_linear_138_1579)"/>
<path d="M24 29.8044H20.896L21.0103 31.3445L24 32.9085L26.9898 31.3445L27.1041 29.8044H24Z" fill="url(#paint7_linear_138_1579)"/>
<path d="M24 29.8044H20.896L21.0103 31.3445L24 32.9085L26.9898 31.3445L27.1041 29.8044H24Z" fill="url(#paint8_linear_138_1579)"/>
<path d="M24 29.8044H20.896L21.0103 31.3445L24 32.9085L26.9898 31.3445L27.1041 29.8044H24Z" fill="url(#paint9_linear_138_1579)"/>
<path d="M24 32.9085L20.8959 29.8044L20.0194 30.1933C19.9416 30.2279 19.8795 30.2903 19.8455 30.3683C19.8114 30.4463 19.8079 30.5342 19.8355 30.6147L20.9469 33.8547C21.0326 34.1044 21.3178 34.2224 21.5548 34.1063L24 32.9085Z" fill="url(#paint10_linear_138_1579)"/>
<path d="M24 32.9085L20.8959 29.8044L20.0194 30.1933C19.9416 30.2279 19.8795 30.2903 19.8455 30.3683C19.8114 30.4463 19.8079 30.5342 19.8355 30.6147L20.9469 33.8547C21.0326 34.1044 21.3178 34.2224 21.5548 34.1063L24 32.9085Z" fill="url(#paint11_linear_138_1579)"/>
<path d="M24 32.9085L27.1041 29.8044L27.9807 30.1933C28.0585 30.2279 28.1205 30.2903 28.1545 30.3683C28.1886 30.4463 28.1921 30.5342 28.1645 30.6147L27.0531 33.8547C26.9675 34.1044 26.6823 34.2224 26.4453 34.1063L24 32.9085Z" fill="url(#paint12_linear_138_1579)"/>
<path d="M24 32.9085L27.1041 29.8044L27.9807 30.1933C28.0585 30.2279 28.1205 30.2903 28.1545 30.3683C28.1886 30.4463 28.1921 30.5342 28.1645 30.6147L27.0531 33.8547C26.9675 34.1044 26.6823 34.2224 26.4453 34.1063L24 32.9085Z" fill="url(#paint13_linear_138_1579)"/>
<path d="M35.8526 39.4035C35.8526 39.663 35.7471 39.8986 35.5769 40.0687C35.4068 40.2389 35.1712 40.3436 34.9118 40.3436L32.5746 42.3771L24 39.4324L17.7358 40.1186L15.9084 38.2919L13.8567 40.3436H13.0882C12.5686 40.3436 12.1474 39.9232 12.1474 39.4035C12.1474 38.0922 12.4265 36.8463 12.9265 35.7206H35.0735C35.5734 36.8463 35.8526 38.0922 35.8526 39.4035Z" fill="url(#paint14_linear_138_1579)"/>
<path d="M18.1503 35.7206H12.9265C12.4265 36.8463 12.1474 38.0922 12.1474 39.4035C12.1474 39.9232 12.5686 40.3436 13.0882 40.3436H13.8567L15.9084 38.2919L17.7358 40.1186L18.1503 40.0732V35.7206Z" fill="url(#paint15_linear_138_1579)"/>
<path d="M15.9134 23.7322C15.9134 22.6743 16.6478 21.788 17.6345 21.5551C17.8982 21.4928 18.1504 21.6968 18.1504 21.9677V25.4965C18.1504 25.7675 17.8982 25.9715 17.6345 25.9092C16.6477 25.6764 15.9134 24.79 15.9134 23.7322Z" fill="url(#paint16_linear_138_1579)"/>
<path d="M32.0865 23.7322C32.0865 22.6743 31.3522 21.788 30.3655 21.5551C30.1017 21.4928 29.8496 21.6968 29.8496 21.9677V25.4965C29.8496 25.7675 30.1017 25.9715 30.3655 25.9092C31.3522 25.6764 32.0865 24.79 32.0865 23.7322Z" fill="url(#paint17_linear_138_1579)"/>
<path d="M24 15.0048C20.4265 15.0048 17.5296 17.9016 17.5296 21.4751V24.7932C17.5296 28.3667 20.4265 31.2636 24 31.2636C27.5735 31.2636 30.4703 28.3667 30.4703 24.7932V21.4751C30.4703 17.9016 27.5735 15.0048 24 15.0048Z" fill="url(#paint18_linear_138_1579)"/>
<path d="M24 15.0048V31.2636C27.5735 31.2636 30.4704 28.3667 30.4704 24.7932V21.4751C30.4704 17.9016 27.5735 15.0048 24 15.0048Z" fill="url(#paint19_linear_138_1579)"/>
<path d="M17.6567 26.0746C18.2513 29.0342 20.8652 31.2635 23.9999 31.2635C27.1347 31.2635 29.7485 29.0342 30.3432 26.0746H17.6567Z" fill="url(#paint20_linear_138_1579)"/>
<path d="M20.9963 24.914C20.4769 24.914 20.056 24.4931 20.056 23.9738V23.4916C20.056 22.9722 20.4769 22.5513 20.9963 22.5513C21.5156 22.5513 21.9366 22.9722 21.9366 23.4916V23.9738C21.9366 24.4931 21.5155 24.914 20.9963 24.914Z" fill="url(#paint21_linear_138_1579)"/>
<path d="M27.0038 24.914C26.4845 24.914 26.0635 24.4931 26.0635 23.9738V23.4916C26.0635 22.9722 26.4845 22.5513 27.0038 22.5513C27.5231 22.5513 27.9441 22.9722 27.9441 23.4916V23.9738C27.9441 24.4931 27.5231 24.914 27.0038 24.914Z" fill="url(#paint22_linear_138_1579)"/>
<path d="M24.3575 26.9182H23.6426C23.0468 26.9182 22.5957 26.3798 22.7001 25.7932L23.0359 23.9051C23.0567 23.7886 23.1177 23.6831 23.2085 23.6071C23.2992 23.5311 23.4137 23.4895 23.5321 23.4895H24.4681C24.5864 23.4895 24.701 23.5311 24.7917 23.6071C24.8824 23.6831 24.9435 23.7886 24.9642 23.9051L25.3001 25.7932C25.4043 26.3798 24.9532 26.9182 24.3575 26.9182Z" fill="url(#paint23_linear_138_1579)"/>
<path d="M24.3575 26.9182H23.6426C23.0468 26.9182 22.5957 26.3798 22.7001 25.7932L23.0359 23.9051C23.0567 23.7886 23.1177 23.6831 23.2085 23.6071C23.2992 23.5311 23.4137 23.4895 23.5321 23.4895H24.4681C24.5864 23.4895 24.701 23.5311 24.7917 23.6071C24.8824 23.6831 24.9435 23.7886 24.9642 23.9051L25.3001 25.7932C25.4043 26.3798 24.9532 26.9182 24.3575 26.9182Z" fill="url(#paint24_linear_138_1579)"/>
<path d="M23.6425 26.9182H24.3574C24.9531 26.9182 25.4043 26.3798 25.2999 25.7932L24.964 23.9051C24.9433 23.7886 24.8822 23.6831 24.7915 23.6071C24.7008 23.5311 24.5862 23.4895 24.4679 23.4895H23.5319C23.4136 23.4895 23.299 23.5311 23.2083 23.6071C23.1176 23.6831 23.0565 23.7886 23.0358 23.9051L22.6999 25.7932C22.5957 26.3798 23.0467 26.9182 23.6425 26.9182Z" fill="url(#paint25_linear_138_1579)"/>
<path d="M27.3647 21.5444C27.3647 21.5444 28.5947 21.5256 29.3054 22.127C30.016 22.7283 30.8634 23.2203 31.6561 22.7283C32.4488 22.2363 32.2658 20.2486 32.2658 20.2486C32.2658 20.2486 29.7974 19.2908 27.3647 21.5444Z" fill="url(#paint26_linear_138_1579)"/>
<path d="M16.2126 19.3383C16.2126 19.3383 15.668 21.1969 16.1316 22.7687C16.5952 24.3404 18.3446 24.3063 19.4379 23.1344C20.5313 21.9624 22.3353 21.6617 23.5927 21.9623C23.5927 21.9623 20.1746 18.5158 16.2126 19.3383Z" fill="url(#paint27_linear_138_1579)"/>
<path d="M33.3825 33.3277C31.9158 36.5332 32.3165 40.3435 32.3165 40.3435L32.5746 42.3769L29.7136 45.2379L24.8184 40.3435H23.4269L20.6939 43.0765L17.9608 40.3435L15.9084 38.2917L15.7214 38.4788C15.6715 37.081 15.4331 35.1108 14.6175 33.3277C14.5887 33.2637 14.5957 33.1899 14.6365 33.1329C14.8931 32.7764 15.9169 31.4974 17.7492 30.8801L17.9953 31.0003L18.2562 30.7332L18.2576 30.7325C18.4426 30.6865 18.6296 30.649 18.818 30.62C18.9234 30.6031 19.0233 30.6727 19.0415 30.7775C19.1864 31.5882 19.9992 34.8914 23.8945 37.3376C23.9585 37.3777 24.0415 37.3777 24.1054 37.3376C28.0008 34.8914 28.8136 31.5882 28.9584 30.7775C28.9704 30.7085 29.0182 30.6544 29.0801 30.6305C29.1117 30.6185 29.1462 30.6143 29.182 30.62C29.3761 30.6502 29.5631 30.6875 29.7438 30.7325V30.7332L29.7923 30.7824L30.0075 31.0003L30.2508 30.8801C32.0831 31.4974 33.1069 32.7764 33.3635 33.1329C33.4043 33.1899 33.4113 33.2637 33.3825 33.3277Z" fill="url(#paint28_linear_138_1579)"/>
<path d="M30.2507 30.88L30.0075 31.0003L29.7923 30.7823L29.7438 30.7331V30.7324C29.5631 30.6874 29.3761 30.6501 29.182 30.6199C29.1461 30.6143 29.1117 30.6185 29.08 30.6304C29.0182 30.6543 28.9703 30.7085 28.9584 30.7774C28.8135 31.5881 28.0007 34.8914 24.1054 37.3375C24.076 37.3556 24.0422 37.3656 24.0077 37.3665V40.3434H24.8184L29.7136 45.2379L32.5746 42.3768L32.3165 40.3434C32.3165 40.3434 31.9157 36.5332 33.3825 33.3276C33.4113 33.2636 33.4043 33.1898 33.3635 33.1329C33.1068 32.7764 32.0831 31.4974 30.2507 30.88Z" fill="url(#paint29_linear_138_1579)"/>
<path d="M26.9696 34.845C26.276 35.6908 25.3477 36.5581 24.1054 37.3381C24.0414 37.3782 23.9585 37.3782 23.8945 37.3381C22.6522 36.558 21.7239 35.6908 21.0303 34.845H15.1716C15.5499 36.1642 15.6854 37.4708 15.7214 38.4793L15.9084 38.2923L17.9608 40.344L20.6939 43.077L23.4269 40.344H24.8184L29.7136 45.2384L32.5746 42.3774L32.3165 40.344C32.3165 40.344 32.0303 37.6227 32.827 34.845H26.9696Z" fill="url(#paint30_linear_138_1579)"/>
<path d="M26.9696 34.845C26.276 35.6908 25.3477 36.5581 24.1054 37.3381C24.0414 37.3782 23.9585 37.3782 23.8945 37.3381C22.6522 36.558 21.7239 35.6908 21.0303 34.845H15.1716C15.5499 36.1642 15.6854 37.4708 15.7214 38.4793L15.9084 38.2923L17.9608 40.344L20.6939 43.077L23.4269 40.344H24.8184L29.7136 45.2384L32.5746 42.3774L32.3165 40.344C32.3165 40.344 32.0303 37.6227 32.827 34.845H26.9696Z" fill="url(#paint31_linear_138_1579)"/>
<path d="M24 38.426C19.542 35.6223 18.4868 31.9306 18.256 30.7328C18.0851 30.7748 17.916 30.8239 17.7491 30.88C18.0109 32.1881 19.147 36.0007 23.7329 38.8791C23.813 38.929 23.9055 38.9554 23.9999 38.9554C24.0943 38.9554 24.1868 38.929 24.2669 38.8791C28.8529 36.0007 29.989 32.1881 30.2508 30.88C30.0839 30.8239 29.9148 30.7748 29.7439 30.7328C29.5132 31.9305 28.458 35.6223 24 38.426Z" fill="url(#paint32_linear_138_1579)"/>
<path d="M31.7193 21.0463L30.6727 21.2786C26.2776 22.2538 21.7222 22.2538 17.3272 21.2786L16.2805 21.0463C16.0378 20.9925 15.8206 20.8574 15.665 20.6634C15.5093 20.4695 15.4245 20.2282 15.4245 19.9795V14.2039H32.5753V19.9795C32.5753 20.2282 32.4905 20.4695 32.3349 20.6634C32.1793 20.8574 31.9621 20.9925 31.7193 21.0463Z" fill="url(#paint33_linear_138_1579)"/>
<path d="M31.7193 21.0463L30.6727 21.2786C26.2776 22.2538 21.7222 22.2538 17.3272 21.2786L16.2805 21.0463C16.0378 20.9925 15.8206 20.8574 15.665 20.6634C15.5093 20.4695 15.4245 20.2282 15.4245 19.9795V14.2039H32.5753V19.9795C32.5753 20.2282 32.4905 20.4695 32.3349 20.6634C32.1793 20.8574 31.9621 20.9925 31.7193 21.0463Z" fill="url(#paint34_linear_138_1579)"/>
<path d="M31.7193 21.0463L30.6727 21.2786C26.2776 22.2538 21.7222 22.2538 17.3272 21.2786L16.2805 21.0463C16.0378 20.9925 15.8206 20.8574 15.665 20.6634C15.5093 20.4695 15.4245 20.2282 15.4245 19.9795V14.2039H32.5753V19.9795C32.5753 20.2282 32.4905 20.4695 32.3349 20.6634C32.1793 20.8574 31.9621 20.9925 31.7193 21.0463Z" fill="url(#paint35_linear_138_1579)"/>
<path d="M24.5484 14.2039H16.7525V21.1511L17.3273 21.2786C19.6973 21.8043 22.1211 22.048 24.5484 22.0045V14.2039Z" fill="url(#paint36_linear_138_1579)"/>
<path d="M24 22.01C26.2376 22.01 28.4752 21.7662 30.6727 21.2786L31.7194 21.0463C31.9622 20.9925 32.1793 20.8574 32.335 20.6634C32.4906 20.4695 32.5755 20.2282 32.5755 19.9795V14.2039H24V22.01Z" fill="url(#paint37_linear_138_1579)"/>
<path d="M22.3744 12.1541L12.5665 14.0306C12.0081 14.1374 12.0081 14.9369 12.5665 15.0438L22.3744 16.9203C23.4484 17.1257 24.5515 17.1257 25.6255 16.9203L35.4334 15.0438C35.9919 14.9369 35.9919 14.1374 35.4334 14.0306L25.6255 12.1541C24.5516 11.9486 23.4484 11.9486 22.3744 12.1541Z" fill="url(#paint38_linear_138_1579)"/>
<path d="M22.3744 12.1541L12.5665 14.0306C12.0081 14.1374 12.0081 14.9369 12.5665 15.0438L22.3744 16.9203C23.4484 17.1257 24.5515 17.1257 25.6255 16.9203L35.4334 15.0438C35.9919 14.9369 35.9919 14.1374 35.4334 14.0306L25.6255 12.1541C24.5516 11.9486 23.4484 11.9486 22.3744 12.1541Z" fill="url(#paint39_linear_138_1579)"/>
<path d="M25.6255 12.1542L35.4334 14.0307C35.9919 14.1375 35.9919 14.937 35.4334 15.0439L25.6255 16.9204C24.5516 17.1258 23.4484 17.1258 22.3745 16.9204L12.5665 15.0438C12.0081 14.9369 12.0081 14.1375 12.5665 14.0306L22.3744 12.1541C23.4484 11.9486 24.5516 11.9486 25.6255 12.1542Z" fill="url(#paint40_linear_138_1579)"/>
<path d="M23.8583 13.9589L16.5052 15.7276L16.5169 15.7992L22.3745 16.9199C23.4484 17.1253 24.5516 17.1253 25.6255 16.9199L26.6275 16.7281L23.8583 13.9589Z" fill="url(#paint41_linear_138_1579)"/>
<path d="M16.6417 21.6656C16.5853 21.6656 16.5295 21.6545 16.4773 21.6329C16.4252 21.6113 16.3779 21.5796 16.338 21.5397C16.2981 21.4998 16.2664 21.4525 16.2448 21.4004C16.2232 21.3482 16.2121 21.2924 16.2121 21.236V16.6933C16.2121 15.8594 16.8044 15.1432 17.6234 14.9864L23.4974 13.8626C23.6089 13.8422 23.7239 13.8666 23.8175 13.9307C23.911 13.9947 23.9755 14.0931 23.9968 14.2045C24.0181 14.3158 23.9945 14.4311 23.9312 14.5251C23.8679 14.6192 23.77 14.6844 23.6588 14.7065L17.7849 15.8303C17.5842 15.8687 17.4031 15.9759 17.2729 16.1334C17.1426 16.2909 17.0714 16.4889 17.0714 16.6933V21.2359C17.0714 21.2923 17.0603 21.3482 17.0387 21.4003C17.0171 21.4524 16.9854 21.4998 16.9455 21.5397C16.9057 21.5796 16.8583 21.6113 16.8062 21.6329C16.754 21.6545 16.6982 21.6656 16.6417 21.6656Z" fill="url(#paint42_linear_138_1579)"/>
<path d="M16.6417 22.7227C17.226 22.7227 17.6997 22.249 17.6997 21.6647C17.6997 21.0804 17.226 20.6067 16.6417 20.6067C16.0574 20.6067 15.5837 21.0804 15.5837 21.6647C15.5837 22.249 16.0574 22.7227 16.6417 22.7227Z" fill="url(#paint43_linear_138_1579)"/>
<path d="M15.5837 21.6658C15.5837 22.2501 16.0574 22.7238 16.6417 22.7238C17.226 22.7238 17.6997 22.2501 17.6997 21.6658C17.6997 21.5392 17.6774 21.4179 17.6366 21.3054H15.6467C15.6049 21.421 15.5836 21.5429 15.5837 21.6658Z" fill="url(#paint44_linear_138_1579)"/>
<path d="M15.8936 22.4142C16.3067 22.8274 16.9767 22.8274 17.3898 22.4142C17.803 22.0011 17.803 21.3312 17.3898 20.918C17.303 20.831 17.2017 20.7599 17.0904 20.7078L15.6833 22.1149C15.7355 22.2261 15.8067 22.3274 15.8936 22.4142Z" fill="url(#paint45_linear_138_1579)"/>
<path d="M41.1588 33.6072L37.051 34.4485C36.5045 34.5605 36.3019 35.2353 36.6963 35.6297L37.6185 36.5519L29.9674 44.2031L25.4645 39.7002C24.6969 38.9325 23.4479 38.9327 22.6801 39.7002L20.8387 41.5417L17.3299 38.0329C16.958 37.661 16.4636 37.4562 15.9377 37.4562C15.4118 37.4562 14.9174 37.661 14.5456 38.0329L6.29452 46.2838C5.90183 46.6765 5.90183 47.3132 6.29452 47.7059C6.68722 48.0986 7.3239 48.0986 7.71659 47.7059L15.9377 39.4849L19.4465 42.9937C20.2141 43.7614 21.4632 43.7612 22.2309 42.9937L24.0723 41.1522L28.5752 45.6551C29.3428 46.4228 30.5918 46.4226 31.3596 45.6551L39.0407 37.974L39.9629 38.8962C40.3573 39.2907 41.0321 39.088 41.1441 38.5416L41.9854 34.4337C42.0862 33.9414 41.6511 33.5064 41.1588 33.6072Z" fill="url(#paint46_linear_138_1579)"/>
<path d="M39.0406 37.9736L39.9628 38.8957C40.3573 39.2902 41.0321 39.0876 41.144 38.5411L41.832 35.1823L39.0406 37.9736Z" fill="url(#paint47_linear_138_1579)"/>
<path d="M37.051 34.4475C36.5045 34.5595 36.3019 35.2343 36.6963 35.6287L37.6185 36.5509L40.4099 33.7595L37.051 34.4475Z" fill="url(#paint48_linear_138_1579)"/>
<circle cx="24.5" cy="24" r="23.5" stroke="#C5ECE7"/>
</g>
<defs>
<linearGradient id="paint0_linear_138_1579" x1="20.1181" y1="19.9353" x2="28.6698" y2="30.3288" gradientUnits="userSpaceOnUse">
<stop stop-color="#5A5A5A"/>
<stop offset="1" stop-color="#444444"/>
</linearGradient>
<linearGradient id="paint1_linear_138_1579" x1="24" y1="26.8717" x2="24" y2="30.3534" gradientUnits="userSpaceOnUse">
<stop stop-color="#433F43" stop-opacity="0"/>
<stop offset="0.344" stop-color="#403C40" stop-opacity="0.344"/>
<stop offset="0.622" stop-color="#363336" stop-opacity="0.622"/>
<stop offset="0.876" stop-color="#252425" stop-opacity="0.876"/>
<stop offset="1" stop-color="#1A1A1A"/>
</linearGradient>
<linearGradient id="paint2_linear_138_1579" x1="23.8258" y1="24.2639" x2="30.6928" y2="27.8226" gradientUnits="userSpaceOnUse">
<stop stop-color="#433F43" stop-opacity="0"/>
<stop offset="0.344" stop-color="#403C40" stop-opacity="0.344"/>
<stop offset="0.622" stop-color="#363336" stop-opacity="0.622"/>
<stop offset="0.876" stop-color="#252425" stop-opacity="0.876"/>
<stop offset="1" stop-color="#1A1A1A"/>
</linearGradient>
<linearGradient id="paint3_linear_138_1579" x1="21.8889" y1="31.3754" x2="25.1009" y2="42.7244" gradientUnits="userSpaceOnUse">
<stop stop-color="#F5FBFF"/>
<stop offset="1" stop-color="#91DCFA"/>
</linearGradient>
<linearGradient id="paint4_linear_138_1579" x1="32.1894" y1="34.75" x2="36.1878" y2="33.8829" gradientUnits="userSpaceOnUse">
<stop stop-color="#60B7FF" stop-opacity="0"/>
<stop offset="1" stop-color="#60B7FF"/>
</linearGradient>
<linearGradient id="paint5_linear_138_1579" x1="27.7579" y1="35.5175" x2="20.9031" y2="32.2371" gradientUnits="userSpaceOnUse">
<stop stop-color="#60B7FF" stop-opacity="0"/>
<stop offset="1" stop-color="#60B7FF"/>
</linearGradient>
<linearGradient id="paint6_linear_138_1579" x1="34.1352" y1="37.7922" x2="31.2778" y2="36.6679" gradientUnits="userSpaceOnUse">
<stop stop-color="#60B7FF" stop-opacity="0"/>
<stop offset="1" stop-color="#60B7FF"/>
</linearGradient>
<linearGradient id="paint7_linear_138_1579" x1="23.7341" y1="29.6609" x2="24.7991" y2="32.6721" gradientUnits="userSpaceOnUse">
<stop stop-color="#F89580"/>
<stop offset="1" stop-color="#C4573A"/>
</linearGradient>
<linearGradient id="paint8_linear_138_1579" x1="24" y1="32.0606" x2="24" y2="30.8121" gradientUnits="userSpaceOnUse">
<stop stop-color="#C4573A" stop-opacity="0"/>
<stop offset="1" stop-color="#883F2E"/>
</linearGradient>
<linearGradient id="paint9_linear_138_1579" x1="23.6853" y1="30.8271" x2="22.7122" y2="31.7819" gradientUnits="userSpaceOnUse">
<stop stop-color="#C4573A" stop-opacity="0"/>
<stop offset="1" stop-color="#883F2E"/>
</linearGradient>
<linearGradient id="paint10_linear_138_1579" x1="22.19" y1="31.4128" x2="19.95" y2="33.0653" gradientUnits="userSpaceOnUse">
<stop stop-color="#F5FBFF"/>
<stop offset="1" stop-color="#91DCFA"/>
</linearGradient>
<linearGradient id="paint11_linear_138_1579" x1="22.2715" y1="33.0006" x2="22.7" y2="33.8208" gradientUnits="userSpaceOnUse">
<stop stop-color="#60B7FF" stop-opacity="0"/>
<stop offset="1" stop-color="#60B7FF"/>
</linearGradient>
<linearGradient id="paint12_linear_138_1579" x1="25.7078" y1="31.3245" x2="27.7826" y2="32.9402" gradientUnits="userSpaceOnUse">
<stop stop-color="#F5FBFF"/>
<stop offset="1" stop-color="#91DCFA"/>
</linearGradient>
<linearGradient id="paint13_linear_138_1579" x1="25.6993" y1="33.0016" x2="25.3566" y2="33.7604" gradientUnits="userSpaceOnUse">
<stop stop-color="#60B7FF" stop-opacity="0"/>
<stop offset="1" stop-color="#60B7FF"/>
</linearGradient>
<linearGradient id="paint14_linear_138_1579" x1="24" y1="40.3024" x2="24" y2="42.6284" gradientUnits="userSpaceOnUse">
<stop stop-color="#60B7FF" stop-opacity="0"/>
<stop offset="1" stop-color="#60B7FF"/>
</linearGradient>
<linearGradient id="paint15_linear_138_1579" x1="14.7132" y1="36.9873" x2="15.5152" y2="38.2904" gradientUnits="userSpaceOnUse">
<stop stop-color="#60B7FF" stop-opacity="0"/>
<stop offset="1" stop-color="#60B7FF"/>
</linearGradient>
<linearGradient id="paint16_linear_138_1579" x1="16.5716" y1="22.7651" x2="18.3708" y2="24.5642" gradientUnits="userSpaceOnUse">
<stop stop-color="#F89580"/>
<stop offset="1" stop-color="#C4573A"/>
</linearGradient>
<linearGradient id="paint17_linear_138_1579" x1="29.1523" y1="22.4233" x2="31.6699" y2="24.9409" gradientUnits="userSpaceOnUse">
<stop stop-color="#F89580"/>
<stop offset="1" stop-color="#C4573A"/>
</linearGradient>
<linearGradient id="paint18_linear_138_1579" x1="23.5392" y1="22.6735" x2="29.5874" y2="28.7215" gradientUnits="userSpaceOnUse">
<stop stop-color="#F89580"/>
<stop offset="1" stop-color="#C4573A"/>
</linearGradient>
<linearGradient id="paint19_linear_138_1579" x1="26.9092" y1="23.1342" x2="30.762" y2="23.1342" gradientUnits="userSpaceOnUse">
<stop stop-color="#C4573A" stop-opacity="0"/>
<stop offset="1" stop-color="#883F2E"/>
</linearGradient>
<linearGradient id="paint20_linear_138_1579" x1="23.9999" y1="28.7161" x2="23.9999" y2="32.1157" gradientUnits="userSpaceOnUse">
<stop stop-color="#C4573A" stop-opacity="0"/>
<stop offset="1" stop-color="#883F2E"/>
</linearGradient>
<linearGradient id="paint21_linear_138_1579" x1="17.8074" y1="21.525" x2="22.4427" y2="24.7341" gradientUnits="userSpaceOnUse">
<stop stop-color="#5A5A5A"/>
<stop offset="1" stop-color="#444444"/>
</linearGradient>
<linearGradient id="paint22_linear_138_1579" x1="23.8149" y1="21.525" x2="28.4503" y2="24.7341" gradientUnits="userSpaceOnUse">
<stop stop-color="#5A5A5A"/>
<stop offset="1" stop-color="#444444"/>
</linearGradient>
<linearGradient id="paint23_linear_138_1579" x1="24" y1="25.0229" x2="24" y2="27.2716" gradientUnits="userSpaceOnUse">
<stop stop-color="#C4573A" stop-opacity="0"/>
<stop offset="0.234" stop-color="#BE5539" stop-opacity="0.234"/>
<stop offset="0.545" stop-color="#AD4E35" stop-opacity="0.545"/>
<stop offset="0.898" stop-color="#914330" stop-opacity="0.898"/>
<stop offset="1" stop-color="#883F2E"/>
</linearGradient>
<linearGradient id="paint24_linear_138_1579" x1="24.3881" y1="25.2915" x2="25.7149" y2="25.6143" gradientUnits="userSpaceOnUse">
<stop stop-color="#C4573A" stop-opacity="0"/>
<stop offset="0.234" stop-color="#BE5539" stop-opacity="0.234"/>
<stop offset="0.545" stop-color="#AD4E35" stop-opacity="0.545"/>
<stop offset="0.898" stop-color="#914330" stop-opacity="0.898"/>
<stop offset="1" stop-color="#883F2E"/>
</linearGradient>
<linearGradient id="paint25_linear_138_1579" x1="23.6119" y1="25.2915" x2="22.2851" y2="25.6143" gradientUnits="userSpaceOnUse">
<stop stop-color="#FFDDCD" stop-opacity="0"/>
<stop offset="0.997" stop-color="#FFDDCD"/>
</linearGradient>
<linearGradient id="paint26_linear_138_1579" x1="29.9073" y1="20.9704" x2="31.7113" y2="22.4191" gradientUnits="userSpaceOnUse">
<stop stop-color="#5A5A5A"/>
<stop offset="1" stop-color="#444444"/>
</linearGradient>
<linearGradient id="paint27_linear_138_1579" x1="18.8345" y1="20.4331" x2="19.8119" y2="22.3128" gradientUnits="userSpaceOnUse">
<stop stop-color="#5A5A5A"/>
<stop offset="1" stop-color="#444444"/>
</linearGradient>
<linearGradient id="paint28_linear_138_1579" x1="23.2582" y1="33.1553" x2="27.6191" y2="42.1448" gradientUnits="userSpaceOnUse">
<stop stop-color="#5A5A5A"/>
<stop offset="1" stop-color="#444444"/>
</linearGradient>
<linearGradient id="paint29_linear_138_1579" x1="29.1984" y1="37.9067" x2="32.6068" y2="38.2074" gradientUnits="userSpaceOnUse">
<stop stop-color="#433F43" stop-opacity="0"/>
<stop offset="0.344" stop-color="#403C40" stop-opacity="0.344"/>
<stop offset="0.622" stop-color="#363336" stop-opacity="0.622"/>
<stop offset="0.876" stop-color="#252425" stop-opacity="0.876"/>
<stop offset="1" stop-color="#1A1A1A"/>
</linearGradient>
<linearGradient id="paint30_linear_138_1579" x1="23.9993" y1="39.5037" x2="23.9993" y2="43.8633" gradientUnits="userSpaceOnUse">
<stop stop-color="#433F43" stop-opacity="0"/>
<stop offset="0.344" stop-color="#403C40" stop-opacity="0.344"/>
<stop offset="0.622" stop-color="#363336" stop-opacity="0.622"/>
<stop offset="0.876" stop-color="#252425" stop-opacity="0.876"/>
<stop offset="1" stop-color="#1A1A1A"/>
</linearGradient>
<linearGradient id="paint31_linear_138_1579" x1="23.4467" y1="39.3465" x2="21.993" y2="41.8527" gradientUnits="userSpaceOnUse">
<stop stop-color="#433F43" stop-opacity="0"/>
<stop offset="0.344" stop-color="#403C40" stop-opacity="0.344"/>
<stop offset="0.622" stop-color="#363336" stop-opacity="0.622"/>
<stop offset="0.876" stop-color="#252425" stop-opacity="0.876"/>
<stop offset="1" stop-color="#1A1A1A"/>
</linearGradient>
<linearGradient id="paint32_linear_138_1579" x1="24" y1="31.7184" x2="24" y2="38.0649" gradientUnits="userSpaceOnUse">
<stop stop-color="#F5FBFF"/>
<stop offset="1" stop-color="#91DCFA"/>
</linearGradient>
<linearGradient id="paint33_linear_138_1579" x1="19.7057" y1="14.4193" x2="27.9471" y2="20.0991" gradientUnits="userSpaceOnUse">
<stop stop-color="#5A5A5A"/>
<stop offset="1" stop-color="#444444"/>
</linearGradient>
<linearGradient id="paint34_linear_138_1579" x1="23.9999" y1="17.8233" x2="23.9999" y2="21.8342" gradientUnits="userSpaceOnUse">
<stop stop-color="#433F43" stop-opacity="0"/>
<stop offset="0.344" stop-color="#403C40" stop-opacity="0.344"/>
<stop offset="0.622" stop-color="#363336" stop-opacity="0.622"/>
<stop offset="0.876" stop-color="#252425" stop-opacity="0.876"/>
<stop offset="1" stop-color="#1A1A1A"/>
</linearGradient>
<linearGradient id="paint35_linear_138_1579" x1="23.9999" y1="20.0507" x2="23.9999" y2="15.4846" gradientUnits="userSpaceOnUse">
<stop stop-color="#433F43" stop-opacity="0"/>
<stop offset="0.344" stop-color="#403C40" stop-opacity="0.344"/>
<stop offset="0.622" stop-color="#363336" stop-opacity="0.622"/>
<stop offset="0.876" stop-color="#252425" stop-opacity="0.876"/>
<stop offset="1" stop-color="#1A1A1A"/>
</linearGradient>
<linearGradient id="paint36_linear_138_1579" x1="20.1678" y1="18.1066" x2="17.0857" y2="18.1066" gradientUnits="userSpaceOnUse">
<stop stop-color="#433F43" stop-opacity="0"/>
<stop offset="0.344" stop-color="#403C40" stop-opacity="0.344"/>
<stop offset="0.622" stop-color="#363336" stop-opacity="0.622"/>
<stop offset="0.876" stop-color="#252425" stop-opacity="0.876"/>
<stop offset="1" stop-color="#1A1A1A"/>
</linearGradient>
<linearGradient id="paint37_linear_138_1579" x1="27.9451" y1="18.1069" x2="32.458" y2="18.1069" gradientUnits="userSpaceOnUse">
<stop stop-color="#433F43" stop-opacity="0"/>
<stop offset="0.344" stop-color="#403C40" stop-opacity="0.344"/>
<stop offset="0.622" stop-color="#363336" stop-opacity="0.622"/>
<stop offset="0.876" stop-color="#252425" stop-opacity="0.876"/>
<stop offset="1" stop-color="#1A1A1A"/>
</linearGradient>
<linearGradient id="paint38_linear_138_1579" x1="23.7673" y1="11.6987" x2="24.1559" y2="16.4386" gradientUnits="userSpaceOnUse">
<stop stop-color="#5A5A5A"/>
<stop offset="1" stop-color="#444444"/>
</linearGradient>
<linearGradient id="paint39_linear_138_1579" x1="24.2283" y1="15.7643" x2="24.4355" y2="16.8779" gradientUnits="userSpaceOnUse">
<stop stop-color="#433F43" stop-opacity="0"/>
<stop offset="0.344" stop-color="#403C40" stop-opacity="0.344"/>
<stop offset="0.622" stop-color="#363336" stop-opacity="0.622"/>
<stop offset="0.876" stop-color="#252425" stop-opacity="0.876"/>
<stop offset="1" stop-color="#1A1A1A"/>
</linearGradient>
<linearGradient id="paint40_linear_138_1579" x1="23.7717" y1="15.7643" x2="23.5645" y2="16.878" gradientUnits="userSpaceOnUse">
<stop stop-color="#433F43" stop-opacity="0"/>
<stop offset="0.344" stop-color="#403C40" stop-opacity="0.344"/>
<stop offset="0.622" stop-color="#363336" stop-opacity="0.622"/>
<stop offset="0.876" stop-color="#252425" stop-opacity="0.876"/>
<stop offset="1" stop-color="#1A1A1A"/>
</linearGradient>
<linearGradient id="paint41_linear_138_1579" x1="21.8774" y1="17.4417" x2="21.2788" y2="15.1308" gradientUnits="userSpaceOnUse">
<stop stop-color="#433F43" stop-opacity="0"/>
<stop offset="0.344" stop-color="#403C40" stop-opacity="0.344"/>
<stop offset="0.622" stop-color="#363336" stop-opacity="0.622"/>
<stop offset="0.876" stop-color="#252425" stop-opacity="0.876"/>
<stop offset="1" stop-color="#1A1A1A"/>
</linearGradient>
<linearGradient id="paint42_linear_138_1579" x1="17.0655" y1="14.8993" x2="20.1468" y2="17.7949" gradientUnits="userSpaceOnUse">
<stop stop-color="#FEF0AE"/>
<stop offset="1" stop-color="#FAC600"/>
</linearGradient>
<linearGradient id="paint43_linear_138_1579" x1="16.2344" y1="21.2574" x2="17.0358" y2="22.0588" gradientUnits="userSpaceOnUse">
<stop stop-color="#FEF0AE"/>
<stop offset="1" stop-color="#FAC600"/>
</linearGradient>
<linearGradient id="paint44_linear_138_1579" x1="16.6417" y1="21.6112" x2="16.6417" y2="22.7648" gradientUnits="userSpaceOnUse">
<stop stop-color="#FE9738" stop-opacity="0"/>
<stop offset="1" stop-color="#FE9738"/>
</linearGradient>
<linearGradient id="paint45_linear_138_1579" x1="16.5731" y1="21.6069" x2="17.4946" y2="22.4018" gradientUnits="userSpaceOnUse">
<stop stop-color="#FE9738" stop-opacity="0"/>
<stop offset="1" stop-color="#FE9738"/>
</linearGradient>
<linearGradient id="paint46_linear_138_1579" x1="23.1809" y1="37.7584" x2="25.8476" y2="47.2207" gradientUnits="userSpaceOnUse">
<stop stop-color="#BBEC6C"/>
<stop offset="0.197" stop-color="#B5E665"/>
<stop offset="0.48" stop-color="#A5D552"/>
<stop offset="0.812" stop-color="#8ABB33"/>
<stop offset="1" stop-color="#78A91F"/>
</linearGradient>
<linearGradient id="paint47_linear_138_1579" x1="40.2463" y1="38.1861" x2="39.6466" y2="38.7858" gradientUnits="userSpaceOnUse">
<stop stop-color="#334C0F" stop-opacity="0"/>
<stop offset="0.32" stop-color="#344C12" stop-opacity="0.32"/>
<stop offset="0.565" stop-color="#374A1C" stop-opacity="0.565"/>
<stop offset="0.786" stop-color="#3C482C" stop-opacity="0.786"/>
<stop offset="0.991" stop-color="#444443" stop-opacity="0.991"/>
<stop offset="1" stop-color="#444444"/>
</linearGradient>
<linearGradient id="paint48_linear_138_1579" x1="37.406" y1="35.3453" x2="36.8064" y2="35.9449" gradientUnits="userSpaceOnUse">
<stop stop-color="#334C0F" stop-opacity="0"/>
<stop offset="0.32" stop-color="#344C12" stop-opacity="0.32"/>
<stop offset="0.565" stop-color="#374A1C" stop-opacity="0.565"/>
<stop offset="0.786" stop-color="#3C482C" stop-opacity="0.786"/>
<stop offset="0.991" stop-color="#444443" stop-opacity="0.991"/>
<stop offset="1" stop-color="#444444"/>
</linearGradient>
</defs>
</svg>
