<svg width="49" height="48" viewBox="0 0 49 48" fill="none" xmlns="http://www.w3.org/2000/svg">
<circle cx="24.1667" cy="24" r="24" fill="#CFF6F1"/>
<mask id="mask0_138_1681" style="mask-type:alpha" maskUnits="userSpaceOnUse" x="0" y="0" width="49" height="48">
<circle cx="24.1667" cy="24" r="24" fill="#CFF6F1"/>
</mask>
<g mask="url(#mask0_138_1681)">
<path d="M39.6498 24.2007C40.4818 23.4015 40.9999 22.2783 40.9999 21.0334C40.9999 18.3809 38.6989 16.4226 36.2074 16.6556C35.7064 16.7024 35.2613 16.3314 35.2398 15.8287C35.1419 13.5372 33.249 11.6301 30.849 11.6301C29.571 11.6301 28.4208 12.176 27.6182 13.0472C27.5357 13.1372 27.4355 13.2091 27.3238 13.2583C27.212 13.3075 27.0913 13.3329 26.9693 13.3329C26.8472 13.3329 26.7265 13.3075 26.6147 13.2583C26.503 13.2091 26.4028 13.1372 26.3204 13.0472C25.5177 12.176 24.3675 11.6301 23.0895 11.6301C20.6808 11.6301 18.7876 13.5494 18.6981 15.8443C18.678 16.3589 18.2197 16.7341 17.7087 16.6698C15.1774 16.3512 12.7782 18.3213 12.7782 21.0334C12.7782 22.2782 13.2963 23.4015 14.1283 24.2007C14.4877 24.5459 14.4877 25.1193 14.1283 25.4645C13.2963 26.2637 12.7782 27.387 12.7782 28.6317C12.7782 31.3479 15.18 33.3138 17.7097 32.9951C18.2201 32.9308 18.6781 33.3056 18.698 33.8196C18.7869 36.116 20.6819 38.035 23.0895 38.035C24.3675 38.035 25.5177 37.4891 26.3204 36.618C26.4029 36.528 26.5031 36.4561 26.6148 36.4069C26.7265 36.3577 26.8473 36.3323 26.9693 36.3323C27.0914 36.3323 27.2121 36.3577 27.3238 36.4069C27.4355 36.4561 27.5358 36.528 27.6182 36.618C28.4208 37.4892 29.5711 38.035 30.8491 38.035C33.2484 38.035 35.142 36.1287 35.2399 33.8364C35.2614 33.3338 35.7065 32.9627 36.2075 33.0096C38.6999 33.2428 41 31.283 41 28.6317C41 27.3869 40.4819 26.2636 39.6499 25.4644C39.2904 25.1193 39.2904 24.5459 39.6498 24.2007ZM19.8027 40.9129C19.3776 39.2456 17.6813 38.2385 16.0139 38.6636C14.3465 39.0887 13.3395 40.7851 13.7646 42.4524C14.1897 44.1198 15.886 45.1268 17.5534 44.7017C19.2207 44.2766 20.2278 42.5803 19.8027 40.9129ZM10.5033 44.4394C9.43511 44.7117 8.79001 45.7984 9.06233 46.8666C9.33465 47.9348 10.4213 48.5799 11.4895 48.3076C12.5577 48.0352 13.2029 46.9485 12.9305 45.8804C12.6581 44.8122 11.5714 44.1671 10.5033 44.4394Z" fill="#8479C2"/>
<path d="M33.4285 17.456C33.5979 17.2909 33.5044 17.0033 33.2704 16.9693L32.0844 16.797C32.0387 16.7904 31.9952 16.7727 31.9578 16.7455C31.9204 16.7183 31.8901 16.6824 31.8697 16.641L31.3392 15.5663C31.2345 15.3542 30.9322 15.3542 30.8275 15.5663L30.2972 16.641C30.2767 16.6824 30.2464 16.7183 30.209 16.7455C30.1716 16.7727 30.1281 16.7904 30.0823 16.797L28.8964 16.9693C28.6624 17.0033 28.5689 17.2909 28.7382 17.456L29.5964 18.2925C29.6296 18.3248 29.6544 18.3647 29.6686 18.4087C29.6829 18.4527 29.6863 18.4995 29.6785 18.5451L29.4759 19.7263C29.4359 19.9593 29.6805 20.1371 29.8899 20.0271L30.9506 19.4694C30.9915 19.4478 31.0371 19.4366 31.0834 19.4366C31.1296 19.4366 31.1752 19.4478 31.2162 19.4694L32.2769 20.027C32.4863 20.137 32.7309 19.9593 32.6909 19.7263L32.4884 18.5451C32.4806 18.4995 32.484 18.4526 32.4983 18.4086C32.5126 18.3646 32.5374 18.3248 32.5705 18.2925L33.4285 17.456Z" fill="#FFE181"/>
<path d="M36.2082 21.5531L35.7841 21.4914C35.7275 21.4832 35.6738 21.4613 35.6275 21.4277C35.5813 21.3941 35.5439 21.3498 35.5186 21.2985L35.3289 20.9143C35.1996 20.6522 34.8259 20.6522 34.6965 20.9143L34.5069 21.2985C34.4816 21.3498 34.4442 21.3941 34.3979 21.4277C34.3517 21.4614 34.298 21.4832 34.2414 21.4914L33.8173 21.5531C33.528 21.5951 33.4126 21.9505 33.6218 22.1545L33.9287 22.4537C33.9696 22.4936 34.0002 22.5428 34.0179 22.5972C34.0355 22.6516 34.0397 22.7094 34.0301 22.7658L33.9576 23.1881C33.9081 23.4762 34.2105 23.6958 34.4692 23.5598L34.8485 23.3604C34.8991 23.3338 34.9554 23.3199 35.0126 23.3199C35.0698 23.3199 35.1261 23.3338 35.1767 23.3604L35.556 23.5598C35.8147 23.6958 36.117 23.4762 36.0677 23.1881L35.9953 22.7658C35.9856 22.7094 35.9898 22.6516 36.0075 22.5972C36.0251 22.5428 36.0557 22.4936 36.0967 22.4537L36.4035 22.1545C36.6129 21.9505 36.4974 21.5951 36.2082 21.5531ZM31.0288 18.5451C31.0366 18.4995 31.0332 18.4527 31.019 18.4087C31.0047 18.3647 30.9799 18.3248 30.9468 18.2925L30.0886 17.456C29.9192 17.2909 30.0127 17.0033 30.2467 16.9693L31.4326 16.797C31.4784 16.7904 31.5219 16.7727 31.5593 16.7455C31.5968 16.7183 31.627 16.6824 31.6475 16.641L31.7586 16.4159L31.3392 15.5663C31.2346 15.3542 30.9322 15.3542 30.8275 15.5663L30.2971 16.641C30.2766 16.6824 30.2464 16.7183 30.2089 16.7455C30.1715 16.7727 30.128 16.7904 30.0822 16.797L28.8964 16.9693C28.6624 17.0033 28.5689 17.2909 28.7382 17.456L29.5964 18.2925C29.6296 18.3248 29.6544 18.3647 29.6686 18.4087C29.6829 18.4527 29.6863 18.4995 29.6785 18.5451L29.4759 19.7263C29.4359 19.9593 29.6805 20.1371 29.8899 20.0271L30.8623 19.5158L31.0288 18.5451Z" fill="#FEC458"/>
<path d="M34.8078 23.1886L34.8803 22.7662C34.89 22.7098 34.8858 22.652 34.8681 22.5976C34.8505 22.5432 34.8199 22.494 34.7789 22.4541L34.4721 22.155C34.2628 21.951 34.3783 21.5955 34.6676 21.5535L35.0916 21.4919C35.1482 21.4836 35.2019 21.4618 35.2482 21.4282C35.2944 21.3946 35.3318 21.3502 35.3571 21.299L35.4379 21.1353L35.3291 20.9147C35.1998 20.6527 34.8261 20.6527 34.6967 20.9147L34.507 21.299C34.4817 21.3502 34.4443 21.3946 34.3981 21.4282C34.3518 21.4618 34.2981 21.4836 34.2415 21.4919L33.8174 21.5535C33.5282 21.5955 33.4127 21.951 33.622 22.155L33.9288 22.4541C33.9698 22.494 34.0004 22.5432 34.018 22.5976C34.0357 22.652 34.0399 22.7098 34.0302 22.7662L33.9577 23.1886C33.9083 23.4766 34.2107 23.6962 34.4694 23.5603L34.8256 23.373C34.8031 23.3142 34.797 23.2505 34.8078 23.1886Z" fill="#FFB640"/>
<path d="M31.9372 24.6391C30.3528 24.9515 28.6467 24.4939 27.4191 23.2662C26.1914 22.0385 25.7338 20.3324 26.0461 18.7479C26.1177 18.3847 25.7179 18.1174 25.4101 18.3231C25.1312 18.5095 24.8717 18.7234 24.6354 18.9615C23.0253 20.5817 22.7547 23.057 23.8308 24.9642L24.0134 25.1966L29.4344 27.3527L29.7786 27.2486C30.5161 27.0032 31.1861 26.5888 31.7352 26.0386C31.9687 25.8053 32.1787 25.5496 32.3621 25.2753C32.5678 24.9674 32.3004 24.5675 31.9372 24.6391Z" fill="#FEC458"/>
<path d="M32.2552 24.7051C32.1693 24.6444 32.0589 24.6147 31.9372 24.6387C31.9172 24.6426 31.8972 24.6459 31.8772 24.6496C32.0026 24.6727 32.1287 24.6915 32.2552 24.7051ZM23.9692 25.1399H25.7974L25.659 24.9637C24.7088 23.2797 24.8094 21.1531 25.9541 19.5629C25.9627 19.2895 25.993 19.0167 26.0461 18.7475C26.1177 18.3842 25.7179 18.1169 25.4101 18.3227C25.1312 18.5091 24.8717 18.7229 24.6354 18.961C23.0253 20.5812 22.7547 23.0565 23.8308 24.9637L23.9692 25.1399Z" fill="#FFB640"/>
<path d="M22.5491 33.8197C22.5293 33.3057 22.0712 32.9308 21.5609 32.9952C19.0312 33.3139 16.6294 31.348 16.6294 28.6318C16.6294 27.387 17.1475 26.2637 17.9795 25.4646C18.3388 25.1194 18.3388 24.5459 17.9795 24.2008C17.1475 23.4016 16.6294 22.2783 16.6294 21.0335C16.6294 18.3213 19.0286 16.3513 21.5599 16.6699C22.0708 16.7342 22.5291 16.3589 22.5492 15.8444C22.6129 14.2126 23.589 12.7715 25.0134 12.0744C24.4144 11.7815 23.7563 11.6295 23.0895 11.6301C20.6808 11.6301 18.7876 13.5494 18.6981 15.8443C18.678 16.3588 18.2197 16.7341 17.7087 16.6698C15.1774 16.3512 12.7782 18.3213 12.7782 21.0334C12.7782 22.2783 13.2963 23.4015 14.1283 24.2007C14.4877 24.5459 14.4877 25.1194 14.1283 25.4645C13.2963 26.2637 12.7782 27.387 12.7782 28.6317C12.7782 31.3479 15.18 33.3138 17.7097 32.9951C18.2201 32.9308 18.6781 33.3056 18.698 33.8196C18.7869 36.116 20.6819 38.035 23.0895 38.035C23.7564 38.0356 24.4146 37.8837 25.0136 37.5907C23.5891 36.8937 22.6124 35.4525 22.5491 33.8197ZM16.8766 42.4524C16.5236 41.0677 17.1588 39.6638 18.3391 38.9839C17.6599 38.5924 16.8335 38.4546 16.0139 38.6636C14.3465 39.0887 13.3395 40.785 13.7646 42.4524C14.1897 44.1197 15.886 45.1268 17.5534 44.7017C17.829 44.6313 18.0938 44.5236 18.3402 44.3814C17.6378 43.9766 17.0927 43.3001 16.8766 42.4524ZM11.0655 46.8666C10.8398 45.9814 11.2446 45.0839 11.9977 44.6473C11.5617 44.3944 11.0303 44.3051 10.5033 44.4394C9.43511 44.7118 8.79001 45.7984 9.06233 46.8666C9.33465 47.9348 10.4213 48.5799 11.4895 48.3076C11.6725 48.2609 11.8426 48.1899 11.9983 48.0997C11.5506 47.8399 11.2034 47.4077 11.0655 46.8666Z" fill="#6E60B8"/>
<path d="M31.8641 29.3879C31.7347 28.5924 31.1346 27.9954 30.4011 27.8421C30.2156 27.8034 30.0571 27.6833 29.9643 27.5156C29.685 27.0112 29.1523 26.6903 28.5733 26.6941C28.3208 26.6958 28.0912 26.5546 27.9755 26.3265C27.4625 25.3153 26.4253 24.6236 25.2283 24.6236C24.0313 24.6236 22.9941 25.3153 22.4811 26.3265C22.3654 26.5546 22.1358 26.6958 21.8832 26.6941C21.3044 26.6903 20.7717 27.0111 20.4923 27.5156C20.3995 27.6833 20.241 27.8033 20.0556 27.8421C19.3221 27.9954 18.722 28.5925 18.5926 29.3879C18.4248 30.4194 19.1118 31.3937 20.1271 31.5642H30.3293C31.3448 31.3937 32.0319 30.4193 31.8641 29.3879Z" fill="#EFECEF"/>
<path d="M22.0161 29.4619C22.1456 28.6664 22.7456 28.0694 23.4791 27.9161C23.6646 27.8773 23.8231 27.7573 23.9159 27.5896C24.1952 27.0851 24.7279 26.7643 25.3067 26.768C25.5592 26.7697 25.7889 26.6285 25.9045 26.4004C26.1546 25.9074 26.5306 25.4893 26.9943 25.1884C26.4937 24.833 25.8855 24.6236 25.2284 24.6236C24.0315 24.6236 22.9941 25.3153 22.4811 26.3265C22.3655 26.5546 22.1358 26.6958 21.8833 26.6941C21.3045 26.6903 20.7717 27.0111 20.4925 27.5157C20.3996 27.6834 20.2412 27.8034 20.0557 27.8422C19.3222 27.9956 18.7221 28.5925 18.5927 29.388C18.4248 30.4194 19.1119 31.3938 20.1272 31.5643H23.2591C22.4078 31.2738 21.865 30.3911 22.0161 29.4619Z" fill="#E2DFE2"/>
<circle cx="24.1667" cy="24" r="23.5" stroke="#C5ECE7"/>
</g>
</svg>
