<svg width="100" height="100" viewBox="0 0 100 100" fill="none" xmlns="http://www.w3.org/2000/svg">
<g clip-path="url(#clip0_138_1302)">
<circle opacity="0.2" cx="50" cy="50" r="42" fill="#D2965F"/>
<g filter="url(#filter0_f_138_1302)">
<ellipse cx="50" cy="79" rx="16" ry="4" fill="#603813"/>
</g>
<g opacity="0.3" filter="url(#filter1_f_138_1302)">
<ellipse cx="50" cy="64.5691" rx="27.383" ry="10.7074" fill="#3B9B08"/>
</g>
<path d="M50.4283 80.4406C68.1018 80.4406 82.429 66.3646 82.429 49.0011C82.429 31.6375 68.1018 17.5615 50.4283 17.5615C32.7549 17.5615 18.4277 31.6375 18.4277 49.0011C18.4277 66.3646 32.7549 80.4406 50.4283 80.4406Z" fill="#C88C55"/>
<path d="M50.4283 17.5615C42.2646 17.5527 34.4085 20.6211 28.4791 26.1343C25.3361 29.8137 23.1417 34.183 22.0819 38.8722C21.0221 43.5615 21.128 48.4326 22.3906 53.0731C23.6533 57.7136 26.0355 61.9869 29.3356 65.5311C32.6356 69.0753 36.7564 71.786 41.3489 73.4338C45.9414 75.0815 50.8705 75.6178 55.7187 74.9971C60.5669 74.3765 65.1915 72.6172 69.2009 69.8683C73.2103 67.1193 76.4864 63.4617 78.7519 59.205C81.0174 54.9483 82.2055 50.218 82.2156 45.4145C81.3196 37.7484 77.5853 30.6737 71.7237 25.5376C65.862 20.4015 58.2825 17.5626 50.4283 17.5615Z" fill="#D2965F"/>
<path opacity="0.7" d="M60.4671 22.3797C43.8314 17.2722 29.9024 26.0073 34.4153 35.278C38.9282 44.5486 64.3646 49.7885 72.9801 43.944C79.8348 39.294 73.5955 26.4104 60.4671 22.3797Z" fill="url(#paint0_linear_138_1302)"/>
<path d="M61.8198 67.1362C61.2731 62.2155 57.8435 57.0463 51.3323 57.0463C44.821 57.0463 41.3915 62.2155 40.8447 67.1362" stroke="#603813" stroke-width="1.5" stroke-miterlimit="10" stroke-linecap="round" stroke-linejoin="round"/>
<path d="M32.1817 46.5473C32.4562 50.9877 36.1229 52.2595 40.5332 51.9869C44.9427 51.7143 48.4257 50.0006 48.1513 45.5602C48.086 44.5043 47.8149 43.4716 47.3533 42.5209C46.8917 41.5702 46.2488 40.7202 45.4612 40.0195C44.6736 39.3187 43.7567 38.7809 42.763 38.4367C41.7693 38.0925 40.7181 37.9488 39.6695 38.0136C38.621 38.0784 37.5955 38.3505 36.6517 38.8145C35.7079 39.2784 34.8643 39.925 34.169 40.7175C33.4737 41.5099 32.9404 42.4326 32.5994 43.4329C32.2584 44.4331 32.1165 45.4914 32.1817 46.5473Z" fill="url(#paint1_linear_138_1302)"/>
<g opacity="0.5" filter="url(#filter2_f_138_1302)">
<path d="M41.0452 45.792C41.8513 45.7957 42.632 45.9875 43.2613 46.3364C43.8905 46.6853 44.3315 47.1708 44.513 47.7146L42.1445 48.309L44.5361 48.84C44.3816 49.293 44.0459 49.7068 43.5675 50.0339C43.0891 50.361 42.4873 50.5882 41.831 50.6895C41.1747 50.7908 40.4905 50.762 39.8568 50.6065C39.223 50.451 38.6653 50.1751 38.2475 49.8104C37.8298 49.4456 37.5688 49.0067 37.4946 48.5441C37.4203 48.0814 37.5358 47.6136 37.8278 47.1942C38.1197 46.7749 38.5764 46.4209 39.1454 46.1729C39.7144 45.9249 40.3729 45.7929 41.0452 45.792Z" fill="url(#paint2_linear_138_1302)"/>
</g>
<path d="M40.1236 40.4243C41.2187 40.4315 42.2794 40.8013 43.1342 41.4738C43.9891 42.1463 44.5882 43.0824 44.8348 44.1307L41.617 45.2766L44.8662 46.3001C44.6563 47.1736 44.2002 47.9712 43.5503 48.6018C42.9003 49.2324 42.0827 49.6704 41.1911 49.8656C40.2995 50.0609 39.37 50.0054 38.509 49.7057C37.648 49.406 36.8903 48.874 36.3228 48.1709C35.7552 47.4677 35.4007 46.6217 35.2998 45.7297C35.199 44.8377 35.3558 43.9359 35.7525 43.1275C36.1491 42.3191 36.7695 41.6367 37.5426 41.1587C38.3156 40.6806 39.2101 40.4261 40.1236 40.4243Z" fill="url(#paint3_linear_138_1302)"/>
<path d="M40.1756 34.0895C39.9156 34.0895 39.6661 34.1923 39.4815 34.3755L36.1749 37.6575C35.4936 38.3338 34.7034 38.8906 33.8374 39.3047L29.5086 41.3747C29.1796 41.532 28.9702 41.8643 28.9702 42.2289L28.9702 42.2764C28.9702 42.6405 29.1949 42.9668 29.535 43.0967L-nan -nanL29.535 43.0967C29.7663 43.185 30.0241 43.1715 30.245 43.0597L35.1306 40.585C35.9908 40.1493 36.7815 39.5881 37.4766 38.9198L40.8692 35.6584C41.0884 35.4476 41.1881 35.1414 41.135 34.8419L-nan -nanL41.135 34.8419C41.0578 34.4066 40.6794 34.0894 40.2373 34.0895L40.1756 34.0895Z" fill="#603813"/>
<g filter="url(#filter3_d_138_1302)">
<path d="M35.0389 42.1373C35.0389 42.5072 35.1486 42.8688 35.3541 43.1763C35.5596 43.4839 35.8517 43.7236 36.1934 43.8651C36.5351 44.0067 36.9112 44.0437 37.274 43.9715C37.6367 43.8994 37.97 43.7213 38.2315 43.4597C38.4931 43.1982 38.6712 42.8649 38.7434 42.5021C38.8155 42.1394 38.7785 41.7633 38.6369 41.4216C38.4954 41.0798 38.2557 40.7878 37.9481 40.5823C37.6406 40.3768 37.279 40.2671 36.9091 40.2671C36.4131 40.2671 35.9374 40.4641 35.5867 40.8149C35.2359 41.1656 35.0389 41.6413 35.0389 42.1373Z" fill="url(#paint4_linear_138_1302)" fill-opacity="0.4" shape-rendering="crispEdges"/>
</g>
<path d="M71.0984 43C71.0193 43 70.9407 42.9892 70.8644 42.968C70.6517 42.9091 65.5934 41.4611 60.2437 35.5672C60.0801 35.3869 59.9926 35.1471 60.0005 34.9003C60.0084 34.6536 60.1109 34.4201 60.2856 34.2514C60.4603 34.0826 60.6928 33.9924 60.932 34.0005C61.1712 34.0086 61.3974 34.1144 61.561 34.2946C66.5619 39.8045 71.2839 41.1565 71.331 41.1698C71.5425 41.2282 71.7261 41.3639 71.8478 41.5516C71.9694 41.7393 72.0208 41.9663 71.9923 42.1901C71.9639 42.414 71.8575 42.6196 71.6931 42.7686C71.5286 42.9176 71.3172 42.9998 71.0984 43Z" fill="#603813"/>
<path d="M68.9198 46.5087C68.6453 50.9492 64.9787 52.2209 60.5683 51.9483C56.1589 51.6758 52.6758 49.9621 52.9503 45.5216C53.0156 44.4657 53.2867 43.433 53.7483 42.4823C54.2098 41.5317 54.8528 40.6817 55.6404 39.9809C56.428 39.2801 57.3448 38.7423 58.3386 38.3981C59.3323 38.054 60.3835 37.9102 61.432 37.975C62.4806 38.0398 63.5061 38.3119 64.4498 38.7759C65.3936 39.2398 66.2372 39.8865 66.9325 40.6789C67.6279 41.4713 68.1612 42.394 68.5022 43.3943C68.8432 44.3946 68.9851 45.4528 68.9198 46.5087Z" fill="url(#paint5_linear_138_1302)"/>
<path d="M60.978 40.3857C59.8829 40.393 58.8222 40.7627 57.9673 41.4352C57.1125 42.1078 56.5134 43.0438 56.2668 44.0921L59.4845 45.238L56.2354 46.2616C56.4453 47.135 56.9013 47.9327 57.5513 48.5633C58.2012 49.1938 59.0188 49.6318 59.9104 49.8271C60.802 50.0223 61.7315 49.9669 62.5925 49.6671C63.4536 49.3674 64.2112 48.8355 64.7788 48.1323C65.3464 47.4291 65.7009 46.5831 65.8017 45.6911C65.9026 44.7992 65.7457 43.8973 65.3491 43.0889C64.9524 42.2805 64.332 41.5982 63.559 41.1201C62.7859 40.642 61.8914 40.3875 60.978 40.3857Z" fill="url(#paint6_linear_138_1302)"/>
<path d="M60.926 34.0509C61.186 34.0509 61.4355 34.1537 61.62 34.3369L64.9267 37.619C65.608 38.2952 66.3981 38.852 67.2641 39.2661L71.5929 41.3361C71.9219 41.4934 72.1314 41.8257 72.1314 42.1904L72.1314 42.2378C72.1314 42.6019 71.9067 42.9282 71.5666 43.0581L-nan -nanL71.5666 43.0581C71.3353 43.1464 71.0775 43.133 70.8566 43.0211L65.9709 40.5464C65.1107 40.1107 64.3201 39.5495 63.625 38.8812L60.2324 35.6198C60.0131 35.4091 59.9134 35.1028 59.9665 34.8034L-nan -nanL59.9665 34.8034C60.0438 34.368 60.4222 34.0509 60.8643 34.0509L60.926 34.0509Z" fill="#603813"/>
<g filter="url(#filter4_d_138_1302)">
<path d="M66.0627 42.0987C66.0627 42.4686 65.953 42.8302 65.7475 43.1377C65.542 43.4453 65.2499 43.685 64.9082 43.8266C64.5664 43.9681 64.1904 44.0051 63.8276 43.933C63.4648 43.8608 63.1316 43.6827 62.87 43.4211C62.6085 43.1596 62.4304 42.8263 62.3582 42.4636C62.286 42.1008 62.3231 41.7247 62.4646 41.383C62.6062 41.0413 62.8459 40.7492 63.1534 40.5437C63.461 40.3382 63.8226 40.2285 64.1925 40.2285C64.6885 40.2285 65.1642 40.4256 65.5149 40.7763C65.8656 41.127 66.0627 41.6027 66.0627 42.0987Z" fill="url(#paint7_linear_138_1302)" fill-opacity="0.4" shape-rendering="crispEdges"/>
</g>
<g opacity="0.5" filter="url(#filter5_f_138_1302)">
<path d="M60.9636 45.792C60.1575 45.7957 59.3768 45.9875 58.7475 46.3364C58.1183 46.6853 57.6773 47.1708 57.4958 47.7146L59.8643 48.309L57.4727 48.84C57.6272 49.293 57.9629 49.7068 58.4413 50.0339C58.9197 50.361 59.5215 50.5882 60.1778 50.6895C60.834 50.7908 61.5182 50.762 62.152 50.6065C62.7858 50.451 63.3435 50.1751 63.7612 49.8104C64.179 49.4456 64.44 49.0067 64.5142 48.5441C64.5884 48.0814 64.473 47.6136 64.181 47.1942C63.889 46.7749 63.4324 46.4209 62.8634 46.1729C62.2943 45.9249 61.6359 45.7929 60.9636 45.792Z" fill="url(#paint8_linear_138_1302)"/>
</g>
</g>
<defs>
<filter id="filter0_f_138_1302" x="27" y="68" width="46" height="22" filterUnits="userSpaceOnUse" color-interpolation-filters="sRGB">
<feFlood flood-opacity="0" result="BackgroundImageFix"/>
<feBlend mode="normal" in="SourceGraphic" in2="BackgroundImageFix" result="shape"/>
<feGaussianBlur stdDeviation="3.5" result="effect1_foregroundBlur_138_1302"/>
</filter>
<filter id="filter1_f_138_1302" x="-29.383" y="1.86169" width="158.766" height="125.415" filterUnits="userSpaceOnUse" color-interpolation-filters="sRGB">
<feFlood flood-opacity="0" result="BackgroundImageFix"/>
<feBlend mode="normal" in="SourceGraphic" in2="BackgroundImageFix" result="shape"/>
<feGaussianBlur stdDeviation="26" result="effect1_foregroundBlur_138_1302"/>
</filter>
<filter id="filter2_f_138_1302" x="32.4727" y="40.792" width="17.0634" height="14.9568" filterUnits="userSpaceOnUse" color-interpolation-filters="sRGB">
<feFlood flood-opacity="0" result="BackgroundImageFix"/>
<feBlend mode="normal" in="SourceGraphic" in2="BackgroundImageFix" result="shape"/>
<feGaussianBlur stdDeviation="2.5" result="effect1_foregroundBlur_138_1302"/>
</filter>
<filter id="filter3_d_138_1302" x="31.0389" y="40.2671" width="11.7404" height="11.7404" filterUnits="userSpaceOnUse" color-interpolation-filters="sRGB">
<feFlood flood-opacity="0" result="BackgroundImageFix"/>
<feColorMatrix in="SourceAlpha" type="matrix" values="0 0 0 0 0 0 0 0 0 0 0 0 0 0 0 0 0 0 127 0" result="hardAlpha"/>
<feOffset dy="4"/>
<feGaussianBlur stdDeviation="2"/>
<feComposite in2="hardAlpha" operator="out"/>
<feColorMatrix type="matrix" values="0 0 0 0 0 0 0 0 0 0 0 0 0 0 0 0 0 0 0.25 0"/>
<feBlend mode="normal" in2="BackgroundImageFix" result="effect1_dropShadow_138_1302"/>
<feBlend mode="normal" in="SourceGraphic" in2="effect1_dropShadow_138_1302" result="shape"/>
</filter>
<filter id="filter4_d_138_1302" x="58.3223" y="40.2285" width="11.7404" height="11.7404" filterUnits="userSpaceOnUse" color-interpolation-filters="sRGB">
<feFlood flood-opacity="0" result="BackgroundImageFix"/>
<feColorMatrix in="SourceAlpha" type="matrix" values="0 0 0 0 0 0 0 0 0 0 0 0 0 0 0 0 0 0 127 0" result="hardAlpha"/>
<feOffset dy="4"/>
<feGaussianBlur stdDeviation="2"/>
<feComposite in2="hardAlpha" operator="out"/>
<feColorMatrix type="matrix" values="0 0 0 0 0 0 0 0 0 0 0 0 0 0 0 0 0 0 0.25 0"/>
<feBlend mode="normal" in2="BackgroundImageFix" result="effect1_dropShadow_138_1302"/>
<feBlend mode="normal" in="SourceGraphic" in2="effect1_dropShadow_138_1302" result="shape"/>
</filter>
<filter id="filter5_f_138_1302" x="52.4727" y="40.792" width="17.0634" height="14.9568" filterUnits="userSpaceOnUse" color-interpolation-filters="sRGB">
<feFlood flood-opacity="0" result="BackgroundImageFix"/>
<feBlend mode="normal" in="SourceGraphic" in2="BackgroundImageFix" result="shape"/>
<feGaussianBlur stdDeviation="2.5" result="effect1_foregroundBlur_138_1302"/>
</filter>
<linearGradient id="paint0_linear_138_1302" x1="59.6985" y1="12.3475" x2="48.0974" y2="66.847" gradientUnits="userSpaceOnUse">
<stop stop-color="#ECDAC9"/>
<stop offset="0.710283" stop-color="#ECDAC9" stop-opacity="0"/>
</linearGradient>
<linearGradient id="paint1_linear_138_1302" x1="39.6609" y1="37.8746" x2="40.5247" y2="51.848" gradientUnits="userSpaceOnUse">
<stop stop-color="white"/>
<stop offset="0.59418" stop-color="#FDFDFD"/>
<stop offset="0.80796" stop-color="#F6F6F6"/>
<stop offset="0.96007" stop-color="#EBEBEB"/>
<stop offset="1" stop-color="#E6E6E6"/>
</linearGradient>
<linearGradient id="paint2_linear_138_1302" x1="41.0044" y1="45.792" x2="41.0044" y2="50.7488" gradientUnits="userSpaceOnUse">
<stop stop-color="#4A444D"/>
<stop offset="1" stop-color="#0F0E0F"/>
</linearGradient>
<linearGradient id="paint3_linear_138_1302" x1="40.0681" y1="40.4243" x2="40.0681" y2="49.9801" gradientUnits="userSpaceOnUse">
<stop stop-color="#4A444D"/>
<stop offset="1" stop-color="#0F0E0F"/>
</linearGradient>
<linearGradient id="paint4_linear_138_1302" x1="34.6963" y1="39.674" x2="39.3422" y2="44.8458" gradientUnits="userSpaceOnUse">
<stop stop-color="white"/>
<stop offset="0.31252" stop-color="white" stop-opacity="0.65366"/>
<stop offset="0.64893" stop-color="white" stop-opacity="0.30494"/>
<stop offset="0.88604" stop-color="white" stop-opacity="0.08508"/>
<stop offset="1" stop-color="white" stop-opacity="0"/>
</linearGradient>
<linearGradient id="paint5_linear_138_1302" x1="61.4406" y1="37.836" x2="60.5769" y2="51.8094" gradientUnits="userSpaceOnUse">
<stop stop-color="white"/>
<stop offset="0.59418" stop-color="#FDFDFD"/>
<stop offset="0.80796" stop-color="#F6F6F6"/>
<stop offset="0.96007" stop-color="#EBEBEB"/>
<stop offset="1" stop-color="#E6E6E6"/>
</linearGradient>
<linearGradient id="paint6_linear_138_1302" x1="61.0334" y1="40.3857" x2="61.0334" y2="49.9415" gradientUnits="userSpaceOnUse">
<stop stop-color="#4A444D"/>
<stop offset="1" stop-color="#0F0E0F"/>
</linearGradient>
<linearGradient id="paint7_linear_138_1302" x1="66.4052" y1="39.6354" x2="61.7594" y2="44.8072" gradientUnits="userSpaceOnUse">
<stop stop-color="white"/>
<stop offset="0.31252" stop-color="white" stop-opacity="0.65366"/>
<stop offset="0.64893" stop-color="white" stop-opacity="0.30494"/>
<stop offset="0.88604" stop-color="white" stop-opacity="0.08508"/>
<stop offset="1" stop-color="white" stop-opacity="0"/>
</linearGradient>
<linearGradient id="paint8_linear_138_1302" x1="61.0044" y1="45.792" x2="61.0044" y2="50.7488" gradientUnits="userSpaceOnUse">
<stop stop-color="#4A444D"/>
<stop offset="1" stop-color="#0F0E0F"/>
</linearGradient>
<clipPath id="clip0_138_1302">
<rect width="100" height="100" fill="white"/>
</clipPath>
</defs>
</svg>
