<svg width="100" height="100" viewBox="0 0 100 100" fill="none" xmlns="http://www.w3.org/2000/svg">
<g clip-path="url(#clip0_138_1267)">
<circle opacity="0.2" cx="50" cy="50" r="42" fill="#2EE5E5"/>
<g filter="url(#filter0_f_138_1267)">
<ellipse cx="50" cy="79" rx="16" ry="4" fill="#104F4F"/>
</g>
<g opacity="0.3" filter="url(#filter1_f_138_1267)">
<ellipse cx="50" cy="64.5691" rx="27.383" ry="10.7074" fill="#3B9B08"/>
</g>
<path d="M50.4283 80.4406C68.1018 80.4406 82.429 66.3646 82.429 49.0011C82.429 31.6375 68.1018 17.5615 50.4283 17.5615C32.7549 17.5615 18.4277 31.6375 18.4277 49.0011C18.4277 66.3646 32.7549 80.4406 50.4283 80.4406Z" fill="#29CCCC"/>
<path d="M50.4283 17.5615C42.2646 17.5527 34.4085 20.6211 28.4791 26.1343C25.3361 29.8137 23.1417 34.183 22.0819 38.8722C21.0221 43.5615 21.128 48.4326 22.3906 53.0731C23.6533 57.7136 26.0355 61.9869 29.3356 65.5311C32.6356 69.0753 36.7564 71.786 41.3489 73.4338C45.9414 75.0815 50.8705 75.6178 55.7187 74.9971C60.5669 74.3765 65.1915 72.6172 69.2009 69.8683C73.2103 67.1193 76.4864 63.4617 78.7519 59.205C81.0174 54.9483 82.2055 50.218 82.2156 45.4145C81.3196 37.7484 77.5853 30.6737 71.7237 25.5376C65.862 20.4015 58.2825 17.5626 50.4283 17.5615Z" fill="#2EE6E6"/>
<ellipse cx="51.3315" cy="60" rx="4.50049" ry="6.84131" fill="#104F4F"/>
<path d="M53.707 63.6893C53.3731 62.7918 51.9353 62.7299 51.3312 63.5655C50.727 62.7299 49.2892 62.7918 48.9553 63.6893C48.6214 64.5868 49.5413 65.7938 51.3312 65.7938C53.1211 65.7938 54.0409 64.5868 53.707 63.6893Z" fill="white"/>
<path fill-rule="evenodd" clip-rule="evenodd" d="M54.0961 64.5627C54.8497 63.4173 55.332 61.8056 55.332 60C55.332 58.1944 54.8497 56.5827 54.0961 55.4373C53.3399 54.2877 52.352 53.6587 51.3315 53.6587C50.3111 53.6587 49.3232 54.2877 48.5669 55.4373C47.8134 56.5827 47.3311 58.1944 47.3311 60C47.3311 61.8056 47.8134 63.4173 48.5669 64.5627C49.3232 65.7123 50.3111 66.3413 51.3315 66.3413C52.352 66.3413 53.3399 65.7123 54.0961 64.5627ZM51.3315 66.8413C53.8171 66.8413 55.832 63.7784 55.832 60C55.832 56.2216 53.8171 53.1587 51.3315 53.1587C48.846 53.1587 46.8311 56.2216 46.8311 60C46.8311 63.7784 48.846 66.8413 51.3315 66.8413Z" fill="#003B3B"/>
<path opacity="0.7" d="M60.4671 22.3797C43.8314 17.2722 29.9024 26.0073 34.4153 35.278C38.9282 44.5486 64.3646 49.7885 72.9801 43.944C79.8348 39.294 73.5955 26.4104 60.4671 22.3797Z" fill="url(#paint0_linear_138_1267)"/>
<g opacity="0.5" filter="url(#filter2_f_138_1267)">
<path d="M60.9636 45.792C60.1575 45.7957 59.3768 45.9875 58.7475 46.3364C58.1183 46.6853 57.6773 47.1708 57.4958 47.7146L59.8643 48.309L57.4727 48.84C57.6272 49.293 57.9629 49.7068 58.4413 50.0339C58.9197 50.361 59.5215 50.5882 60.1778 50.6895C60.834 50.7908 61.5182 50.762 62.152 50.6065C62.7858 50.451 63.3435 50.1751 63.7612 49.8104C64.179 49.4456 64.44 49.0067 64.5142 48.5441C64.5884 48.0814 64.473 47.6136 64.181 47.1942C63.889 46.7749 63.4324 46.4209 62.8634 46.1729C62.2943 45.9249 61.6359 45.7929 60.9636 45.792Z" fill="url(#paint1_linear_138_1267)"/>
</g>
<path d="M36.6404 44.5413C36.9927 50.2421 39.2195 52.0282 41.821 51.8674C44.4219 51.7067 46.4123 49.6599 46.0599 43.959C45.9761 42.6035 45.7713 41.2687 45.4572 40.031C45.1431 38.7933 44.7259 37.6768 44.2293 36.7453C43.7327 35.8138 43.1665 35.0856 42.563 34.6022C41.9595 34.1187 41.3306 33.8896 40.7121 33.9278C40.0936 33.9661 39.4977 34.2709 38.9583 34.825C38.419 35.379 37.9468 36.1715 37.5687 37.157C37.1906 38.1426 36.914 39.3019 36.7547 40.5689C36.5954 41.8359 36.5566 43.1857 36.6404 44.5413Z" fill="url(#paint2_linear_138_1267)"/>
<path d="M41.6459 49.1833C40.8598 49.1833 40.1058 48.871 39.5499 48.3151C38.994 47.7592 38.6816 47.0052 38.6816 46.219V39.0145L41.5104 38.0463L38.6816 36.6746V33.4364C38.6816 33.0472 38.7583 32.6617 38.9073 32.3021C39.0562 31.9424 39.2746 31.6156 39.5499 31.3404C39.8251 31.0651 40.1519 30.8468 40.5115 30.6978C40.8712 30.5488 41.2566 30.4722 41.6459 30.4722C42.0352 30.4722 42.4207 30.5488 42.7803 30.6978C43.1399 30.8468 43.4667 31.0651 43.742 31.3404C44.0172 31.6156 44.2356 31.9424 44.3845 32.3021C44.5335 32.6617 44.6102 33.0472 44.6102 33.4364V46.219C44.6102 46.6083 44.5335 46.9938 44.3845 47.3534C44.2356 47.713 44.0172 48.0398 43.742 48.3151C43.4667 48.5903 43.1399 48.8087 42.7803 48.9576C42.4207 49.1066 42.0352 49.1833 41.6459 49.1833Z" fill="url(#paint3_linear_138_1267)"/>
<path d="M56.0945 44.5413C56.4468 50.2421 58.6736 52.0282 61.2751 51.8674C63.876 51.7067 65.8664 49.6599 65.514 43.959C65.4302 42.6035 65.2254 41.2687 64.9113 40.031C64.5972 38.7933 64.18 37.6768 63.6834 36.7453C63.1868 35.8138 62.6206 35.0856 62.0171 34.6022C61.4136 34.1187 60.7847 33.8896 60.1662 33.9278C59.5477 33.9661 58.9518 34.2709 58.4124 34.825C57.8731 35.379 57.4009 36.1715 57.0228 37.157C56.6447 38.1426 56.3681 39.3019 56.2088 40.5689C56.0495 41.8359 56.0107 43.1857 56.0945 44.5413Z" fill="url(#paint4_linear_138_1267)"/>
<path d="M61.1537 49.1833C60.3676 49.1833 59.6136 48.871 59.0577 48.3151C58.5018 47.7592 58.1895 47.0052 58.1895 46.219V39.0145L61.0182 38.0463L58.1895 36.6746V33.4364C58.1895 33.0472 58.2661 32.6617 58.4151 32.3021C58.5641 31.9424 58.7824 31.6156 59.0577 31.3404C59.3329 31.0651 59.6597 30.8468 60.0193 30.6978C60.379 30.5488 60.7644 30.4722 61.1537 30.4722C61.543 30.4722 61.9285 30.5488 62.2881 30.6978C62.6478 30.8468 62.9745 31.0651 63.2498 31.3404C63.525 31.6156 63.7434 31.9424 63.8924 32.3021C64.0413 32.6617 64.118 33.0472 64.118 33.4364V46.219C64.118 46.6083 64.0413 46.9938 63.8924 47.3534C63.7434 47.713 63.525 48.0398 63.2498 48.3151C62.9745 48.5903 62.6478 48.8087 62.2881 48.9576C61.9285 49.1066 61.543 49.1833 61.1537 49.1833Z" fill="url(#paint5_linear_138_1267)"/>
<path d="M61.1537 49.1833C60.3676 49.1833 59.6136 48.871 59.0577 48.3151C58.5018 47.7592 58.1895 47.0052 58.1895 46.219V39.0145L61.0182 38.0463L58.1895 36.6746V33.4364C58.1895 33.0472 58.2661 32.6617 58.4151 32.3021C58.5641 31.9424 58.7824 31.6156 59.0577 31.3404C59.3329 31.0651 59.6597 30.8468 60.0193 30.6978C60.379 30.5488 60.7644 30.4722 61.1537 30.4722C61.543 30.4722 61.9285 30.5488 62.2881 30.6978C62.6478 30.8468 62.9745 31.0651 63.2498 31.3404C63.525 31.6156 63.7434 31.9424 63.8924 32.3021C64.0413 32.6617 64.118 33.0472 64.118 33.4364V46.219C64.118 46.6083 64.0413 46.9938 63.8924 47.3534C63.7434 47.713 63.525 48.0398 63.2498 48.3151C62.9745 48.5903 62.6478 48.8087 62.2881 48.9576C61.9285 49.1066 61.543 49.1833 61.1537 49.1833Z" fill="url(#paint6_linear_138_1267)"/>
<path d="M32.7764 31.1043C33.784 25.9438 40.3795 22.5505 45.1857 24.9895L45.2022 25.2135C40.5604 25.7276 36.2445 28.0464 32.9487 31.2518L32.7764 31.1043Z" fill="#104F4F"/>
<path fill-rule="evenodd" clip-rule="evenodd" d="M33.0583 30.8419C36.2543 27.8276 40.3599 25.6304 44.7859 25.0428C42.5219 24.0254 39.8825 24.2794 37.6543 25.3942C35.4218 26.5111 33.6317 28.4773 33.0583 30.8419ZM37.4574 25.0007C39.8815 23.7879 42.8066 23.5362 45.2846 24.7937C45.3533 24.8285 45.3987 24.8968 45.4044 24.9736L45.421 25.1976C45.4297 25.3157 45.3434 25.4195 45.2258 25.4325C40.6403 25.9403 36.3682 28.2326 33.1014 31.4099C33.0199 31.4891 32.8914 31.4932 32.805 31.4193L32.6326 31.2718C32.5724 31.2202 32.5446 31.1403 32.5597 31.0625C33.0792 28.402 35.034 26.2131 37.4574 25.0007Z" fill="#003B3B"/>
<path d="M68.9903 31.1043C67.9827 25.9438 61.3872 22.5505 56.581 24.9895L56.5645 25.2135C61.2063 25.7276 65.5221 28.0464 68.818 31.2518L68.9903 31.1043Z" fill="#104F4F"/>
<path fill-rule="evenodd" clip-rule="evenodd" d="M64.3079 25.0007C66.7313 26.2131 68.6861 28.402 69.2056 31.0625C69.2208 31.1403 69.1929 31.2202 69.1327 31.2718L68.9603 31.4193C68.8739 31.4932 68.7454 31.4891 68.6639 31.4099C65.3971 28.2326 61.125 25.9403 56.5395 25.4325C56.4219 25.4195 56.3356 25.3157 56.3444 25.1977L56.3609 24.9736C56.3666 24.8968 56.412 24.8285 56.4807 24.7937C58.9587 23.5362 61.8838 23.7879 64.3079 25.0007ZM56.9794 25.0428C61.4054 25.6304 65.511 27.8277 68.707 30.8419C68.1336 28.4773 66.3435 26.5111 64.111 25.3942C61.8828 24.2794 59.2434 24.0254 56.9794 25.0428Z" fill="#003B3B"/>
<path d="M75.1244 39.239C75.4584 39.239 75.7292 36.1367 75.7292 32.3097C75.7292 28.4827 75.4584 25.3804 75.1244 25.3804C74.7903 25.3804 74.5195 28.4827 74.5195 32.3097C74.5195 36.1367 74.7903 39.239 75.1244 39.239Z" fill="#104F4F"/>
<path d="M81.0695 32.2999C81.0695 35.9214 80.8132 38.8571 80.4971 38.8571C80.181 38.8571 79.9248 35.9214 79.9248 32.2999C79.9248 28.6785 80.181 25.7427 80.4971 25.7427C80.8132 25.7427 81.0695 28.6785 81.0695 32.2999Z" fill="#104F4F"/>
<path d="M77.8265 41.0289C78.1605 41.0289 78.4313 36.9637 78.4313 31.949C78.4313 26.9343 78.1605 22.8691 77.8265 22.8691C77.4925 22.8691 77.2217 26.9343 77.2217 31.949C77.2217 36.9637 77.4925 41.0289 77.8265 41.0289Z" fill="#104F4F"/>
</g>
<defs>
<filter id="filter0_f_138_1267" x="27" y="68" width="46" height="22" filterUnits="userSpaceOnUse" color-interpolation-filters="sRGB">
<feFlood flood-opacity="0" result="BackgroundImageFix"/>
<feBlend mode="normal" in="SourceGraphic" in2="BackgroundImageFix" result="shape"/>
<feGaussianBlur stdDeviation="3.5" result="effect1_foregroundBlur_138_1267"/>
</filter>
<filter id="filter1_f_138_1267" x="-29.383" y="1.86169" width="158.766" height="125.415" filterUnits="userSpaceOnUse" color-interpolation-filters="sRGB">
<feFlood flood-opacity="0" result="BackgroundImageFix"/>
<feBlend mode="normal" in="SourceGraphic" in2="BackgroundImageFix" result="shape"/>
<feGaussianBlur stdDeviation="26" result="effect1_foregroundBlur_138_1267"/>
</filter>
<filter id="filter2_f_138_1267" x="52.4727" y="40.792" width="17.0634" height="14.9568" filterUnits="userSpaceOnUse" color-interpolation-filters="sRGB">
<feFlood flood-opacity="0" result="BackgroundImageFix"/>
<feBlend mode="normal" in="SourceGraphic" in2="BackgroundImageFix" result="shape"/>
<feGaussianBlur stdDeviation="2.5" result="effect1_foregroundBlur_138_1267"/>
</filter>
<linearGradient id="paint0_linear_138_1267" x1="59.6985" y1="12.3475" x2="48.0974" y2="66.847" gradientUnits="userSpaceOnUse">
<stop stop-color="#C9ECEC"/>
<stop offset="1" stop-color="#C9ECEC" stop-opacity="0"/>
</linearGradient>
<linearGradient id="paint1_linear_138_1267" x1="61.0044" y1="45.792" x2="61.0044" y2="50.7488" gradientUnits="userSpaceOnUse">
<stop stop-color="#4A444D"/>
<stop offset="1" stop-color="#0F0E0F"/>
</linearGradient>
<linearGradient id="paint2_linear_138_1267" x1="40.7011" y1="33.7495" x2="41.8099" y2="51.6891" gradientUnits="userSpaceOnUse">
<stop stop-color="white"/>
<stop offset="0.59418" stop-color="#FDFDFD"/>
<stop offset="0.80796" stop-color="#F6F6F6"/>
<stop offset="0.96007" stop-color="#EBEBEB"/>
<stop offset="1" stop-color="#E6E6E6"/>
</linearGradient>
<linearGradient id="paint3_linear_138_1267" x1="41.6459" y1="30.4722" x2="41.6459" y2="49.1833" gradientUnits="userSpaceOnUse">
<stop stop-color="#4A444D"/>
<stop offset="1" stop-color="#0F0E0F"/>
</linearGradient>
<linearGradient id="paint4_linear_138_1267" x1="60.1552" y1="33.7495" x2="61.264" y2="51.6891" gradientUnits="userSpaceOnUse">
<stop stop-color="white"/>
<stop offset="0.59418" stop-color="#FDFDFD"/>
<stop offset="0.80796" stop-color="#F6F6F6"/>
<stop offset="0.96007" stop-color="#EBEBEB"/>
<stop offset="1" stop-color="#E6E6E6"/>
</linearGradient>
<linearGradient id="paint5_linear_138_1267" x1="61.1537" y1="30.4722" x2="61.1537" y2="49.1833" gradientUnits="userSpaceOnUse">
<stop stop-color="#4A444D"/>
<stop offset="1" stop-color="#0F0E0F"/>
</linearGradient>
<linearGradient id="paint6_linear_138_1267" x1="61.1537" y1="30.4722" x2="61.1537" y2="49.1833" gradientUnits="userSpaceOnUse">
<stop stop-color="#4A444D"/>
<stop offset="1" stop-color="#0F0E0F"/>
</linearGradient>
<clipPath id="clip0_138_1267">
<rect width="100" height="100" fill="white"/>
</clipPath>
</defs>
</svg>
