<svg width="49" height="48" viewBox="0 0 49 48" fill="none" xmlns="http://www.w3.org/2000/svg">
<circle cx="24.1667" cy="24" r="24" fill="#CFF6F1"/>
<mask id="mask0_138_1812" style="mask-type:alpha" maskUnits="userSpaceOnUse" x="0" y="0" width="49" height="48">
<circle cx="24.1667" cy="24" r="24" fill="#CFF6F1"/>
</mask>
<g mask="url(#mask0_138_1812)">
<path d="M30.7796 21.149L32.4935 19.4351L32.4761 19.591C32.3336 20.8664 33.4115 21.9443 34.6869 21.8018C35.616 21.698 36.3493 20.9646 36.4532 20.0356L37.0242 14.9282C37.212 13.2486 35.7923 11.829 34.1127 12.0167L29.0054 12.5877C28.0763 12.6916 27.343 13.425 27.2391 14.354C27.0966 15.6294 28.1746 16.7074 29.4499 16.5649L29.6058 16.5474L27.8919 18.2613C23.8224 15.5353 18.264 15.9692 14.6692 19.564C10.5803 23.653 10.5803 30.2828 14.6692 34.3717C18.7582 38.4607 25.388 38.4607 29.4769 34.3717C33.0718 30.7769 33.5056 25.2185 30.7796 21.149ZM17.6005 31.4405C15.1307 28.9707 15.1307 24.965 17.6005 22.4952C20.0703 20.0254 24.0759 20.0254 26.5458 22.4952C29.0156 24.965 29.0156 28.9707 26.5458 31.4405C24.0759 33.9103 20.0703 33.9103 17.6005 31.4405Z" fill="url(#paint0_linear_138_1812)"/>
<path d="M30.7796 21.149L32.4935 19.4351L32.4761 19.591C32.3336 20.8664 33.4115 21.9443 34.6869 21.8017C35.616 21.6979 36.3493 20.9646 36.4532 20.0355L37.0242 14.9281C37.1223 14.0512 36.7816 13.2456 36.195 12.7022L26.4721 22.4252C26.4965 22.4488 26.5216 22.4711 26.5458 22.4952C29.0156 24.965 29.0156 28.9707 26.5458 31.4405C24.076 33.9103 20.0703 33.9103 17.6005 31.4405C17.5764 31.4164 17.5541 31.3912 17.5304 31.3668L14.5984 34.2989C14.6221 34.3231 14.6453 34.3476 14.6693 34.3717C18.7583 38.4606 25.388 38.4606 29.477 34.3717C33.0718 30.7769 33.5056 25.2185 30.7796 21.149Z" fill="url(#paint1_linear_138_1812)"/>
<path d="M15.9294 33.1116C19.3224 36.5047 24.8238 36.5047 28.2168 33.1116C31.6098 29.7186 31.6098 24.2172 28.2168 20.8242C24.8238 17.4312 19.3224 17.4312 15.9294 20.8242C12.5363 24.2172 12.5363 29.7185 15.9294 33.1116ZM26.5458 22.4952C29.0156 24.965 29.0156 28.9707 26.5458 31.4405C24.076 33.9103 20.0703 33.9103 17.6005 31.4405C15.1307 28.9707 15.1307 24.965 17.6005 22.4952C20.0703 20.0254 24.0759 20.0253 26.5458 22.4952Z" fill="url(#paint2_linear_138_1812)"/>
<path d="M18.8513 32.4127C18.3953 32.1422 17.975 31.8156 17.6004 31.4405C16.1172 29.9573 15.5259 27.9203 15.8241 25.9946H11.6479C11.37 28.9886 12.3769 32.0794 14.6692 34.3718C15.8835 35.5861 17.322 36.4398 18.8513 36.9328V32.4127Z" fill="url(#paint3_linear_138_1812)"/>
<path d="M20.512 37.3215C23.1354 37.7149 25.879 37.1105 28.1315 35.5088V28.788C27.8408 29.7588 27.3125 30.6737 26.5458 31.4405C24.9105 33.0757 22.6023 33.6272 20.512 33.0971V37.3215Z" fill="url(#paint4_linear_138_1812)"/>
<path d="M35.3305 25.4214C34.2911 24.382 33.088 23.6066 31.8035 23.096C32.4755 24.7878 32.6901 26.6187 32.445 28.3993C34.8694 30.8716 34.8541 34.8431 32.3999 37.298C29.9443 39.753 25.9713 39.7675 23.499 37.341C23.4837 37.3271 23.4692 37.3126 23.4546 37.298C22.3344 36.1779 21.7227 34.742 21.6179 33.2771C21.4921 31.511 22.1046 29.7027 23.4546 28.3527C24.8053 27.0019 26.615 26.3895 28.3818 26.516C28.2778 25.0511 27.6661 23.6152 26.5459 22.4951C26.5314 22.4806 26.5168 22.466 26.5015 22.4522C24.3143 22.7504 22.2042 23.7404 20.5232 25.4214C18.8437 27.1009 17.8544 29.2088 17.5547 31.3931C17.3103 33.1738 17.5242 35.006 18.1963 36.6972C18.4678 37.3805 18.8111 38.033 19.2205 38.6437L18.0094 39.8547L16.0171 37.8618C15.5137 37.3592 14.6984 37.3592 14.1957 37.8618L13.1294 38.9281C12.626 39.4314 12.626 40.2468 13.1294 40.7495L15.1217 42.7424L14.2263 43.6379C13.7237 44.1404 13.7237 44.9559 14.2263 45.4585L15.2934 46.5255C15.7959 47.0281 16.6114 47.0281 17.114 46.5255L18.0094 45.6301L20.0024 47.6224C20.505 48.1258 21.3204 48.1258 21.8238 47.6224L22.8901 46.5561C23.3927 46.0535 23.3927 45.2381 22.8901 44.7347L20.8971 42.7424L22.1082 41.5314C26.1771 44.2575 31.7358 43.8234 35.3305 40.2287C39.4199 36.14 39.4199 29.51 35.3305 25.4214Z" fill="url(#paint5_linear_138_1812)"/>
<path d="M34.0707 26.6812C33.5637 26.175 33.0102 25.7436 32.4232 25.3887C32.5752 26.386 32.5825 27.4 32.445 28.3994C34.8693 30.8717 34.8541 34.8432 32.3999 37.2981C29.9442 39.7531 25.9712 39.7676 23.4989 37.3411C23.4836 37.3272 23.4691 37.3127 23.4545 37.2981C22.3343 36.178 21.7226 34.7421 21.6179 33.2772C21.492 31.5111 22.1045 29.7028 23.4545 28.3528C24.8053 27.002 26.6149 26.3896 28.3818 26.5161C28.3233 25.6886 28.1026 24.8807 27.7322 24.1383C25.574 24.1863 23.4298 25.0344 21.783 26.6812C20.1376 28.3266 19.2895 30.4687 19.24 32.6246C19.2029 34.2496 19.619 35.8826 20.4889 37.3184C20.852 37.9188 21.2865 38.473 21.783 38.9688C25.1762 42.3621 30.6774 42.3621 34.0706 38.9688C37.4639 35.5756 37.4639 30.0745 34.0707 26.6812Z" fill="url(#paint6_linear_138_1812)"/>
<path d="M31.8035 23.0959C32.4755 24.7878 32.6901 26.6187 32.445 28.3992C34.6995 30.6983 34.843 34.293 32.8788 36.7597H37.6329C39.1636 32.9796 38.3961 28.4863 35.3306 25.4213C34.2911 24.382 33.088 23.6066 31.8035 23.0959Z" fill="url(#paint7_linear_138_1812)"/>
<circle cx="24.1667" cy="24" r="23.5" stroke="#C5ECE7"/>
</g>
<defs>
<linearGradient id="paint0_linear_138_1812" x1="24.3213" y1="11.3882" x2="24.3213" y2="33.3576" gradientUnits="userSpaceOnUse">
<stop stop-color="#B3DAFE"/>
<stop offset="1" stop-color="#7BACDF"/>
</linearGradient>
<linearGradient id="paint1_linear_138_1812" x1="25.3117" y1="20.1318" x2="24.1478" y2="10.3849" gradientUnits="userSpaceOnUse">
<stop stop-color="#7BACDF" stop-opacity="0"/>
<stop offset="1" stop-color="#0681AF"/>
</linearGradient>
<linearGradient id="paint2_linear_138_1812" x1="22.0696" y1="31.6781" x2="22.0696" y2="19.4052" gradientUnits="userSpaceOnUse">
<stop stop-color="#B3DAFE"/>
<stop offset="1" stop-color="#7BACDF"/>
</linearGradient>
<linearGradient id="paint3_linear_138_1812" x1="15.1121" y1="30.487" x2="19.2581" y2="32.3782" gradientUnits="userSpaceOnUse">
<stop stop-color="#7BACDF" stop-opacity="0"/>
<stop offset="1" stop-color="#0681AF"/>
</linearGradient>
<linearGradient id="paint4_linear_138_1812" x1="25.4427" y1="33.3302" x2="21.0783" y2="34.9304" gradientUnits="userSpaceOnUse">
<stop stop-color="#7BACDF" stop-opacity="0"/>
<stop offset="1" stop-color="#0681AF"/>
</linearGradient>
<linearGradient id="paint5_linear_138_1812" x1="25.5751" y1="23.3997" x2="25.5751" y2="47.4219" gradientUnits="userSpaceOnUse">
<stop stop-color="#FEAEE1"/>
<stop offset="1" stop-color="#FE5694"/>
</linearGradient>
<linearGradient id="paint6_linear_138_1812" x1="27.927" y1="37.5362" x2="27.927" y2="25.2644" gradientUnits="userSpaceOnUse">
<stop stop-color="#FEAEE1"/>
<stop offset="1" stop-color="#FE5694"/>
</linearGradient>
<linearGradient id="paint7_linear_138_1812" x1="34.9161" y1="31.7364" x2="27.5696" y2="25.6264" gradientUnits="userSpaceOnUse">
<stop stop-color="#FD3581" stop-opacity="0"/>
<stop offset="1" stop-color="#D2024E"/>
</linearGradient>
</defs>
</svg>
