<svg width="49" height="48" viewBox="0 0 49 48" fill="none" xmlns="http://www.w3.org/2000/svg">
<circle cx="24.8333" cy="24" r="24" fill="#CFF6F1"/>
<mask id="mask0_138_1788" style="mask-type:alpha" maskUnits="userSpaceOnUse" x="0" y="0" width="49" height="48">
<circle cx="24.8333" cy="24" r="24" fill="#CFF6F1"/>
</mask>
<g mask="url(#mask0_138_1788)">
<path d="M15.1197 40.2805C15.9716 38.5466 22.3482 28.9311 22.3482 17.7519L22.3635 17.1019C22.3808 16.3726 23.0141 15.8117 23.7402 15.8826C24.3921 15.9464 24.8854 16.5008 24.8728 17.1558L24.8595 17.8468C24.8169 20.0534 24.8917 33.7192 24.8218 34.4345C24.7183 35.4959 24.2992 36.5019 23.6184 37.3228L20.9206 40.6219C20.8225 40.7403 20.6994 40.8356 20.5602 40.901C20.4209 40.9664 20.269 41.0004 20.1152 41.0004H15.5683C15.1983 41.0004 14.9566 40.6127 15.1197 40.2805Z" fill="url(#paint0_linear_138_1788)"/>
<path d="M23.9352 25.3664C24.5627 25.5592 24.9224 26.2215 24.7395 26.8579L24.5183 27.6276C24.08 29.1521 24.1053 30.7726 24.591 32.2827C25.1492 34.0168 24.7822 35.9193 23.6186 37.3226L23.5088 37.4551L21.3474 33.5504L21.3988 31.8902C21.4498 30.2473 21.7052 28.6172 22.1591 27.0374L22.3979 26.2064C22.5826 25.5638 23.2592 25.1721 23.9019 25.3568L23.9352 25.3664Z" fill="url(#paint1_linear_138_1788)"/>
<path d="M22.5815 41.0001H14.7193C14.3436 41.0001 14.039 40.6955 14.039 40.3198V39.0506C14.039 38.6749 14.3436 38.3703 14.7193 38.3703H22.5815C22.9573 38.3703 23.2618 38.6749 23.2618 39.0506V40.3198C23.2618 40.6955 22.9572 41.0001 22.5815 41.0001Z" fill="url(#paint2_linear_138_1788)"/>
<path d="M34.5279 40.2805C33.676 38.5466 27.2995 28.9311 27.2995 17.7519L27.2841 17.1019C27.2669 16.3726 26.6335 15.8117 25.9075 15.8826C25.2555 15.9464 24.7622 16.5008 24.7749 17.1558L24.7882 17.8468C24.8307 20.0534 24.7559 33.7192 24.8258 34.4345C24.9293 35.4959 25.3484 36.5019 26.0292 37.3228L28.727 40.6219C28.8252 40.7403 28.9483 40.8356 29.0875 40.901C29.2267 40.9664 29.3786 41.0004 29.5324 41.0004H34.0793C34.4494 41.0004 34.6911 40.6127 34.5279 40.2805Z" fill="url(#paint3_linear_138_1788)"/>
<path d="M25.7125 25.3664C25.085 25.5592 24.7252 26.2215 24.9081 26.8579L25.1294 27.6276C25.5677 29.1521 25.5424 30.7726 25.0567 32.2827C24.4985 34.0168 24.8655 35.9193 26.0291 37.3226L26.1389 37.4551L28.3003 33.5504L28.2489 31.8902C28.1979 30.2473 27.9425 28.6172 27.4886 27.0374L27.2498 26.2064C27.0651 25.5638 26.3885 25.1721 25.7458 25.3568L25.7125 25.3664Z" fill="url(#paint4_linear_138_1788)"/>
<path d="M27.0662 41.0001H34.9284C35.3041 41.0001 35.6087 40.6955 35.6087 40.3198V39.0506C35.6087 38.6749 35.3041 38.3703 34.9284 38.3703H27.0662C26.6905 38.3703 26.3859 38.6749 26.3859 39.0506V40.3198C26.386 40.6955 26.6905 41.0001 27.0662 41.0001Z" fill="url(#paint5_linear_138_1788)"/>
<path d="M25 9C24.611 9 24.2957 9.31467 24.2957 9.70287V13.4521C24.2957 13.8403 24.611 14.1549 25 14.1549C25.3889 14.1549 25.7042 13.8403 25.7042 13.4521V9.70287C25.7042 9.31467 25.3889 9 25 9Z" fill="url(#paint6_linear_138_1788)"/>
<path d="M18.93 20.213C18.93 19.8248 18.6147 19.5102 18.2258 19.5102H14.4692C14.0803 19.5102 13.765 19.8248 13.765 20.213C13.765 20.6012 14.0803 20.9159 14.4692 20.9159H18.2258C18.6147 20.9159 18.93 20.6012 18.93 20.213Z" fill="url(#paint7_linear_138_1788)"/>
<path d="M35.5308 19.5102H31.7742C31.3853 19.5102 31.07 19.8248 31.07 20.213C31.07 20.6012 31.3853 20.9159 31.7742 20.9159H35.5308C35.9197 20.9159 36.235 20.6012 36.235 20.213C36.235 19.8248 35.9197 19.5102 35.5308 19.5102Z" fill="url(#paint8_linear_138_1788)"/>
<path d="M28.089 14.9979C28.4238 15.1955 28.8557 15.0848 29.0537 14.7506L30.9655 11.5232C31.1634 11.189 31.0524 10.758 30.7176 10.5604C30.3828 10.3629 29.9509 10.4736 29.753 10.8078L27.8412 14.0352C27.6433 14.3694 27.7542 14.8004 28.089 14.9979Z" fill="url(#paint9_linear_138_1788)"/>
<path d="M15.5765 15.4698L18.8102 17.3778C19.145 17.5753 19.5769 17.4645 19.7748 17.1304C19.9728 16.7963 19.8618 16.3653 19.527 16.1677L16.2932 14.2597C15.9584 14.0621 15.5266 14.1729 15.3286 14.507C15.1307 14.8412 15.2416 15.2722 15.5765 15.4698Z" fill="url(#paint10_linear_138_1788)"/>
<path d="M34.4235 24.9567L31.1898 23.0487C30.855 22.8512 30.4231 22.9619 30.2252 23.296C30.0272 23.6302 30.1382 24.0612 30.473 24.2588L33.7068 26.1668C34.0416 26.3643 34.4734 26.2536 34.6714 25.9195C34.8693 25.5853 34.7584 25.1542 34.4235 24.9567Z" fill="url(#paint11_linear_138_1788)"/>
<path d="M20.247 10.8078C20.049 10.4736 19.6171 10.3629 19.2823 10.5605C18.9475 10.758 18.8365 11.189 19.0345 11.5232L20.9463 14.7506C21.1442 15.0848 21.5761 15.1955 21.9109 14.998C22.2457 14.8005 22.3567 14.3694 22.1588 14.0352L20.247 10.8078Z" fill="url(#paint12_linear_138_1788)"/>
<path d="M30.2251 17.1304C30.4231 17.4646 30.8549 17.5754 31.1898 17.3778L34.4235 15.4698C34.7583 15.2723 34.8692 14.8412 34.6713 14.507C34.4734 14.1728 34.0415 14.0621 33.7067 14.2597L30.4729 16.1677C30.1382 16.3653 30.0272 16.7963 30.2251 17.1304Z" fill="url(#paint13_linear_138_1788)"/>
<path d="M19.7748 23.2961C19.5769 22.9619 19.1451 22.8511 18.8102 23.0487L15.5765 24.9567C15.2417 25.1543 15.1308 25.5853 15.3287 25.9195C15.5266 26.2537 15.9585 26.3644 16.2933 26.1668L19.5271 24.2588C19.8618 24.0613 19.9727 23.6303 19.7748 23.2961Z" fill="url(#paint14_linear_138_1788)"/>
<circle cx="24.8333" cy="24" r="23.5" stroke="#C5ECE7"/>
</g>
<defs>
<linearGradient id="paint0_linear_138_1788" x1="20.3051" y1="28.5946" x2="25.5171" y2="29.8108" gradientUnits="userSpaceOnUse">
<stop stop-color="#FFDECF"/>
<stop offset="1" stop-color="#FAA68E"/>
</linearGradient>
<linearGradient id="paint1_linear_138_1788" x1="23.0926" y1="31.0623" x2="20.1147" y2="28.9071" gradientUnits="userSpaceOnUse">
<stop stop-color="#FFDECF" stop-opacity="0"/>
<stop offset="1" stop-color="white"/>
</linearGradient>
<linearGradient id="paint2_linear_138_1788" x1="18.6504" y1="38.6626" x2="18.6504" y2="40.4218" gradientUnits="userSpaceOnUse">
<stop stop-color="#544F43"/>
<stop offset="0.365" stop-color="#48443C"/>
<stop offset="1" stop-color="#292929"/>
</linearGradient>
<linearGradient id="paint3_linear_138_1788" x1="25.0447" y1="28.0892" x2="33.173" y2="29.1238" gradientUnits="userSpaceOnUse">
<stop stop-color="#FFDECF"/>
<stop offset="1" stop-color="#FAA68E"/>
</linearGradient>
<linearGradient id="paint4_linear_138_1788" x1="26.5486" y1="31.0589" x2="29.5266" y2="28.9037" gradientUnits="userSpaceOnUse">
<stop stop-color="#FFDECF" stop-opacity="0"/>
<stop offset="1" stop-color="white"/>
</linearGradient>
<linearGradient id="paint5_linear_138_1788" x1="30.9973" y1="38.6626" x2="30.9973" y2="40.4218" gradientUnits="userSpaceOnUse">
<stop stop-color="#544F43"/>
<stop offset="0.365" stop-color="#48443C"/>
<stop offset="1" stop-color="#292929"/>
</linearGradient>
<linearGradient id="paint6_linear_138_1788" x1="24.2957" y1="11.5775" x2="25.7042" y2="11.5775" gradientUnits="userSpaceOnUse">
<stop stop-color="#FFD945"/>
<stop offset="1" stop-color="#FFA325"/>
</linearGradient>
<linearGradient id="paint7_linear_138_1788" x1="13.765" y1="20.213" x2="18.93" y2="20.213" gradientUnits="userSpaceOnUse">
<stop stop-color="#FF7044"/>
<stop offset="1" stop-color="#F82814"/>
</linearGradient>
<linearGradient id="paint8_linear_138_1788" x1="31.0699" y1="20.213" x2="36.235" y2="20.213" gradientUnits="userSpaceOnUse">
<stop stop-color="#FF7044"/>
<stop offset="1" stop-color="#F82814"/>
</linearGradient>
<linearGradient id="paint9_linear_138_1788" x1="27.7431" y1="12.7792" x2="31.0635" y2="12.7792" gradientUnits="userSpaceOnUse">
<stop stop-color="#FF7044"/>
<stop offset="1" stop-color="#F82814"/>
</linearGradient>
<linearGradient id="paint10_linear_138_1788" x1="15.2305" y1="15.8187" x2="19.873" y2="15.8187" gradientUnits="userSpaceOnUse">
<stop stop-color="#FFD945"/>
<stop offset="1" stop-color="#FFA325"/>
</linearGradient>
<linearGradient id="paint11_linear_138_1788" x1="30.127" y1="24.6077" x2="34.7695" y2="24.6077" gradientUnits="userSpaceOnUse">
<stop stop-color="#FFD945"/>
<stop offset="1" stop-color="#FFA325"/>
</linearGradient>
<linearGradient id="paint12_linear_138_1788" x1="18.9364" y1="12.779" x2="22.2569" y2="12.779" gradientUnits="userSpaceOnUse">
<stop stop-color="#FF7044"/>
<stop offset="1" stop-color="#F82814"/>
</linearGradient>
<linearGradient id="paint13_linear_138_1788" x1="30.127" y1="15.8184" x2="34.7695" y2="15.8184" gradientUnits="userSpaceOnUse">
<stop stop-color="#FFD945"/>
<stop offset="1" stop-color="#FFA325"/>
</linearGradient>
<linearGradient id="paint14_linear_138_1788" x1="15.2305" y1="24.607" x2="19.873" y2="24.607" gradientUnits="userSpaceOnUse">
<stop stop-color="#FFD945"/>
<stop offset="1" stop-color="#FFA325"/>
</linearGradient>
</defs>
</svg>
