<svg width="100" height="100" viewBox="0 0 100 100" fill="none" xmlns="http://www.w3.org/2000/svg">
<circle opacity="0.2" cx="50" cy="50" r="42" fill="#62B9E4"/>
<g filter="url(#filter0_f_138_1145)">
<ellipse cx="50" cy="79" rx="16" ry="4" fill="#0072AB"/>
</g>
<path d="M50.4283 80.4406C68.1018 80.4406 82.429 66.3646 82.429 49.0011C82.429 31.6375 68.1018 17.5615 50.4283 17.5615C32.7549 17.5615 18.4277 31.6375 18.4277 49.0011C18.4277 66.3646 32.7549 80.4406 50.4283 80.4406Z" fill="#51ABD7"/>
<path d="M50.4283 17.5615C42.2646 17.5527 34.4085 20.6211 28.4791 26.1343C25.3361 29.8137 23.1417 34.183 22.0819 38.8722C21.0221 43.5615 21.128 48.4326 22.3906 53.0731C23.6533 57.7136 26.0355 61.9869 29.3356 65.5311C32.6356 69.0753 36.7564 71.786 41.3489 73.4338C45.9414 75.0815 50.8705 75.6178 55.7187 74.9971C60.5669 74.3765 65.1915 72.6172 69.2009 69.8683C73.2103 67.1193 76.4864 63.4617 78.7519 59.205C81.0174 54.9483 82.2055 50.218 82.2156 45.4145C81.3196 37.7484 77.5853 30.6737 71.7237 25.5376C65.8621 20.4015 58.2825 17.5626 50.4283 17.5615Z" fill="#62B9E4"/>
<path opacity="0.7" d="M60.4671 22.3797C43.8314 17.2722 29.9024 26.0073 34.4153 35.278C38.9282 44.5486 64.3646 49.7885 72.9801 43.944C79.8348 39.294 73.5955 26.4104 60.4671 22.3797Z" fill="url(#paint0_linear_138_1145)"/>
<path d="M50.4277 54.4228C51.9685 54.4228 53.2176 53.6478 53.2176 52.6916C53.2176 51.7355 51.9685 50.9604 50.4277 50.9604C48.8868 50.9604 47.6377 51.7355 47.6377 52.6916C47.6377 53.6478 48.8868 54.4228 50.4277 54.4228Z" fill="#23698C"/>
<path fill-rule="evenodd" clip-rule="evenodd" d="M48.6844 51.8366C48.2521 52.1048 48.0725 52.419 48.0725 52.6918C48.0725 52.9646 48.2521 53.2787 48.6844 53.547C49.1102 53.8112 49.7256 53.9888 50.4283 53.9888C51.1309 53.9888 51.7464 53.8112 52.1721 53.547C52.6045 53.2787 52.784 52.9646 52.784 52.6918C52.784 52.419 52.6045 52.1048 52.1721 51.8366C51.7464 51.5724 51.1309 51.3948 50.4283 51.3948C49.7256 51.3948 49.1102 51.5724 48.6844 51.8366ZM48.2265 51.0987C48.8105 50.7363 49.5901 50.5264 50.4283 50.5264C51.2665 50.5264 52.046 50.7363 52.63 51.0987C53.2075 51.457 53.6525 52.0085 53.6525 52.6918C53.6525 53.3751 53.2075 53.9266 52.63 54.2849C52.046 54.6472 51.2665 54.8572 50.4283 54.8572C49.5901 54.8572 48.8105 54.6472 48.2265 54.2849C47.6491 53.9266 47.2041 53.3751 47.2041 52.6918C47.2041 52.0085 47.6491 51.457 48.2265 51.0987Z" fill="#297CA6"/>
<path d="M50.4279 56.0462C44.7143 56.0462 44.0125 57.6754 44.0125 57.6754C43.9646 61.9907 44.8754 69.2561 50.4279 69.2561C55.9804 69.2561 56.8912 61.9907 56.8433 57.6754C56.8433 57.6754 56.1415 56.0462 50.4279 56.0462Z" fill="#23698C"/>
<path d="M53.8079 64.9852C53.3328 63.7082 51.2872 63.6201 50.4276 64.809C49.568 63.6201 47.5225 63.7082 47.0474 64.9852C46.5723 66.2621 47.881 67.9794 50.4276 67.9794C52.9742 67.9794 54.283 66.2621 53.8079 64.9852Z" fill="white"/>
<path d="M45.1396 56.8334C45.995 58.4201 47.7396 59.2163 50.4276 59.2163C53.1156 59.2163 54.8603 58.4201 55.7156 56.8334C54.8144 56.4353 53.2209 56.0459 50.4276 56.0459C47.6343 56.0459 46.0408 56.4353 45.1396 56.8334Z" fill="#62B9E4"/>
<path fill-rule="evenodd" clip-rule="evenodd" d="M44.8965 56.4663C45.8628 56.0239 47.5348 55.6123 50.4276 55.6123C53.3203 55.6123 54.9923 56.0239 55.9586 56.4663C56.4438 56.6884 56.7535 56.9195 56.9487 57.1118C57.0462 57.2078 57.1141 57.2931 57.1605 57.3612C57.1837 57.3952 57.2013 57.4247 57.2145 57.4488C57.2211 57.4609 57.2266 57.4716 57.2311 57.4808C57.2333 57.4854 57.2353 57.4897 57.2371 57.4935L57.2396 57.499L57.2407 57.5015L57.2412 57.5028C57.2415 57.5033 57.2417 57.5039 56.843 57.6757L57.2417 57.5039C57.2645 57.5567 57.2765 57.6134 57.2772 57.6709C57.3013 59.8491 57.0856 62.8094 56.1401 65.2416C55.6662 66.4607 54.9993 67.5725 54.0632 68.3822C53.1188 69.199 51.9199 69.6906 50.4276 69.6906C48.9352 69.6906 47.7363 69.199 46.7919 68.3822C45.8558 67.5725 45.1889 66.4607 44.715 65.2416C43.7695 62.8094 43.5538 59.8491 43.5779 57.6709C43.5786 57.6134 43.5906 57.5567 43.6133 57.5039L44.0121 57.6757C43.6133 57.5039 43.6136 57.5033 43.6139 57.5028L43.6144 57.5015L43.6155 57.499L43.618 57.4935C43.6197 57.4897 43.6217 57.4854 43.624 57.4808C43.6285 57.4716 43.634 57.4609 43.6406 57.4488C43.6538 57.4247 43.6714 57.3952 43.6946 57.3612C43.741 57.2931 43.8089 57.2078 43.9064 57.1118C44.1016 56.9195 44.4113 56.6884 44.8965 56.4663ZM44.4452 57.8069C44.4313 59.9282 44.6557 62.6923 45.5244 64.927C45.9663 66.0636 46.5651 67.0378 47.36 67.7253C48.1465 68.4056 49.1437 68.8222 50.4276 68.8222C51.7114 68.8222 52.7086 68.4056 53.4951 67.7253C54.2899 67.0378 54.8888 66.0636 55.3307 64.927C56.1994 62.6923 56.4238 59.9282 56.4099 57.8069C56.3927 57.7861 56.3696 57.7604 56.3393 57.7305C56.2245 57.6174 56.0016 57.4411 55.5971 57.2559C54.7841 56.8837 53.2483 56.4807 50.4276 56.4807C47.6068 56.4807 46.071 56.8837 45.258 57.2559C44.8535 57.4411 44.6306 57.6174 44.5158 57.7305C44.4855 57.7604 44.4624 57.7861 44.4452 57.8069Z" fill="#297CA6"/>
<path d="M32.3213 33.2733C33.3289 28.1127 39.9244 24.7195 44.7306 27.1585L44.7472 27.3825C40.1053 27.8966 35.7895 30.2153 32.4936 33.4208L32.3213 33.2733Z" fill="#23698C"/>
<path fill-rule="evenodd" clip-rule="evenodd" d="M32.5984 33.0195C35.7975 29.9999 39.9092 27.7991 44.3416 27.2132C42.0745 26.1905 39.43 26.4438 37.1982 27.5604C34.9622 28.6791 33.1696 30.6498 32.5984 33.0195ZM37.0039 27.1721C39.4273 25.9597 42.3515 25.7081 44.8285 26.9651C44.8963 26.9995 44.9411 27.0669 44.9467 27.1427L44.9633 27.3667C44.9719 27.4832 44.8868 27.5856 44.7706 27.5985C40.1844 28.1064 35.9118 30.399 32.6446 33.5766C32.5641 33.6549 32.4373 33.6589 32.352 33.5859L32.1797 33.4384C32.1203 33.3876 32.0928 33.3087 32.1078 33.2319C32.627 30.5725 34.5811 28.3842 37.0039 27.1721Z" fill="#297CA6"/>
<path d="M68.5353 33.2733C67.5276 28.1127 60.9321 24.7195 56.1259 27.1585L56.1094 27.3825C60.7513 27.8966 65.0671 30.2153 68.3629 33.4208L68.5353 33.2733Z" fill="#23698C"/>
<path fill-rule="evenodd" clip-rule="evenodd" d="M63.8515 27.1722C66.2744 28.3844 68.2284 30.5726 68.7477 33.232C68.7627 33.3088 68.7352 33.3877 68.6758 33.4386L68.5034 33.5861C68.4181 33.659 68.2913 33.655 68.2109 33.5768C64.9437 30.3991 60.671 28.1065 56.0848 27.5986C55.9687 27.5858 55.8836 27.4833 55.8922 27.3668L55.9087 27.1428C55.9143 27.067 55.9592 26.9996 56.027 26.9652C58.504 25.7082 61.4281 25.9598 63.8515 27.1722ZM56.5139 27.2133C60.9463 27.7993 65.058 30.0001 68.2571 33.0197C67.6859 30.6499 65.8933 28.6792 63.6573 27.5606C61.4254 26.444 58.7809 26.1906 56.5139 27.2133Z" fill="#297CA6"/>
<path d="M40.149 53.5115C44.7202 53.5115 48.4259 49.8063 48.4259 45.2357C48.4259 40.6652 44.7202 36.96 40.149 36.96C35.5778 36.96 31.8721 40.6652 31.8721 45.2357C31.8721 49.8063 35.5778 53.5115 40.149 53.5115Z" fill="white"/>
<path d="M40.2766 39.7398C39.0363 39.748 37.835 40.1668 36.8667 40.9285C35.8985 41.6902 35.22 42.7504 34.9407 43.9377L38.5852 45.2355L34.9051 46.3948C35.1428 47.3841 35.6594 48.2876 36.3955 49.0018C37.1317 49.716 38.0577 50.212 39.0675 50.4332C40.0774 50.6543 41.1302 50.5915 42.1053 50.252C43.0805 49.9125 43.9387 49.3101 44.5815 48.5136C45.2243 47.7172 45.6259 46.759 45.7401 45.7487C45.8543 44.7385 45.6766 43.7171 45.2274 42.8014C44.7781 41.8858 44.0755 41.113 43.1999 40.5715C42.3243 40.0301 41.3112 39.7418 40.2766 39.7398Z" fill="url(#paint1_linear_138_1145)"/>
<g opacity="0.5" filter="url(#filter1_f_138_1145)">
<path d="M40.3828 45.8196C39.4698 45.8238 38.5856 46.041 37.8729 46.4362C37.1602 46.8313 36.6607 47.3812 36.4552 47.9971L39.1378 48.6704L36.429 49.2717C36.604 49.7849 36.9842 50.2536 37.526 50.624C38.0679 50.9945 38.7495 51.2518 39.4928 51.3665C40.2361 51.4812 41.011 51.4487 41.7289 51.2726C42.4467 51.0965 43.0783 50.784 43.5515 50.3708C44.0247 49.9577 44.3202 49.4606 44.4043 48.9366C44.4884 48.4125 44.3576 47.8827 44.0269 47.4077C43.6962 46.9328 43.179 46.5319 42.5346 46.251C41.8901 45.9701 41.1444 45.8206 40.3828 45.8196Z" fill="url(#paint2_linear_138_1145)"/>
</g>
<path d="M60.9693 53.5115C65.5405 53.5115 69.2463 49.8063 69.2463 45.2357C69.2463 40.6652 65.5405 36.96 60.9693 36.96C56.3981 36.96 52.6924 40.6652 52.6924 45.2357C52.6924 49.8063 56.3981 53.5115 60.9693 53.5115Z" fill="white"/>
<g opacity="0.5" filter="url(#filter2_f_138_1145)">
<path d="M60.9546 45.8196C60.0416 45.8238 59.1573 46.041 58.4447 46.4362C57.732 46.8313 57.2325 47.3812 57.0269 47.9971L59.7095 48.6704L57.0007 49.2717C57.1757 49.7849 57.5559 50.2536 58.0978 50.624C58.6397 50.9945 59.3213 51.2518 60.0646 51.3665C60.8079 51.4812 61.5828 51.4487 62.3006 51.2726C63.0184 51.0965 63.6501 50.784 64.1233 50.3708C64.5965 49.9577 64.892 49.4606 64.9761 48.9366C65.0602 48.4125 64.9294 47.8827 64.5987 47.4077C64.268 46.9328 63.7508 46.5319 63.1063 46.251C62.4618 45.9701 61.7161 45.8206 60.9546 45.8196Z" fill="url(#paint3_linear_138_1145)"/>
</g>
<path d="M60.9702 39.7397C59.7298 39.7479 58.5285 40.1667 57.5603 40.9284C56.5921 41.6901 55.9135 42.7503 55.6342 43.9376L59.2787 45.2355L55.5986 46.3948C55.8364 47.384 56.3529 48.2875 57.0891 49.0017C57.8252 49.7159 58.7513 50.212 59.7611 50.4331C60.7709 50.6542 61.8237 50.5915 62.7989 50.252C63.7741 49.9125 64.6322 49.31 65.2751 48.5136C65.9179 47.7172 66.3194 46.759 66.4337 45.7487C66.5479 44.7385 66.3702 43.717 65.921 42.8014C65.4717 41.8858 64.7691 41.113 63.8935 40.5715C63.0179 40.03 62.0048 39.7418 60.9702 39.7397Z" fill="url(#paint4_linear_138_1145)"/>
<defs>
<filter id="filter0_f_138_1145" x="27" y="68" width="46" height="22" filterUnits="userSpaceOnUse" color-interpolation-filters="sRGB">
<feFlood flood-opacity="0" result="BackgroundImageFix"/>
<feBlend mode="normal" in="SourceGraphic" in2="BackgroundImageFix" result="shape"/>
<feGaussianBlur stdDeviation="3.5" result="effect1_foregroundBlur_138_1145"/>
</filter>
<filter id="filter1_f_138_1145" x="31.429" y="40.8196" width="18.0002" height="15.6142" filterUnits="userSpaceOnUse" color-interpolation-filters="sRGB">
<feFlood flood-opacity="0" result="BackgroundImageFix"/>
<feBlend mode="normal" in="SourceGraphic" in2="BackgroundImageFix" result="shape"/>
<feGaussianBlur stdDeviation="2.5" result="effect1_foregroundBlur_138_1145"/>
</filter>
<filter id="filter2_f_138_1145" x="52.0007" y="40.8196" width="18.0002" height="15.6142" filterUnits="userSpaceOnUse" color-interpolation-filters="sRGB">
<feFlood flood-opacity="0" result="BackgroundImageFix"/>
<feBlend mode="normal" in="SourceGraphic" in2="BackgroundImageFix" result="shape"/>
<feGaussianBlur stdDeviation="2.5" result="effect1_foregroundBlur_138_1145"/>
</filter>
<linearGradient id="paint0_linear_138_1145" x1="59.6985" y1="12.3475" x2="48.0974" y2="66.847" gradientUnits="userSpaceOnUse">
<stop stop-color="#C9D5EC"/>
<stop offset="1" stop-color="#C9D5EC" stop-opacity="0"/>
</linearGradient>
<linearGradient id="paint1_linear_138_1145" x1="40.3394" y1="39.7398" x2="40.3394" y2="50.5627" gradientUnits="userSpaceOnUse">
<stop stop-color="#4A444D"/>
<stop offset="1" stop-color="#0F0E0F"/>
</linearGradient>
<linearGradient id="paint2_linear_138_1145" x1="40.429" y1="45.8196" x2="40.429" y2="51.4338" gradientUnits="userSpaceOnUse">
<stop stop-color="#4A444D"/>
<stop offset="1" stop-color="#0F0E0F"/>
</linearGradient>
<linearGradient id="paint3_linear_138_1145" x1="61.0008" y1="45.8196" x2="61.0008" y2="51.4338" gradientUnits="userSpaceOnUse">
<stop stop-color="#4A444D"/>
<stop offset="1" stop-color="#0F0E0F"/>
</linearGradient>
<linearGradient id="paint4_linear_138_1145" x1="61.033" y1="39.7397" x2="61.033" y2="50.5627" gradientUnits="userSpaceOnUse">
<stop stop-color="#4A444D"/>
<stop offset="1" stop-color="#0F0E0F"/>
</linearGradient>
</defs>
</svg>
