<svg width="100" height="100" viewBox="0 0 100 100" fill="none" xmlns="http://www.w3.org/2000/svg">
<circle opacity="0.2" cx="50" cy="50" r="42" fill="#E46271"/>
<g filter="url(#filter0_f_138_1232)">
<ellipse cx="50" cy="79" rx="16" ry="4" fill="#8C232F"/>
</g>
<path d="M50.0006 80.4406C67.6741 80.4406 82.0012 66.3646 82.0012 49.0011C82.0012 31.6375 67.6741 17.5615 50.0006 17.5615C32.3272 17.5615 18 31.6375 18 49.0011C18 66.3646 32.3272 80.4406 50.0006 80.4406Z" fill="#D75161"/>
<path d="M50.4283 17.5615C42.2646 17.5527 34.4085 20.6211 28.4791 26.1343C25.3361 29.8137 23.1417 34.183 22.0819 38.8722C21.0221 43.5615 21.128 48.4326 22.3906 53.0731C23.6533 57.7136 26.0355 61.9869 29.3356 65.5311C32.6356 69.0753 36.7564 71.786 41.3489 73.4338C45.9414 75.0815 50.8705 75.6178 55.7187 74.9971C60.5669 74.3765 65.1915 72.6172 69.2009 69.8683C73.2103 67.1193 76.4864 63.4617 78.7519 59.205C81.0174 54.9483 82.2055 50.218 82.2156 45.4145C81.3196 37.7484 77.5853 30.6737 71.7237 25.5376C65.8621 20.4015 58.2825 17.5626 50.4283 17.5615Z" fill="#E46271"/>
<path opacity="0.7" d="M60.4671 22.3797C43.8314 17.2722 29.9024 26.0073 34.4153 35.278C38.9282 44.5486 64.3646 49.7885 72.9801 43.944C79.8348 39.294 73.5955 26.4104 60.4671 22.3797Z" fill="url(#paint0_linear_138_1232)"/>
<path d="M30.3307 53.1331C31.5581 53.3806 32.6397 53.6376 33.7041 53.811C34.7249 53.9886 35.757 54.0934 36.7926 54.1248C37.7995 54.1537 38.8068 54.0924 39.8027 53.9418C40.8939 53.7613 41.9716 53.5074 43.0285 53.1818L43.1212 53.1549C43.2724 53.1098 43.4312 53.0957 43.588 53.1135C43.7448 53.1314 43.8963 53.1808 44.0336 53.2587C44.1708 53.3367 44.2908 53.4416 44.3864 53.5672C44.482 53.6927 44.5512 53.8363 44.5898 53.9894C44.6303 54.1511 44.6382 54.3192 44.6129 54.484C44.5877 54.6488 44.5298 54.8069 44.4427 54.949C43.609 56.2477 42.4168 57.277 41.0104 57.9122C39.6137 58.5581 38.0862 58.8712 36.5481 58.8267C35.0618 58.7882 33.6012 58.4298 32.2659 57.776C30.9601 57.1559 29.834 56.2131 28.9941 55.0367C28.8144 54.7664 28.7472 54.4368 28.8065 54.1177C28.8659 53.7987 29.0472 53.5153 29.312 53.3277C29.4466 53.2298 29.5999 53.1607 29.7623 53.1247C29.9248 53.0886 30.0929 53.0864 30.2563 53.1181L30.3307 53.1331Z" fill="url(#paint1_radial_138_1232)"/>
<path d="M30.3307 53.1331C31.5581 53.3806 32.6397 53.6376 33.7041 53.811C34.7249 53.9886 35.757 54.0934 36.7926 54.1248C37.7995 54.1537 38.8068 54.0924 39.8027 53.9418C40.8939 53.7613 41.9716 53.5074 43.0285 53.1818L43.1212 53.1549C43.2724 53.1098 43.4312 53.0957 43.588 53.1135C43.7448 53.1314 43.8963 53.1808 44.0336 53.2587C44.1708 53.3367 44.2908 53.4416 44.3864 53.5672C44.482 53.6927 44.5512 53.8363 44.5898 53.9894C44.6303 54.1511 44.6382 54.3192 44.6129 54.484C44.5877 54.6488 44.5298 54.8069 44.4427 54.949C43.609 56.2477 42.4168 57.277 41.0104 57.9122C39.6137 58.5581 38.0862 58.8712 36.5481 58.8267C35.0618 58.7882 33.6012 58.4298 32.2659 57.776C30.9601 57.1559 29.834 56.2131 28.9941 55.0367C28.8144 54.7664 28.7472 54.4368 28.8065 54.1177C28.8659 53.7987 29.0472 53.5153 29.312 53.3277C29.4466 53.2298 29.5999 53.1607 29.7623 53.1247C29.9248 53.0886 30.0929 53.0864 30.2563 53.1181L30.3307 53.1331Z" fill="#8C232F"/>
<g style="mix-blend-mode:multiply" opacity="0.38">
<path d="M30.2204 52.4643C31.4825 52.7344 32.5954 53.0117 33.6893 53.2042C34.7365 53.3999 35.796 53.5226 36.8602 53.5714C37.8897 53.6171 38.9212 53.5715 39.9427 53.4353C41.0556 53.2713 42.1562 53.0322 43.2369 52.7197L43.3315 52.6941C43.5701 52.6289 43.8228 52.6369 44.0569 52.7168C44.291 52.7968 44.4958 52.9451 44.6447 53.1425C44.7937 53.34 44.88 53.5776 44.8926 53.8247C44.9052 54.0718 44.8434 54.3169 44.7152 54.5285C43.8768 55.8316 42.6685 56.8549 41.245 57.4671C39.8116 58.0995 38.251 58.391 36.6859 58.3188C35.1542 58.2539 33.6531 57.8685 32.2795 57.1875C30.932 56.5407 29.7648 55.5717 28.8812 54.3662C28.7378 54.1638 28.6588 53.9228 28.6546 53.6748C28.6504 53.4267 28.7211 53.1832 28.8575 52.9759C28.9939 52.7687 29.1896 52.6075 29.4191 52.5133C29.6486 52.4191 29.9012 52.3963 30.1438 52.448L30.2204 52.4643Z" fill="#EC6279"/>
</g>
<path d="M57.3307 53.1331C58.5581 53.3806 59.6397 53.6376 60.7041 53.811C61.7249 53.9886 62.757 54.0934 63.7926 54.1248C64.7995 54.1537 65.8068 54.0924 66.8027 53.9418C67.8939 53.7613 68.9716 53.5074 70.0285 53.1818L70.1212 53.1549C70.2724 53.1098 70.4312 53.0957 70.588 53.1135C70.7448 53.1314 70.8963 53.1808 71.0336 53.2587C71.1708 53.3367 71.2908 53.4416 71.3864 53.5672C71.482 53.6927 71.5512 53.8363 71.5898 53.9894C71.6303 54.1511 71.6382 54.3192 71.6129 54.484C71.5877 54.6488 71.5298 54.8069 71.4427 54.949C70.609 56.2477 69.4168 57.277 68.0104 57.9122C66.6137 58.5581 65.0862 58.8712 63.5481 58.8267C62.0618 58.7882 60.6012 58.4298 59.2659 57.776C57.9601 57.1559 56.834 56.2131 55.9941 55.0367C55.8144 54.7664 55.7472 54.4368 55.8065 54.1177C55.8659 53.7987 56.0472 53.5153 56.312 53.3277C56.4466 53.2298 56.5999 53.1607 56.7623 53.1247C56.9248 53.0886 57.0929 53.0864 57.2563 53.1181L57.3307 53.1331Z" fill="url(#paint2_radial_138_1232)"/>
<path d="M57.3307 53.1331C58.5581 53.3806 59.6397 53.6376 60.7041 53.811C61.7249 53.9886 62.757 54.0934 63.7926 54.1248C64.7995 54.1537 65.8068 54.0924 66.8027 53.9418C67.8939 53.7613 68.9716 53.5074 70.0285 53.1818L70.1212 53.1549C70.2724 53.1098 70.4312 53.0957 70.588 53.1135C70.7448 53.1314 70.8963 53.1808 71.0336 53.2587C71.1708 53.3367 71.2908 53.4416 71.3864 53.5672C71.482 53.6927 71.5512 53.8363 71.5898 53.9894C71.6303 54.1511 71.6382 54.3192 71.6129 54.484C71.5877 54.6488 71.5298 54.8069 71.4427 54.949C70.609 56.2477 69.4168 57.277 68.0104 57.9122C66.6137 58.5581 65.0862 58.8712 63.5481 58.8267C62.0618 58.7882 60.6012 58.4298 59.2659 57.776C57.9601 57.1559 56.834 56.2131 55.9941 55.0367C55.8144 54.7664 55.7472 54.4368 55.8065 54.1177C55.8659 53.7987 56.0472 53.5153 56.312 53.3277C56.4466 53.2298 56.5999 53.1607 56.7623 53.1247C56.9248 53.0886 57.0929 53.0864 57.2563 53.1181L57.3307 53.1331Z" fill="#8C232F"/>
<g style="mix-blend-mode:multiply" opacity="0.38">
<path d="M57.2204 52.4643C58.4825 52.7344 59.5954 53.0117 60.6893 53.2042C61.7365 53.3999 62.796 53.5226 63.8602 53.5714C64.8897 53.6171 65.9212 53.5715 66.9427 53.4353C68.0556 53.2713 69.1562 53.0322 70.2369 52.7197L70.3315 52.6941C70.5701 52.6289 70.8228 52.6369 71.0569 52.7168C71.291 52.7968 71.4958 52.9451 71.6447 53.1425C71.7937 53.34 71.88 53.5776 71.8926 53.8247C71.9052 54.0718 71.8434 54.3169 71.7152 54.5285C70.8768 55.8316 69.6685 56.8549 68.245 57.4671C66.8116 58.0995 65.251 58.391 63.6859 58.3188C62.1542 58.2539 60.6531 57.8685 59.2795 57.1875C57.932 56.5407 56.7648 55.5717 55.8812 54.3662C55.7378 54.1638 55.6588 53.9228 55.6546 53.6748C55.6504 53.4267 55.7211 53.1832 55.8575 52.9759C55.9939 52.7687 56.1896 52.6075 56.4191 52.5133C56.6486 52.4191 56.9012 52.3963 57.1438 52.448L57.2204 52.4643Z" fill="#EC6279"/>
</g>
<rect x="43" y="64" width="15" height="3.5" rx="1.75" fill="#8C232F"/>
<path fill-rule="evenodd" clip-rule="evenodd" d="M44.75 63.5H56.25C57.4926 63.5 58.5 64.5074 58.5 65.75C58.5 66.9926 57.4926 68 56.25 68H44.75C43.5074 68 42.5 66.9926 42.5 65.75C42.5 64.5074 43.5074 63.5 44.75 63.5ZM44.75 64C43.7835 64 43 64.7835 43 65.75C43 66.7165 43.7835 67.5 44.75 67.5H56.25C57.2165 67.5 58 66.7165 58 65.75C58 64.7835 57.2165 64 56.25 64H44.75Z" fill="#59161E"/>
<path d="M39.2059 40.0811C40.5803 38.4509 43.0206 42.3038 37.7694 45.4341C35.0105 47.0787 31.3015 47.1338 28.7747 45.8454C28.3793 45.6438 28.3895 45.0982 28.8248 45.0112C30.831 44.6104 35.1355 44.909 39.2059 40.0811Z" fill="#8C232F"/>
<path fill-rule="evenodd" clip-rule="evenodd" d="M40.1 40.1645C40.0144 40.1189 39.9321 40.1089 39.8519 40.1279C39.7693 40.1475 39.6558 40.2062 39.5305 40.3547C37.4397 42.8346 35.2757 44.0099 33.3688 44.6113C32.4195 44.9107 31.5403 45.0659 30.7789 45.1714C30.488 45.2117 30.2221 45.244 29.9779 45.2737C29.5702 45.3232 29.2228 45.3654 28.9197 45.4253C28.9267 45.4375 28.9405 45.453 28.9675 45.4668C31.3621 46.6878 34.9161 46.6401 37.5517 45.069C40.0963 43.5521 40.6505 41.9426 40.5498 41.0183C40.4974 40.5384 40.2811 40.2608 40.1 40.1645ZM28.7745 45.8453C31.3013 47.1337 35.0103 47.0785 37.7692 45.4339C43.0204 42.3036 40.5801 38.4508 39.2057 40.0809C35.7852 44.138 32.1994 44.5749 29.951 44.8489C29.5238 44.9009 29.1449 44.9471 28.8246 45.0111C28.3893 45.098 28.3791 45.6436 28.7745 45.8453Z" fill="#59161E"/>
<path d="M63.6634 40.0813C62.289 38.4512 59.8488 42.304 65.0999 45.4343C67.8589 47.0789 71.5679 47.1341 74.0946 45.8457C74.4901 45.644 74.4798 45.0985 74.0446 45.0115C72.0384 44.6107 67.7339 44.9093 63.6634 40.0813Z" fill="#8C232F"/>
<path fill-rule="evenodd" clip-rule="evenodd" d="M62.7693 40.1647C62.855 40.1191 62.9373 40.1091 63.0174 40.1281C63.1 40.1477 63.2136 40.2064 63.3388 40.355C65.4296 42.8349 67.5937 44.0102 69.5005 44.6115C70.4499 44.911 71.3291 45.0661 72.0905 45.1716C72.3814 45.2119 72.6472 45.2442 72.8914 45.2739C73.2992 45.3235 73.6466 45.3657 73.9497 45.4255C73.9427 45.4378 73.9289 45.4533 73.9018 45.4671C71.5073 46.688 67.9532 46.6403 65.3176 45.0692C62.7731 43.5524 62.2188 41.9428 62.3196 41.0185C62.3719 40.5386 62.5882 40.261 62.7693 40.1647ZM74.0948 45.8455C71.5681 47.1339 67.8591 47.0788 65.1001 45.4341C59.849 42.3038 62.2892 38.451 63.6636 40.0812C67.0842 44.1382 70.67 44.5751 72.9183 44.8491C73.3455 44.9011 73.7244 44.9473 74.0448 45.0113C74.48 45.0983 74.4903 45.6439 74.0948 45.8455Z" fill="#59161E"/>
<g style="mix-blend-mode:multiply" opacity="0.44">
<path d="M33.985 35.2644C33.9908 34.812 33.9938 34.3483 33.9938 33.8758C33.9938 33.4033 33.9908 32.9404 33.985 32.4871C39.7518 32.2993 39.7521 31.8305 39.7521 31.4862C39.7521 31.1408 39.7525 30.6701 33.9406 30.484C33.754 24.6721 33.2834 24.6725 32.9382 24.6725C32.594 24.6725 32.125 24.6727 31.9372 30.4394C31.0322 30.4282 30.0646 30.4282 29.16 30.4394C28.9722 24.6727 28.5033 24.6725 28.159 24.6725C27.8136 24.6725 27.343 24.6721 27.1569 30.484C21.345 30.6701 21.3454 31.1408 21.3454 31.4862C21.3454 31.8305 21.3456 32.2993 27.1122 32.4871C27.1067 32.9396 27.1039 33.4025 27.1037 33.8758C27.1037 34.3483 27.1067 34.812 27.1122 35.2644C21.3456 35.4523 21.3454 35.9212 21.3454 36.2653C21.3454 36.6107 21.345 37.0813 27.1569 37.2677C27.343 43.0795 27.8136 43.0791 28.159 43.0791C28.5033 43.0791 28.9722 43.079 29.16 37.3122C30.0646 37.3235 31.0324 37.3235 31.9372 37.3122C32.125 43.079 32.594 43.0791 32.9382 43.0791C33.2834 43.0791 33.754 43.0795 33.9406 37.2677C39.7525 37.0813 39.7521 36.6106 39.7521 36.2653C39.7521 35.9212 39.7518 35.4523 33.985 35.2644ZM31.8907 35.2179C31.0152 35.2075 30.0816 35.2075 29.2065 35.2179C29.2118 34.7803 29.2145 34.3329 29.2145 33.8758C29.2145 33.4194 29.2118 32.972 29.2065 32.5336C30.0816 32.544 31.0152 32.544 31.8907 32.5336C31.8855 32.9714 31.8828 33.4188 31.8827 33.8758C31.8827 34.3322 31.8854 34.7796 31.8907 35.2179Z" fill="#E46271"/>
</g>
<path d="M33.5137 34.7931C33.5195 34.3407 33.5224 33.877 33.5224 33.4045C33.5224 32.932 33.5195 32.4683 33.5137 32.0158C39.2805 31.828 39.2808 31.3592 39.2808 31.0149C39.2808 30.6695 39.2812 30.1988 33.4693 30.0127C33.2827 24.2008 32.8121 24.2012 32.4669 24.2012C32.1227 24.2012 31.6537 24.2014 31.4659 29.9681C30.5609 29.9569 29.5933 29.9569 28.6887 29.9681C28.5009 24.2014 28.032 24.2012 27.6877 24.2012C27.3423 24.2012 26.8717 24.2008 26.6856 30.0127C20.8736 30.1988 20.8741 30.6695 20.8741 31.0149C20.8741 31.3592 20.8743 31.828 26.6409 32.0158C26.6354 32.4683 26.6324 32.932 26.6324 33.4045C26.6324 33.877 26.6354 34.3407 26.6409 34.7931C20.8743 34.981 20.8741 35.4499 20.8741 35.794C20.8741 36.1394 20.8736 36.61 26.6856 36.7964C26.8717 42.6082 27.3423 42.6078 27.6877 42.6078C28.032 42.6078 28.5009 42.6077 28.6887 36.8409C29.5933 36.8522 30.5611 36.8522 31.4659 36.8409C31.6537 42.6077 32.1227 42.6078 32.4669 42.6078C32.8121 42.6078 33.2827 42.6082 33.4693 36.7964C39.2812 36.61 39.2808 36.1393 39.2808 35.794C39.2808 35.4499 39.2805 34.981 33.5137 34.7931ZM31.4195 34.7466C30.5439 34.7362 29.6103 34.7362 28.7352 34.7466C28.7405 34.309 28.7432 33.8616 28.7433 33.4045C28.7433 32.9481 28.7406 32.5007 28.7352 32.0623C29.6103 32.0727 30.5439 32.0727 31.4195 32.0623C31.4142 32.5001 31.4115 32.9475 31.4114 33.4045C31.4114 33.8609 31.4141 34.3083 31.4195 34.7466Z" fill="#040000"/>
<path d="M33.5137 34.7931C33.5195 34.3407 33.5224 33.877 33.5224 33.4045C33.5224 32.932 33.5195 32.4683 33.5137 32.0158C39.2805 31.828 39.2808 31.3592 39.2808 31.0149C39.2808 30.6695 39.2812 30.1988 33.4693 30.0127C33.2827 24.2008 32.8121 24.2012 32.4669 24.2012C32.1227 24.2012 31.6537 24.2014 31.4659 29.9681C30.5609 29.9569 29.5933 29.9569 28.6887 29.9681C28.5009 24.2014 28.032 24.2012 27.6877 24.2012C27.3423 24.2012 26.8717 24.2008 26.6856 30.0127C20.8736 30.1988 20.8741 30.6695 20.8741 31.0149C20.8741 31.3592 20.8743 31.828 26.6409 32.0158C26.6354 32.4683 26.6324 32.932 26.6324 33.4045C26.6324 33.877 26.6354 34.3407 26.6409 34.7931C20.8743 34.981 20.8741 35.4499 20.8741 35.794C20.8741 36.1394 20.8736 36.61 26.6856 36.7964C26.8717 42.6082 27.3423 42.6078 27.6877 42.6078C28.032 42.6078 28.5009 42.6077 28.6887 36.8409C29.5933 36.8522 30.5611 36.8522 31.4659 36.8409C31.6537 42.6077 32.1227 42.6078 32.4669 42.6078C32.8121 42.6078 33.2827 42.6082 33.4693 36.7964C39.2812 36.61 39.2808 36.1393 39.2808 35.794C39.2808 35.4499 39.2805 34.981 33.5137 34.7931ZM31.4195 34.7466C30.5439 34.7362 29.6103 34.7362 28.7352 34.7466C28.7405 34.309 28.7432 33.8616 28.7433 33.4045C28.7433 32.9481 28.7406 32.5007 28.7352 32.0623C29.6103 32.0727 30.5439 32.0727 31.4195 32.0623C31.4142 32.5001 31.4115 32.9475 31.4114 33.4045C31.4114 33.8609 31.4141 34.3083 31.4195 34.7466Z" fill="#601824"/>
<path style="mix-blend-mode:screen" opacity="0.51" d="M33.1554 35.1357C33.1642 34.5757 33.1689 33.9971 33.1689 33.4045C33.1689 32.8119 33.1642 32.2333 33.1554 31.6733C36.5254 31.5741 38.9272 31.3168 38.9272 31.015C38.9272 30.7122 36.5116 30.4543 33.1261 30.3557C33.0276 26.9702 32.7696 24.5546 32.4669 24.5546C32.165 24.5546 31.9077 26.9564 31.8086 30.3264C31.2485 30.3176 30.6699 30.3129 30.0773 30.3129C29.4847 30.3129 28.9061 30.3176 28.3462 30.3264C28.247 26.9564 27.9897 24.5546 27.6878 24.5546C27.3851 24.5546 27.1271 26.9702 27.0286 30.3557C23.6431 30.4543 21.2275 30.7122 21.2275 31.015C21.2275 31.3168 23.6293 31.5741 26.9993 31.6733C26.9905 32.2333 26.9858 32.8119 26.9858 33.4045C26.9858 33.9971 26.9905 34.5757 26.9993 35.1357C23.6293 35.2349 21.2275 35.4922 21.2275 35.794C21.2275 36.0967 23.6431 36.3547 27.0286 36.4533C27.1271 39.8388 27.3851 42.2543 27.6878 42.2543C27.9897 42.2543 28.247 39.8525 28.3462 36.4825C28.9061 36.4913 29.4847 36.496 30.0773 36.496C30.6699 36.496 31.2485 36.4913 31.8086 36.4825C31.9077 39.8525 32.165 42.2543 32.4669 42.2543C32.7696 42.2543 33.0276 39.8388 33.1261 36.4533C36.5116 36.3547 38.9272 36.0967 38.9272 35.794C38.9272 35.4922 36.5254 35.2349 33.1554 35.1357ZM30.0774 35.092C29.4955 35.092 28.9273 35.0966 28.3768 35.1051C28.3853 34.5546 28.3899 33.9864 28.3899 33.4045C28.3899 32.8226 28.3853 32.2544 28.3768 31.7039C28.9273 31.7124 29.4955 31.717 30.0774 31.717C30.6592 31.717 31.2274 31.7124 31.778 31.7039C31.7694 32.2544 31.7649 32.8226 31.7649 33.4045C31.7649 33.9864 31.7694 34.5546 31.778 35.1051C31.2274 35.0966 30.6592 35.092 30.0774 35.092Z" fill="url(#paint3_radial_138_1232)"/>
<defs>
<filter id="filter0_f_138_1232" x="27" y="68" width="46" height="22" filterUnits="userSpaceOnUse" color-interpolation-filters="sRGB">
<feFlood flood-opacity="0" result="BackgroundImageFix"/>
<feBlend mode="normal" in="SourceGraphic" in2="BackgroundImageFix" result="shape"/>
<feGaussianBlur stdDeviation="3.5" result="effect1_foregroundBlur_138_1232"/>
</filter>
<linearGradient id="paint0_linear_138_1232" x1="59.6985" y1="12.3475" x2="48.0974" y2="66.847" gradientUnits="userSpaceOnUse">
<stop stop-color="#ECC9CF"/>
<stop offset="0.667346" stop-color="#ECC9CF" stop-opacity="0"/>
</linearGradient>
<radialGradient id="paint1_radial_138_1232" cx="0" cy="0" r="1" gradientUnits="userSpaceOnUse" gradientTransform="translate(36.6961 54.0796) rotate(-147.038) scale(7.19712 7.41814)">
<stop stop-color="#454554"/>
<stop offset="0.95503" stop-color="#212123"/>
</radialGradient>
<radialGradient id="paint2_radial_138_1232" cx="0" cy="0" r="1" gradientUnits="userSpaceOnUse" gradientTransform="translate(63.6961 54.0796) rotate(-147.038) scale(7.19712 7.41814)">
<stop stop-color="#454554"/>
<stop offset="0.95503" stop-color="#212123"/>
</radialGradient>
<radialGradient id="paint3_radial_138_1232" cx="0" cy="0" r="1" gradientUnits="userSpaceOnUse" gradientTransform="translate(27.9355 22.9075) scale(15.6479)">
<stop stop-color="#CD6173"/>
<stop offset="1" stop-color="#CD6173" stop-opacity="0"/>
</radialGradient>
</defs>
</svg>
